<svg width="643" height="704" viewBox="0 0 643 704" fill="none" xmlns="http://www.w3.org/2000/svg">
<path d="M358.714 234.615L359.663 239.925L364.754 238.141L574.648 164.567L402.211 298.12L397.523 301.751L402.211 305.382L574.648 438.934L364.754 365.361L359.663 363.577L358.714 368.887L321.446 577.4L284.179 368.887L283.229 363.577L278.14 365.361L68.2441 438.934L240.683 305.382L245.37 301.751L240.683 298.12L68.2441 164.567L278.14 238.141L283.229 239.925L284.179 234.615L321.446 26.1006L358.714 234.615Z" fill="#0073FF" stroke="white" stroke-width="9.18419"/>
<mask id="path-2-outside-1_119_2466" maskUnits="userSpaceOnUse" x="250" y="659" width="140" height="45" fill="black">
<rect fill="white" x="250" y="659" width="140" height="45"/>
<path d="M263.464 701.342C261.325 701.342 259.535 701.068 258.092 700.521C256.65 699.986 255.493 699.277 254.623 698.394C253.752 697.524 253.093 696.591 252.645 695.596L256.6 693.134C256.898 693.656 257.284 694.253 257.756 694.925C258.229 695.609 258.944 696.199 259.902 696.697C260.872 697.207 262.233 697.462 263.987 697.462C266.287 697.462 268.302 696.902 270.031 695.783C271.759 694.663 272.829 692.91 273.239 690.522L274.134 684.702H273.761C273.363 685.225 272.81 685.871 272.101 686.642C271.392 687.401 270.441 688.079 269.247 688.676C268.053 689.26 266.524 689.552 264.658 689.552C262.333 689.552 260.343 689.005 258.689 687.911C257.035 686.816 255.847 685.225 255.126 683.135C254.417 681.046 254.312 678.509 254.809 675.525C255.294 672.59 256.227 670.034 257.607 667.858C259 665.669 260.716 663.978 262.756 662.784C264.795 661.578 267.021 660.975 269.434 660.975C271.299 660.975 272.729 661.286 273.724 661.907C274.731 662.517 275.465 663.213 275.925 663.997C276.385 664.768 276.734 665.402 276.97 665.899H277.417L278.164 661.348H282.417L277.567 690.821C277.156 693.283 276.267 695.285 274.899 696.827C273.531 698.382 271.852 699.52 269.863 700.241C267.873 700.975 265.74 701.342 263.464 701.342ZM265.777 685.598C267.531 685.598 269.092 685.194 270.46 684.385C271.84 683.577 272.984 682.414 273.892 680.897C274.8 679.38 275.428 677.564 275.776 675.45C276.124 673.386 276.099 671.564 275.701 669.984C275.303 668.405 274.551 667.168 273.444 666.272C272.35 665.377 270.914 664.929 269.135 664.929C267.257 664.929 265.634 665.402 264.267 666.347C262.911 667.292 261.81 668.561 260.965 670.152C260.119 671.744 259.535 673.51 259.211 675.45C258.888 677.44 258.9 679.199 259.249 680.729C259.597 682.246 260.306 683.44 261.375 684.311C262.457 685.169 263.925 685.598 265.777 685.598ZM294.057 690.672C292.241 690.672 290.649 690.33 289.281 689.646C287.913 688.949 286.9 687.948 286.241 686.642C285.582 685.324 285.401 683.732 285.7 681.867C285.986 680.225 286.539 678.895 287.36 677.875C288.181 676.843 289.176 676.034 290.345 675.45C291.526 674.853 292.794 674.412 294.15 674.126C295.518 673.827 296.88 673.597 298.235 673.435C300.001 673.212 301.437 673.037 302.544 672.913C303.651 672.789 304.484 672.584 305.044 672.298C305.603 672.011 305.945 671.52 306.07 670.824V670.675C306.368 668.847 306.126 667.423 305.342 666.403C304.559 665.371 303.16 664.855 301.145 664.855C299.056 664.855 297.309 665.315 295.903 666.235C294.498 667.155 293.46 668.138 292.788 669.182L288.908 667.69C289.928 665.949 291.147 664.593 292.564 663.623C293.982 662.641 295.468 661.957 297.023 661.572C298.577 661.174 300.076 660.975 301.518 660.975C302.438 660.975 303.477 661.087 304.633 661.31C305.79 661.522 306.872 661.963 307.879 662.635C308.899 663.306 309.664 664.32 310.174 665.675C310.696 667.031 310.771 668.847 310.397 671.122L307.264 690H302.861L303.533 686.12H303.309C302.911 686.742 302.302 687.407 301.481 688.116C300.673 688.825 299.647 689.428 298.403 689.925C297.172 690.423 295.723 690.672 294.057 690.672ZM295.325 686.717C297.066 686.717 298.59 686.375 299.895 685.691C301.214 685.007 302.271 684.124 303.067 683.042C303.875 681.96 304.378 680.822 304.577 679.628L305.249 675.599C305.025 675.823 304.584 676.028 303.925 676.215C303.265 676.389 302.519 676.544 301.686 676.681C300.865 676.806 300.063 676.917 299.28 677.017C298.509 677.104 297.887 677.179 297.414 677.241C296.245 677.39 295.132 677.633 294.075 677.968C293.031 678.292 292.148 678.783 291.427 679.442C290.718 680.089 290.276 680.972 290.102 682.091C289.841 683.62 290.208 684.777 291.203 685.56C292.198 686.331 293.572 686.717 295.325 686.717ZM315.299 690L320.074 661.348H324.327L323.581 665.825H323.954C324.812 664.295 325.975 663.107 327.442 662.262C328.922 661.404 330.595 660.975 332.46 660.975C334.326 660.975 335.824 661.404 336.956 662.262C338.088 663.107 338.877 664.295 339.325 665.825H339.623C340.593 664.332 341.887 663.151 343.503 662.28C345.132 661.41 346.973 660.975 349.025 660.975C351.562 660.975 353.514 661.777 354.882 663.381C356.263 664.985 356.673 667.466 356.113 670.824L352.905 690H348.503L351.711 670.824C352.047 668.697 351.711 667.186 350.704 666.291C349.709 665.383 348.428 664.929 346.861 664.929C344.846 664.929 343.186 665.532 341.88 666.739C340.575 667.945 339.773 669.481 339.474 671.346L336.34 690H331.863L335.146 670.376C335.408 668.735 335.097 667.416 334.214 666.422C333.331 665.427 332.05 664.929 330.371 664.929C329.227 664.929 328.108 665.24 327.013 665.862C325.919 666.471 324.98 667.317 324.197 668.399C323.413 669.468 322.91 670.7 322.686 672.092L319.701 690H315.299ZM372.892 690.597C370.144 690.597 367.875 689.988 366.084 688.769C364.293 687.538 363.043 685.822 362.334 683.62C361.626 681.407 361.514 678.833 361.999 675.898C362.484 672.963 363.447 670.376 364.89 668.138C366.333 665.887 368.13 664.133 370.281 662.877C372.432 661.609 374.795 660.975 377.369 660.975C378.862 660.975 380.298 661.223 381.678 661.721C383.059 662.218 384.253 663.027 385.26 664.146C386.267 665.253 386.97 666.72 387.368 668.548C387.766 670.376 387.741 672.627 387.293 675.301L386.995 677.166H364.909L365.506 673.361H383.115C383.401 671.744 383.326 670.302 382.891 669.033C382.468 667.765 381.728 666.764 380.671 666.03C379.626 665.296 378.302 664.929 376.698 664.929C375.044 664.929 373.502 665.377 372.072 666.272C370.642 667.155 369.448 668.275 368.49 669.63C367.533 670.973 366.936 672.341 366.699 673.734L366.177 677.017C365.804 679.392 365.86 681.282 366.345 682.688C366.842 684.093 367.707 685.106 368.938 685.728C370.169 686.338 371.711 686.642 373.564 686.642C374.745 686.642 375.834 686.481 376.828 686.157C377.823 685.822 378.712 685.324 379.496 684.665C380.279 683.993 380.938 683.16 381.473 682.165L385.502 683.359C384.818 684.802 383.855 686.07 382.611 687.165C381.38 688.247 379.937 689.092 378.283 689.702C376.642 690.298 374.845 690.597 372.892 690.597Z"/>
</mask>
<path d="M263.464 701.342C261.325 701.342 259.535 701.068 258.092 700.521C256.65 699.986 255.493 699.277 254.623 698.394C253.752 697.524 253.093 696.591 252.645 695.596L256.6 693.134C256.898 693.656 257.284 694.253 257.756 694.925C258.229 695.609 258.944 696.199 259.902 696.697C260.872 697.207 262.233 697.462 263.987 697.462C266.287 697.462 268.302 696.902 270.031 695.783C271.759 694.663 272.829 692.91 273.239 690.522L274.134 684.702H273.761C273.363 685.225 272.81 685.871 272.101 686.642C271.392 687.401 270.441 688.079 269.247 688.676C268.053 689.26 266.524 689.552 264.658 689.552C262.333 689.552 260.343 689.005 258.689 687.911C257.035 686.816 255.847 685.225 255.126 683.135C254.417 681.046 254.312 678.509 254.809 675.525C255.294 672.59 256.227 670.034 257.607 667.858C259 665.669 260.716 663.978 262.756 662.784C264.795 661.578 267.021 660.975 269.434 660.975C271.299 660.975 272.729 661.286 273.724 661.907C274.731 662.517 275.465 663.213 275.925 663.997C276.385 664.768 276.734 665.402 276.97 665.899H277.417L278.164 661.348H282.417L277.567 690.821C277.156 693.283 276.267 695.285 274.899 696.827C273.531 698.382 271.852 699.52 269.863 700.241C267.873 700.975 265.74 701.342 263.464 701.342ZM265.777 685.598C267.531 685.598 269.092 685.194 270.46 684.385C271.84 683.577 272.984 682.414 273.892 680.897C274.8 679.38 275.428 677.564 275.776 675.45C276.124 673.386 276.099 671.564 275.701 669.984C275.303 668.405 274.551 667.168 273.444 666.272C272.35 665.377 270.914 664.929 269.135 664.929C267.257 664.929 265.634 665.402 264.267 666.347C262.911 667.292 261.81 668.561 260.965 670.152C260.119 671.744 259.535 673.51 259.211 675.45C258.888 677.44 258.9 679.199 259.249 680.729C259.597 682.246 260.306 683.44 261.375 684.311C262.457 685.169 263.925 685.598 265.777 685.598ZM294.057 690.672C292.241 690.672 290.649 690.33 289.281 689.646C287.913 688.949 286.9 687.948 286.241 686.642C285.582 685.324 285.401 683.732 285.7 681.867C285.986 680.225 286.539 678.895 287.36 677.875C288.181 676.843 289.176 676.034 290.345 675.45C291.526 674.853 292.794 674.412 294.15 674.126C295.518 673.827 296.88 673.597 298.235 673.435C300.001 673.212 301.437 673.037 302.544 672.913C303.651 672.789 304.484 672.584 305.044 672.298C305.603 672.011 305.945 671.52 306.07 670.824V670.675C306.368 668.847 306.126 667.423 305.342 666.403C304.559 665.371 303.16 664.855 301.145 664.855C299.056 664.855 297.309 665.315 295.903 666.235C294.498 667.155 293.46 668.138 292.788 669.182L288.908 667.69C289.928 665.949 291.147 664.593 292.564 663.623C293.982 662.641 295.468 661.957 297.023 661.572C298.577 661.174 300.076 660.975 301.518 660.975C302.438 660.975 303.477 661.087 304.633 661.31C305.79 661.522 306.872 661.963 307.879 662.635C308.899 663.306 309.664 664.32 310.174 665.675C310.696 667.031 310.771 668.847 310.397 671.122L307.264 690H302.861L303.533 686.12H303.309C302.911 686.742 302.302 687.407 301.481 688.116C300.673 688.825 299.647 689.428 298.403 689.925C297.172 690.423 295.723 690.672 294.057 690.672ZM295.325 686.717C297.066 686.717 298.59 686.375 299.895 685.691C301.214 685.007 302.271 684.124 303.067 683.042C303.875 681.96 304.378 680.822 304.577 679.628L305.249 675.599C305.025 675.823 304.584 676.028 303.925 676.215C303.265 676.389 302.519 676.544 301.686 676.681C300.865 676.806 300.063 676.917 299.28 677.017C298.509 677.104 297.887 677.179 297.414 677.241C296.245 677.39 295.132 677.633 294.075 677.968C293.031 678.292 292.148 678.783 291.427 679.442C290.718 680.089 290.276 680.972 290.102 682.091C289.841 683.62 290.208 684.777 291.203 685.56C292.198 686.331 293.572 686.717 295.325 686.717ZM315.299 690L320.074 661.348H324.327L323.581 665.825H323.954C324.812 664.295 325.975 663.107 327.442 662.262C328.922 661.404 330.595 660.975 332.46 660.975C334.326 660.975 335.824 661.404 336.956 662.262C338.088 663.107 338.877 664.295 339.325 665.825H339.623C340.593 664.332 341.887 663.151 343.503 662.28C345.132 661.41 346.973 660.975 349.025 660.975C351.562 660.975 353.514 661.777 354.882 663.381C356.263 664.985 356.673 667.466 356.113 670.824L352.905 690H348.503L351.711 670.824C352.047 668.697 351.711 667.186 350.704 666.291C349.709 665.383 348.428 664.929 346.861 664.929C344.846 664.929 343.186 665.532 341.88 666.739C340.575 667.945 339.773 669.481 339.474 671.346L336.34 690H331.863L335.146 670.376C335.408 668.735 335.097 667.416 334.214 666.422C333.331 665.427 332.05 664.929 330.371 664.929C329.227 664.929 328.108 665.24 327.013 665.862C325.919 666.471 324.98 667.317 324.197 668.399C323.413 669.468 322.91 670.7 322.686 672.092L319.701 690H315.299ZM372.892 690.597C370.144 690.597 367.875 689.988 366.084 688.769C364.293 687.538 363.043 685.822 362.334 683.62C361.626 681.407 361.514 678.833 361.999 675.898C362.484 672.963 363.447 670.376 364.89 668.138C366.333 665.887 368.13 664.133 370.281 662.877C372.432 661.609 374.795 660.975 377.369 660.975C378.862 660.975 380.298 661.223 381.678 661.721C383.059 662.218 384.253 663.027 385.26 664.146C386.267 665.253 386.97 666.72 387.368 668.548C387.766 670.376 387.741 672.627 387.293 675.301L386.995 677.166H364.909L365.506 673.361H383.115C383.401 671.744 383.326 670.302 382.891 669.033C382.468 667.765 381.728 666.764 380.671 666.03C379.626 665.296 378.302 664.929 376.698 664.929C375.044 664.929 373.502 665.377 372.072 666.272C370.642 667.155 369.448 668.275 368.49 669.63C367.533 670.973 366.936 672.341 366.699 673.734L366.177 677.017C365.804 679.392 365.86 681.282 366.345 682.688C366.842 684.093 367.707 685.106 368.938 685.728C370.169 686.338 371.711 686.642 373.564 686.642C374.745 686.642 375.834 686.481 376.828 686.157C377.823 685.822 378.712 685.324 379.496 684.665C380.279 683.993 380.938 683.16 381.473 682.165L385.502 683.359C384.818 684.802 383.855 686.07 382.611 687.165C381.38 688.247 379.937 689.092 378.283 689.702C376.642 690.298 374.845 690.597 372.892 690.597Z" fill="#0073FF"/>
<path d="M258.092 700.521L258.744 698.802L258.731 698.797L258.092 700.521ZM254.623 698.394L255.932 697.103L255.923 697.094L254.623 698.394ZM252.645 695.596L251.673 694.035L250.309 694.885L250.969 696.351L252.645 695.596ZM256.6 693.134L258.196 692.222L257.249 690.564L255.628 691.573L256.6 693.134ZM257.756 694.925L259.269 693.88L259.264 693.873L259.26 693.867L257.756 694.925ZM259.902 696.697L260.757 695.069L260.749 695.065L259.902 696.697ZM270.031 695.783L271.03 697.326L270.031 695.783ZM273.239 690.522L275.051 690.834L275.054 690.818L275.056 690.802L273.239 690.522ZM274.134 684.702L275.952 684.982L276.277 682.864H274.134V684.702ZM273.761 684.702V682.864H272.851L272.299 683.588L273.761 684.702ZM272.101 686.642L273.444 687.898L273.45 687.892L273.455 687.887L272.101 686.642ZM269.247 688.676L270.056 690.327L270.062 690.323L270.069 690.32L269.247 688.676ZM258.689 687.911L257.675 689.444L258.689 687.911ZM255.126 683.135L253.385 683.726L253.388 683.735L255.126 683.135ZM254.809 675.525L256.623 675.827L256.623 675.824L254.809 675.525ZM257.607 667.858L256.056 666.871L256.055 666.873L257.607 667.858ZM262.756 662.784L263.684 664.371L263.692 664.367L262.756 662.784ZM273.724 661.907L272.75 663.466L272.761 663.473L272.772 663.48L273.724 661.907ZM275.925 663.997L274.34 664.928L274.346 664.939L275.925 663.997ZM276.97 665.899L275.309 666.688L275.808 667.738H276.97V665.899ZM277.417 665.899V667.738H278.979L279.232 666.197L277.417 665.899ZM278.164 661.348V659.509H276.602L276.349 661.05L278.164 661.348ZM282.417 661.348L284.231 661.646L284.583 659.509H282.417V661.348ZM277.567 690.821L279.38 691.123L279.381 691.119L277.567 690.821ZM274.899 696.827L273.524 695.607L273.519 695.613L274.899 696.827ZM269.863 700.241L269.236 698.512L269.227 698.516L269.863 700.241ZM270.46 684.385L269.531 682.799L269.524 682.802L270.46 684.385ZM273.892 680.897L275.47 681.841L273.892 680.897ZM275.776 675.45L273.963 675.144L273.962 675.151L275.776 675.45ZM275.701 669.984L273.919 670.434L275.701 669.984ZM273.444 666.272L272.28 667.695L272.288 667.702L273.444 666.272ZM264.267 666.347L263.221 664.834L263.215 664.839L264.267 666.347ZM260.965 670.152L262.588 671.015L260.965 670.152ZM259.211 675.45L257.398 675.148L257.397 675.155L259.211 675.45ZM259.249 680.729L257.456 681.137L257.457 681.14L259.249 680.729ZM261.375 684.311L260.215 685.736L260.224 685.744L260.233 685.751L261.375 684.311ZM263.464 701.342V699.503C261.468 699.503 259.915 699.246 258.744 698.802L258.092 700.521L257.44 702.24C259.154 702.89 261.183 703.18 263.464 703.18V701.342ZM258.092 700.521L258.731 698.797C257.482 698.334 256.573 697.754 255.932 697.103L254.623 698.394L253.313 699.685C254.413 700.8 255.817 701.638 257.453 702.245L258.092 700.521ZM254.623 698.394L255.923 697.094C255.189 696.361 254.667 695.609 254.322 694.842L252.645 695.596L250.969 696.351C251.519 697.573 252.314 698.686 253.322 699.694L254.623 698.394ZM252.645 695.596L253.617 697.157L257.572 694.695L256.6 693.134L255.628 691.573L251.673 694.035L252.645 695.596ZM256.6 693.134L255.004 694.046C255.339 694.633 255.758 695.28 256.253 695.983L257.756 694.925L259.26 693.867C258.809 693.226 258.458 692.68 258.196 692.222L256.6 693.134ZM257.756 694.925L256.244 695.97C256.93 696.963 257.907 697.732 259.054 698.328L259.902 696.697L260.749 695.065C259.981 694.666 259.528 694.254 259.269 693.88L257.756 694.925ZM259.902 696.697L259.046 698.324C260.392 699.032 262.095 699.3 263.987 699.3V697.462V695.623C262.371 695.623 261.351 695.381 260.757 695.069L259.902 696.697ZM263.987 697.462V699.3C266.599 699.3 268.969 698.66 271.03 697.326L270.031 695.783L269.031 694.239C267.635 695.144 265.976 695.623 263.987 695.623V697.462ZM270.031 695.783L271.03 697.326C273.266 695.878 274.57 693.63 275.051 690.834L273.239 690.522L271.427 690.211C271.087 692.19 270.252 693.449 269.031 694.239L270.031 695.783ZM273.239 690.522L275.056 690.802L275.952 684.982L274.134 684.702L272.317 684.423L271.422 690.243L273.239 690.522ZM274.134 684.702V682.864H273.761V684.702V686.541H274.134V684.702ZM273.761 684.702L272.299 683.588C271.949 684.047 271.438 684.647 270.748 685.398L272.101 686.642L273.455 687.887C274.182 687.095 274.778 686.402 275.224 685.817L273.761 684.702ZM272.101 686.642L270.758 685.387C270.234 685.948 269.476 686.505 268.425 687.031L269.247 688.676L270.069 690.32C271.405 689.652 272.551 688.854 273.444 687.898L272.101 686.642ZM269.247 688.676L268.439 687.024C267.577 687.446 266.349 687.714 264.658 687.714V689.552V691.391C266.698 691.391 268.53 691.074 270.056 690.327L269.247 688.676ZM264.658 689.552V687.714C262.63 687.714 261.008 687.24 259.704 686.377L258.689 687.911L257.675 689.444C259.678 690.77 262.036 691.391 264.658 691.391V689.552ZM258.689 687.911L259.704 686.377C258.425 685.532 257.469 684.289 256.864 682.535L255.126 683.135L253.388 683.735C254.226 686.161 255.645 688.101 257.675 689.444L258.689 687.911ZM255.126 683.135L256.867 682.545C256.285 680.829 256.157 678.618 256.623 675.827L254.809 675.525L252.996 675.222C252.466 678.4 252.549 681.263 253.385 683.726L255.126 683.135ZM254.809 675.525L256.623 675.824C257.074 673.096 257.93 670.781 259.16 668.843L257.607 667.858L256.055 666.873C254.523 669.288 253.514 672.084 252.995 675.225L254.809 675.525ZM257.607 667.858L259.158 668.845C260.41 666.878 261.921 665.403 263.684 664.371L262.756 662.784L261.827 661.197C259.511 662.553 257.59 664.46 256.056 666.871L257.607 667.858ZM262.756 662.784L263.692 664.367C265.442 663.331 267.344 662.813 269.434 662.813V660.975V659.136C266.698 659.136 264.148 659.825 261.82 661.202L262.756 662.784ZM269.434 660.975V662.813C271.14 662.813 272.172 663.105 272.75 663.466L273.724 661.907L274.698 660.348C273.286 659.466 271.458 659.136 269.434 659.136V660.975ZM273.724 661.907L272.772 663.48C273.593 663.977 274.073 664.474 274.34 664.928L275.925 663.997L277.511 663.065C276.857 661.952 275.869 661.056 274.676 660.334L273.724 661.907ZM275.925 663.997L274.346 664.939C274.793 665.687 275.108 666.265 275.309 666.688L276.97 665.899L278.63 665.11C278.359 664.538 277.978 663.848 277.504 663.054L275.925 663.997ZM276.97 665.899V667.738H277.417V665.899V664.061H276.97V665.899ZM277.417 665.899L279.232 666.197L279.978 661.645L278.164 661.348L276.349 661.05L275.603 665.602L277.417 665.899ZM278.164 661.348V663.186H282.417V661.348V659.509H278.164V661.348ZM282.417 661.348L280.603 661.049L275.753 690.522L277.567 690.821L279.381 691.119L284.231 661.646L282.417 661.348ZM277.567 690.821L275.753 690.519C275.388 692.712 274.618 694.374 273.524 695.607L274.899 696.827L276.275 698.047C277.916 696.197 278.925 693.854 279.38 691.123L277.567 690.821ZM274.899 696.827L273.519 695.613C272.36 696.93 270.942 697.894 269.236 698.512L269.863 700.241L270.489 701.969C272.763 701.145 274.703 699.834 276.279 698.042L274.899 696.827ZM269.863 700.241L269.227 698.516C267.455 699.169 265.539 699.503 263.464 699.503V701.342V703.18C265.941 703.18 268.291 702.78 270.499 701.966L269.863 700.241ZM265.777 685.598V687.436C267.825 687.436 269.715 686.961 271.395 685.968L270.46 684.385L269.524 682.802C268.468 683.426 267.237 683.759 265.777 683.759V685.598ZM270.46 684.385L271.389 685.972C273.063 684.991 274.42 683.595 275.47 681.841L273.892 680.897L272.314 679.953C271.548 681.233 270.617 682.163 269.531 682.799L270.46 684.385ZM273.892 680.897L275.47 681.841C276.518 680.088 277.212 678.044 277.59 675.749L275.776 675.45L273.962 675.151C273.643 677.084 273.081 678.671 272.314 679.953L273.892 680.897ZM275.776 675.45L277.589 675.756C277.968 673.509 277.959 671.421 277.484 669.535L275.701 669.984L273.919 670.434C274.239 671.706 274.281 673.262 273.963 675.144L275.776 675.45ZM275.701 669.984L277.484 669.535C277.004 667.628 276.06 666.024 274.601 664.843L273.444 666.272L272.288 667.702C273.042 668.312 273.603 669.182 273.919 670.434L275.701 669.984ZM273.444 666.272L274.608 664.849C273.108 663.622 271.226 663.091 269.135 663.091V664.929V666.768C270.601 666.768 271.591 667.132 272.28 667.695L273.444 666.272ZM269.135 664.929V663.091C266.934 663.091 264.935 663.65 263.221 664.834L264.267 666.347L265.312 667.86C266.334 667.153 267.581 666.768 269.135 666.768V664.929ZM264.267 666.347L263.215 664.839C261.599 665.966 260.311 667.464 259.341 669.29L260.965 670.152L262.588 671.015C263.31 669.657 264.223 668.619 265.318 667.855L264.267 666.347ZM260.965 670.152L259.341 669.29C258.394 671.072 257.751 673.03 257.398 675.148L259.211 675.45L261.025 675.752C261.319 673.99 261.844 672.416 262.588 671.015L260.965 670.152ZM259.211 675.45L257.397 675.155C257.046 677.315 257.043 679.321 257.456 681.137L259.249 680.729L261.041 680.321C260.758 679.078 260.73 677.565 261.026 675.745L259.211 675.45ZM259.249 680.729L257.457 681.14C257.884 683.002 258.787 684.574 260.215 685.736L261.375 684.311L262.536 682.885C261.824 682.306 261.31 681.49 261.041 680.318L259.249 680.729ZM261.375 684.311L260.233 685.751C261.735 686.943 263.651 687.436 265.777 687.436V685.598V683.759C264.198 683.759 263.179 683.394 262.518 682.87L261.375 684.311ZM289.281 689.646L288.447 691.284L288.459 691.29L289.281 689.646ZM286.241 686.642L284.596 687.465L284.599 687.471L286.241 686.642ZM285.7 681.867L283.889 681.551L283.886 681.564L283.884 681.576L285.7 681.867ZM287.36 677.875L288.792 679.028L288.799 679.019L287.36 677.875ZM290.345 675.45L291.167 677.094L291.174 677.091L290.345 675.45ZM294.15 674.126L294.53 675.925L294.542 675.922L294.15 674.126ZM298.235 673.435L298.453 675.261L298.466 675.259L298.235 673.435ZM302.544 672.913L302.749 674.74L302.749 674.74L302.544 672.913ZM305.044 672.298L305.881 673.935L305.044 672.298ZM306.07 670.824L307.88 671.147L307.908 670.987V670.824H306.07ZM306.07 670.675L304.255 670.378L304.231 670.526V670.675H306.07ZM305.342 666.403L303.878 667.514L303.884 667.523L305.342 666.403ZM295.903 666.235L296.911 667.773L295.903 666.235ZM292.788 669.182L292.128 670.898L293.525 671.436L294.335 670.177L292.788 669.182ZM288.908 667.69L287.322 666.761L286.228 668.629L288.248 669.406L288.908 667.69ZM292.564 663.623L293.603 665.141L293.612 665.135L292.564 663.623ZM297.023 661.572L297.465 663.356L297.479 663.353L297.023 661.572ZM304.633 661.31L304.284 663.115L304.293 663.117L304.303 663.119L304.633 661.31ZM307.879 662.635L306.859 664.165L306.868 664.17L307.879 662.635ZM310.174 665.675L308.453 666.323L308.455 666.33L308.458 666.336L310.174 665.675ZM310.397 671.122L312.211 671.423L312.212 671.42L310.397 671.122ZM307.264 690V691.839H308.822L309.077 690.301L307.264 690ZM302.861 690L301.05 689.686L300.677 691.839H302.861V690ZM303.533 686.12L305.344 686.434L305.717 684.281H303.533V686.12ZM303.309 686.12V684.281H302.303L301.76 685.129L303.309 686.12ZM301.481 688.116L300.279 686.724L300.269 686.734L301.481 688.116ZM298.403 689.925L297.72 688.218L297.714 688.221L298.403 689.925ZM299.895 685.691L299.049 684.059L299.042 684.062L299.895 685.691ZM303.067 683.042L301.594 681.942L301.586 681.953L303.067 683.042ZM304.577 679.628L302.764 679.326L304.577 679.628ZM305.249 675.599L307.063 675.901L308.006 670.242L303.949 674.299L305.249 675.599ZM303.925 676.215L304.394 677.992L304.41 677.988L304.425 677.984L303.925 676.215ZM301.686 676.681L301.962 678.499L301.973 678.497L301.984 678.495L301.686 676.681ZM299.28 677.017L299.486 678.844L299.499 678.842L299.511 678.841L299.28 677.017ZM297.414 677.241L297.647 679.065L297.654 679.064L297.414 677.241ZM294.075 677.968L294.619 679.725L294.632 679.721L294.075 677.968ZM291.427 679.442L292.666 680.8L292.667 680.799L291.427 679.442ZM290.102 682.091L291.914 682.4L291.917 682.387L291.919 682.373L290.102 682.091ZM291.203 685.56L290.065 687.005L290.071 687.009L290.076 687.014L291.203 685.56ZM294.057 690.672V688.833C292.473 688.833 291.173 688.536 290.104 688.001L289.281 689.646L288.459 691.29C290.126 692.123 292.009 692.51 294.057 692.51V690.672ZM289.281 689.646L290.115 688.007C289.077 687.479 288.356 686.753 287.882 685.814L286.241 686.642L284.599 687.471C285.444 689.143 286.749 690.42 288.447 691.284L289.281 689.646ZM286.241 686.642L287.885 685.82C287.441 684.932 287.26 683.75 287.515 682.157L285.7 681.867L283.884 681.576C283.542 683.714 283.722 685.717 284.596 687.465L286.241 686.642ZM285.7 681.867L287.511 682.183C287.758 680.766 288.213 679.748 288.792 679.028L287.36 677.875L285.928 676.722C284.866 678.042 284.214 679.685 283.889 681.551L285.7 681.867ZM287.36 677.875L288.799 679.019C289.455 678.195 290.24 677.558 291.167 677.094L290.345 675.45L289.522 673.806C288.112 674.511 286.907 675.491 285.921 676.731L287.36 677.875ZM290.345 675.45L291.174 677.091C292.206 676.569 293.323 676.179 294.53 675.924L294.15 674.126L293.77 672.327C292.266 672.644 290.846 673.137 289.515 673.809L290.345 675.45ZM294.15 674.126L294.542 675.922C295.854 675.636 297.157 675.415 298.453 675.261L298.235 673.435L298.017 671.61C296.602 671.779 295.182 672.019 293.758 672.329L294.15 674.126ZM298.235 673.435L298.466 675.259C300.228 675.036 301.655 674.863 302.749 674.74L302.544 672.913L302.339 671.086C301.22 671.212 299.774 671.387 298.004 671.611L298.235 673.435ZM302.544 672.913L302.749 674.74C303.933 674.607 305.027 674.371 305.881 673.935L305.044 672.298L304.207 670.66C303.942 670.796 303.369 670.97 302.339 671.086L302.544 672.913ZM305.044 672.298L305.881 673.935C307.022 673.351 307.669 672.328 307.88 671.147L306.07 670.824L304.26 670.501C304.236 670.635 304.205 670.672 304.211 670.664C304.213 670.661 304.218 670.656 304.222 670.652C304.227 670.648 304.224 670.652 304.207 670.66L305.044 672.298ZM306.07 670.824H307.908V670.675H306.07H304.231V670.824H306.07ZM306.07 670.675L307.884 670.971C308.228 668.865 308.008 666.855 306.8 665.283L305.342 666.403L303.884 667.523C304.243 667.99 304.508 668.828 304.255 670.378L306.07 670.675ZM305.342 666.403L306.807 665.291C305.518 663.593 303.41 663.016 301.145 663.016V664.855V666.693C302.91 666.693 303.6 667.149 303.878 667.514L305.342 666.403ZM301.145 664.855V663.016C298.785 663.016 296.666 663.538 294.896 664.697L295.903 666.235L296.911 667.773C297.951 667.092 299.326 666.693 301.145 666.693V664.855ZM295.903 666.235L294.896 664.697C293.347 665.712 292.093 666.864 291.242 668.188L292.788 669.182L294.335 670.177C294.827 669.411 295.649 668.599 296.911 667.773L295.903 666.235ZM292.788 669.182L293.448 667.466L289.568 665.974L288.908 667.69L288.248 669.406L292.128 670.898L292.788 669.182ZM288.908 667.69L290.495 668.619C291.401 667.072 292.445 665.933 293.603 665.141L292.564 663.623L291.526 662.106C289.849 663.254 288.455 664.826 287.322 666.761L288.908 667.69ZM292.564 663.623L293.612 665.135C294.86 664.269 296.143 663.684 297.465 663.356L297.023 661.572L296.58 659.787C294.793 660.23 293.104 661.013 291.517 662.112L292.564 663.623ZM297.023 661.572L297.479 663.353C298.901 662.989 300.246 662.813 301.518 662.813V660.975V659.136C299.906 659.136 298.254 659.359 296.567 659.79L297.023 661.572ZM301.518 660.975V662.813C302.294 662.813 303.212 662.908 304.284 663.115L304.633 661.31L304.983 659.505C303.741 659.265 302.583 659.136 301.518 659.136V660.975ZM304.633 661.31L304.303 663.119C305.206 663.284 306.054 663.628 306.859 664.165L307.879 662.635L308.899 661.105C307.69 660.299 306.374 659.76 304.964 659.502L304.633 661.31ZM307.879 662.635L306.868 664.17C307.506 664.591 308.054 665.261 308.453 666.323L310.174 665.675L311.894 665.028C311.274 663.379 310.292 662.022 308.89 661.099L307.879 662.635ZM310.174 665.675L308.458 666.336C308.813 667.258 308.932 668.7 308.583 670.825L310.397 671.122L312.212 671.42C312.61 668.993 312.579 666.804 311.889 665.014L310.174 665.675ZM310.397 671.122L308.584 670.821L305.45 689.699L307.264 690L309.077 690.301L312.211 671.423L310.397 671.122ZM307.264 690V688.161H302.861V690V691.839H307.264V690ZM302.861 690L304.673 690.314L305.344 686.434L303.533 686.12L301.721 685.806L301.05 689.686L302.861 690ZM303.533 686.12V684.281H303.309V686.12V687.959H303.533V686.12ZM303.309 686.12L301.76 685.129C301.492 685.549 301.022 686.083 300.279 686.725L301.481 688.116L302.683 689.507C303.581 688.732 304.331 687.935 304.858 687.111L303.309 686.12ZM301.481 688.116L300.269 686.734C299.65 687.276 298.816 687.78 297.72 688.218L298.403 689.925L299.086 691.632C300.477 691.076 301.695 690.374 302.693 689.498L301.481 688.116ZM298.403 689.925L297.714 688.221C296.75 688.61 295.545 688.833 294.057 688.833V690.672V692.51C295.901 692.51 297.594 692.235 299.092 691.63L298.403 689.925ZM295.325 686.717V688.555C297.31 688.555 299.136 688.164 300.748 687.32L299.895 685.691L299.042 684.062C298.044 684.586 296.823 684.878 295.325 684.878V686.717ZM299.895 685.691L300.742 687.323C302.284 686.523 303.568 685.464 304.547 684.132L303.067 683.042L301.586 681.953C300.974 682.784 300.143 683.491 299.049 684.059L299.895 685.691ZM303.067 683.042L304.539 684.143C305.503 682.853 306.138 681.446 306.391 679.931L304.577 679.628L302.764 679.326C302.619 680.198 302.247 681.067 301.594 681.942L303.067 683.042ZM304.577 679.628L306.391 679.931L307.063 675.901L305.249 675.599L303.436 675.297L302.764 679.326L304.577 679.628ZM305.249 675.599L303.949 674.299C304.005 674.243 304.043 674.219 304.044 674.219C304.046 674.217 304.026 674.23 303.975 674.254C303.87 674.302 303.694 674.369 303.424 674.446L303.925 676.215L304.425 677.984C305.111 677.79 305.964 677.485 306.549 676.899L305.249 675.599ZM303.925 676.215L303.455 674.437C302.864 674.593 302.177 674.737 301.388 674.867L301.686 676.681L301.984 678.495C302.862 678.351 303.667 678.184 304.394 677.992L303.925 676.215ZM301.686 676.681L301.411 674.863C300.604 674.986 299.816 675.096 299.048 675.193L299.28 677.017L299.511 678.841C300.31 678.739 301.127 678.625 301.962 678.499L301.686 676.681ZM299.28 677.017L299.074 675.19C298.297 675.278 297.663 675.354 297.175 675.418L297.414 677.241L297.654 679.064C298.111 679.004 298.72 678.93 299.486 678.844L299.28 677.017ZM297.414 677.241L297.182 675.417C295.91 675.579 294.688 675.845 293.519 676.216L294.075 677.968L294.632 679.721C295.577 679.42 296.581 679.201 297.647 679.064L297.414 677.241ZM294.075 677.968L293.532 676.212C292.259 676.606 291.13 677.222 290.186 678.085L291.427 679.442L292.667 680.799C293.165 680.343 293.802 679.977 294.619 679.725L294.075 677.968ZM291.427 679.442L290.187 678.084C289.116 679.062 288.512 680.353 288.285 681.808L290.102 682.091L291.919 682.373C292.041 681.59 292.32 681.116 292.666 680.8L291.427 679.442ZM290.102 682.091L288.29 681.781C287.946 683.798 288.413 685.704 290.065 687.005L291.203 685.56L292.34 684.116C292.002 683.85 291.736 683.443 291.914 682.4L290.102 682.091ZM291.203 685.56L290.076 687.014C291.499 688.116 293.321 688.555 295.325 688.555V686.717V684.878C293.822 684.878 292.896 684.547 292.329 684.107L291.203 685.56ZM315.299 690L313.485 689.698L313.128 691.839H315.299V690ZM320.074 661.348V659.509H318.517L318.261 661.045L320.074 661.348ZM324.327 661.348L326.141 661.65L326.497 659.509H324.327V661.348ZM323.581 665.825L321.768 665.522L321.411 667.663H323.581V665.825ZM323.954 665.825V667.663H325.031L325.558 666.724L323.954 665.825ZM327.442 662.262L328.36 663.855L328.365 663.852L327.442 662.262ZM336.956 662.262L335.845 663.727L335.855 663.735L336.956 662.262ZM339.325 665.825L337.56 666.341L337.947 667.663H339.325V665.825ZM339.623 665.825V667.663H340.621L341.165 666.827L339.623 665.825ZM343.503 662.28L342.637 660.659L342.632 660.662L343.503 662.28ZM354.882 663.381L353.483 664.574L353.489 664.58L354.882 663.381ZM356.113 670.824L357.927 671.127L357.927 671.126L356.113 670.824ZM352.905 690V691.839H354.461L354.718 690.303L352.905 690ZM348.503 690L346.689 689.697L346.331 691.839H348.503V690ZM351.711 670.824L353.524 671.127L353.526 671.119L353.527 671.111L351.711 670.824ZM350.704 666.291L349.464 667.649L349.473 667.657L349.482 667.665L350.704 666.291ZM339.474 671.346L341.287 671.651L341.288 671.644L341.29 671.637L339.474 671.346ZM336.34 690V691.839H337.896L338.153 690.305L336.34 690ZM331.863 690L330.05 689.697L329.692 691.839H331.863V690ZM335.146 670.376L336.96 670.68L336.961 670.672L336.962 670.665L335.146 670.376ZM334.214 666.422L335.589 665.201L334.214 666.422ZM327.013 665.862L327.908 667.468L327.915 667.464L327.922 667.46L327.013 665.862ZM324.197 668.399L325.68 669.485L325.686 669.477L324.197 668.399ZM322.686 672.092L324.499 672.395L324.501 672.384L322.686 672.092ZM319.701 690V691.839H321.259L321.515 690.302L319.701 690ZM315.299 690L317.112 690.302L321.888 661.65L320.074 661.348L318.261 661.045L313.485 689.698L315.299 690ZM320.074 661.348V663.186H324.327V661.348V659.509H320.074V661.348ZM324.327 661.348L322.514 661.045L321.768 665.522L323.581 665.825L325.395 666.127L326.141 661.65L324.327 661.348ZM323.581 665.825V667.663H323.954V665.825V663.986H323.581V665.825ZM323.954 665.825L325.558 666.724C326.26 665.472 327.19 664.529 328.36 663.855L327.442 662.262L326.524 660.669C324.76 661.686 323.365 663.118 322.351 664.925L323.954 665.825ZM327.442 662.262L328.365 663.852C329.539 663.171 330.889 662.813 332.46 662.813V660.975V659.136C330.301 659.136 328.305 659.636 326.52 660.671L327.442 662.262ZM332.46 660.975V662.813C334.05 662.813 335.12 663.177 335.845 663.727L336.956 662.262L338.067 660.797C336.528 659.63 334.601 659.136 332.46 659.136V660.975ZM336.956 662.262L335.855 663.735C336.628 664.312 337.21 665.142 337.56 666.341L339.325 665.825L341.089 665.308C340.545 663.448 339.547 661.903 338.056 660.789L336.956 662.262ZM339.325 665.825V667.663H339.623V665.825V663.986H339.325V665.825ZM339.623 665.825L341.165 666.827C341.961 665.601 343.021 664.628 344.375 663.899L343.503 662.28L342.632 660.662C340.753 661.674 339.225 663.063 338.082 664.823L339.623 665.825ZM343.503 662.28L344.37 663.902C345.704 663.189 347.241 662.813 349.025 662.813V660.975V659.136C346.705 659.136 344.561 659.631 342.637 660.659L343.503 662.28ZM349.025 660.975V662.813C351.144 662.813 352.536 663.463 353.483 664.574L354.882 663.381L356.281 662.188C354.493 660.091 351.98 659.136 349.025 659.136V660.975ZM354.882 663.381L353.489 664.58C354.344 665.574 354.824 667.378 354.3 670.522L356.113 670.824L357.927 671.126C358.522 667.554 358.181 664.396 356.276 662.182L354.882 663.381ZM356.113 670.824L354.3 670.52L351.092 689.697L352.905 690L354.718 690.303L357.927 671.127L356.113 670.824ZM352.905 690V688.161H348.503V690V691.839H352.905V690ZM348.503 690L350.316 690.303L353.524 671.127L351.711 670.824L349.898 670.52L346.689 689.697L348.503 690ZM351.711 670.824L353.527 671.111C353.9 668.749 353.631 666.433 351.925 664.917L350.704 666.291L349.482 667.665C349.791 667.939 350.194 668.646 349.895 670.537L351.711 670.824ZM350.704 666.291L351.943 664.933C350.555 663.666 348.807 663.091 346.861 663.091V664.929V666.768C348.049 666.768 348.863 667.1 349.464 667.649L350.704 666.291ZM346.861 664.929V663.091C344.45 663.091 342.324 663.826 340.633 665.388L341.88 666.739L343.128 668.089C344.048 667.239 345.243 666.768 346.861 666.768V664.929ZM341.88 666.739L340.633 665.388C339.005 666.892 338.018 668.811 337.659 671.056L339.474 671.346L341.29 671.637C341.527 670.151 342.145 668.997 343.128 668.089L341.88 666.739ZM339.474 671.346L337.661 671.042L334.527 689.695L336.34 690L338.153 690.305L341.287 671.651L339.474 671.346ZM336.34 690V688.161H331.863V690V691.839H336.34V690ZM331.863 690L333.677 690.303L336.96 670.68L335.146 670.376L333.333 670.073L330.05 689.697L331.863 690ZM335.146 670.376L336.962 670.665C337.286 668.628 336.926 666.708 335.589 665.201L334.214 666.422L332.839 667.642C333.267 668.125 333.529 668.841 333.331 670.087L335.146 670.376ZM334.214 666.422L335.589 665.201C334.27 663.715 332.428 663.091 330.371 663.091V664.929V666.768C331.672 666.768 332.392 667.139 332.839 667.642L334.214 666.422ZM330.371 664.929V663.091C328.877 663.091 327.448 663.5 326.105 664.263L327.013 665.862L327.922 667.46C328.768 666.98 329.577 666.768 330.371 666.768V664.929ZM327.013 665.862L326.119 664.256C324.775 665.004 323.638 666.036 322.708 667.321L324.197 668.399L325.686 669.477C326.323 668.598 327.063 667.939 327.908 667.468L327.013 665.862ZM324.197 668.399L322.713 667.312C321.747 668.632 321.137 670.139 320.87 671.801L322.686 672.092L324.501 672.384C324.682 671.26 325.079 670.305 325.68 669.485L324.197 668.399ZM322.686 672.092L320.872 671.79L317.888 689.698L319.701 690L321.515 690.302L324.499 672.395L322.686 672.092ZM319.701 690V688.161H315.299V690V691.839H319.701V690ZM366.084 688.769L365.042 690.284L365.049 690.289L366.084 688.769ZM362.334 683.62L360.583 684.181L360.584 684.184L362.334 683.62ZM361.999 675.898L363.813 676.197L361.999 675.898ZM364.89 668.138L366.435 669.134L366.438 669.13L364.89 668.138ZM370.281 662.877L371.208 664.465L371.215 664.461L370.281 662.877ZM381.678 661.721L382.302 659.991L381.678 661.721ZM385.26 664.146L383.893 665.376L383.9 665.383L385.26 664.146ZM387.368 668.548L385.571 668.939L387.368 668.548ZM387.293 675.301L385.48 674.997L385.478 675.01L387.293 675.301ZM386.995 677.166V679.005H388.562L388.81 677.457L386.995 677.166ZM364.909 677.166L363.092 676.881L362.759 679.005H364.909V677.166ZM365.506 673.361V671.522H363.933L363.689 673.076L365.506 673.361ZM383.115 673.361V675.199H384.657L384.925 673.681L383.115 673.361ZM382.891 669.033L381.147 669.614L381.149 669.622L381.152 669.63L382.891 669.033ZM380.671 666.03L379.614 667.534L379.623 667.54L380.671 666.03ZM372.072 666.272L373.038 667.837L373.047 667.831L372.072 666.272ZM368.49 669.63L369.987 670.697L369.992 670.691L368.49 669.63ZM366.699 673.734L364.887 673.426L364.885 673.436L364.884 673.445L366.699 673.734ZM366.177 677.017L364.361 676.728L364.361 676.732L366.177 677.017ZM366.345 682.688L364.607 683.288L364.609 683.294L364.612 683.301L366.345 682.688ZM368.938 685.728L368.109 687.369L368.116 687.373L368.122 687.376L368.938 685.728ZM376.828 686.157L377.397 687.906L377.407 687.903L377.416 687.899L376.828 686.157ZM379.496 684.665L380.679 686.072L380.686 686.066L380.692 686.061L379.496 684.665ZM381.473 682.165L381.996 680.403L380.562 679.978L379.854 681.295L381.473 682.165ZM385.502 683.359L387.164 684.147L388.084 682.207L386.025 681.596L385.502 683.359ZM382.611 687.165L383.825 688.546L383.826 688.545L382.611 687.165ZM378.283 689.702L378.912 691.429L378.919 691.427L378.283 689.702ZM372.892 690.597V688.758C370.414 688.758 368.531 688.211 367.118 687.249L366.084 688.769L365.049 690.289C367.218 691.765 369.874 692.435 372.892 692.435V690.597ZM366.084 688.769L367.125 687.254C365.692 686.268 364.677 684.898 364.084 683.057L362.334 683.62L360.584 684.184C361.409 686.745 362.894 688.807 365.042 690.284L366.084 688.769ZM362.334 683.62L364.085 683.06C363.487 681.191 363.362 678.923 363.813 676.197L361.999 675.898L360.185 675.598C359.665 678.742 359.764 681.623 360.583 684.181L362.334 683.62ZM361.999 675.898L363.813 676.197C364.261 673.481 365.144 671.137 366.435 669.134L364.89 668.138L363.345 667.142C361.751 669.615 360.706 672.444 360.185 675.598L361.999 675.898ZM364.89 668.138L366.438 669.13C367.735 667.105 369.326 665.564 371.208 664.465L370.281 662.877L369.354 661.29C366.933 662.703 364.93 664.668 363.342 667.146L364.89 668.138ZM370.281 662.877L371.215 664.461C373.074 663.365 375.113 662.813 377.369 662.813V660.975V659.136C374.477 659.136 371.79 659.853 369.347 661.294L370.281 662.877ZM377.369 660.975V662.813C378.653 662.813 379.878 663.026 381.055 663.45L381.678 661.721L382.302 659.991C380.718 659.42 379.07 659.136 377.369 659.136V660.975ZM381.678 661.721L381.055 663.45C382.143 663.842 383.083 664.476 383.893 665.376L385.26 664.146L386.627 662.916C385.422 661.577 383.975 660.594 382.302 659.991L381.678 661.721ZM385.26 664.146L383.9 665.383C384.642 666.198 385.225 667.349 385.571 668.939L387.368 668.548L389.164 668.157C388.715 666.091 387.892 664.307 386.62 662.908L385.26 664.146ZM387.368 668.548L385.571 668.939C385.903 670.461 385.905 672.459 385.48 674.997L387.293 675.301L389.107 675.604C389.577 672.795 389.629 670.292 389.164 668.157L387.368 668.548ZM387.293 675.301L385.478 675.01L385.179 676.876L386.995 677.166L388.81 677.457L389.109 675.591L387.293 675.301ZM386.995 677.166V675.328H364.909V677.166V679.005H386.995V677.166ZM364.909 677.166L366.725 677.451L367.322 673.646L365.506 673.361L363.689 673.076L363.092 676.881L364.909 677.166ZM365.506 673.361V675.199H383.115V673.361V671.522H365.506V673.361ZM383.115 673.361L384.925 673.681C385.253 671.826 385.187 670.059 384.63 668.436L382.891 669.033L381.152 669.63C381.466 670.544 381.548 671.662 381.304 673.04L383.115 673.361ZM382.891 669.033L384.635 668.452C384.092 666.822 383.116 665.489 381.719 664.519L380.671 666.03L379.623 667.54C380.34 668.038 380.844 668.707 381.147 669.614L382.891 669.033ZM380.671 666.03L381.728 664.525C380.302 663.524 378.583 663.091 376.698 663.091V664.929V666.768C378.021 666.768 378.951 667.068 379.614 667.534L380.671 666.03ZM376.698 664.929V663.091C374.692 663.091 372.812 663.639 371.096 664.714L372.072 666.272L373.047 667.831C374.191 667.114 375.396 666.768 376.698 666.768V664.929ZM372.072 666.272L371.106 664.708C369.468 665.719 368.091 667.009 366.989 668.569L368.49 669.63L369.992 670.691C370.805 669.54 371.815 668.591 373.038 667.837L372.072 666.272ZM368.49 669.63L366.993 668.563C365.901 670.094 365.177 671.717 364.887 673.426L366.699 673.734L368.512 674.041C368.695 672.965 369.164 671.852 369.987 670.697L368.49 669.63ZM366.699 673.734L364.884 673.445L364.361 676.728L366.177 677.017L367.993 677.306L368.515 674.023L366.699 673.734ZM366.177 677.017L364.361 676.732C363.967 679.24 363.981 681.475 364.607 683.288L366.345 682.688L368.083 682.088C367.739 681.09 367.641 679.544 367.993 677.302L366.177 677.017ZM366.345 682.688L364.612 683.301C365.253 685.113 366.419 686.516 368.109 687.369L368.938 685.728L369.767 684.087C368.994 683.697 368.432 683.073 368.078 682.074L366.345 682.688ZM368.938 685.728L368.122 687.376C369.68 688.147 371.522 688.481 373.564 688.481V686.642V684.804C371.9 684.804 370.658 684.528 369.753 684.081L368.938 685.728ZM373.564 686.642V688.481C374.914 688.481 376.196 688.296 377.397 687.906L376.828 686.157L376.26 684.409C375.471 684.665 374.577 684.804 373.564 684.804V686.642ZM376.828 686.157L377.416 687.899C378.623 687.492 379.716 686.883 380.679 686.072L379.496 684.665L378.312 683.258C377.709 683.765 377.023 684.151 376.241 684.415L376.828 686.157ZM379.496 684.665L380.692 686.061C381.664 685.228 382.461 684.212 383.093 683.036L381.473 682.165L379.854 681.295C379.416 682.109 378.895 682.758 378.299 683.269L379.496 684.665ZM381.473 682.165L380.951 683.928L384.98 685.122L385.502 683.359L386.025 681.596L381.996 680.403L381.473 682.165ZM385.502 683.359L383.841 682.572C383.268 683.78 382.46 684.849 381.397 685.784L382.611 687.165L383.826 688.545C385.25 687.292 386.369 685.824 387.164 684.147L385.502 683.359ZM382.611 687.165L381.397 685.784C380.349 686.705 379.106 687.439 377.648 687.976L378.283 689.702L378.919 691.427C380.769 690.745 382.411 689.788 383.825 688.546L382.611 687.165ZM378.283 689.702L377.655 687.974C376.237 688.489 374.656 688.758 372.892 688.758V690.597V692.435C375.034 692.435 377.047 692.108 378.912 691.429L378.283 689.702Z" fill="white" mask="url(#path-2-outside-1_119_2466)"/>
</svg>
