<svg width="1660" height="275" viewBox="0 0 1660 275" fill="none" xmlns="http://www.w3.org/2000/svg">
<rect width="1660" height="159" fill="white"/>
<path d="M827.636 37.4004C885.327 37.4004 937.488 50.7325 975.178 72.2168C1012.91 93.724 1035.87 123.222 1035.87 155.5C1035.87 187.778 1012.91 217.276 975.178 238.783C937.488 260.267 885.327 273.6 827.636 273.6C769.945 273.6 717.784 260.267 680.095 238.783C642.365 217.276 619.4 187.778 619.4 155.5C619.4 123.222 642.365 93.724 680.095 72.2168C717.784 50.7327 769.945 37.4004 827.636 37.4004Z" fill="white" stroke="#0073FF" stroke-width="2.8"/>
<mask id="path-3-outside-1_119_2464" maskUnits="userSpaceOnUse" x="691" y="70" width="272" height="177" fill="black">
<rect fill="white" x="691" y="70" width="272" height="177"/>
<path d="M707.82 106.077H727.391C732.953 106.077 736.936 105.115 739.34 103.193C741.812 101.201 743.048 98.2483 743.048 94.334C743.048 91.7246 742.636 89.6645 741.812 88.1537C740.988 86.643 739.855 85.4756 738.413 84.6515C736.971 83.8275 735.288 83.3124 733.365 83.1064C731.511 82.8317 729.52 82.6944 727.391 82.6944H707.82V106.077ZM698.034 74.4539H724.713C726.292 74.4539 727.975 74.4883 729.76 74.557C731.614 74.557 733.434 74.66 735.219 74.866C737.005 75.0033 738.653 75.2437 740.164 75.587C741.743 75.9304 743.082 76.4454 744.181 77.1321C746.584 78.5742 748.61 80.5656 750.258 83.1064C751.975 85.6472 752.833 88.7717 752.833 92.4799C752.833 96.3942 751.872 99.7933 749.949 102.678C748.095 105.493 745.417 107.587 741.915 108.961V109.167C746.447 110.128 749.915 112.188 752.318 115.347C754.722 118.506 755.924 122.352 755.924 126.884C755.924 129.562 755.443 132.171 754.482 134.712C753.52 137.253 752.078 139.519 750.155 141.511C748.301 143.433 745.966 145.013 743.151 146.249C740.404 147.416 737.211 148 733.571 148H698.034V74.4539ZM707.82 139.76H732.335C736.662 139.76 740.026 138.592 742.43 136.257C744.902 133.923 746.138 130.695 746.138 126.575C746.138 124.171 745.692 122.18 744.799 120.6C743.906 119.021 742.705 117.785 741.194 116.892C739.752 115.931 738.069 115.279 736.147 114.935C734.224 114.523 732.232 114.317 730.172 114.317H707.82V139.76ZM781.219 117.613H806.146L793.888 83.3124H793.682L781.219 117.613ZM788.532 74.4539H799.348L828.086 148H817.271L809.236 125.854H778.129L769.888 148H759.897L788.532 74.4539ZM877.883 95.9821C877.334 90.6945 875.411 86.8833 872.115 84.5485C868.887 82.145 864.733 80.9433 859.651 80.9433C857.591 80.9433 855.565 81.1493 853.574 81.5613C851.582 81.9734 849.797 82.6601 848.218 83.6215C846.707 84.5828 845.471 85.8876 844.509 87.5357C843.617 89.1151 843.17 91.1065 843.17 93.51C843.17 95.7761 843.823 97.6302 845.127 99.0723C846.501 100.446 848.286 101.579 850.484 102.471C852.75 103.364 855.291 104.12 858.106 104.738C860.922 105.287 863.771 105.905 866.656 106.592C869.608 107.278 872.493 108.102 875.308 109.064C878.124 109.957 880.63 111.193 882.827 112.772C885.094 114.351 886.879 116.343 888.184 118.746C889.557 121.15 890.244 124.171 890.244 127.811C890.244 131.725 889.351 135.09 887.566 137.905C885.849 140.652 883.617 142.918 880.87 144.704C878.124 146.421 875.033 147.657 871.6 148.412C868.235 149.236 864.87 149.648 861.505 149.648C857.385 149.648 853.471 149.133 849.763 148.103C846.123 147.073 842.896 145.528 840.08 143.468C837.333 141.339 835.136 138.661 833.488 135.433C831.908 132.137 831.119 128.257 831.119 123.794H840.389C840.389 126.884 840.973 129.562 842.14 131.828C843.376 134.026 844.956 135.845 846.878 137.287C848.87 138.729 851.17 139.794 853.78 140.481C856.389 141.167 859.067 141.511 861.814 141.511C864.012 141.511 866.209 141.305 868.407 140.893C870.673 140.481 872.699 139.794 874.484 138.832C876.269 137.802 877.711 136.429 878.81 134.712C879.909 132.996 880.458 130.798 880.458 128.12C880.458 125.579 879.772 123.519 878.398 121.94C877.093 120.36 875.308 119.09 873.042 118.128C870.844 117.098 868.338 116.274 865.522 115.656C862.707 115.038 859.823 114.42 856.87 113.802C853.986 113.115 851.136 112.36 848.321 111.536C845.505 110.643 842.964 109.51 840.698 108.137C838.501 106.695 836.715 104.875 835.342 102.678C834.037 100.411 833.385 97.5959 833.385 94.231C833.385 90.5228 834.14 87.3297 835.651 84.6515C837.162 81.9047 839.153 79.6729 841.625 77.9561C844.166 76.1707 847.016 74.866 850.175 74.0419C853.402 73.1492 856.698 72.7029 860.063 72.7029C863.84 72.7029 867.342 73.1492 870.57 74.0419C873.797 74.9346 876.613 76.3424 879.016 78.2652C881.488 80.1879 883.411 82.6257 884.785 85.5786C886.227 88.4627 887.016 91.9306 887.154 95.9821H877.883ZM944.676 95.9821C944.127 90.6945 942.204 86.8833 938.908 84.5485C935.68 82.145 931.525 80.9433 926.444 80.9433C924.384 80.9433 922.358 81.1493 920.367 81.5613C918.375 81.9734 916.59 82.6601 915.01 83.6215C913.499 84.5828 912.263 85.8876 911.302 87.5357C910.409 89.1151 909.963 91.1065 909.963 93.51C909.963 95.7761 910.615 97.6302 911.92 99.0723C913.293 100.446 915.079 101.579 917.276 102.471C919.542 103.364 922.083 104.12 924.899 104.738C927.714 105.287 930.564 105.905 933.448 106.592C936.401 107.278 939.285 108.102 942.101 109.064C944.916 109.957 947.423 111.193 949.62 112.772C951.886 114.351 953.672 116.343 954.976 118.746C956.35 121.15 957.037 124.171 957.037 127.811C957.037 131.725 956.144 135.09 954.358 137.905C952.642 140.652 950.41 142.918 947.663 144.704C944.916 146.421 941.826 147.657 938.393 148.412C935.028 149.236 931.663 149.648 928.298 149.648C924.178 149.648 920.264 149.133 916.555 148.103C912.916 147.073 909.688 145.528 906.873 143.468C904.126 141.339 901.929 138.661 900.28 135.433C898.701 132.137 897.911 128.257 897.911 123.794H907.182C907.182 126.884 907.766 129.562 908.933 131.828C910.169 134.026 911.748 135.845 913.671 137.287C915.663 138.729 917.963 139.794 920.573 140.481C923.182 141.167 925.86 141.511 928.607 141.511C930.804 141.511 933.002 141.305 935.199 140.893C937.465 140.481 939.491 139.794 941.277 138.832C943.062 137.802 944.504 136.429 945.603 134.712C946.702 132.996 947.251 130.798 947.251 128.12C947.251 125.579 946.564 123.519 945.191 121.94C943.886 120.36 942.101 119.09 939.835 118.128C937.637 117.098 935.131 116.274 932.315 115.656C929.5 115.038 926.616 114.42 923.663 113.802C920.779 113.115 917.929 112.36 915.113 111.536C912.298 110.643 909.757 109.51 907.491 108.137C905.293 106.695 903.508 104.875 902.135 102.678C900.83 100.411 900.177 97.5959 900.177 94.231C900.177 90.5228 900.933 87.3297 902.444 84.6515C903.954 81.9047 905.946 79.6729 908.418 77.9561C910.959 76.1707 913.809 74.866 916.967 74.0419C920.195 73.1492 923.491 72.7029 926.856 72.7029C930.633 72.7029 934.135 73.1492 937.362 74.0419C940.59 74.9346 943.405 76.3424 945.809 78.2652C948.281 80.1879 950.204 82.6257 951.577 85.5786C953.019 88.4627 953.809 91.9306 953.946 95.9821H944.676ZM740.576 190.982C740.026 185.695 738.104 181.883 734.807 179.549C731.58 177.145 727.425 175.943 722.344 175.943C720.284 175.943 718.258 176.149 716.266 176.561C714.275 176.973 712.49 177.66 710.91 178.621C709.399 179.583 708.163 180.888 707.202 182.536C706.309 184.115 705.863 186.107 705.863 188.51C705.863 190.776 706.515 192.63 707.82 194.072C709.193 195.446 710.979 196.579 713.176 197.471C715.442 198.364 717.983 199.12 720.799 199.738C723.614 200.287 726.464 200.905 729.348 201.592C732.301 202.278 735.185 203.102 738.001 204.064C740.816 204.957 743.323 206.193 745.52 207.772C747.786 209.351 749.572 211.343 750.876 213.746C752.25 216.15 752.936 219.171 752.936 222.811C752.936 226.725 752.044 230.09 750.258 232.905C748.542 235.652 746.31 237.918 743.563 239.704C740.816 241.421 737.726 242.657 734.292 243.412C730.928 244.236 727.563 244.648 724.198 244.648C720.078 244.648 716.163 244.133 712.455 243.103C708.816 242.073 705.588 240.528 702.773 238.468C700.026 236.339 697.828 233.661 696.18 230.433C694.601 227.137 693.811 223.257 693.811 218.794H703.082C703.082 221.884 703.665 224.562 704.833 226.828C706.069 229.026 707.648 230.845 709.571 232.287C711.563 233.729 713.863 234.794 716.472 235.481C719.082 236.167 721.76 236.511 724.507 236.511C726.704 236.511 728.902 236.305 731.099 235.893C733.365 235.481 735.391 234.794 737.177 233.832C738.962 232.802 740.404 231.429 741.503 229.712C742.602 227.996 743.151 225.798 743.151 223.12C743.151 220.579 742.464 218.519 741.091 216.94C739.786 215.36 738.001 214.09 735.735 213.128C733.537 212.098 731.031 211.274 728.215 210.656C725.4 210.038 722.515 209.42 719.563 208.802C716.678 208.115 713.829 207.36 711.013 206.536C708.198 205.643 705.657 204.51 703.391 203.137C701.193 201.695 699.408 199.875 698.034 197.678C696.73 195.411 696.077 192.596 696.077 189.231C696.077 185.523 696.833 182.33 698.343 179.652C699.854 176.905 701.846 174.673 704.318 172.956C706.859 171.171 709.708 169.866 712.867 169.042C716.095 168.149 719.391 167.703 722.756 167.703C726.533 167.703 730.035 168.149 733.262 169.042C736.49 169.935 739.305 171.342 741.709 173.265C744.181 175.188 746.104 177.626 747.477 180.579C748.919 183.463 749.709 186.931 749.846 190.982H740.576ZM774.613 204.682H793.772C799.334 204.751 803.386 203.617 805.926 201.283C808.536 198.948 809.841 195.583 809.841 191.188C809.841 186.793 808.536 183.463 805.926 181.197C803.386 178.862 799.334 177.694 793.772 177.694H774.613V204.682ZM764.827 169.454H797.068C804.484 169.454 810.081 171.377 813.858 175.222C817.703 178.999 819.626 184.321 819.626 191.188C819.626 198.055 817.703 203.411 813.858 207.257C810.081 211.103 804.484 212.991 797.068 212.922H774.613V243H764.827V169.454ZM837.285 206.227C837.285 209.935 837.766 213.609 838.727 217.249C839.689 220.819 841.199 224.047 843.26 226.931C845.32 229.815 847.963 232.15 851.191 233.936C854.419 235.652 858.264 236.511 862.728 236.511C867.191 236.511 871.037 235.652 874.264 233.936C877.492 232.15 880.136 229.815 882.196 226.931C884.256 224.047 885.767 220.819 886.728 217.249C887.689 213.609 888.17 209.935 888.17 206.227C888.17 202.519 887.689 198.879 886.728 195.308C885.767 191.669 884.256 188.407 882.196 185.523C880.136 182.639 877.492 180.338 874.264 178.621C871.037 176.836 867.191 175.943 862.728 175.943C858.264 175.943 854.419 176.836 851.191 178.621C847.963 180.338 845.32 182.639 843.26 185.523C841.199 188.407 839.689 191.669 838.727 195.308C837.766 198.879 837.285 202.519 837.285 206.227ZM827.5 206.227C827.5 201.214 828.221 196.407 829.663 191.806C831.174 187.137 833.405 183.016 836.358 179.445C839.311 175.875 842.985 173.025 847.38 170.896C851.775 168.767 856.891 167.703 862.728 167.703C868.565 167.703 873.681 168.767 878.075 170.896C882.47 173.025 886.144 175.875 889.097 179.445C892.05 183.016 894.247 187.137 895.689 191.806C897.2 196.407 897.956 201.214 897.956 206.227C897.956 211.24 897.2 216.081 895.689 220.751C894.247 225.352 892.05 229.438 889.097 233.008C886.144 236.579 882.47 239.429 878.075 241.558C873.681 243.618 868.565 244.648 862.728 244.648C856.891 244.648 851.775 243.618 847.38 241.558C842.985 239.429 839.311 236.579 836.358 233.008C833.405 229.438 831.174 225.352 829.663 220.751C828.221 216.081 827.5 211.24 827.5 206.227ZM926.567 177.694H902.052V169.454H960.868V177.694H936.353V243H926.567V177.694Z"/>
</mask>
<path d="M707.82 106.077H727.391C732.953 106.077 736.936 105.115 739.34 103.193C741.812 101.201 743.048 98.2483 743.048 94.334C743.048 91.7246 742.636 89.6645 741.812 88.1537C740.988 86.643 739.855 85.4756 738.413 84.6515C736.971 83.8275 735.288 83.3124 733.365 83.1064C731.511 82.8317 729.52 82.6944 727.391 82.6944H707.82V106.077ZM698.034 74.4539H724.713C726.292 74.4539 727.975 74.4883 729.76 74.557C731.614 74.557 733.434 74.66 735.219 74.866C737.005 75.0033 738.653 75.2437 740.164 75.587C741.743 75.9304 743.082 76.4454 744.181 77.1321C746.584 78.5742 748.61 80.5656 750.258 83.1064C751.975 85.6472 752.833 88.7717 752.833 92.4799C752.833 96.3942 751.872 99.7933 749.949 102.678C748.095 105.493 745.417 107.587 741.915 108.961V109.167C746.447 110.128 749.915 112.188 752.318 115.347C754.722 118.506 755.924 122.352 755.924 126.884C755.924 129.562 755.443 132.171 754.482 134.712C753.52 137.253 752.078 139.519 750.155 141.511C748.301 143.433 745.966 145.013 743.151 146.249C740.404 147.416 737.211 148 733.571 148H698.034V74.4539ZM707.82 139.76H732.335C736.662 139.76 740.026 138.592 742.43 136.257C744.902 133.923 746.138 130.695 746.138 126.575C746.138 124.171 745.692 122.18 744.799 120.6C743.906 119.021 742.705 117.785 741.194 116.892C739.752 115.931 738.069 115.279 736.147 114.935C734.224 114.523 732.232 114.317 730.172 114.317H707.82V139.76ZM781.219 117.613H806.146L793.888 83.3124H793.682L781.219 117.613ZM788.532 74.4539H799.348L828.086 148H817.271L809.236 125.854H778.129L769.888 148H759.897L788.532 74.4539ZM877.883 95.9821C877.334 90.6945 875.411 86.8833 872.115 84.5485C868.887 82.145 864.733 80.9433 859.651 80.9433C857.591 80.9433 855.565 81.1493 853.574 81.5613C851.582 81.9734 849.797 82.6601 848.218 83.6215C846.707 84.5828 845.471 85.8876 844.509 87.5357C843.617 89.1151 843.17 91.1065 843.17 93.51C843.17 95.7761 843.823 97.6302 845.127 99.0723C846.501 100.446 848.286 101.579 850.484 102.471C852.75 103.364 855.291 104.12 858.106 104.738C860.922 105.287 863.771 105.905 866.656 106.592C869.608 107.278 872.493 108.102 875.308 109.064C878.124 109.957 880.63 111.193 882.827 112.772C885.094 114.351 886.879 116.343 888.184 118.746C889.557 121.15 890.244 124.171 890.244 127.811C890.244 131.725 889.351 135.09 887.566 137.905C885.849 140.652 883.617 142.918 880.87 144.704C878.124 146.421 875.033 147.657 871.6 148.412C868.235 149.236 864.87 149.648 861.505 149.648C857.385 149.648 853.471 149.133 849.763 148.103C846.123 147.073 842.896 145.528 840.08 143.468C837.333 141.339 835.136 138.661 833.488 135.433C831.908 132.137 831.119 128.257 831.119 123.794H840.389C840.389 126.884 840.973 129.562 842.14 131.828C843.376 134.026 844.956 135.845 846.878 137.287C848.87 138.729 851.17 139.794 853.78 140.481C856.389 141.167 859.067 141.511 861.814 141.511C864.012 141.511 866.209 141.305 868.407 140.893C870.673 140.481 872.699 139.794 874.484 138.832C876.269 137.802 877.711 136.429 878.81 134.712C879.909 132.996 880.458 130.798 880.458 128.12C880.458 125.579 879.772 123.519 878.398 121.94C877.093 120.36 875.308 119.09 873.042 118.128C870.844 117.098 868.338 116.274 865.522 115.656C862.707 115.038 859.823 114.42 856.87 113.802C853.986 113.115 851.136 112.36 848.321 111.536C845.505 110.643 842.964 109.51 840.698 108.137C838.501 106.695 836.715 104.875 835.342 102.678C834.037 100.411 833.385 97.5959 833.385 94.231C833.385 90.5228 834.14 87.3297 835.651 84.6515C837.162 81.9047 839.153 79.6729 841.625 77.9561C844.166 76.1707 847.016 74.866 850.175 74.0419C853.402 73.1492 856.698 72.7029 860.063 72.7029C863.84 72.7029 867.342 73.1492 870.57 74.0419C873.797 74.9346 876.613 76.3424 879.016 78.2652C881.488 80.1879 883.411 82.6257 884.785 85.5786C886.227 88.4627 887.016 91.9306 887.154 95.9821H877.883ZM944.676 95.9821C944.127 90.6945 942.204 86.8833 938.908 84.5485C935.68 82.145 931.525 80.9433 926.444 80.9433C924.384 80.9433 922.358 81.1493 920.367 81.5613C918.375 81.9734 916.59 82.6601 915.01 83.6215C913.499 84.5828 912.263 85.8876 911.302 87.5357C910.409 89.1151 909.963 91.1065 909.963 93.51C909.963 95.7761 910.615 97.6302 911.92 99.0723C913.293 100.446 915.079 101.579 917.276 102.471C919.542 103.364 922.083 104.12 924.899 104.738C927.714 105.287 930.564 105.905 933.448 106.592C936.401 107.278 939.285 108.102 942.101 109.064C944.916 109.957 947.423 111.193 949.62 112.772C951.886 114.351 953.672 116.343 954.976 118.746C956.35 121.15 957.037 124.171 957.037 127.811C957.037 131.725 956.144 135.09 954.358 137.905C952.642 140.652 950.41 142.918 947.663 144.704C944.916 146.421 941.826 147.657 938.393 148.412C935.028 149.236 931.663 149.648 928.298 149.648C924.178 149.648 920.264 149.133 916.555 148.103C912.916 147.073 909.688 145.528 906.873 143.468C904.126 141.339 901.929 138.661 900.28 135.433C898.701 132.137 897.911 128.257 897.911 123.794H907.182C907.182 126.884 907.766 129.562 908.933 131.828C910.169 134.026 911.748 135.845 913.671 137.287C915.663 138.729 917.963 139.794 920.573 140.481C923.182 141.167 925.86 141.511 928.607 141.511C930.804 141.511 933.002 141.305 935.199 140.893C937.465 140.481 939.491 139.794 941.277 138.832C943.062 137.802 944.504 136.429 945.603 134.712C946.702 132.996 947.251 130.798 947.251 128.12C947.251 125.579 946.564 123.519 945.191 121.94C943.886 120.36 942.101 119.09 939.835 118.128C937.637 117.098 935.131 116.274 932.315 115.656C929.5 115.038 926.616 114.42 923.663 113.802C920.779 113.115 917.929 112.36 915.113 111.536C912.298 110.643 909.757 109.51 907.491 108.137C905.293 106.695 903.508 104.875 902.135 102.678C900.83 100.411 900.177 97.5959 900.177 94.231C900.177 90.5228 900.933 87.3297 902.444 84.6515C903.954 81.9047 905.946 79.6729 908.418 77.9561C910.959 76.1707 913.809 74.866 916.967 74.0419C920.195 73.1492 923.491 72.7029 926.856 72.7029C930.633 72.7029 934.135 73.1492 937.362 74.0419C940.59 74.9346 943.405 76.3424 945.809 78.2652C948.281 80.1879 950.204 82.6257 951.577 85.5786C953.019 88.4627 953.809 91.9306 953.946 95.9821H944.676ZM740.576 190.982C740.026 185.695 738.104 181.883 734.807 179.549C731.58 177.145 727.425 175.943 722.344 175.943C720.284 175.943 718.258 176.149 716.266 176.561C714.275 176.973 712.49 177.66 710.91 178.621C709.399 179.583 708.163 180.888 707.202 182.536C706.309 184.115 705.863 186.107 705.863 188.51C705.863 190.776 706.515 192.63 707.82 194.072C709.193 195.446 710.979 196.579 713.176 197.471C715.442 198.364 717.983 199.12 720.799 199.738C723.614 200.287 726.464 200.905 729.348 201.592C732.301 202.278 735.185 203.102 738.001 204.064C740.816 204.957 743.323 206.193 745.52 207.772C747.786 209.351 749.572 211.343 750.876 213.746C752.25 216.15 752.936 219.171 752.936 222.811C752.936 226.725 752.044 230.09 750.258 232.905C748.542 235.652 746.31 237.918 743.563 239.704C740.816 241.421 737.726 242.657 734.292 243.412C730.928 244.236 727.563 244.648 724.198 244.648C720.078 244.648 716.163 244.133 712.455 243.103C708.816 242.073 705.588 240.528 702.773 238.468C700.026 236.339 697.828 233.661 696.18 230.433C694.601 227.137 693.811 223.257 693.811 218.794H703.082C703.082 221.884 703.665 224.562 704.833 226.828C706.069 229.026 707.648 230.845 709.571 232.287C711.563 233.729 713.863 234.794 716.472 235.481C719.082 236.167 721.76 236.511 724.507 236.511C726.704 236.511 728.902 236.305 731.099 235.893C733.365 235.481 735.391 234.794 737.177 233.832C738.962 232.802 740.404 231.429 741.503 229.712C742.602 227.996 743.151 225.798 743.151 223.12C743.151 220.579 742.464 218.519 741.091 216.94C739.786 215.36 738.001 214.09 735.735 213.128C733.537 212.098 731.031 211.274 728.215 210.656C725.4 210.038 722.515 209.42 719.563 208.802C716.678 208.115 713.829 207.36 711.013 206.536C708.198 205.643 705.657 204.51 703.391 203.137C701.193 201.695 699.408 199.875 698.034 197.678C696.73 195.411 696.077 192.596 696.077 189.231C696.077 185.523 696.833 182.33 698.343 179.652C699.854 176.905 701.846 174.673 704.318 172.956C706.859 171.171 709.708 169.866 712.867 169.042C716.095 168.149 719.391 167.703 722.756 167.703C726.533 167.703 730.035 168.149 733.262 169.042C736.49 169.935 739.305 171.342 741.709 173.265C744.181 175.188 746.104 177.626 747.477 180.579C748.919 183.463 749.709 186.931 749.846 190.982H740.576ZM774.613 204.682H793.772C799.334 204.751 803.386 203.617 805.926 201.283C808.536 198.948 809.841 195.583 809.841 191.188C809.841 186.793 808.536 183.463 805.926 181.197C803.386 178.862 799.334 177.694 793.772 177.694H774.613V204.682ZM764.827 169.454H797.068C804.484 169.454 810.081 171.377 813.858 175.222C817.703 178.999 819.626 184.321 819.626 191.188C819.626 198.055 817.703 203.411 813.858 207.257C810.081 211.103 804.484 212.991 797.068 212.922H774.613V243H764.827V169.454ZM837.285 206.227C837.285 209.935 837.766 213.609 838.727 217.249C839.689 220.819 841.199 224.047 843.26 226.931C845.32 229.815 847.963 232.15 851.191 233.936C854.419 235.652 858.264 236.511 862.728 236.511C867.191 236.511 871.037 235.652 874.264 233.936C877.492 232.15 880.136 229.815 882.196 226.931C884.256 224.047 885.767 220.819 886.728 217.249C887.689 213.609 888.17 209.935 888.17 206.227C888.17 202.519 887.689 198.879 886.728 195.308C885.767 191.669 884.256 188.407 882.196 185.523C880.136 182.639 877.492 180.338 874.264 178.621C871.037 176.836 867.191 175.943 862.728 175.943C858.264 175.943 854.419 176.836 851.191 178.621C847.963 180.338 845.32 182.639 843.26 185.523C841.199 188.407 839.689 191.669 838.727 195.308C837.766 198.879 837.285 202.519 837.285 206.227ZM827.5 206.227C827.5 201.214 828.221 196.407 829.663 191.806C831.174 187.137 833.405 183.016 836.358 179.445C839.311 175.875 842.985 173.025 847.38 170.896C851.775 168.767 856.891 167.703 862.728 167.703C868.565 167.703 873.681 168.767 878.075 170.896C882.47 173.025 886.144 175.875 889.097 179.445C892.05 183.016 894.247 187.137 895.689 191.806C897.2 196.407 897.956 201.214 897.956 206.227C897.956 211.24 897.2 216.081 895.689 220.751C894.247 225.352 892.05 229.438 889.097 233.008C886.144 236.579 882.47 239.429 878.075 241.558C873.681 243.618 868.565 244.648 862.728 244.648C856.891 244.648 851.775 243.618 847.38 241.558C842.985 239.429 839.311 236.579 836.358 233.008C833.405 229.438 831.174 225.352 829.663 220.751C828.221 216.081 827.5 211.24 827.5 206.227ZM926.567 177.694H902.052V169.454H960.868V177.694H936.353V243H926.567V177.694Z" fill="white"/>
<path d="M707.82 106.077H705.82V108.077H707.82V106.077ZM739.34 103.193L740.589 104.754L740.594 104.75L739.34 103.193ZM741.812 88.1537L740.056 89.1114L740.056 89.1114L741.812 88.1537ZM738.413 84.6515L737.42 86.388L737.42 86.388L738.413 84.6515ZM733.365 83.1064L733.072 85.0848L733.112 85.0907L733.152 85.095L733.365 83.1064ZM707.82 82.6944V80.6944H705.82V82.6944H707.82ZM698.034 74.4539V72.4539H696.034V74.4539H698.034ZM729.76 74.557L729.683 76.5555L729.722 76.557H729.76V74.557ZM735.219 74.866L734.99 76.8528L735.028 76.8572L735.066 76.8601L735.219 74.866ZM740.164 75.587L739.721 77.5373L739.73 77.5394L739.739 77.5414L740.164 75.587ZM744.181 77.1321L743.121 78.8281L743.136 78.8377L743.152 78.8471L744.181 77.1321ZM750.258 83.1064L748.58 84.1948L748.591 84.2106L748.601 84.2261L750.258 83.1064ZM749.949 102.678L748.285 101.568L748.279 101.578L749.949 102.678ZM741.915 108.961L741.185 107.099L739.915 107.597V108.961H741.915ZM741.915 109.167H739.915V110.787L741.5 111.123L741.915 109.167ZM752.318 115.347L750.727 116.558L750.727 116.558L752.318 115.347ZM750.155 141.511L748.717 140.121L748.716 140.122L750.155 141.511ZM743.151 146.249L743.933 148.09L743.944 148.085L743.955 148.08L743.151 146.249ZM698.034 148H696.034V150H698.034V148ZM707.82 139.76H705.82V141.76H707.82V139.76ZM742.43 136.257L741.057 134.803L741.046 134.813L741.036 134.823L742.43 136.257ZM744.799 120.6L743.058 121.585L743.058 121.585L744.799 120.6ZM741.194 116.892L740.084 118.556L740.13 118.587L740.176 118.614L741.194 116.892ZM736.147 114.935L735.727 116.891L735.761 116.898L735.795 116.904L736.147 114.935ZM707.82 114.317V112.317H705.82V114.317H707.82ZM707.82 106.077V108.077H727.391V106.077V104.077H707.82V106.077ZM727.391 106.077V108.077C733.083 108.077 737.641 107.112 740.589 104.754L739.34 103.193L738.09 101.631C736.231 103.118 732.823 104.077 727.391 104.077V106.077ZM739.34 103.193L740.594 104.75C743.647 102.291 745.048 98.6983 745.048 94.334H743.048H741.048C741.048 97.7982 739.977 100.111 738.085 101.635L739.34 103.193ZM743.048 94.334H745.048C745.048 91.5485 744.614 89.1138 743.568 87.196L741.812 88.1537L740.056 89.1114C740.658 90.2151 741.048 91.9007 741.048 94.334H743.048ZM741.812 88.1537L743.568 87.196C742.573 85.3723 741.181 83.9298 739.405 82.915L738.413 84.6515L737.42 86.388C738.529 87.0213 739.403 87.9136 740.056 89.1114L741.812 88.1537ZM738.413 84.6515L739.405 82.915C737.687 81.9334 735.731 81.3484 733.578 81.1178L733.365 83.1064L733.152 85.095C734.845 85.2764 736.254 85.7215 737.42 86.388L738.413 84.6515ZM733.365 83.1064L733.658 81.128C731.695 80.8372 729.605 80.6944 727.391 80.6944V82.6944V84.6944C729.435 84.6944 731.327 84.8263 733.072 85.0848L733.365 83.1064ZM727.391 82.6944V80.6944H707.82V82.6944V84.6944H727.391V82.6944ZM707.82 82.6944H705.82V106.077H707.82H709.82V82.6944H707.82ZM698.034 74.4539V76.4539H724.713V74.4539V72.4539H698.034V74.4539ZM724.713 74.4539V76.4539C726.264 76.4539 727.92 76.4877 729.683 76.5555L729.76 74.557L729.837 72.5584C728.029 72.4889 726.321 72.4539 724.713 72.4539V74.4539ZM729.76 74.557V76.557C731.54 76.557 733.283 76.6558 734.99 76.8528L735.219 74.866L735.449 72.8792C733.585 72.6641 731.688 72.557 729.76 72.557V74.557ZM735.219 74.866L735.066 76.8601C736.769 76.991 738.319 77.2186 739.721 77.5373L740.164 75.587L740.607 73.6367C738.987 73.2687 737.241 73.0156 735.373 72.8719L735.219 74.866ZM740.164 75.587L739.739 77.5414C741.147 77.8474 742.259 78.2894 743.121 78.8281L744.181 77.1321L745.241 75.4361C743.905 74.6014 742.34 74.0133 740.589 73.6327L740.164 75.587ZM744.181 77.1321L743.152 78.8471C745.274 80.1201 747.084 81.8886 748.58 84.1948L750.258 83.1064L751.936 82.018C750.136 79.2426 747.895 77.0283 745.21 75.4171L744.181 77.1321ZM750.258 83.1064L748.601 84.2261C750.051 86.3724 750.833 89.0861 750.833 92.4799H752.833H754.833C754.833 88.4573 753.899 84.922 751.915 81.9867L750.258 83.1064ZM752.833 92.4799H750.833C750.833 96.052 749.961 99.0538 748.285 101.568L749.949 102.678L751.613 103.787C753.783 100.533 754.833 96.7363 754.833 92.4799H752.833ZM749.949 102.678L748.279 101.578C746.678 104.009 744.349 105.858 741.185 107.099L741.915 108.961L742.645 110.823C746.485 109.317 749.512 106.977 751.62 103.777L749.949 102.678ZM741.915 108.961H739.915V109.167H741.915H743.915V108.961H741.915ZM741.915 109.167L741.5 111.123C745.646 112.003 748.661 113.843 750.727 116.558L752.318 115.347L753.91 114.136C751.169 110.534 747.248 108.254 742.33 107.21L741.915 109.167ZM752.318 115.347L750.727 116.558C752.829 119.321 753.924 122.724 753.924 126.884H755.924H757.924C757.924 121.979 756.615 117.691 753.91 114.136L752.318 115.347ZM755.924 126.884H753.924C753.924 129.317 753.488 131.687 752.611 134.004L754.482 134.712L756.352 135.42C757.398 132.656 757.924 129.807 757.924 126.884H755.924ZM754.482 134.712L752.611 134.004C751.748 136.286 750.454 138.322 748.717 140.121L750.155 141.511L751.594 142.9C753.702 140.717 755.293 138.22 756.352 135.42L754.482 134.712ZM750.155 141.511L748.716 140.122C747.068 141.831 744.959 143.271 742.347 144.418L743.151 146.249L743.955 148.08C746.973 146.755 749.535 145.036 751.595 142.899L750.155 141.511ZM743.151 146.249L742.369 144.408C739.917 145.45 737 146 733.571 146V148V150C737.422 150 740.891 149.382 743.933 148.09L743.151 146.249ZM733.571 148V146H698.034V148V150H733.571V148ZM698.034 148H700.034V74.4539H698.034H696.034V148H698.034ZM707.82 139.76V141.76H732.335V139.76V137.76H707.82V139.76ZM732.335 139.76V141.76C737.024 141.76 740.947 140.486 743.823 137.692L742.43 136.257L741.036 134.823C739.106 136.698 736.299 137.76 732.335 137.76V139.76ZM742.43 136.257L743.803 137.711C746.758 134.921 748.138 131.12 748.138 126.575H746.138H744.138C744.138 130.27 743.046 132.925 741.057 134.803L742.43 136.257ZM746.138 126.575H748.138C748.138 123.935 747.649 121.578 746.54 119.616L744.799 120.6L743.058 121.585C743.735 122.782 744.138 124.408 744.138 126.575H746.138ZM744.799 120.6L746.54 119.616C745.481 117.743 744.034 116.248 742.211 115.17L741.194 116.892L740.176 118.614C741.375 119.322 742.332 120.299 743.058 121.585L744.799 120.6ZM741.194 116.892L742.303 115.228C740.605 114.096 738.657 113.352 736.498 112.966L736.147 114.935L735.795 116.904C737.481 117.205 738.899 117.766 740.084 118.556L741.194 116.892ZM736.147 114.935L736.566 112.98C734.499 112.537 732.366 112.317 730.172 112.317V114.317V116.317C732.098 116.317 733.949 116.51 735.727 116.891L736.147 114.935ZM730.172 114.317V112.317H707.82V114.317V116.317H730.172V114.317ZM707.82 114.317H705.82V139.76H707.82H709.82V114.317H707.82ZM781.219 117.613L779.339 116.93L778.364 119.613H781.219V117.613ZM806.146 117.613V119.613H808.985L808.029 116.94L806.146 117.613ZM793.888 83.3124L795.772 82.6394L795.298 81.3124H793.888V83.3124ZM793.682 83.3124V81.3124H792.281L791.803 82.6294L793.682 83.3124ZM788.532 74.4539V72.4539H787.165L786.668 73.7283L788.532 74.4539ZM799.348 74.4539L801.211 73.726L800.714 72.4539H799.348V74.4539ZM828.086 148V150H831.015L829.949 147.272L828.086 148ZM817.271 148L815.391 148.682L815.869 150H817.271V148ZM809.236 125.854L811.116 125.172L810.638 123.854H809.236V125.854ZM778.129 125.854V123.854H776.739L776.254 125.156L778.129 125.854ZM769.888 148V150H771.278L771.763 148.697L769.888 148ZM759.897 148L758.033 147.274L756.972 150H759.897V148ZM781.219 117.613V119.613H806.146V117.613V115.613H781.219V117.613ZM806.146 117.613L808.029 116.94L795.772 82.6394L793.888 83.3124L792.005 83.9855L804.263 118.286L806.146 117.613ZM793.888 83.3124V81.3124H793.682V83.3124V85.3124H793.888V83.3124ZM793.682 83.3124L791.803 82.6294L779.339 116.93L781.219 117.613L783.099 118.296L795.562 83.9955L793.682 83.3124ZM788.532 74.4539V76.4539H799.348V74.4539V72.4539H788.532V74.4539ZM799.348 74.4539L797.485 75.1819L826.224 148.728L828.086 148L829.949 147.272L801.211 73.726L799.348 74.4539ZM828.086 148V146H817.271V148V150H828.086V148ZM817.271 148L819.151 147.318L811.116 125.172L809.236 125.854L807.356 126.536L815.391 148.682L817.271 148ZM809.236 125.854V123.854H778.129V125.854V127.854H809.236V125.854ZM778.129 125.854L776.254 125.156L768.014 147.303L769.888 148L771.763 148.697L780.003 126.551L778.129 125.854ZM769.888 148V146H759.897V148V150H769.888V148ZM759.897 148L761.76 148.726L790.396 75.1796L788.532 74.4539L786.668 73.7283L758.033 147.274L759.897 148ZM877.883 95.9821L875.894 96.1888L876.08 97.9821H877.883V95.9821ZM872.115 84.5485L870.92 86.1526L870.939 86.1668L870.959 86.1806L872.115 84.5485ZM853.574 81.5613L853.979 83.5199L853.979 83.5199L853.574 81.5613ZM848.218 83.6215L847.178 81.9131L847.161 81.9234L847.144 81.9341L848.218 83.6215ZM844.509 87.5357L842.782 86.5279L842.775 86.5397L842.768 86.5516L844.509 87.5357ZM845.127 99.0723L843.644 100.414L843.678 100.451L843.713 100.487L845.127 99.0723ZM850.484 102.471L849.731 104.324L849.741 104.328L849.751 104.332L850.484 102.471ZM858.106 104.738L857.677 106.691L857.7 106.696L857.723 106.701L858.106 104.738ZM866.656 106.592L866.192 108.537L866.203 108.54L866.656 106.592ZM875.308 109.064L874.662 110.957L874.683 110.964L874.704 110.97L875.308 109.064ZM882.827 112.772L881.66 114.396L881.672 114.405L881.684 114.413L882.827 112.772ZM888.184 118.746L886.426 119.701L886.436 119.72L886.447 119.739L888.184 118.746ZM887.566 137.905L885.877 136.834L885.87 136.845L887.566 137.905ZM880.87 144.704L881.93 146.4L881.945 146.39L881.96 146.381L880.87 144.704ZM871.6 148.412L871.17 146.459L871.147 146.464L871.124 146.469L871.6 148.412ZM849.763 148.103L849.218 150.027L849.227 150.03L849.763 148.103ZM840.08 143.468L838.855 145.049L838.877 145.066L838.899 145.082L840.08 143.468ZM833.488 135.433L831.684 136.298L831.695 136.32L831.707 136.343L833.488 135.433ZM831.119 123.794V121.794H829.119V123.794H831.119ZM840.389 123.794H842.389V121.794H840.389V123.794ZM842.14 131.828L840.362 132.744L840.379 132.777L840.397 132.809L842.14 131.828ZM846.878 137.287L845.678 138.887L845.692 138.897L845.705 138.907L846.878 137.287ZM853.78 140.481L853.271 142.415L853.78 140.481ZM868.407 140.893L868.049 138.925L868.038 138.927L868.407 140.893ZM874.484 138.832L875.432 140.593L875.458 140.58L875.483 140.565L874.484 138.832ZM878.81 134.712L877.126 133.634L877.126 133.634L878.81 134.712ZM878.398 121.94L876.856 123.213L876.872 123.233L876.889 123.252L878.398 121.94ZM873.042 118.128L872.193 119.939L872.227 119.955L872.261 119.97L873.042 118.128ZM856.87 113.802L856.407 115.748L856.433 115.754L856.46 115.76L856.87 113.802ZM848.321 111.536L847.716 113.442L847.737 113.449L847.759 113.455L848.321 111.536ZM840.698 108.137L839.601 109.809L839.631 109.829L839.662 109.847L840.698 108.137ZM835.342 102.678L833.609 103.675L833.627 103.707L833.646 103.738L835.342 102.678ZM835.651 84.6515L837.393 85.6342L837.398 85.6248L837.403 85.6154L835.651 84.6515ZM841.625 77.9561L842.766 79.5989L842.775 79.5925L841.625 77.9561ZM850.175 74.0419L850.679 75.9772L850.694 75.9735L850.708 75.9695L850.175 74.0419ZM870.57 74.0419L871.103 72.1143L871.103 72.1143L870.57 74.0419ZM879.016 78.2652L877.767 79.8269L877.778 79.8355L877.788 79.8439L879.016 78.2652ZM884.785 85.5786L882.971 86.422L882.983 86.4477L882.996 86.473L884.785 85.5786ZM887.154 95.9821V97.9821H889.223L889.153 95.9144L887.154 95.9821ZM877.883 95.9821L879.872 95.7755C879.284 90.1069 877.175 85.6815 873.271 82.9165L872.115 84.5485L870.959 86.1806C873.648 88.0851 875.384 91.2821 875.894 96.1888L877.883 95.9821ZM872.115 84.5485L873.309 82.9444C869.655 80.2231 865.049 78.9433 859.651 78.9433V80.9433V82.9433C864.417 82.9433 868.12 84.067 870.92 86.1526L872.115 84.5485ZM859.651 80.9433V78.9433C857.457 78.9433 855.295 79.1629 853.169 79.6028L853.574 81.5613L853.979 83.5199C855.835 83.1358 857.725 82.9433 859.651 82.9433V80.9433ZM853.574 81.5613L853.169 79.6028C850.975 80.0566 848.971 80.8213 847.178 81.9131L848.218 83.6215L849.257 85.3299C850.623 84.4989 852.19 83.8901 853.979 83.5199L853.574 81.5613ZM848.218 83.6215L847.144 81.9341C845.347 83.0778 843.893 84.623 842.782 86.5279L844.509 87.5357L846.237 88.5434C847.048 87.1522 848.067 86.0878 849.291 85.3088L848.218 83.6215ZM844.509 87.5357L842.768 86.5516C841.659 88.5132 841.17 90.87 841.17 93.51H843.17H845.17C845.17 91.3431 845.574 89.717 846.25 88.5198L844.509 87.5357ZM843.17 93.51H841.17C841.17 96.1848 841.953 98.5444 843.644 100.414L845.127 99.0723L846.61 97.7305C845.693 96.716 845.17 95.3674 845.17 93.51H843.17ZM845.127 99.0723L843.713 100.487C845.312 102.086 847.339 103.353 849.731 104.324L850.484 102.471L851.236 100.619C849.233 99.8048 847.689 98.8057 846.542 97.6581L845.127 99.0723ZM850.484 102.471L849.751 104.332C852.131 105.27 854.776 106.054 857.677 106.691L858.106 104.738L858.535 102.784C855.805 102.185 853.368 101.458 851.217 100.611L850.484 102.471ZM858.106 104.738L857.723 106.701C860.511 107.245 863.334 107.857 866.192 108.537L866.656 106.592L867.119 104.646C864.209 103.953 861.332 103.329 858.489 102.775L858.106 104.738ZM866.656 106.592L866.203 108.54C869.091 109.212 871.911 110.017 874.662 110.957L875.308 109.064L875.954 107.171C873.074 106.188 870.125 105.345 867.109 104.644L866.656 106.592ZM875.308 109.064L874.704 110.97C877.336 111.805 879.649 112.951 881.66 114.396L882.827 112.772L883.995 111.148C881.611 109.435 878.911 108.108 875.913 107.157L875.308 109.064ZM882.827 112.772L881.684 114.413C883.697 115.816 885.271 117.573 886.426 119.701L888.184 118.746L889.941 117.792C888.487 115.112 886.49 112.887 883.971 111.131L882.827 112.772ZM888.184 118.746L886.447 119.739C887.602 121.759 888.244 124.413 888.244 127.811H890.244H892.244C892.244 123.93 891.512 120.54 889.92 117.754L888.184 118.746ZM890.244 127.811H888.244C888.244 131.413 887.426 134.392 885.877 136.834L887.566 137.905L889.255 138.977C891.276 135.788 892.244 132.037 892.244 127.811H890.244ZM887.566 137.905L885.87 136.845C884.309 139.342 882.285 141.399 879.78 143.027L880.87 144.704L881.96 146.381C884.949 144.438 887.389 141.963 889.262 138.965L887.566 137.905ZM880.87 144.704L879.81 143.008C877.273 144.594 874.399 145.748 871.17 146.459L871.6 148.412L872.03 150.365C875.667 149.565 878.974 148.248 881.93 146.4L880.87 144.704ZM871.6 148.412L871.124 146.469C867.91 147.256 864.705 147.648 861.505 147.648V149.648V151.648C865.035 151.648 868.56 151.216 872.076 150.355L871.6 148.412ZM861.505 149.648V147.648C857.553 147.648 853.82 147.154 850.298 146.176L849.763 148.103L849.227 150.03C853.122 151.112 857.217 151.648 861.505 151.648V149.648ZM849.763 148.103L850.307 146.179C846.877 145.208 843.869 143.762 841.261 141.854L840.08 143.468L838.899 145.082C841.922 147.294 845.369 148.938 849.218 150.027L849.763 148.103ZM840.08 143.468L841.305 141.887C838.801 139.946 836.789 137.501 835.269 134.524L833.488 135.433L831.707 136.343C833.482 139.821 835.866 142.732 838.855 145.049L840.08 143.468ZM833.488 135.433L835.291 134.569C833.867 131.596 833.119 128.023 833.119 123.794H831.119H829.119C829.119 128.491 829.95 132.679 831.684 136.298L833.488 135.433ZM831.119 123.794V125.794H840.389V123.794V121.794H831.119V123.794ZM840.389 123.794H838.389C838.389 127.136 839.021 130.141 840.362 132.744L842.14 131.828L843.918 130.912C842.924 128.983 842.389 126.632 842.389 123.794H840.389ZM842.14 131.828L840.397 132.809C841.762 135.236 843.523 137.271 845.678 138.887L846.878 137.287L848.078 135.687C846.389 134.42 844.99 132.815 843.883 130.848L842.14 131.828ZM846.878 137.287L845.705 138.907C847.916 140.508 850.446 141.671 853.271 142.415L853.78 140.481L854.289 138.546C851.895 137.916 849.824 136.951 848.051 135.668L846.878 137.287ZM853.78 140.481L853.271 142.415C856.049 143.146 858.899 143.511 861.814 143.511V141.511V139.511C859.236 139.511 856.729 139.189 854.289 138.546L853.78 140.481ZM861.814 141.511V143.511C864.138 143.511 866.458 143.293 868.775 142.858L868.407 140.893L868.038 138.927C865.96 139.316 863.886 139.511 861.814 139.511V141.511ZM868.407 140.893L868.764 142.86C871.209 142.416 873.439 141.667 875.432 140.593L874.484 138.832L873.536 137.072C871.958 137.921 870.136 138.545 868.049 138.925L868.407 140.893ZM874.484 138.832L875.483 140.565C877.543 139.377 879.221 137.78 880.495 135.79L878.81 134.712L877.126 133.634C876.202 135.078 874.996 136.228 873.485 137.1L874.484 138.832ZM878.81 134.712L880.495 135.79C881.855 133.665 882.458 131.062 882.458 128.12H880.458H878.458C878.458 130.534 877.963 132.326 877.126 133.634L878.81 134.712ZM880.458 128.12H882.458C882.458 125.205 881.662 122.644 879.907 120.627L878.398 121.94L876.889 123.252C877.882 124.394 878.458 125.954 878.458 128.12H880.458ZM878.398 121.94L879.94 120.666C878.394 118.794 876.325 117.349 873.823 116.287L873.042 118.128L872.261 119.97C874.291 120.831 875.793 121.927 876.856 123.213L878.398 121.94ZM873.042 118.128L873.891 116.317C871.537 115.214 868.885 114.347 865.951 113.703L865.522 115.656L865.094 117.61C867.79 118.202 870.152 118.983 872.193 119.939L873.042 118.128ZM865.522 115.656L865.951 113.703C863.129 113.083 860.239 112.464 857.28 111.845L856.87 113.802L856.46 115.76C859.407 116.376 862.285 116.993 865.094 117.61L865.522 115.656ZM856.87 113.802L857.333 111.857C854.482 111.178 851.665 110.431 848.882 109.617L848.321 111.536L847.759 113.455C850.607 114.289 853.49 115.053 856.407 115.748L856.87 113.802ZM848.321 111.536L848.925 109.63C846.244 108.779 843.851 107.709 841.735 106.426L840.698 108.137L839.662 109.847C842.078 111.312 844.766 112.507 847.716 113.442L848.321 111.536ZM840.698 108.137L841.795 106.465C839.836 105.179 838.256 103.567 837.038 101.618L835.342 102.678L833.646 103.738C835.175 106.183 837.165 108.211 839.601 109.809L840.698 108.137ZM835.342 102.678L837.075 101.68C835.988 99.7921 835.385 97.3439 835.385 94.231H833.385H831.385C831.385 97.8479 832.086 101.031 833.609 103.675L835.342 102.678ZM833.385 94.231H835.385C835.385 90.7964 836.083 87.9563 837.393 85.6342L835.651 84.6515L833.909 83.6689C832.197 86.703 831.385 90.2493 831.385 94.231H833.385ZM835.651 84.6515L837.403 85.6154C838.772 83.1274 840.558 81.1322 842.766 79.5989L841.625 77.9561L840.484 76.3134C837.748 78.2136 835.552 80.682 833.898 83.6877L835.651 84.6515ZM841.625 77.9561L842.775 79.5925C845.111 77.9514 847.74 76.744 850.679 75.9772L850.175 74.0419L849.67 72.1067C846.292 72.9879 843.221 74.39 840.475 76.3198L841.625 77.9561ZM850.175 74.0419L850.708 75.9695C853.761 75.1251 856.878 74.7029 860.063 74.7029V72.7029V70.7029C856.519 70.7029 853.043 71.1733 849.641 72.1143L850.175 74.0419ZM860.063 72.7029V74.7029C863.682 74.7029 867.003 75.1305 870.037 75.9695L870.57 74.0419L871.103 72.1143C867.681 71.1679 863.998 70.7029 860.063 70.7029V72.7029ZM870.57 74.0419L870.037 75.9695C873.026 76.7965 875.593 78.0877 877.767 79.8269L879.016 78.2652L880.266 76.7034C877.633 74.5971 874.568 73.0728 871.103 72.1143L870.57 74.0419ZM879.016 78.2652L877.788 79.8439C880 81.5637 881.726 83.7455 882.971 86.422L884.785 85.5786L886.598 84.7351C885.096 81.506 882.977 78.8122 880.244 76.6865L879.016 78.2652ZM884.785 85.5786L882.996 86.473C884.281 89.0427 885.025 92.2141 885.155 96.0499L887.154 95.9821L889.153 95.9144C889.008 91.647 888.173 87.8828 886.573 84.6841L884.785 85.5786ZM887.154 95.9821V93.9821H877.883V95.9821V97.9821H887.154V95.9821ZM944.676 95.9821L942.687 96.1888L942.873 97.9821H944.676V95.9821ZM938.908 84.5485L937.713 86.1526L937.732 86.1668L937.752 86.1806L938.908 84.5485ZM920.367 81.5613L920.772 83.5199L920.772 83.5199L920.367 81.5613ZM915.01 83.6215L913.97 81.9131L913.953 81.9234L913.936 81.9341L915.01 83.6215ZM911.302 87.5357L909.574 86.5279L909.568 86.5397L909.561 86.5516L911.302 87.5357ZM911.92 99.0723L910.437 100.414L910.471 100.451L910.506 100.487L911.92 99.0723ZM917.276 102.471L916.524 104.324L916.533 104.328L916.543 104.332L917.276 102.471ZM924.899 104.738L924.47 106.691L924.493 106.696L924.516 106.701L924.899 104.738ZM933.448 106.592L932.985 108.537L932.995 108.54L933.448 106.592ZM942.101 109.064L941.454 110.957L941.475 110.964L941.496 110.97L942.101 109.064ZM949.62 112.772L948.453 114.396L948.465 114.405L948.477 114.413L949.62 112.772ZM954.976 118.746L953.219 119.701L953.229 119.72L953.24 119.739L954.976 118.746ZM954.358 137.905L952.669 136.834L952.662 136.845L954.358 137.905ZM947.663 144.704L948.723 146.4L948.738 146.39L948.753 146.381L947.663 144.704ZM938.393 148.412L937.963 146.459L937.94 146.464L937.917 146.469L938.393 148.412ZM916.555 148.103L916.011 150.027L916.02 150.03L916.555 148.103ZM906.873 143.468L905.648 145.049L905.669 145.066L905.692 145.082L906.873 143.468ZM900.28 135.433L898.477 136.298L898.488 136.32L898.499 136.343L900.28 135.433ZM897.911 123.794V121.794H895.911V123.794H897.911ZM907.182 123.794H909.182V121.794H907.182V123.794ZM908.933 131.828L907.155 132.744L907.172 132.777L907.19 132.809L908.933 131.828ZM913.671 137.287L912.471 138.887L912.485 138.897L912.498 138.907L913.671 137.287ZM920.573 140.481L920.064 142.415L920.573 140.481ZM935.199 140.893L934.842 138.925L934.831 138.927L935.199 140.893ZM941.277 138.832L942.225 140.593L942.251 140.58L942.276 140.565L941.277 138.832ZM945.603 134.712L943.918 133.634L943.918 133.634L945.603 134.712ZM945.191 121.94L943.649 123.213L943.665 123.233L943.682 123.252L945.191 121.94ZM939.835 118.128L938.986 119.939L939.019 119.955L939.054 119.97L939.835 118.128ZM923.663 113.802L923.199 115.748L923.226 115.754L923.253 115.76L923.663 113.802ZM915.113 111.536L914.509 113.442L914.53 113.449L914.551 113.455L915.113 111.536ZM907.491 108.137L906.394 109.809L906.424 109.829L906.454 109.847L907.491 108.137ZM902.135 102.678L900.401 103.675L900.419 103.707L900.439 103.738L902.135 102.678ZM902.444 84.6515L904.186 85.6342L904.191 85.6248L904.196 85.6154L902.444 84.6515ZM908.418 77.9561L909.559 79.5989L909.568 79.5925L908.418 77.9561ZM916.967 74.0419L917.472 75.9772L917.486 75.9735L917.501 75.9695L916.967 74.0419ZM937.362 74.0419L937.896 72.1143L937.896 72.1143L937.362 74.0419ZM945.809 78.2652L944.56 79.8269L944.57 79.8355L944.581 79.8439L945.809 78.2652ZM951.577 85.5786L949.764 86.422L949.776 86.4477L949.788 86.473L951.577 85.5786ZM953.946 95.9821V97.9821H956.015L955.945 95.9144L953.946 95.9821ZM944.676 95.9821L946.665 95.7755C946.076 90.1069 943.967 85.6815 940.064 82.9165L938.908 84.5485L937.752 86.1806C940.44 88.0851 942.177 91.2821 942.687 96.1888L944.676 95.9821ZM938.908 84.5485L940.102 82.9444C936.448 80.2231 931.842 78.9433 926.444 78.9433V80.9433V82.9433C931.209 82.9433 934.912 84.067 937.713 86.1526L938.908 84.5485ZM926.444 80.9433V78.9433C924.249 78.9433 922.088 79.1629 919.961 79.6028L920.367 81.5613L920.772 83.5199C922.628 83.1358 924.518 82.9433 926.444 82.9433V80.9433ZM920.367 81.5613L919.961 79.6028C917.768 80.0566 915.764 80.8213 913.97 81.9131L915.01 83.6215L916.05 85.3299C917.415 84.4989 918.982 83.8901 920.772 83.5199L920.367 81.5613ZM915.01 83.6215L913.936 81.9341C912.139 83.0778 910.686 84.623 909.574 86.5279L911.302 87.5357L913.03 88.5434C913.841 87.1522 914.86 86.0878 916.084 85.3088L915.01 83.6215ZM911.302 87.5357L909.561 86.5516C908.452 88.5132 907.963 90.87 907.963 93.51H909.963H911.963C911.963 91.3431 912.366 89.717 913.043 88.5198L911.302 87.5357ZM909.963 93.51H907.963C907.963 96.1848 908.745 98.5444 910.437 100.414L911.92 99.0723L913.403 97.7305C912.485 96.716 911.963 95.3674 911.963 93.51H909.963ZM911.92 99.0723L910.506 100.487C912.105 102.086 914.132 103.353 916.524 104.324L917.276 102.471L918.029 100.619C916.026 99.8048 914.482 98.8057 913.334 97.6581L911.92 99.0723ZM917.276 102.471L916.543 104.332C918.924 105.27 921.569 106.054 924.47 106.691L924.899 104.738L925.328 102.784C922.598 102.185 920.161 101.458 918.009 100.611L917.276 102.471ZM924.899 104.738L924.516 106.701C927.304 107.245 930.127 107.857 932.985 108.537L933.448 106.592L933.912 104.646C931.002 103.953 928.125 103.329 925.282 102.775L924.899 104.738ZM933.448 106.592L932.995 108.54C935.884 109.212 938.704 110.017 941.454 110.957L942.101 109.064L942.747 107.171C939.867 106.188 936.918 105.345 933.901 104.644L933.448 106.592ZM942.101 109.064L941.496 110.97C944.129 111.805 946.442 112.951 948.453 114.396L949.62 112.772L950.787 111.148C948.404 109.435 945.704 108.108 942.705 107.157L942.101 109.064ZM949.62 112.772L948.477 114.413C950.49 115.816 952.064 117.573 953.219 119.701L954.976 118.746L956.734 117.792C955.279 115.112 953.283 112.887 950.764 111.131L949.62 112.772ZM954.976 118.746L953.24 119.739C954.395 121.759 955.037 124.413 955.037 127.811H957.037H959.037C959.037 123.93 958.305 120.54 956.713 117.754L954.976 118.746ZM957.037 127.811H955.037C955.037 131.413 954.219 134.392 952.669 136.834L954.358 137.905L956.047 138.977C958.069 135.788 959.037 132.037 959.037 127.811H957.037ZM954.358 137.905L952.662 136.845C951.102 139.342 949.078 141.399 946.573 143.027L947.663 144.704L948.753 146.381C951.742 144.438 954.181 141.963 956.054 138.965L954.358 137.905ZM947.663 144.704L946.603 143.008C944.066 144.594 941.192 145.748 937.963 146.459L938.393 148.412L938.822 150.365C942.46 149.565 945.766 148.248 948.723 146.4L947.663 144.704ZM938.393 148.412L937.917 146.469C934.703 147.256 931.498 147.648 928.298 147.648V149.648V151.648C931.828 151.648 935.352 151.216 938.868 150.355L938.393 148.412ZM928.298 149.648V147.648C924.346 147.648 920.613 147.154 917.091 146.176L916.555 148.103L916.02 150.03C919.914 151.112 924.01 151.648 928.298 151.648V149.648ZM916.555 148.103L917.1 146.179C913.67 145.208 910.662 143.762 908.054 141.854L906.873 143.468L905.692 145.082C908.715 147.294 912.162 148.938 916.011 150.027L916.555 148.103ZM906.873 143.468L908.098 141.887C905.594 139.946 903.582 137.501 902.062 134.524L900.28 135.433L898.499 136.343C900.275 139.821 902.658 142.732 905.648 145.049L906.873 143.468ZM900.28 135.433L902.084 134.569C900.659 131.596 899.911 128.023 899.911 123.794H897.911H895.911C895.911 128.491 896.743 132.679 898.477 136.298L900.28 135.433ZM897.911 123.794V125.794H907.182V123.794V121.794H897.911V123.794ZM907.182 123.794H905.182C905.182 127.136 905.814 130.141 907.155 132.744L908.933 131.828L910.711 130.912C909.717 128.983 909.182 126.632 909.182 123.794H907.182ZM908.933 131.828L907.19 132.809C908.555 135.236 910.315 137.271 912.471 138.887L913.671 137.287L914.871 135.687C913.181 134.42 911.783 132.815 910.676 130.848L908.933 131.828ZM913.671 137.287L912.498 138.907C914.708 140.508 917.239 141.671 920.064 142.415L920.573 140.481L921.082 138.546C918.688 137.916 916.617 136.951 914.844 135.668L913.671 137.287ZM920.573 140.481L920.064 142.415C922.842 143.146 925.692 143.511 928.607 143.511V141.511V139.511C926.029 139.511 923.522 139.189 921.082 138.546L920.573 140.481ZM928.607 141.511V143.511C930.93 143.511 933.251 143.293 935.568 142.858L935.199 140.893L934.831 138.927C932.753 139.316 930.679 139.511 928.607 139.511V141.511ZM935.199 140.893L935.557 142.86C938.002 142.416 940.232 141.667 942.225 140.593L941.277 138.832L940.328 137.072C938.751 137.921 936.929 138.545 934.842 138.925L935.199 140.893ZM941.277 138.832L942.276 140.565C944.336 139.377 946.014 137.78 947.287 135.79L945.603 134.712L943.918 133.634C942.994 135.078 941.788 136.228 940.277 137.1L941.277 138.832ZM945.603 134.712L947.287 135.79C948.648 133.665 949.251 131.062 949.251 128.12H947.251H945.251C945.251 130.534 944.756 132.326 943.918 133.634L945.603 134.712ZM947.251 128.12H949.251C949.251 125.205 948.454 122.644 946.7 120.627L945.191 121.94L943.682 123.252C944.674 124.394 945.251 125.954 945.251 128.12H947.251ZM945.191 121.94L946.733 120.666C945.186 118.794 943.118 117.349 940.616 116.287L939.835 118.128L939.054 119.97C941.083 120.831 942.586 121.927 943.649 123.213L945.191 121.94ZM939.835 118.128L940.683 116.317C938.329 115.214 935.678 114.347 932.744 113.703L932.315 115.656L931.886 117.61C934.583 118.202 936.945 118.983 938.986 119.939L939.835 118.128ZM932.315 115.656L932.744 113.703C929.922 113.083 927.031 112.464 924.072 111.845L923.663 113.802L923.253 115.76C926.2 116.376 929.078 116.993 931.886 117.61L932.315 115.656ZM923.663 113.802L924.126 111.857C921.275 111.178 918.458 110.431 915.675 109.617L915.113 111.536L914.551 113.455C917.4 114.289 920.283 115.053 923.199 115.748L923.663 113.802ZM915.113 111.536L915.718 109.63C913.037 108.779 910.643 107.709 908.527 106.426L907.491 108.137L906.454 109.847C908.871 111.312 911.559 112.507 914.509 113.442L915.113 111.536ZM907.491 108.137L908.588 106.465C906.629 105.179 905.049 103.567 903.831 101.618L902.135 102.678L900.439 103.738C901.967 106.183 903.958 108.211 906.394 109.809L907.491 108.137ZM902.135 102.678L903.868 101.68C902.781 99.7921 902.177 97.3439 902.177 94.231H900.177H898.177C898.177 97.8479 898.879 101.031 900.401 103.675L902.135 102.678ZM900.177 94.231H902.177C902.177 90.7964 902.876 87.9563 904.186 85.6342L902.444 84.6515L900.702 83.6689C898.99 86.703 898.177 90.2493 898.177 94.231H900.177ZM902.444 84.6515L904.196 85.6154C905.564 83.1274 907.351 81.1322 909.559 79.5989L908.418 77.9561L907.277 76.3134C904.541 78.2136 902.344 80.682 900.691 83.6877L902.444 84.6515ZM908.418 77.9561L909.568 79.5925C911.903 77.9514 914.533 76.744 917.472 75.9772L916.967 74.0419L916.463 72.1067C913.085 72.9879 910.014 74.39 907.268 76.3198L908.418 77.9561ZM916.967 74.0419L917.501 75.9695C920.554 75.1251 923.67 74.7029 926.856 74.7029V72.7029V70.7029C923.312 70.7029 919.836 71.1733 916.434 72.1143L916.967 74.0419ZM926.856 72.7029V74.7029C930.475 74.7029 933.796 75.1305 936.829 75.9695L937.362 74.0419L937.896 72.1143C934.474 71.1679 930.79 70.7029 926.856 70.7029V72.7029ZM937.362 74.0419L936.829 75.9695C939.819 76.7965 942.386 78.0877 944.56 79.8269L945.809 78.2652L947.058 76.7034C944.425 74.5971 941.361 73.0728 937.896 72.1143L937.362 74.0419ZM945.809 78.2652L944.581 79.8439C946.792 81.5637 948.519 83.7455 949.764 86.422L951.577 85.5786L953.391 84.7351C951.889 81.506 949.77 78.8122 947.037 76.6865L945.809 78.2652ZM951.577 85.5786L949.788 86.473C951.073 89.0427 951.818 92.2141 951.948 96.0499L953.946 95.9821L955.945 95.9144C955.801 91.647 954.965 87.8828 953.366 84.6841L951.577 85.5786ZM953.946 95.9821V93.9821H944.676V95.9821V97.9821H953.946V95.9821ZM740.576 190.982L738.586 191.189L738.773 192.982H740.576V190.982ZM734.807 179.549L733.613 181.153L733.632 181.167L733.651 181.181L734.807 179.549ZM716.266 176.561L716.672 178.52L716.672 178.52L716.266 176.561ZM710.91 178.621L709.87 176.913L709.853 176.923L709.836 176.934L710.91 178.621ZM707.202 182.536L705.474 181.528L705.468 181.54L705.461 181.552L707.202 182.536ZM707.82 194.072L706.337 195.414L706.37 195.451L706.406 195.487L707.82 194.072ZM713.176 197.471L712.424 199.324L712.433 199.328L712.443 199.332L713.176 197.471ZM720.799 199.738L720.37 201.691L720.393 201.696L720.416 201.701L720.799 199.738ZM729.348 201.592L728.885 203.537L728.895 203.54L729.348 201.592ZM738.001 204.064L737.354 205.957L737.375 205.964L737.396 205.97L738.001 204.064ZM745.52 207.772L744.353 209.396L744.365 209.405L744.376 209.413L745.52 207.772ZM750.876 213.746L749.119 214.701L749.129 214.72L749.14 214.739L750.876 213.746ZM750.258 232.905L748.569 231.834L748.562 231.845L750.258 232.905ZM743.563 239.704L744.623 241.4L744.638 241.39L744.653 241.381L743.563 239.704ZM734.292 243.412L733.863 241.459L733.84 241.464L733.817 241.469L734.292 243.412ZM712.455 243.103L711.911 245.027L711.92 245.03L712.455 243.103ZM702.773 238.468L701.548 240.049L701.569 240.066L701.592 240.082L702.773 238.468ZM696.18 230.433L694.377 231.298L694.388 231.32L694.399 231.343L696.18 230.433ZM693.811 218.794V216.794H691.811V218.794H693.811ZM703.082 218.794H705.082V216.794H703.082V218.794ZM704.833 226.828L703.055 227.744L703.072 227.777L703.09 227.809L704.833 226.828ZM709.571 232.287L708.371 233.887L708.384 233.897L708.398 233.907L709.571 232.287ZM716.472 235.481L715.963 237.415L716.472 235.481ZM731.099 235.893L730.741 233.925L730.731 233.927L731.099 235.893ZM737.177 233.832L738.125 235.593L738.151 235.58L738.176 235.565L737.177 233.832ZM741.503 229.712L739.818 228.634L739.818 228.634L741.503 229.712ZM741.091 216.94L739.549 218.213L739.565 218.233L739.582 218.252L741.091 216.94ZM735.735 213.128L734.886 214.939L734.919 214.955L734.953 214.97L735.735 213.128ZM719.563 208.802L719.099 210.748L719.126 210.754L719.153 210.76L719.563 208.802ZM711.013 206.536L710.409 208.442L710.43 208.449L710.451 208.455L711.013 206.536ZM703.391 203.137L702.293 204.809L702.323 204.829L702.354 204.847L703.391 203.137ZM698.034 197.678L696.301 198.675L696.319 198.707L696.338 198.738L698.034 197.678ZM698.343 179.652L700.085 180.634L700.091 180.625L700.096 180.615L698.343 179.652ZM704.318 172.956L705.459 174.599L705.468 174.593L704.318 172.956ZM712.867 169.042L713.372 170.977L713.386 170.973L713.4 170.97L712.867 169.042ZM733.262 169.042L733.796 167.114L733.796 167.114L733.262 169.042ZM741.709 173.265L740.459 174.827L740.47 174.835L740.481 174.844L741.709 173.265ZM747.477 180.579L745.664 181.422L745.676 181.448L745.688 181.473L747.477 180.579ZM749.846 190.982V192.982H751.915L751.845 190.914L749.846 190.982ZM740.576 190.982L742.565 190.775C741.976 185.107 739.867 180.682 735.964 177.916L734.807 179.549L733.651 181.181C736.34 183.085 738.077 186.282 738.586 191.189L740.576 190.982ZM734.807 179.549L736.002 177.944C732.348 175.223 727.741 173.943 722.344 173.943V175.943V177.943C727.109 177.943 730.812 179.067 733.613 181.153L734.807 179.549ZM722.344 175.943V173.943C720.149 173.943 717.988 174.163 715.861 174.603L716.266 176.561L716.672 178.52C718.528 178.136 720.418 177.943 722.344 177.943V175.943ZM716.266 176.561L715.861 174.603C713.668 175.057 711.664 175.821 709.87 176.913L710.91 178.621L711.95 180.33C713.315 179.499 714.882 178.89 716.672 178.52L716.266 176.561ZM710.91 178.621L709.836 176.934C708.039 178.078 706.586 179.623 705.474 181.528L707.202 182.536L708.93 183.543C709.741 182.152 710.76 181.088 711.984 180.309L710.91 178.621ZM707.202 182.536L705.461 181.552C704.352 183.513 703.863 185.87 703.863 188.51H705.863H707.863C707.863 186.343 708.266 184.717 708.943 183.52L707.202 182.536ZM705.863 188.51H703.863C703.863 191.185 704.645 193.544 706.337 195.414L707.82 194.072L709.303 192.73C708.385 191.716 707.863 190.367 707.863 188.51H705.863ZM707.82 194.072L706.406 195.487C708.005 197.086 710.032 198.353 712.424 199.324L713.176 197.471L713.929 195.619C711.926 194.805 710.382 193.806 709.234 192.658L707.82 194.072ZM713.176 197.471L712.443 199.332C714.824 200.27 717.469 201.054 720.37 201.691L720.799 199.738L721.228 197.784C718.497 197.185 716.061 196.458 713.909 195.611L713.176 197.471ZM720.799 199.738L720.416 201.701C723.203 202.245 726.026 202.857 728.885 203.537L729.348 201.592L729.811 199.646C726.902 198.953 724.025 198.329 721.182 197.775L720.799 199.738ZM729.348 201.592L728.895 203.54C731.784 204.212 734.604 205.017 737.354 205.957L738.001 204.064L738.647 202.171C735.767 201.188 732.818 200.345 729.801 199.644L729.348 201.592ZM738.001 204.064L737.396 205.97C740.029 206.805 742.342 207.951 744.353 209.396L745.52 207.772L746.687 206.148C744.303 204.435 741.604 203.108 738.605 202.157L738.001 204.064ZM745.52 207.772L744.376 209.413C746.39 210.816 747.964 212.573 749.119 214.701L750.876 213.746L752.634 212.792C751.179 210.112 749.182 207.887 746.664 206.131L745.52 207.772ZM750.876 213.746L749.14 214.739C750.295 216.759 750.936 219.413 750.936 222.811H752.936H754.936C754.936 218.93 754.205 215.54 752.613 212.754L750.876 213.746ZM752.936 222.811H750.936C750.936 226.413 750.118 229.392 748.569 231.834L750.258 232.905L751.947 233.977C753.969 230.788 754.936 227.037 754.936 222.811H752.936ZM750.258 232.905L748.562 231.845C747.002 234.342 744.978 236.399 742.473 238.027L743.563 239.704L744.653 241.381C747.641 239.438 750.081 236.963 751.954 233.965L750.258 232.905ZM743.563 239.704L742.503 238.008C739.966 239.594 737.092 240.748 733.863 241.459L734.292 243.412L734.722 245.365C738.36 244.565 741.666 243.248 744.623 241.4L743.563 239.704ZM734.292 243.412L733.817 241.469C730.603 242.256 727.398 242.648 724.198 242.648V244.648V246.648C727.728 246.648 731.252 246.216 734.768 245.355L734.292 243.412ZM724.198 244.648V242.648C720.246 242.648 716.513 242.154 712.991 241.176L712.455 243.103L711.92 245.03C715.814 246.112 719.909 246.648 724.198 246.648V244.648ZM712.455 243.103L713 241.179C709.57 240.208 706.562 238.762 703.954 236.854L702.773 238.468L701.592 240.082C704.615 242.294 708.061 243.938 711.911 245.027L712.455 243.103ZM702.773 238.468L703.998 236.887C701.493 234.946 699.482 232.501 697.962 229.524L696.18 230.433L694.399 231.343C696.175 234.821 698.558 237.732 701.548 240.049L702.773 238.468ZM696.18 230.433L697.984 229.569C696.559 226.596 695.811 223.023 695.811 218.794H693.811H691.811C691.811 223.491 692.643 227.679 694.377 231.298L696.18 230.433ZM693.811 218.794V220.794H703.082V218.794V216.794H693.811V218.794ZM703.082 218.794H701.082C701.082 222.136 701.714 225.141 703.055 227.744L704.833 226.828L706.611 225.912C705.617 223.983 705.082 221.632 705.082 218.794H703.082ZM704.833 226.828L703.09 227.809C704.455 230.236 706.215 232.271 708.371 233.887L709.571 232.287L710.771 230.687C709.081 229.42 707.683 227.815 706.576 225.848L704.833 226.828ZM709.571 232.287L708.398 233.907C710.608 235.508 713.138 236.671 715.963 237.415L716.472 235.481L716.981 233.546C714.588 232.916 712.517 231.951 710.744 230.668L709.571 232.287ZM716.472 235.481L715.963 237.415C718.742 238.146 721.591 238.511 724.507 238.511V236.511V234.511C721.929 234.511 719.422 234.189 716.981 233.546L716.472 235.481ZM724.507 236.511V238.511C726.83 238.511 729.151 238.293 731.468 237.858L731.099 235.893L730.731 233.927C728.653 234.316 726.579 234.511 724.507 234.511V236.511ZM731.099 235.893L731.457 237.86C733.902 237.416 736.131 236.667 738.125 235.593L737.177 233.832L736.228 232.072C734.651 232.921 732.829 233.545 730.741 233.925L731.099 235.893ZM737.177 233.832L738.176 235.565C740.236 234.377 741.914 232.78 743.187 230.79L741.503 229.712L739.818 228.634C738.894 230.078 737.688 231.228 736.177 232.1L737.177 233.832ZM741.503 229.712L743.187 230.79C744.547 228.665 745.151 226.062 745.151 223.12H743.151H741.151C741.151 225.534 740.656 227.326 739.818 228.634L741.503 229.712ZM743.151 223.12H745.151C745.151 220.205 744.354 217.644 742.6 215.627L741.091 216.94L739.582 218.252C740.574 219.394 741.151 220.954 741.151 223.12H743.151ZM741.091 216.94L742.633 215.666C741.086 213.794 739.018 212.349 736.516 211.287L735.735 213.128L734.953 214.97C736.983 215.831 738.486 216.927 739.549 218.213L741.091 216.94ZM735.735 213.128L736.583 211.317C734.229 210.214 731.578 209.347 728.644 208.703L728.215 210.656L727.786 212.61C730.483 213.202 732.845 213.983 734.886 214.939L735.735 213.128ZM728.215 210.656L728.644 208.703C725.822 208.083 722.931 207.464 719.972 206.845L719.563 208.802L719.153 210.76C722.1 211.376 724.977 211.993 727.786 212.61L728.215 210.656ZM719.563 208.802L720.026 206.857C717.174 206.178 714.357 205.431 711.575 204.617L711.013 206.536L710.451 208.455C713.3 209.289 716.183 210.053 719.099 210.748L719.563 208.802ZM711.013 206.536L711.618 204.63C708.936 203.779 706.543 202.709 704.427 201.426L703.391 203.137L702.354 204.847C704.77 206.312 707.459 207.507 710.409 208.442L711.013 206.536ZM703.391 203.137L704.488 201.465C702.528 200.179 700.949 198.567 699.73 196.618L698.034 197.678L696.338 198.738C697.867 201.183 699.858 203.211 702.293 204.809L703.391 203.137ZM698.034 197.678L699.768 196.68C698.681 194.792 698.077 192.344 698.077 189.231H696.077H694.077C694.077 192.848 694.778 196.031 696.301 198.675L698.034 197.678ZM696.077 189.231H698.077C698.077 185.796 698.775 182.956 700.085 180.634L698.343 179.652L696.602 178.669C694.89 181.703 694.077 185.249 694.077 189.231H696.077ZM698.343 179.652L700.096 180.615C701.464 178.127 703.251 176.132 705.459 174.599L704.318 172.956L703.177 171.313C700.441 173.214 698.244 175.682 696.591 178.688L698.343 179.652ZM704.318 172.956L705.468 174.593C707.803 172.951 710.432 171.744 713.372 170.977L712.867 169.042L712.362 167.107C708.984 167.988 705.914 169.39 703.168 171.32L704.318 172.956ZM712.867 169.042L713.4 170.97C716.453 170.125 719.57 169.703 722.756 169.703V167.703V165.703C719.212 165.703 715.736 166.173 712.334 167.114L712.867 169.042ZM722.756 167.703V169.703C726.375 169.703 729.696 170.131 732.729 170.97L733.262 169.042L733.796 167.114C730.374 166.168 726.69 165.703 722.756 165.703V167.703ZM733.262 169.042L732.729 170.97C735.719 171.796 738.285 173.088 740.459 174.827L741.709 173.265L742.958 171.703C740.325 169.597 737.261 168.073 733.796 167.114L733.262 169.042ZM741.709 173.265L740.481 174.844C742.692 176.564 744.419 178.745 745.664 181.422L747.477 180.579L749.291 179.735C747.789 176.506 745.67 173.812 742.937 171.686L741.709 173.265ZM747.477 180.579L745.688 181.473C746.973 184.043 747.717 187.214 747.847 191.05L749.846 190.982L751.845 190.914C751.7 186.647 750.865 182.883 749.266 179.684L747.477 180.579ZM749.846 190.982V188.982H740.576V190.982V192.982H749.846V190.982ZM774.613 204.682H772.613V206.682H774.613V204.682ZM793.772 204.682L793.796 202.682L793.784 202.682H793.772V204.682ZM805.926 201.283L804.593 199.792L804.583 199.801L804.573 199.81L805.926 201.283ZM805.926 181.197L804.573 182.669L804.594 182.688L804.615 182.707L805.926 181.197ZM774.613 177.694V175.694H772.613V177.694H774.613ZM764.827 169.454V167.454H762.827V169.454H764.827ZM813.858 175.222L812.431 176.624L812.444 176.637L812.456 176.649L813.858 175.222ZM813.858 207.257L812.444 205.843L812.437 205.849L812.431 205.856L813.858 207.257ZM797.068 212.922L797.086 210.922L797.077 210.922H797.068V212.922ZM774.613 212.922V210.922H772.613V212.922H774.613ZM774.613 243V245H776.613V243H774.613ZM764.827 243H762.827V245H764.827V243ZM774.613 204.682V206.682H793.772V204.682V202.682H774.613V204.682ZM793.772 204.682L793.747 206.682C799.522 206.753 804.191 205.594 807.28 202.755L805.926 201.283L804.573 199.81C802.58 201.641 799.146 202.748 793.796 202.682L793.772 204.682ZM805.926 201.283L807.26 202.773C810.397 199.966 811.841 195.996 811.841 191.188H809.841H807.841C807.841 195.17 806.675 197.93 804.593 199.792L805.926 201.283ZM809.841 191.188H811.841C811.841 186.383 810.398 182.431 807.238 179.687L805.926 181.197L804.615 182.707C806.674 184.495 807.841 187.203 807.841 191.188H809.841ZM805.926 181.197L807.28 179.724C804.201 176.895 799.545 175.694 793.772 175.694V177.694V179.694C799.123 179.694 802.571 180.829 804.573 182.669L805.926 181.197ZM793.772 177.694V175.694H774.613V177.694V179.694H793.772V177.694ZM774.613 177.694H772.613V204.682H774.613H776.613V177.694H774.613ZM764.827 169.454V171.454H797.068V169.454V167.454H764.827V169.454ZM797.068 169.454V171.454C804.154 171.454 809.154 173.287 812.431 176.624L813.858 175.222L815.285 173.821C811.008 169.467 804.814 167.454 797.068 167.454V169.454ZM813.858 175.222L812.456 176.649C815.821 179.954 817.626 184.703 817.626 191.188H819.626H821.626C821.626 183.939 819.586 178.044 815.259 173.795L813.858 175.222ZM819.626 191.188H817.626C817.626 197.671 815.822 202.465 812.444 205.843L813.858 207.257L815.272 208.671C819.585 204.358 821.626 198.439 821.626 191.188H819.626ZM813.858 207.257L812.431 205.856C809.16 209.186 804.17 210.988 797.086 210.922L797.068 212.922L797.049 214.922C804.799 214.994 811.002 213.019 815.285 208.658L813.858 207.257ZM797.068 212.922V210.922H774.613V212.922V214.922H797.068V212.922ZM774.613 212.922H772.613V243H774.613H776.613V212.922H774.613ZM774.613 243V241H764.827V243V245H774.613V243ZM764.827 243H766.827V169.454H764.827H762.827V243H764.827ZM838.727 217.249L836.794 217.759L836.796 217.769L838.727 217.249ZM843.26 226.931L841.632 228.094L841.632 228.094L843.26 226.931ZM851.191 233.936L850.223 235.686L850.237 235.694L850.252 235.701L851.191 233.936ZM874.264 233.936L875.203 235.701L875.218 235.694L875.232 235.686L874.264 233.936ZM882.196 226.931L880.568 225.769L880.568 225.769L882.196 226.931ZM886.728 217.249L888.659 217.769L888.662 217.759L886.728 217.249ZM886.728 195.308L884.794 195.819L884.797 195.828L886.728 195.308ZM882.196 185.523L880.568 186.685L880.568 186.685L882.196 185.523ZM874.264 178.621L873.296 180.372L873.311 180.379L873.325 180.387L874.264 178.621ZM851.191 178.621L852.13 180.387L852.145 180.379L852.159 180.372L851.191 178.621ZM838.727 195.308L840.659 195.828L840.661 195.819L838.727 195.308ZM829.663 191.806L827.76 191.191L827.757 191.199L827.754 191.208L829.663 191.806ZM836.358 179.445L834.817 178.171L834.817 178.171L836.358 179.445ZM847.38 170.896L846.508 169.096L846.508 169.096L847.38 170.896ZM878.075 170.896L878.947 169.096L878.947 169.096L878.075 170.896ZM889.097 179.445L890.638 178.171L890.638 178.171L889.097 179.445ZM895.689 191.806L893.779 192.396L893.784 192.413L893.789 192.43L895.689 191.806ZM895.689 220.751L893.787 220.135L893.784 220.144L893.781 220.153L895.689 220.751ZM889.097 233.008L887.556 231.734L889.097 233.008ZM878.075 241.558L878.924 243.369L878.936 243.363L878.947 243.358L878.075 241.558ZM847.38 241.558L846.508 243.358L846.519 243.363L846.531 243.369L847.38 241.558ZM829.663 220.751L827.752 221.341L827.757 221.358L827.763 221.375L829.663 220.751ZM837.285 206.227H835.285C835.285 210.11 835.789 213.956 836.794 217.759L838.727 217.249L840.661 216.738C839.743 213.262 839.285 209.76 839.285 206.227H837.285ZM838.727 217.249L836.796 217.769C837.817 221.56 839.427 225.007 841.632 228.094L843.26 226.931L844.887 225.769C842.972 223.087 841.561 220.079 840.659 216.729L838.727 217.249ZM843.26 226.931L841.632 228.094C843.873 231.23 846.745 233.762 850.223 235.686L851.191 233.936L852.159 232.185C849.182 230.538 846.767 228.4 844.887 225.769L843.26 226.931ZM851.191 233.936L850.252 235.701C853.826 237.602 858.008 238.511 862.728 238.511V236.511V234.511C858.52 234.511 855.011 233.702 852.13 232.17L851.191 233.936ZM862.728 236.511V238.511C867.447 238.511 871.63 237.602 875.203 235.701L874.264 233.936L873.325 232.17C870.444 233.702 866.935 234.511 862.728 234.511V236.511ZM874.264 233.936L875.232 235.686C878.71 233.762 881.583 231.23 883.823 228.094L882.196 226.931L880.568 225.769C878.688 228.4 876.274 230.538 873.296 232.185L874.264 233.936ZM882.196 226.931L883.823 228.094C886.028 225.007 887.638 221.56 888.659 217.769L886.728 217.249L884.797 216.729C883.895 220.079 882.484 223.087 880.568 225.769L882.196 226.931ZM886.728 217.249L888.662 217.759C889.666 213.956 890.17 210.11 890.17 206.227H888.17H886.17C886.17 209.76 885.712 213.262 884.794 216.738L886.728 217.249ZM888.17 206.227H890.17C890.17 202.344 889.666 198.529 888.659 194.788L886.728 195.308L884.797 195.828C885.712 199.229 886.17 202.694 886.17 206.227H888.17ZM886.728 195.308L888.662 194.798C887.642 190.939 886.032 187.453 883.823 184.36L882.196 185.523L880.568 186.685C882.479 189.361 883.891 192.399 884.794 195.819L886.728 195.308ZM882.196 185.523L883.823 184.36C881.578 181.217 878.695 178.713 875.203 176.856L874.264 178.621L873.325 180.387C876.288 181.963 878.694 184.061 880.568 186.685L882.196 185.523ZM874.264 178.621L875.232 176.871C871.652 174.891 867.459 173.943 862.728 173.943V175.943V177.943C866.923 177.943 870.421 178.781 873.296 180.372L874.264 178.621ZM862.728 175.943V173.943C857.996 173.943 853.803 174.891 850.223 176.871L851.191 178.621L852.159 180.372C855.034 178.781 858.532 177.943 862.728 177.943V175.943ZM851.191 178.621L850.252 176.856C846.76 178.713 843.878 181.217 841.632 184.36L843.26 185.523L844.887 186.685C846.762 184.061 849.167 181.963 852.13 180.387L851.191 178.621ZM843.26 185.523L841.632 184.36C839.423 187.453 837.813 190.939 836.794 194.798L838.727 195.308L840.661 195.819C841.564 192.399 842.976 189.361 844.887 186.685L843.26 185.523ZM838.727 195.308L836.796 194.788C835.789 198.529 835.285 202.344 835.285 206.227H837.285H839.285C839.285 202.694 839.743 199.229 840.659 195.828L838.727 195.308ZM827.5 206.227H829.5C829.5 201.409 830.192 196.804 831.571 192.404L829.663 191.806L827.754 191.208C826.249 196.01 825.5 201.019 825.5 206.227H827.5ZM829.663 191.806L831.566 192.422C833.003 187.978 835.117 184.085 837.899 180.72L836.358 179.445L834.817 178.171C831.694 181.948 829.344 186.295 827.76 191.191L829.663 191.806ZM836.358 179.445L837.899 180.72C840.66 177.382 844.101 174.707 848.252 172.696L847.38 170.896L846.508 169.096C841.869 171.343 837.962 174.367 834.817 178.171L836.358 179.445ZM847.38 170.896L848.252 172.696C852.327 170.722 857.134 169.703 862.728 169.703V167.703V165.703C856.647 165.703 851.223 166.812 846.508 169.096L847.38 170.896ZM862.728 167.703V169.703C868.321 169.703 873.129 170.722 877.204 172.696L878.075 170.896L878.947 169.096C874.233 166.812 868.808 165.703 862.728 165.703V167.703ZM878.075 170.896L877.204 172.696C881.354 174.707 884.796 177.382 887.556 180.72L889.097 179.445L890.638 178.171C887.493 174.367 883.586 171.343 878.947 169.096L878.075 170.896ZM889.097 179.445L887.556 180.72C890.333 184.078 892.409 187.963 893.779 192.396L895.689 191.806L897.6 191.216C896.085 186.31 893.767 181.954 890.638 178.171L889.097 179.445ZM895.689 191.806L893.789 192.43C895.232 196.823 895.956 201.418 895.956 206.227H897.956H899.956C899.956 201.01 899.169 195.992 897.59 191.182L895.689 191.806ZM897.956 206.227H895.956C895.956 211.035 895.232 215.669 893.787 220.135L895.689 220.751L897.592 221.366C899.169 216.494 899.956 211.444 899.956 206.227H897.956ZM895.689 220.751L893.781 220.153C892.413 224.517 890.337 228.371 887.556 231.734L889.097 233.008L890.638 234.283C893.763 230.504 896.082 226.187 897.598 221.349L895.689 220.751ZM889.097 233.008L887.556 231.734C884.796 235.072 881.354 237.747 877.204 239.758L878.075 241.558L878.947 243.358C883.586 241.111 887.493 238.087 890.638 234.283L889.097 233.008ZM878.075 241.558L877.227 239.747C873.146 241.66 868.33 242.648 862.728 242.648V244.648V246.648C868.799 246.648 874.215 245.576 878.924 243.369L878.075 241.558ZM862.728 244.648V242.648C857.126 242.648 852.31 241.66 848.229 239.747L847.38 241.558L846.531 243.369C851.24 245.576 856.656 246.648 862.728 246.648V244.648ZM847.38 241.558L848.252 239.758C844.101 237.747 840.66 235.072 837.899 231.734L836.358 233.008L834.817 234.283C837.962 238.087 841.869 241.111 846.508 243.358L847.38 241.558ZM836.358 233.008L837.899 231.734C835.113 228.364 832.999 224.501 831.563 220.127L829.663 220.751L827.763 221.375C829.348 226.202 831.698 230.511 834.817 234.283L836.358 233.008ZM829.663 220.751L831.574 220.161C830.192 215.687 829.5 211.045 829.5 206.227H827.5H825.5C825.5 211.435 826.249 216.475 827.752 221.341L829.663 220.751ZM926.567 177.694H928.567V175.694H926.567V177.694ZM902.052 177.694H900.052V179.694H902.052V177.694ZM902.052 169.454V167.454H900.052V169.454H902.052ZM960.868 169.454H962.868V167.454H960.868V169.454ZM960.868 177.694V179.694H962.868V177.694H960.868ZM936.353 177.694V175.694H934.353V177.694H936.353ZM936.353 243V245H938.353V243H936.353ZM926.567 243H924.567V245H926.567V243ZM926.567 177.694V175.694H902.052V177.694V179.694H926.567V177.694ZM902.052 177.694H904.052V169.454H902.052H900.052V177.694H902.052ZM902.052 169.454V171.454H960.868V169.454V167.454H902.052V169.454ZM960.868 169.454H958.868V177.694H960.868H962.868V169.454H960.868ZM960.868 177.694V175.694H936.353V177.694V179.694H960.868V177.694ZM936.353 177.694H934.353V243H936.353H938.353V177.694H936.353ZM936.353 243V241H926.567V243V245H936.353V243ZM926.567 243H928.567V177.694H926.567H924.567V243H926.567Z" fill="#0073FF" mask="url(#path-3-outside-1_119_2464)"/>
</svg>
