<svg width="757" height="784" viewBox="0 0 757 784" fill="none" xmlns="http://www.w3.org/2000/svg">
<path d="M561.446 571.605C457.28 670.384 290.766 664.159 189.532 557.404C88.2975 450.65 90.9145 284.04 195.08 185.261C299.246 86.4818 465.76 92.7068 566.994 199.461C668.228 306.216 665.611 472.826 561.446 571.605Z" fill="#0073FF" stroke="white" stroke-width="8.7144"/>
<ellipse cx="376.583" cy="378.383" rx="26.0896" ry="26.223" transform="rotate(136.52 376.583 378.383)" fill="white"/>
<path d="M419.373 423.51C394.591 447.011 355.337 445.88 331.697 420.951C308.057 396.022 309.01 356.763 333.792 333.262C358.575 309.761 397.83 310.892 421.469 335.821C445.109 360.75 444.156 400.009 419.373 423.51Z" stroke="white" stroke-width="4.3572"/>
<path d="M535.759 549.686C442.541 638.083 294.931 633.8 206.063 540.085C117.195 446.371 120.748 298.742 213.966 210.345C307.184 121.948 454.794 126.231 543.662 219.945C632.53 313.659 628.977 461.289 535.759 549.686Z" stroke="white" stroke-width="4.3572"/>
<path d="M459.603 464.209C411.534 509.793 335.408 507.589 289.572 459.254C243.737 410.919 245.575 334.784 293.644 289.2C341.714 243.616 417.839 245.82 463.675 294.155C509.51 342.49 507.673 418.625 459.603 464.209Z" stroke="white" stroke-width="4.3572"/>
<path d="M518.124 526.565L486.692 485.874L468.648 466.846" stroke="white" stroke-width="2.1786"/>
<path d="M554.282 471.515L494.594 471.809L484.63 466.473L476.388 459.505" stroke="white" stroke-width="2.1786"/>
<path d="M474.992 552.821L468.861 492.929L465.06 482.157L458.295 475.023" stroke="white" stroke-width="2.1786"/>
<path d="M445.732 580.565L452.589 505.07L452.871 493.304L446.35 484.704" stroke="white" stroke-width="2.1786"/>
<path d="M423.684 588.333L439.805 512.267L440.948 499.685L435.287 490.269" stroke="white" stroke-width="2.1786" stroke-dasharray="8.71 8.71"/>
<path d="M389.41 579.766L417.793 518.355L421.389 507.663L419.097 499.049" stroke="white" stroke-width="2.1786"/>
<path d="M366.863 573.224L388.82 534.334L399.428 512.776L397.67 496.373" stroke="white" stroke-width="2.1786"/>
<path d="M339.192 569.897L356.846 535.087L366.594 514.344L366.876 502.578" stroke="white" stroke-width="2.1786"/>
<path d="M315.018 596.106L337.862 520.236L342.366 507.751L345.149 496.899" stroke="white" stroke-width="2.1786" stroke-dasharray="8.71 8.71"/>
<path d="M266.721 576.198L276.348 560.499L271.763 471.215L271.144 461.945L271.265 456.902L281.511 450.472" stroke="white" stroke-width="2.1786" stroke-dasharray="8.71 8.71"/>
<path d="M238.594 556.876L252.402 542.139L247.898 449.494L248.019 444.451L244.468 382.11L254.552 382.404" stroke="white" stroke-width="2.1786" stroke-dasharray="8.71 8.71"/>
<path d="M217.893 536.771L232.522 522.899L226.45 432.047L225.791 424.459L224.178 386.565L228.426 349.682L237.636 316.309L244.641 304.738L258.288 296.724L269.233 296.202L279.075 306.58" stroke="white" stroke-width="2.1786" stroke-dasharray="8.71 8.71"/>
<path d="M199.185 517.042L217.094 506.63L214.109 420.757L210.922 343.288L217.308 322.447L234.04 290.112L260.979 254.752L290.975 231.235L305.321 229.129L318.028 226.936L330.451 233.224L337.752 244.37L347.89 277.466" stroke="white" stroke-width="2.1786" stroke-dasharray="8.71 8.71"/>
<path d="M303.279 559.6L308.644 546.299L309.019 489.576L316.757 480.747" stroke="white" stroke-width="2.1786"/>
<path d="M510.824 417.938C510.986 418.519 511.586 418.858 512.165 418.697L521.595 416.067C522.173 415.906 522.511 415.305 522.349 414.724C522.188 414.144 521.587 413.804 521.009 413.966L512.627 416.303L510.282 407.897C510.12 407.317 509.52 406.977 508.942 407.139C508.363 407.3 508.025 407.901 508.187 408.482L510.824 417.938ZM527.684 389.511L526.736 388.974L510.924 417.11L511.872 417.646L512.82 418.183L528.632 390.047L527.684 389.511Z" fill="white"/>
<path d="M512.732 416.829L495.98 449.143L489.176 452.309L482.494 450.433" stroke="white" stroke-width="2.1786"/>
<path d="M568.921 388.187L505.042 456.977L499.018 462.689L488.974 460.714L479.051 453.697" stroke="white" stroke-width="2.1786"/>
<rect x="-1.49968" y="0.34388" width="20.5164" height="23.3033" transform="matrix(-0.530137 0.847912 -0.846604 -0.532223 497.57 209.698)" stroke="white" stroke-width="2.1786"/>
<path d="M398.798 401.811C385.932 414.012 365.552 413.424 353.279 400.482C341.006 387.54 341.5 367.158 354.367 354.957C367.233 342.756 387.613 343.343 399.886 356.285C412.159 369.227 411.665 389.61 398.798 401.811Z" stroke="white" stroke-width="2.1786"/>
<line y1="-1.0893" x2="23.3791" y2="-1.0893" transform="matrix(-0.943174 0.332301 -0.335869 -0.941909 615.697 296.191)" stroke="white" stroke-width="2.1786"/>
<line y1="-1.0893" x2="22.5123" y2="-1.0893" transform="matrix(-0.906626 0.421935 -0.424707 -0.905331 611.018 280.916)" stroke="white" stroke-width="2.1786"/>
<line y1="-1.0893" x2="22.5123" y2="-1.0893" transform="matrix(-0.906626 0.421935 -0.424707 -0.905331 604.618 267.272)" stroke="white" stroke-width="2.1786"/>
<line y1="-1.0893" x2="23.3635" y2="-1.0893" transform="matrix(-0.840956 0.541104 -0.542664 -0.83995 594.937 250.173)" stroke="white" stroke-width="2.1786"/>
<line y1="-1.0893" x2="23.3609" y2="-1.0893" transform="matrix(-0.799129 0.601159 -0.602075 -0.798439 581.896 232.971)" stroke="white" stroke-width="2.1786"/>
<line x1="566.321" y1="213.101" x2="549.111" y2="229.421" stroke="white" stroke-width="2.1786"/>
<line y1="-1.0893" x2="21.3477" y2="-1.0893" transform="matrix(-0.634094 0.773256 -0.772459 -0.635065 543.271 188.913)" stroke="white" stroke-width="2.1786"/>
<line y1="-1.0893" x2="23.8374" y2="-1.0893" transform="matrix(-0.653167 0.757214 -0.756554 -0.653931 524.159 185.875)" stroke="white" stroke-width="2.1786"/>
<line y1="-1.0893" x2="41.4326" y2="-1.0893" transform="matrix(-0.547776 0.836625 -0.835377 -0.549677 509.476 166.942)" stroke="white" stroke-width="2.1786"/>
<line y1="-1.0893" x2="21.2356" y2="-1.0893" transform="matrix(-0.339366 0.940654 -0.939262 -0.343202 459.702 138.582)" stroke="white" stroke-width="2.1786"/>
<line y1="-1.0893" x2="22.4076" y2="-1.0893" transform="matrix(-0.248411 0.968655 -0.967506 -0.25285 440.77 156.535)" stroke="white" stroke-width="2.1786"/>
<line y1="-1.0893" x2="23.7616" y2="-1.0893" transform="matrix(-0.165222 0.986256 -0.985436 -0.170049 419.365 137.409)" stroke="white" stroke-width="2.1786"/>
<line y1="-1.0893" x2="35.3408" y2="-1.0893" transform="matrix(-0.0715187 0.997439 -0.997063 -0.076582 397.557 135.092)" stroke="white" stroke-width="2.1786"/>
<line y1="-1.0893" x2="19.1957" y2="-1.0893" transform="matrix(0.239558 0.970882 -0.971925 0.235289 312.957 156.181)" stroke="white" stroke-width="2.1786"/>
<line y1="-1.0893" x2="22.4577" y2="-1.0893" transform="matrix(0.20117 0.979556 -0.980468 0.196677 335.008 148.411)" stroke="white" stroke-width="2.1786"/>
<line y1="-1.0893" x2="21.9313" y2="-1.0893" transform="matrix(0.0527307 0.998609 -0.998862 0.0476966 363.619 147.561)" stroke="white" stroke-width="2.1786"/>
<line y1="-1.0893" x2="18.5802" y2="-1.0893" transform="matrix(0.0665819 0.997781 -0.998102 0.0615754 365.744 129.12)" stroke="white" stroke-width="2.1786"/>
<line y1="-1.0893" x2="17.1638" y2="-1.0893" transform="matrix(0.172347 0.985036 -0.985837 0.167707 335.412 131.602)" stroke="white" stroke-width="2.1786"/>
<line y1="-1.0893" x2="18.5802" y2="-1.0893" transform="matrix(0.0665819 0.997781 -0.998102 0.0615754 350.659 127)" stroke="white" stroke-width="2.1786"/>
<line y1="-1.0893" x2="27.7636" y2="-1.0893" transform="matrix(0.218903 0.975747 -0.976722 0.21451 315.403 124.292)" stroke="white" stroke-width="2.1786"/>
<line y1="-1.0893" x2="21.3007" y2="-1.0893" transform="matrix(0.292894 0.956145 -0.957332 0.28899 296.634 135.521)" stroke="white" stroke-width="2.1786"/>
<line y1="-1.0893" x2="21.3007" y2="-1.0893" transform="matrix(0.292894 0.956145 -0.957332 0.28899 294.349 160.686)" stroke="white" stroke-width="2.1786"/>
<line y1="-1.0893" x2="25.6575" y2="-1.0893" transform="matrix(0.371024 0.928623 -0.929923 0.367755 272.943 141.559)" stroke="white" stroke-width="2.1786"/>
<line y1="-1.0893" x2="20.3554" y2="-1.0893" transform="matrix(0.391044 0.920372 -0.921678 0.387955 279.021 168.648)" stroke="white" stroke-width="2.1786"/>
<line y1="-1.0893" x2="20.3554" y2="-1.0893" transform="matrix(0.391044 0.920372 -0.921678 0.387955 262.536 154.713)" stroke="white" stroke-width="2.1786"/>
<line y1="-1.0893" x2="19.6524" y2="-1.0893" transform="matrix(0.492605 0.870253 -0.871433 0.490515 263.693 176.613)" stroke="white" stroke-width="2.1786"/>
<line x1="208.901" y1="179.293" x2="226.945" y2="198.321" stroke="white" stroke-width="2.1786"/>
<line y1="-1.0893" x2="16.8407" y2="-1.0893" transform="matrix(0.518601 0.855016 -0.856116 0.516784 247.209 162.68)" stroke="white" stroke-width="2.1786"/>
<line y1="-1.0893" x2="14.4988" y2="-1.0893" transform="matrix(0.560127 0.828407 -0.829332 0.558756 235.161 174.103)" stroke="white" stroke-width="2.1786"/>
<line x1="221.781" y1="203.217" x2="238.184" y2="220.515" stroke="white" stroke-width="2.1786"/>
<line x1="230.385" y1="195.058" x2="240.227" y2="205.437" stroke="white" stroke-width="2.1786"/>
<line y1="-1.0893" x2="12.8288" y2="-1.0893" transform="matrix(0.371024 0.928623 -0.929923 0.367755 251.806 181.315)" stroke="white" stroke-width="2.1786"/>
<line y1="-1.0893" x2="12.1532" y2="-1.0893" transform="matrix(0.533256 0.845954 -0.846998 0.531596 238.201 187.647)" stroke="white" stroke-width="2.1786"/>
<line x1="201.613" y1="202.631" x2="211.455" y2="213.01" stroke="white" stroke-width="2.1786"/>
<ellipse cx="540.537" cy="344.468" rx="2.37178" ry="2.38391" transform="rotate(136.52 540.537 344.468)" fill="white"/>
<ellipse cx="532.094" cy="345.905" rx="2.37178" ry="2.38391" transform="rotate(136.52 532.094 345.905)" fill="white"/>
<ellipse cx="537.337" cy="337.646" rx="2.37178" ry="2.38391" transform="rotate(136.52 537.337 337.646)" fill="white"/>
<ellipse cx="532.576" cy="325.732" rx="2.37178" ry="2.38391" transform="rotate(136.52 532.576 325.732)" fill="white"/>
<ellipse cx="536.101" cy="319.105" rx="2.37178" ry="2.38391" transform="rotate(136.52 536.101 319.105)" fill="white"/>
<ellipse cx="521.095" cy="313.624" rx="2.37178" ry="2.38391" transform="rotate(136.52 521.095 313.624)" fill="white"/>
<ellipse cx="526.178" cy="312.091" rx="2.37178" ry="2.38391" transform="rotate(136.52 526.178 312.091)" fill="white"/>
<ellipse cx="522.976" cy="305.268" rx="2.37178" ry="2.38391" transform="rotate(136.52 522.976 305.268)" fill="white"/>
<ellipse cx="508.134" cy="293.06" rx="2.37178" ry="2.38391" transform="rotate(136.52 508.134 293.06)" fill="white"/>
<ellipse cx="523.298" cy="291.821" rx="2.37178" ry="2.38391" transform="rotate(136.52 523.298 291.821)" fill="white"/>
<ellipse cx="518.379" cy="286.632" rx="2.37178" ry="2.38391" transform="rotate(136.52 518.379 286.632)" fill="white"/>
<ellipse cx="499.932" cy="284.411" rx="2.37178" ry="2.38391" transform="rotate(136.52 499.932 284.411)" fill="white"/>
<ellipse cx="506.734" cy="281.247" rx="2.37178" ry="2.38391" transform="rotate(136.52 506.734 281.247)" fill="white"/>
<ellipse cx="501.813" cy="276.056" rx="2.37178" ry="2.38391" transform="rotate(136.52 501.813 276.056)" fill="white"/>
<ellipse cx="485.249" cy="265.482" rx="2.37178" ry="2.38391" transform="rotate(136.52 485.249 265.482)" fill="white"/>
<ellipse cx="492.053" cy="262.314" rx="2.37178" ry="2.38391" transform="rotate(136.52 492.053 262.314)" fill="white"/>
<ellipse cx="496.974" cy="267.505" rx="2.37178" ry="2.38391" transform="rotate(136.52 496.974 267.505)" fill="white"/>
<ellipse cx="500.496" cy="260.881" rx="2.37178" ry="2.38391" transform="rotate(136.52 500.496 260.881)" fill="white"/>
<ellipse cx="482.13" cy="255.299" rx="2.37178" ry="2.38391" transform="rotate(136.52 482.13 255.299)" fill="white"/>
<ellipse cx="475.326" cy="258.465" rx="2.37178" ry="2.38391" transform="rotate(136.52 475.326 258.465)" fill="white"/>
<ellipse cx="477.208" cy="250.109" rx="2.37178" ry="2.38391" transform="rotate(136.52 477.208 250.109)" fill="white"/>
<ellipse cx="468.925" cy="244.822" rx="2.37178" ry="2.38391" transform="rotate(136.52 468.925 244.822)" fill="white"/>
<ellipse cx="465.806" cy="234.639" rx="2.37178" ry="2.38391" transform="rotate(136.52 465.806 234.639)" fill="white"/>
<ellipse cx="452.361" cy="234.248" rx="2.37178" ry="2.38391" transform="rotate(136.52 452.361 234.248)" fill="white"/>
<ellipse cx="448.839" cy="240.874" rx="2.37178" ry="2.38391" transform="rotate(136.52 448.839 240.874)" fill="white"/>
<ellipse cx="445.719" cy="230.689" rx="2.37178" ry="2.38391" transform="rotate(136.52 445.719 230.689)" fill="white"/>
<ellipse cx="439.238" cy="220.409" rx="2.37178" ry="2.38391" transform="rotate(136.52 439.238 220.409)" fill="white"/>
<ellipse cx="428.911" cy="230.2" rx="2.37178" ry="2.38391" transform="rotate(136.52 428.911 230.2)" fill="white"/>
<ellipse cx="434.236" cy="218.58" rx="2.37178" ry="2.38391" transform="rotate(136.52 434.236 218.58)" fill="white"/>
<ellipse cx="421.194" cy="201.383" rx="2.37178" ry="2.38391" transform="rotate(136.52 421.194 201.383)" fill="white"/>
<ellipse cx="418.908" cy="226.547" rx="2.37178" ry="2.38391" transform="rotate(136.52 418.908 226.547)" fill="white"/>
<ellipse cx="420.79" cy="218.189" rx="2.37178" ry="2.38391" transform="rotate(136.52 420.79 218.189)" fill="white"/>
<ellipse cx="414.067" cy="217.996" rx="2.37178" ry="2.38391" transform="rotate(136.52 414.067 217.996)" fill="white"/>
<ellipse cx="396.857" cy="234.316" rx="2.37178" ry="2.38391" transform="rotate(136.52 396.857 234.316)" fill="white"/>
<ellipse cx="404.064" cy="214.339" rx="2.37178" ry="2.38391" transform="rotate(136.52 404.064 214.339)" fill="white"/>
<ellipse cx="404.226" cy="207.615" rx="2.37178" ry="2.38391" transform="rotate(136.52 404.226 207.615)" fill="white"/>
<ellipse cx="395.54" cy="219.138" rx="2.37178" ry="2.38391" transform="rotate(136.52 395.54 219.138)" fill="white"/>
<ellipse cx="392.421" cy="208.956" rx="2.37178" ry="2.38391" transform="rotate(136.52 392.421 208.956)" fill="white"/>
<line y1="-1.0893" x2="14.4988" y2="-1.0893" transform="matrix(0.797528 0.603282 -0.601962 0.798524 180.09 226.325)" stroke="white" stroke-width="2.1786"/>
<line y1="-1.0893" x2="24.3065" y2="-1.0893" transform="matrix(0.816475 0.577381 -0.575778 0.817606 181.246 248.226)" stroke="white" stroke-width="2.1786"/>
<line y1="-1.0893" x2="16.8551" y2="-1.0893" transform="matrix(0.783356 0.621573 -0.620454 0.784243 200.258 226.911)" stroke="white" stroke-width="2.1786"/>
<line y1="-1.0893" x2="15.4606" y2="-1.0893" transform="matrix(-0.87562 -0.483001 0.480409 -0.877044 172.479 263.111)" stroke="white" stroke-width="2.1786"/>
<line y1="-1.0893" x2="15.0695" y2="-1.0893" transform="matrix(0.881527 0.472135 -0.469435 0.882967 168.956 269.737)" stroke="white" stroke-width="2.1786"/>
<line y1="-1.0893" x2="23.4592" y2="-1.0893" transform="matrix(0.922766 0.385361 -0.381865 0.924218 160.109 287.982)" stroke="white" stroke-width="2.1786"/>
<line y1="-1.0893" x2="15.9755" y2="-1.0893" transform="matrix(0.939262 0.343202 -0.339366 0.940654 152.983 304.595)" stroke="white" stroke-width="2.1786"/>
<line y1="-1.0893" x2="13.8818" y2="-1.0893" transform="matrix(0.962761 0.270355 -0.26602 0.963968 137.737 309.199)" stroke="white" stroke-width="2.1786"/>
<line y1="-1.0893" x2="22.4577" y2="-1.0893" transform="matrix(0.967506 0.25285 -0.248411 0.968655 150.939 319.677)" stroke="white" stroke-width="2.1786"/>
<line y1="-1.0893" x2="25.2855" y2="-1.0893" transform="matrix(0.995431 0.0954852 -0.0904518 0.995901 145.214 348.104)" stroke="white" stroke-width="2.1786"/>
<line y1="-1.0893" x2="17.1638" y2="-1.0893" transform="matrix(0.974507 0.224357 -0.219767 0.975552 130.691 322.45)" stroke="white" stroke-width="2.1786"/>
<line y1="-1.0893" x2="18.5802" y2="-1.0893" transform="matrix(0.992844 0.119417 -0.114435 0.993431 128.647 337.529)" stroke="white" stroke-width="2.1786"/>
<line y1="-1.0893" x2="26.9024" y2="-1.0893" transform="matrix(0.999577 0.029082 -0.0239834 0.999712 141.286 371.539)" stroke="white" stroke-width="2.1786"/>
<line y1="-1.0893" x2="16.814" y2="-1.0893" transform="matrix(0.999577 0.029082 -0.0239835 0.999712 126.039 376.143)" stroke="white" stroke-width="2.1786"/>
<line y1="-1.0893" x2="16.814" y2="-1.0893" transform="matrix(0.999577 0.029082 -0.0239835 0.999712 126.523 355.97)" stroke="white" stroke-width="2.1786"/>
<line y1="-1.0893" x2="25.2684" y2="-1.0893" transform="matrix(0.999297 -0.0374949 0.0425462 0.999094 144.164 391.809)" stroke="white" stroke-width="2.1786"/>
<line y1="-1.0893" x2="11.8808" y2="-1.0893" transform="matrix(0.993632 -0.112671 0.117535 0.993069 130.476 401.501)" stroke="white" stroke-width="2.1786"/>
<line y1="-1.0893" x2="27.0947" y2="-1.0893" transform="matrix(0.995458 -0.0952013 0.100121 0.994975 143.76 408.616)" stroke="white" stroke-width="2.1786"/>
<line y1="-1.0893" x2="25.6952" y2="-1.0893" transform="matrix(0.985837 -0.167707 0.172347 0.985036 146.719 425.523)" stroke="white" stroke-width="2.1786"/>
<line y1="-1.0893" x2="16.814" y2="-1.0893" transform="matrix(-0.0239835 0.999712 -0.999577 -0.029082 378.787 146.32)" stroke="white" stroke-width="2.1786"/>
<line y1="-1.0893" x2="15.0082" y2="-1.0893" transform="matrix(0.469435 -0.882967 0.881527 0.472135 462.015 182.385)" stroke="white" stroke-width="2.1786"/>
<line y1="-1.0893" x2="15.0082" y2="-1.0893" transform="matrix(-0.469435 0.882967 -0.881527 -0.472135 486.108 159.536)" stroke="white" stroke-width="2.1786"/>
<line x1="552.392" y1="232.881" x2="543.787" y2="241.041" stroke="white" stroke-width="2.1786"/>
<line x1="551.316" y1="207.617" x2="542.711" y2="215.777" stroke="white" stroke-width="2.1786"/>
<line x1="532.709" y1="212.121" x2="524.103" y2="220.282" stroke="white" stroke-width="2.1786"/>
<line y1="-1.0893" x2="19.5641" y2="-1.0893" transform="matrix(-0.871433 0.490515 -0.492605 -0.870253 571.164 259.573)" stroke="white" stroke-width="2.1786"/>
<line y1="-1.0893" x2="19.5641" y2="-1.0893" transform="matrix(-0.871433 0.490515 -0.492605 -0.870253 584.128 280.133)" stroke="white" stroke-width="2.1786"/>
<line y1="-1.0893" x2="7.50409" y2="-1.0893" transform="matrix(-0.906626 0.421935 -0.424707 -0.905331 590.446 297.14)" stroke="white" stroke-width="2.1786"/>
<line y1="-1.0893" x2="7.50409" y2="-1.0893" transform="matrix(-0.906626 0.421935 -0.424707 -0.905331 596.766 314.145)" stroke="white" stroke-width="2.1786"/>
<line y1="-1.0893" x2="8.56507" y2="-1.0893" transform="matrix(-0.985837 0.167707 -0.172347 -0.985036 603.005 334.51)" stroke="white" stroke-width="2.1786"/>
<line y1="-1.0893" x2="11.8808" y2="-1.0893" transform="matrix(-0.993632 0.112671 -0.117535 -0.993069 619.409 351.808)" stroke="white" stroke-width="2.1786"/>
<line y1="-1.0893" x2="8.56507" y2="-1.0893" transform="matrix(-0.985837 0.167707 -0.172347 -0.985036 604.161 356.41)" stroke="white" stroke-width="2.1786"/>
<line y1="-1.0893" x2="23.3791" y2="-1.0893" transform="matrix(-0.943174 0.332301 -0.335869 -0.941909 176.568 443.212)" stroke="white" stroke-width="2.1786"/>
<line y1="-1.0893" x2="22.5123" y2="-1.0893" transform="matrix(-0.906626 0.421935 -0.424707 -0.905331 189.287 473.862)" stroke="white" stroke-width="2.1786"/>
<line x1="215.557" y1="532.585" x2="206.952" y2="540.745" stroke="white" stroke-width="2.1786"/>
<line y1="-1.0893" x2="19.5641" y2="-1.0893" transform="matrix(-0.536051 0.844185 -0.842896 -0.538076 262.54 575.234)" stroke="white" stroke-width="2.1786"/>
<line y1="-1.0893" x2="19.5641" y2="-1.0893" transform="matrix(-0.536051 0.844185 -0.842896 -0.538076 252.697 564.857)" stroke="white" stroke-width="2.1786"/>
<line y1="-1.0893" x2="25.563" y2="-1.0893" transform="matrix(-0.416567 0.909105 -0.907634 -0.419762 294.352 581.208)" stroke="white" stroke-width="2.1786"/>
<line y1="-1.0893" x2="25.563" y2="-1.0893" transform="matrix(-0.416567 0.909105 -0.907634 -0.419762 275.904 578.988)" stroke="white" stroke-width="2.1786"/>
<line y1="-1.0893" x2="24.4485" y2="-1.0893" transform="matrix(-0.298067 0.954545 -0.953245 -0.302198 307.475 595.047)" stroke="white" stroke-width="2.1786"/>
<line y1="-1.0893" x2="23.7616" y2="-1.0893" transform="matrix(-0.165222 0.986256 -0.985436 -0.170049 336.248 587.471)" stroke="white" stroke-width="2.1786"/>
<line y1="-1.0893" x2="11.8808" y2="-1.0893" transform="matrix(-0.165222 0.986256 -0.985436 -0.170049 329.041 607.448)" stroke="white" stroke-width="2.1786"/>
<line y1="-1.0893" x2="11.8808" y2="-1.0893" transform="matrix(-0.165222 0.986256 -0.985436 -0.170049 349.449 597.948)" stroke="white" stroke-width="2.1786"/>
<line y1="-1.0893" x2="13.4512" y2="-1.0893" transform="matrix(-0.0239835 0.999712 -0.999577 -0.029082 357.491 613.322)" stroke="white" stroke-width="2.1786"/>
<line y1="-1.0893" x2="18.5631" y2="-1.0893" transform="matrix(-0.114435 0.993431 -0.992844 -0.119417 364.698 593.346)" stroke="white" stroke-width="2.1786"/>
<line y1="-1.0893" x2="21.9313" y2="-1.0893" transform="matrix(0.0527307 0.998609 -0.998862 0.0476966 389.949 592.398)" stroke="white" stroke-width="2.1786"/>
<line y1="-1.0893" x2="16.814" y2="-1.0893" transform="matrix(-0.0239835 0.999712 -0.999577 -0.029082 396.188 612.765)" stroke="white" stroke-width="2.1786"/>
<line y1="-1.0893" x2="16.814" y2="-1.0893" transform="matrix(-0.0239835 0.999712 -0.999577 -0.029082 421.924 591.647)" stroke="white" stroke-width="2.1786"/>
<line y1="-1.0893" x2="17.3485" y2="-1.0893" transform="matrix(0.46347 0.886113 -0.887358 0.46108 477.425 591.581)" stroke="white" stroke-width="2.1786"/>
<line y1="-1.0893" x2="12.8288" y2="-1.0893" transform="matrix(0.371024 0.928623 -0.929923 0.367755 467.583 581.201)" stroke="white" stroke-width="2.1786"/>
<line y1="-1.0893" x2="8.58189" y2="-1.0893" transform="matrix(0.172347 0.985036 -0.985837 0.167707 445.451 592.332)" stroke="white" stroke-width="2.1786"/>
<line y1="-1.0893" x2="19.1957" y2="-1.0893" transform="matrix(0.239558 0.970882 -0.971925 0.235289 446.851 604.149)" stroke="white" stroke-width="2.1786"/>
<line y1="-1.0893" x2="16.8551" y2="-1.0893" transform="matrix(0.579143 0.815226 -0.816052 0.577978 481.351 568.144)" stroke="white" stroke-width="2.1786"/>
<line y1="-1.0893" x2="21.5859" y2="-1.0893" transform="matrix(0.604202 0.796832 -0.797508 0.603309 520.129 564.228)" stroke="white" stroke-width="2.1786"/>
<line x1="526.647" y1="535.048" x2="538.129" y2="547.157" stroke="white" stroke-width="2.1786"/>
<line x1="531.244" y1="553.686" x2="547.647" y2="570.984" stroke="white" stroke-width="2.1786"/>
<line x1="543.211" y1="545.623" x2="559.615" y2="562.921" stroke="white" stroke-width="2.1786"/>
<line y1="-1.0893" x2="19.6524" y2="-1.0893" transform="matrix(0.842896 0.538076 -0.536051 0.844185 551.832 504.595)" stroke="white" stroke-width="2.1786"/>
<line y1="-1.0893" x2="12.1532" y2="-1.0893" transform="matrix(0.816475 0.577381 -0.575778 0.817606 544.625 524.57)" stroke="white" stroke-width="2.1786"/>
<line y1="-1.0893" x2="22.6043" y2="-1.0893" transform="matrix(-0.881527 -0.472135 0.469435 -0.882967 595.449 509.228)" stroke="white" stroke-width="2.1786"/>
<line y1="-1.0893" x2="15.0695" y2="-1.0893" transform="matrix(0.881527 0.472134 -0.469435 0.882967 569.285 478.189)" stroke="white" stroke-width="2.1786"/>
<line y1="-1.0893" x2="12.8288" y2="-1.0893" transform="matrix(-0.907634 -0.419762 0.416567 -0.909105 591.577 460.335)" stroke="white" stroke-width="2.1786"/>
<line y1="-1.0893" x2="15.2342" y2="-1.0893" transform="matrix(-0.990261 -0.139226 0.134297 -0.990941 602.711 416.923)" stroke="white" stroke-width="2.1786"/>
<line y1="-1.0893" x2="16.814" y2="-1.0893" transform="matrix(-0.999577 -0.029082 0.0239834 -0.999712 640.329 391.104)" stroke="white" stroke-width="2.1786"/>
<line y1="-1.0893" x2="33.0757" y2="-1.0893" transform="matrix(0.959358 0.282191 -0.277929 0.960602 583.778 434.876)" stroke="white" stroke-width="2.1786"/>
<line y1="-1.0893" x2="20.1768" y2="-1.0893" transform="matrix(0.999577 0.029082 -0.0239835 0.999712 589.99 386.276)" stroke="white" stroke-width="2.1786"/>
<line y1="-1.0893" x2="15.2342" y2="-1.0893" transform="matrix(-0.990261 -0.139226 0.134297 -0.990941 606.474 400.212)" stroke="white" stroke-width="2.1786"/>
<line y1="-1.0893" x2="19.2182" y2="-1.0893" transform="matrix(0.772387 0.635152 -0.634182 0.773184 466.05 434.815)" stroke="white" stroke-width="2.1786"/>
<line y1="-1.0893" x2="18.141" y2="-1.0893" transform="matrix(0.348353 0.937363 -0.938644 0.344889 426.466 472.35)" stroke="white" stroke-width="2.1786"/>
<line y1="-1.0893" x2="21.9313" y2="-1.0893" transform="matrix(0.0527307 0.998609 -0.998862 0.0476967 385.888 481.265)" stroke="white" stroke-width="2.1786"/>
<line y1="-1.0893" x2="18.5631" y2="-1.0893" transform="matrix(-0.114435 0.993431 -0.992844 -0.119417 362.278 483.941)" stroke="white" stroke-width="2.1786"/>
<line y1="-1.0893" x2="18.5485" y2="-1.0893" transform="matrix(-0.276142 0.961117 -0.959879 -0.280415 349.078 476.916)" stroke="white" stroke-width="2.1786"/>
<line y1="-1.0893" x2="18.0773" y2="-1.0893" transform="matrix(-0.394196 0.919027 -0.917564 -0.397587 337.35 471.441)" stroke="white" stroke-width="2.1786"/>
<line x1="313.333" y1="453.008" x2="297.843" y2="467.696" stroke="white" stroke-width="2.1786"/>
<line y1="-1.0893" x2="21.8721" y2="-1.0893" transform="matrix(-0.858166 0.513373 -0.515226 -0.857055 289.699 424.636)" stroke="white" stroke-width="2.1786"/>
<line y1="-1.0893" x2="19.1461" y2="-1.0893" transform="matrix(-0.971925 0.235289 -0.239558 -0.970882 280.099 404.174)" stroke="white" stroke-width="2.1786"/>
<line y1="-1.0893" x2="18.5631" y2="-1.0893" transform="matrix(-0.998102 0.0615754 -0.0665819 -0.997781 277.06 390.628)" stroke="white" stroke-width="2.1786"/>
<line y1="-1.0893" x2="18.5802" y2="-1.0893" transform="matrix(0.992844 0.119417 -0.114435 0.993431 259.095 368.237)" stroke="white" stroke-width="2.1786"/>
<line y1="-1.0893" x2="17.3485" y2="-1.0893" transform="matrix(0.860279 0.509823 -0.507503 0.86165 270.309 321.467)" stroke="white" stroke-width="2.1786"/>
<line y1="-1.0893" x2="17.1638" y2="-1.0893" transform="matrix(0.974507 0.224357 -0.219767 0.975552 261.221 349.796)" stroke="white" stroke-width="2.1786"/>
<line y1="-1.0893" x2="43.4964" y2="-1.0893" transform="matrix(0.797528 0.603282 -0.601962 0.798524 279.075 306.582)" stroke="white" stroke-width="2.1786"/>
<mask id="path-178-outside-1_119_2465" maskUnits="userSpaceOnUse" x="236" y="730" width="291" height="54" fill="black">
<rect fill="white" x="236" y="730" width="291" height="54"/>
<path d="M242.594 771L238.639 742.348H243.265L245.802 764.285H246.101L255.875 742.348H260.576L262.964 764.21H263.262L273.111 742.348H277.738L264.232 771H259.904L257.293 748.988H256.845L246.921 771H242.594ZM289.746 771.597C286.998 771.597 284.728 770.988 282.937 769.769C281.146 768.538 279.897 766.822 279.188 764.62C278.479 762.407 278.367 759.833 278.852 756.898C279.337 753.963 280.301 751.376 281.743 749.138C283.186 746.887 284.983 745.133 287.134 743.877C289.286 742.609 291.649 741.975 294.223 741.975C295.715 741.975 297.151 742.223 298.532 742.721C299.912 743.218 301.106 744.027 302.113 745.146C303.121 746.253 303.823 747.72 304.221 749.548C304.619 751.376 304.594 753.627 304.147 756.301L303.848 758.166H281.762L282.359 754.361H299.968C300.254 752.744 300.18 751.302 299.744 750.033C299.322 748.765 298.582 747.764 297.525 747.03C296.48 746.296 295.156 745.929 293.551 745.929C291.897 745.929 290.355 746.377 288.925 747.272C287.495 748.155 286.301 749.275 285.344 750.63C284.386 751.973 283.789 753.341 283.553 754.734L283.031 758.017C282.657 760.392 282.713 762.282 283.198 763.688C283.696 765.093 284.56 766.106 285.791 766.728C287.022 767.338 288.565 767.642 290.417 767.642C291.599 767.642 292.687 767.481 293.682 767.157C294.677 766.822 295.566 766.324 296.349 765.665C297.133 764.993 297.792 764.16 298.327 763.165L302.356 764.359C301.672 765.802 300.708 767.07 299.465 768.165C298.233 769.247 296.791 770.092 295.137 770.702C293.495 771.298 291.698 771.597 289.746 771.597ZM309.081 771L315.423 732.797H319.825L317.512 746.899H317.885C318.283 746.402 318.837 745.768 319.545 744.997C320.254 744.213 321.206 743.517 322.399 742.907C323.593 742.286 325.123 741.975 326.988 741.975C329.401 741.975 331.422 742.578 333.051 743.784C334.692 744.99 335.843 746.7 336.502 748.914C337.173 751.127 337.26 753.739 336.763 756.748C336.265 759.783 335.314 762.413 333.909 764.639C332.516 766.853 330.8 768.569 328.76 769.788C326.733 770.994 324.526 771.597 322.138 771.597C320.298 771.597 318.874 771.292 317.867 770.683C316.872 770.061 316.138 769.358 315.665 768.575C315.205 767.779 314.851 767.12 314.602 766.598H314.08L313.334 771H309.081ZM315.796 756.674C315.448 758.838 315.454 760.747 315.815 762.401C316.175 764.042 316.89 765.329 317.96 766.262C319.029 767.182 320.447 767.642 322.213 767.642C324.053 767.642 325.67 767.157 327.063 766.187C328.456 765.205 329.6 763.887 330.495 762.233C331.391 760.566 332.012 758.713 332.361 756.674C332.684 754.659 332.671 752.844 332.323 751.227C331.987 749.598 331.279 748.311 330.197 747.366C329.127 746.408 327.66 745.929 325.794 745.929C324.004 745.929 322.418 746.383 321.038 747.291C319.67 748.186 318.538 749.442 317.643 751.059C316.76 752.663 316.144 754.535 315.796 756.674ZM360.584 752.57L359.912 756.674H343.198L343.87 752.57H360.584ZM363.48 781.745L370.083 742.348H374.336L373.59 746.899H374.113C374.51 746.402 375.058 745.768 375.754 744.997C376.463 744.213 377.414 743.517 378.608 742.907C379.814 742.286 381.35 741.975 383.216 741.975C385.628 741.975 387.649 742.578 389.278 743.784C390.907 744.99 392.057 746.7 392.729 748.914C393.401 751.127 393.488 753.739 392.99 756.748C392.493 759.783 391.541 762.413 390.136 764.639C388.731 766.853 387.015 768.569 384.988 769.788C382.961 770.994 380.753 771.597 378.366 771.597C376.525 771.597 375.101 771.292 374.094 770.683C373.087 770.061 372.353 769.358 371.893 768.575C371.433 767.779 371.078 767.12 370.829 766.598H370.456L367.919 781.745H363.48ZM372.023 756.674C371.675 758.838 371.675 760.747 372.023 762.401C372.384 764.042 373.099 765.329 374.168 766.262C375.25 767.182 376.674 767.642 378.44 767.642C380.281 767.642 381.891 767.157 383.272 766.187C384.664 765.205 385.808 763.887 386.704 762.233C387.612 760.566 388.24 758.713 388.588 756.674C388.911 754.659 388.899 752.844 388.551 751.227C388.202 749.598 387.494 748.311 386.424 747.366C385.355 746.408 383.887 745.929 382.022 745.929C380.231 745.929 378.645 746.383 377.265 747.291C375.897 748.186 374.765 749.442 373.87 751.059C372.987 752.663 372.371 754.535 372.023 756.674ZM409.158 771.597C406.522 771.597 404.315 770.969 402.536 769.713C400.758 768.457 399.502 766.697 398.768 764.434C398.047 762.171 397.929 759.534 398.414 756.525C398.886 753.59 399.825 751.034 401.231 748.858C402.648 746.669 404.408 744.978 406.51 743.784C408.624 742.578 410.949 741.975 413.486 741.975C416.123 741.975 418.324 742.609 420.09 743.877C421.868 745.133 423.124 746.899 423.858 749.175C424.591 751.438 424.716 754.087 424.231 757.122C423.758 760.032 422.807 762.575 421.377 764.751C419.959 766.915 418.199 768.6 416.098 769.806C414.008 771 411.695 771.597 409.158 771.597ZM409.233 767.642C411.248 767.642 412.995 767.126 414.475 766.094C415.967 765.062 417.173 763.7 418.094 762.009C419.026 760.318 419.654 758.489 419.978 756.525C420.276 754.659 420.264 752.924 419.94 751.32C419.617 749.704 418.927 748.404 417.87 747.422C416.813 746.427 415.327 745.929 413.411 745.929C411.397 745.929 409.637 746.452 408.132 747.496C406.64 748.541 405.434 749.915 404.514 751.619C403.593 753.322 402.978 755.157 402.667 757.122C402.368 758.987 402.375 760.722 402.686 762.326C403.009 763.918 403.699 765.205 404.756 766.187C405.826 767.157 407.318 767.642 409.233 767.642ZM452.701 748.765L448.523 749.884C448.373 749.212 448.112 748.566 447.739 747.944C447.379 747.31 446.819 746.794 446.06 746.396C445.314 745.985 444.294 745.78 443.001 745.78C441.248 745.78 439.724 746.184 438.431 746.993C437.138 747.788 436.398 748.802 436.211 750.033C436.025 751.115 436.273 751.979 436.957 752.626C437.641 753.273 438.785 753.801 440.39 754.212L444.493 755.256C446.956 755.89 448.709 756.842 449.754 758.11C450.811 759.366 451.172 761.002 450.836 763.016C450.562 764.658 449.847 766.125 448.691 767.418C447.534 768.712 446.054 769.732 444.251 770.478C442.448 771.224 440.439 771.597 438.226 771.597C435.278 771.597 432.953 770.963 431.249 769.694C429.545 768.413 428.638 766.56 428.526 764.135L432.928 763.091C433.04 764.62 433.587 765.777 434.57 766.56C435.564 767.331 436.957 767.717 438.748 767.717C440.8 767.717 442.51 767.282 443.878 766.411C445.246 765.528 446.023 764.471 446.21 763.24C446.396 762.233 446.197 761.393 445.613 760.722C445.041 760.05 444.046 759.547 442.628 759.211L438.077 758.092C435.54 757.457 433.761 756.487 432.742 755.182C431.734 753.876 431.398 752.234 431.734 750.257C432.008 748.64 432.704 747.21 433.823 745.967C434.955 744.723 436.373 743.747 438.077 743.038C439.793 742.329 441.658 741.975 443.673 741.975C446.508 741.975 448.628 742.596 450.034 743.84C451.439 745.071 452.328 746.713 452.701 748.765ZM473.356 742.348L472.759 746.078H457.91L458.507 742.348H473.356ZM463.954 735.483H468.356L463.805 762.792C463.606 764.036 463.637 764.969 463.898 765.59C464.172 766.2 464.582 766.61 465.129 766.822C465.689 767.021 466.292 767.12 466.939 767.12C467.424 767.12 467.822 767.095 468.132 767.045C468.443 766.983 468.692 766.933 468.879 766.896L469.177 770.851C468.841 770.963 468.387 771.075 467.815 771.187C467.256 771.311 466.566 771.373 465.745 771.373C464.501 771.373 463.332 771.106 462.238 770.571C461.144 770.036 460.304 769.222 459.72 768.127C459.135 767.033 458.98 765.653 459.253 763.986L463.954 735.483ZM486.833 771.597C484.085 771.597 481.815 770.988 480.024 769.769C478.234 768.538 476.984 766.822 476.275 764.62C475.566 762.407 475.454 759.833 475.939 756.898C476.424 753.963 477.388 751.376 478.83 749.138C480.273 746.887 482.07 745.133 484.221 743.877C486.373 742.609 488.736 741.975 491.31 741.975C492.802 741.975 494.239 742.223 495.619 742.721C496.999 743.218 498.193 744.027 499.2 745.146C500.208 746.253 500.91 747.72 501.308 749.548C501.706 751.376 501.681 753.627 501.234 756.301L500.935 758.166H478.849L479.446 754.361H497.055C497.341 752.744 497.267 751.302 496.831 750.033C496.409 748.765 495.669 747.764 494.612 747.03C493.567 746.296 492.243 745.929 490.638 745.929C488.984 745.929 487.442 746.377 486.012 747.272C484.582 748.155 483.388 749.275 482.431 750.63C481.473 751.973 480.876 753.341 480.64 754.734L480.118 758.017C479.744 760.392 479.8 762.282 480.285 763.688C480.783 765.093 481.647 766.106 482.878 766.728C484.109 767.338 485.652 767.642 487.504 767.642C488.686 767.642 489.774 767.481 490.769 767.157C491.764 766.822 492.653 766.324 493.436 765.665C494.22 764.993 494.879 764.16 495.414 763.165L499.443 764.359C498.759 765.802 497.795 767.07 496.552 768.165C495.32 769.247 493.878 770.092 492.224 770.702C490.582 771.298 488.785 771.597 486.833 771.597ZM505.571 771L510.346 742.348H514.599L513.853 746.675H514.151C514.898 745.258 516.036 744.107 517.565 743.224C519.095 742.341 520.718 741.9 522.434 741.9C522.77 741.9 523.174 741.906 523.646 741.919C524.119 741.919 524.486 741.937 524.747 741.975L524.001 746.452C523.851 746.414 523.516 746.358 522.993 746.284C522.471 746.197 521.911 746.153 521.315 746.153C519.922 746.153 518.635 746.445 517.453 747.03C516.272 747.602 515.283 748.398 514.487 749.418C513.691 750.425 513.181 751.575 512.958 752.868L509.973 771H505.571Z"/>
</mask>
<path d="M242.594 771L238.639 742.348H243.265L245.802 764.285H246.101L255.875 742.348H260.576L262.964 764.21H263.262L273.111 742.348H277.738L264.232 771H259.904L257.293 748.988H256.845L246.921 771H242.594ZM289.746 771.597C286.998 771.597 284.728 770.988 282.937 769.769C281.146 768.538 279.897 766.822 279.188 764.62C278.479 762.407 278.367 759.833 278.852 756.898C279.337 753.963 280.301 751.376 281.743 749.138C283.186 746.887 284.983 745.133 287.134 743.877C289.286 742.609 291.649 741.975 294.223 741.975C295.715 741.975 297.151 742.223 298.532 742.721C299.912 743.218 301.106 744.027 302.113 745.146C303.121 746.253 303.823 747.72 304.221 749.548C304.619 751.376 304.594 753.627 304.147 756.301L303.848 758.166H281.762L282.359 754.361H299.968C300.254 752.744 300.18 751.302 299.744 750.033C299.322 748.765 298.582 747.764 297.525 747.03C296.48 746.296 295.156 745.929 293.551 745.929C291.897 745.929 290.355 746.377 288.925 747.272C287.495 748.155 286.301 749.275 285.344 750.63C284.386 751.973 283.789 753.341 283.553 754.734L283.031 758.017C282.657 760.392 282.713 762.282 283.198 763.688C283.696 765.093 284.56 766.106 285.791 766.728C287.022 767.338 288.565 767.642 290.417 767.642C291.599 767.642 292.687 767.481 293.682 767.157C294.677 766.822 295.566 766.324 296.349 765.665C297.133 764.993 297.792 764.16 298.327 763.165L302.356 764.359C301.672 765.802 300.708 767.07 299.465 768.165C298.233 769.247 296.791 770.092 295.137 770.702C293.495 771.298 291.698 771.597 289.746 771.597ZM309.081 771L315.423 732.797H319.825L317.512 746.899H317.885C318.283 746.402 318.837 745.768 319.545 744.997C320.254 744.213 321.206 743.517 322.399 742.907C323.593 742.286 325.123 741.975 326.988 741.975C329.401 741.975 331.422 742.578 333.051 743.784C334.692 744.99 335.843 746.7 336.502 748.914C337.173 751.127 337.26 753.739 336.763 756.748C336.265 759.783 335.314 762.413 333.909 764.639C332.516 766.853 330.8 768.569 328.76 769.788C326.733 770.994 324.526 771.597 322.138 771.597C320.298 771.597 318.874 771.292 317.867 770.683C316.872 770.061 316.138 769.358 315.665 768.575C315.205 767.779 314.851 767.12 314.602 766.598H314.08L313.334 771H309.081ZM315.796 756.674C315.448 758.838 315.454 760.747 315.815 762.401C316.175 764.042 316.89 765.329 317.96 766.262C319.029 767.182 320.447 767.642 322.213 767.642C324.053 767.642 325.67 767.157 327.063 766.187C328.456 765.205 329.6 763.887 330.495 762.233C331.391 760.566 332.012 758.713 332.361 756.674C332.684 754.659 332.671 752.844 332.323 751.227C331.987 749.598 331.279 748.311 330.197 747.366C329.127 746.408 327.66 745.929 325.794 745.929C324.004 745.929 322.418 746.383 321.038 747.291C319.67 748.186 318.538 749.442 317.643 751.059C316.76 752.663 316.144 754.535 315.796 756.674ZM360.584 752.57L359.912 756.674H343.198L343.87 752.57H360.584ZM363.48 781.745L370.083 742.348H374.336L373.59 746.899H374.113C374.51 746.402 375.058 745.768 375.754 744.997C376.463 744.213 377.414 743.517 378.608 742.907C379.814 742.286 381.35 741.975 383.216 741.975C385.628 741.975 387.649 742.578 389.278 743.784C390.907 744.99 392.057 746.7 392.729 748.914C393.401 751.127 393.488 753.739 392.99 756.748C392.493 759.783 391.541 762.413 390.136 764.639C388.731 766.853 387.015 768.569 384.988 769.788C382.961 770.994 380.753 771.597 378.366 771.597C376.525 771.597 375.101 771.292 374.094 770.683C373.087 770.061 372.353 769.358 371.893 768.575C371.433 767.779 371.078 767.12 370.829 766.598H370.456L367.919 781.745H363.48ZM372.023 756.674C371.675 758.838 371.675 760.747 372.023 762.401C372.384 764.042 373.099 765.329 374.168 766.262C375.25 767.182 376.674 767.642 378.44 767.642C380.281 767.642 381.891 767.157 383.272 766.187C384.664 765.205 385.808 763.887 386.704 762.233C387.612 760.566 388.24 758.713 388.588 756.674C388.911 754.659 388.899 752.844 388.551 751.227C388.202 749.598 387.494 748.311 386.424 747.366C385.355 746.408 383.887 745.929 382.022 745.929C380.231 745.929 378.645 746.383 377.265 747.291C375.897 748.186 374.765 749.442 373.87 751.059C372.987 752.663 372.371 754.535 372.023 756.674ZM409.158 771.597C406.522 771.597 404.315 770.969 402.536 769.713C400.758 768.457 399.502 766.697 398.768 764.434C398.047 762.171 397.929 759.534 398.414 756.525C398.886 753.59 399.825 751.034 401.231 748.858C402.648 746.669 404.408 744.978 406.51 743.784C408.624 742.578 410.949 741.975 413.486 741.975C416.123 741.975 418.324 742.609 420.09 743.877C421.868 745.133 423.124 746.899 423.858 749.175C424.591 751.438 424.716 754.087 424.231 757.122C423.758 760.032 422.807 762.575 421.377 764.751C419.959 766.915 418.199 768.6 416.098 769.806C414.008 771 411.695 771.597 409.158 771.597ZM409.233 767.642C411.248 767.642 412.995 767.126 414.475 766.094C415.967 765.062 417.173 763.7 418.094 762.009C419.026 760.318 419.654 758.489 419.978 756.525C420.276 754.659 420.264 752.924 419.94 751.32C419.617 749.704 418.927 748.404 417.87 747.422C416.813 746.427 415.327 745.929 413.411 745.929C411.397 745.929 409.637 746.452 408.132 747.496C406.64 748.541 405.434 749.915 404.514 751.619C403.593 753.322 402.978 755.157 402.667 757.122C402.368 758.987 402.375 760.722 402.686 762.326C403.009 763.918 403.699 765.205 404.756 766.187C405.826 767.157 407.318 767.642 409.233 767.642ZM452.701 748.765L448.523 749.884C448.373 749.212 448.112 748.566 447.739 747.944C447.379 747.31 446.819 746.794 446.06 746.396C445.314 745.985 444.294 745.78 443.001 745.78C441.248 745.78 439.724 746.184 438.431 746.993C437.138 747.788 436.398 748.802 436.211 750.033C436.025 751.115 436.273 751.979 436.957 752.626C437.641 753.273 438.785 753.801 440.39 754.212L444.493 755.256C446.956 755.89 448.709 756.842 449.754 758.11C450.811 759.366 451.172 761.002 450.836 763.016C450.562 764.658 449.847 766.125 448.691 767.418C447.534 768.712 446.054 769.732 444.251 770.478C442.448 771.224 440.439 771.597 438.226 771.597C435.278 771.597 432.953 770.963 431.249 769.694C429.545 768.413 428.638 766.56 428.526 764.135L432.928 763.091C433.04 764.62 433.587 765.777 434.57 766.56C435.564 767.331 436.957 767.717 438.748 767.717C440.8 767.717 442.51 767.282 443.878 766.411C445.246 765.528 446.023 764.471 446.21 763.24C446.396 762.233 446.197 761.393 445.613 760.722C445.041 760.05 444.046 759.547 442.628 759.211L438.077 758.092C435.54 757.457 433.761 756.487 432.742 755.182C431.734 753.876 431.398 752.234 431.734 750.257C432.008 748.64 432.704 747.21 433.823 745.967C434.955 744.723 436.373 743.747 438.077 743.038C439.793 742.329 441.658 741.975 443.673 741.975C446.508 741.975 448.628 742.596 450.034 743.84C451.439 745.071 452.328 746.713 452.701 748.765ZM473.356 742.348L472.759 746.078H457.91L458.507 742.348H473.356ZM463.954 735.483H468.356L463.805 762.792C463.606 764.036 463.637 764.969 463.898 765.59C464.172 766.2 464.582 766.61 465.129 766.822C465.689 767.021 466.292 767.12 466.939 767.12C467.424 767.12 467.822 767.095 468.132 767.045C468.443 766.983 468.692 766.933 468.879 766.896L469.177 770.851C468.841 770.963 468.387 771.075 467.815 771.187C467.256 771.311 466.566 771.373 465.745 771.373C464.501 771.373 463.332 771.106 462.238 770.571C461.144 770.036 460.304 769.222 459.72 768.127C459.135 767.033 458.98 765.653 459.253 763.986L463.954 735.483ZM486.833 771.597C484.085 771.597 481.815 770.988 480.024 769.769C478.234 768.538 476.984 766.822 476.275 764.62C475.566 762.407 475.454 759.833 475.939 756.898C476.424 753.963 477.388 751.376 478.83 749.138C480.273 746.887 482.07 745.133 484.221 743.877C486.373 742.609 488.736 741.975 491.31 741.975C492.802 741.975 494.239 742.223 495.619 742.721C496.999 743.218 498.193 744.027 499.2 745.146C500.208 746.253 500.91 747.72 501.308 749.548C501.706 751.376 501.681 753.627 501.234 756.301L500.935 758.166H478.849L479.446 754.361H497.055C497.341 752.744 497.267 751.302 496.831 750.033C496.409 748.765 495.669 747.764 494.612 747.03C493.567 746.296 492.243 745.929 490.638 745.929C488.984 745.929 487.442 746.377 486.012 747.272C484.582 748.155 483.388 749.275 482.431 750.63C481.473 751.973 480.876 753.341 480.64 754.734L480.118 758.017C479.744 760.392 479.8 762.282 480.285 763.688C480.783 765.093 481.647 766.106 482.878 766.728C484.109 767.338 485.652 767.642 487.504 767.642C488.686 767.642 489.774 767.481 490.769 767.157C491.764 766.822 492.653 766.324 493.436 765.665C494.22 764.993 494.879 764.16 495.414 763.165L499.443 764.359C498.759 765.802 497.795 767.07 496.552 768.165C495.32 769.247 493.878 770.092 492.224 770.702C490.582 771.298 488.785 771.597 486.833 771.597ZM505.571 771L510.346 742.348H514.599L513.853 746.675H514.151C514.898 745.258 516.036 744.107 517.565 743.224C519.095 742.341 520.718 741.9 522.434 741.9C522.77 741.9 523.174 741.906 523.646 741.919C524.119 741.919 524.486 741.937 524.747 741.975L524.001 746.452C523.851 746.414 523.516 746.358 522.993 746.284C522.471 746.197 521.911 746.153 521.315 746.153C519.922 746.153 518.635 746.445 517.453 747.03C516.272 747.602 515.283 748.398 514.487 749.418C513.691 750.425 513.181 751.575 512.958 752.868L509.973 771H505.571Z" fill="#0073FF"/>
<path d="M242.594 771L240.772 771.251L240.991 772.839H242.594V771ZM238.639 742.348V740.509H236.529L236.818 742.599L238.639 742.348ZM243.265 742.348L245.092 742.137L244.903 740.509H243.265V742.348ZM245.802 764.285L243.976 764.496L244.164 766.123H245.802V764.285ZM246.101 764.285V766.123H247.294L247.78 765.033L246.101 764.285ZM255.875 742.348V740.509H254.682L254.196 741.599L255.875 742.348ZM260.576 742.348L262.404 742.148L262.225 740.509H260.576V742.348ZM262.964 764.21L261.136 764.41L261.315 766.049H262.964V764.21ZM263.262 764.21V766.049H264.45L264.938 764.965L263.262 764.21ZM273.111 742.348V740.509H271.923L271.435 741.593L273.111 742.348ZM277.738 742.348L279.401 743.132L280.637 740.509H277.738V742.348ZM264.232 771V772.839H265.398L265.895 771.784L264.232 771ZM259.904 771L258.079 771.217L258.271 772.839H259.904V771ZM257.293 748.988L259.119 748.772L258.926 747.15H257.293V748.988ZM256.845 748.988V747.15H255.657L255.169 748.233L256.845 748.988ZM246.921 771V772.839H248.109L248.597 771.756L246.921 771ZM242.594 771L244.415 770.749L240.46 742.096L238.639 742.348L236.818 742.599L240.772 771.251L242.594 771ZM238.639 742.348V744.186H243.265V742.348V740.509H238.639V742.348ZM243.265 742.348L241.439 742.559L243.976 764.496L245.802 764.285L247.628 764.073L245.092 742.137L243.265 742.348ZM245.802 764.285V766.123H246.101V764.285V762.446H245.802V764.285ZM246.101 764.285L247.78 765.033L257.555 743.096L255.875 742.348L254.196 741.599L244.421 763.536L246.101 764.285ZM255.875 742.348V744.186H260.576V742.348V740.509H255.875V742.348ZM260.576 742.348L258.748 742.547L261.136 764.41L262.964 764.21L264.791 764.01L262.404 742.148L260.576 742.348ZM262.964 764.21V766.049H263.262V764.21V762.371H262.964V764.21ZM263.262 764.21L264.938 764.965L274.788 743.103L273.111 742.348L271.435 741.593L261.586 763.455L263.262 764.21ZM273.111 742.348V744.186H277.738V742.348V740.509H273.111V742.348ZM277.738 742.348L276.074 741.564L262.569 770.216L264.232 771L265.895 771.784L279.401 743.132L277.738 742.348ZM264.232 771V769.161H259.904V771V772.839H264.232V771ZM259.904 771L261.73 770.783L259.119 748.772L257.293 748.988L255.467 749.205L258.079 771.217L259.904 771ZM257.293 748.988V747.15H256.845V748.988V750.827H257.293V748.988ZM256.845 748.988L255.169 748.233L245.245 770.244L246.921 771L248.597 771.756L258.521 749.744L256.845 748.988ZM246.921 771V769.161H242.594V771V772.839H246.921V771ZM282.937 769.769L281.896 771.284L281.903 771.289L282.937 769.769ZM279.188 764.62L277.437 765.181L277.438 765.184L279.188 764.62ZM278.852 756.898L280.666 757.197L278.852 756.898ZM281.743 749.138L283.289 750.134L283.291 750.13L281.743 749.138ZM287.134 743.877L288.061 745.465L288.068 745.461L287.134 743.877ZM298.532 742.721L299.155 740.991L298.532 742.721ZM302.113 745.146L300.747 746.376L300.754 746.383L302.113 745.146ZM304.221 749.548L302.425 749.939L304.221 749.548ZM304.147 756.301L302.333 755.997L302.331 756.01L304.147 756.301ZM303.848 758.166V760.005H305.416L305.664 758.457L303.848 758.166ZM281.762 758.166L279.946 757.881L279.613 760.005H281.762V758.166ZM282.359 754.361V752.522H280.786L280.543 754.076L282.359 754.361ZM299.968 754.361V756.199H301.51L301.779 754.681L299.968 754.361ZM299.744 750.033L298 750.614L298.003 750.622L298.005 750.63L299.744 750.033ZM297.525 747.03L296.468 748.534L296.476 748.54L297.525 747.03ZM288.925 747.272L289.891 748.837L289.901 748.831L288.925 747.272ZM285.344 750.63L286.841 751.697L286.845 751.691L285.344 750.63ZM283.553 754.734L281.74 754.426L281.739 754.436L281.737 754.445L283.553 754.734ZM283.031 758.017L281.215 757.728L281.214 757.732L283.031 758.017ZM283.198 763.688L281.46 764.288L281.463 764.294L281.465 764.301L283.198 763.688ZM285.791 766.728L284.962 768.369L284.969 768.373L284.976 768.376L285.791 766.728ZM293.682 767.157L294.25 768.906L294.26 768.903L294.27 768.899L293.682 767.157ZM296.349 765.665L297.533 767.072L297.539 767.066L297.546 767.061L296.349 765.665ZM298.327 763.165L298.849 761.403L297.415 760.978L296.707 762.295L298.327 763.165ZM302.356 764.359L304.017 765.147L304.937 763.207L302.878 762.596L302.356 764.359ZM299.465 768.165L300.678 769.546L300.679 769.545L299.465 768.165ZM295.137 770.702L295.765 772.429L295.772 772.427L295.137 770.702ZM289.746 771.597V769.758C287.267 769.758 285.385 769.211 283.972 768.249L282.937 769.769L281.903 771.289C284.071 772.765 286.728 773.435 289.746 773.435V771.597ZM282.937 769.769L283.979 768.254C282.545 767.268 281.531 765.898 280.938 764.057L279.188 764.62L277.438 765.184C278.263 767.745 279.748 769.807 281.896 771.284L282.937 769.769ZM279.188 764.62L280.939 764.06C280.34 762.191 280.216 759.923 280.666 757.197L278.852 756.898L277.038 756.598C276.519 759.742 276.618 762.623 277.437 765.181L279.188 764.62ZM278.852 756.898L280.666 757.197C281.115 754.481 281.998 752.137 283.289 750.134L281.743 749.138L280.198 748.142C278.604 750.615 277.559 753.444 277.038 756.598L278.852 756.898ZM281.743 749.138L283.291 750.13C284.589 748.105 286.179 746.564 288.061 745.465L287.134 743.877L286.207 742.29C283.787 743.703 281.783 745.668 280.196 748.146L281.743 749.138ZM287.134 743.877L288.068 745.461C289.928 744.365 291.966 743.813 294.223 743.813V741.975V740.136C291.331 740.136 288.644 740.853 286.201 742.294L287.134 743.877ZM294.223 741.975V743.813C295.506 743.813 296.732 744.026 297.909 744.45L298.532 742.721L299.155 740.991C297.571 740.42 295.924 740.136 294.223 740.136V741.975ZM298.532 742.721L297.909 744.45C298.996 744.842 299.937 745.476 300.747 746.376L302.113 745.146L303.48 743.916C302.275 742.577 300.828 741.594 299.155 740.991L298.532 742.721ZM302.113 745.146L300.754 746.383C301.496 747.198 302.079 748.349 302.425 749.939L304.221 749.548L306.018 749.157C305.568 747.091 304.746 745.307 303.473 743.908L302.113 745.146ZM304.221 749.548L302.425 749.939C302.756 751.461 302.758 753.459 302.333 755.997L304.147 756.301L305.96 756.604C306.43 753.795 306.482 751.292 306.018 749.157L304.221 749.548ZM304.147 756.301L302.331 756.01L302.033 757.876L303.848 758.166L305.664 758.457L305.962 756.591L304.147 756.301ZM303.848 758.166V756.328H281.762V758.166V760.005H303.848V758.166ZM281.762 758.166L283.578 758.451L284.175 754.646L282.359 754.361L280.543 754.076L279.946 757.881L281.762 758.166ZM282.359 754.361V756.199H299.968V754.361V752.522H282.359V754.361ZM299.968 754.361L301.779 754.681C302.107 752.826 302.04 751.059 301.483 749.436L299.744 750.033L298.005 750.63C298.319 751.544 298.402 752.662 298.158 754.04L299.968 754.361ZM299.744 750.033L301.489 749.452C300.945 747.822 299.97 746.489 298.573 745.519L297.525 747.03L296.476 748.54C297.194 749.038 297.698 749.707 298 750.614L299.744 750.033ZM297.525 747.03L298.581 745.525C297.156 744.524 295.436 744.091 293.551 744.091V745.929V747.768C294.875 747.768 295.804 748.068 296.468 748.534L297.525 747.03ZM293.551 745.929V744.091C291.545 744.091 289.666 744.639 287.95 745.714L288.925 747.272L289.901 748.831C291.045 748.114 292.25 747.768 293.551 747.768V745.929ZM288.925 747.272L287.959 745.708C286.321 746.719 284.944 748.009 283.842 749.569L285.344 750.63L286.845 751.691C287.658 750.54 288.669 749.591 289.891 748.837L288.925 747.272ZM285.344 750.63L283.847 749.563C282.755 751.094 282.03 752.717 281.74 754.426L283.553 754.734L285.365 755.041C285.548 753.965 286.017 752.852 286.841 751.697L285.344 750.63ZM283.553 754.734L281.737 754.445L281.215 757.728L283.031 758.017L284.846 758.306L285.369 755.023L283.553 754.734ZM283.031 758.017L281.214 757.732C280.82 760.24 280.835 762.475 281.46 764.288L283.198 763.688L284.936 763.088C284.592 762.09 284.495 760.544 284.847 758.302L283.031 758.017ZM283.198 763.688L281.465 764.301C282.107 766.113 283.273 767.516 284.962 768.369L285.791 766.728L286.62 765.087C285.847 764.697 285.285 764.073 284.932 763.074L283.198 763.688ZM285.791 766.728L284.976 768.376C286.533 769.147 288.376 769.481 290.417 769.481V767.642V765.804C288.753 765.804 287.512 765.528 286.607 765.081L285.791 766.728ZM290.417 767.642V769.481C291.767 769.481 293.05 769.296 294.25 768.906L293.682 767.157L293.114 765.409C292.324 765.665 291.43 765.804 290.417 765.804V767.642ZM293.682 767.157L294.27 768.899C295.477 768.492 296.569 767.883 297.533 767.072L296.349 765.665L295.166 764.258C294.563 764.765 293.877 765.151 293.094 765.415L293.682 767.157ZM296.349 765.665L297.546 767.061C298.517 766.228 299.314 765.212 299.946 764.036L298.327 763.165L296.707 762.295C296.27 763.109 295.749 763.758 295.153 764.269L296.349 765.665ZM298.327 763.165L297.804 764.928L301.834 766.122L302.356 764.359L302.878 762.596L298.849 761.403L298.327 763.165ZM302.356 764.359L300.695 763.572C300.122 764.78 299.313 765.849 298.25 766.784L299.465 768.165L300.679 769.545C302.103 768.292 303.222 766.824 304.017 765.147L302.356 764.359ZM299.465 768.165L298.251 766.784C297.202 767.705 295.959 768.439 294.501 768.976L295.137 770.702L295.772 772.427C297.623 771.745 299.265 770.788 300.678 769.546L299.465 768.165ZM295.137 770.702L294.509 768.974C293.091 769.489 291.509 769.758 289.746 769.758V771.597V773.435C291.888 773.435 293.9 773.108 295.765 772.429L295.137 770.702ZM309.081 771L307.267 770.699L306.912 772.839H309.081V771ZM315.423 732.797V730.958H313.864L313.609 732.496L315.423 732.797ZM319.825 732.797L321.639 733.095L321.99 730.958H319.825V732.797ZM317.512 746.899L315.698 746.602L315.347 748.738H317.512V746.899ZM317.885 746.899V748.738H318.769L319.321 748.048L317.885 746.899ZM319.545 744.997L320.899 746.241L320.904 746.235L320.909 746.23L319.545 744.997ZM322.399 742.907L323.235 744.545L323.242 744.541L323.249 744.538L322.399 742.907ZM333.051 743.784L331.957 745.262L331.962 745.266L333.051 743.784ZM336.502 748.914L334.74 749.439L334.742 749.448L336.502 748.914ZM336.763 756.748L334.949 756.449L334.949 756.451L336.763 756.748ZM333.909 764.639L332.354 763.658L332.353 763.66L333.909 764.639ZM328.76 769.787L329.701 771.367L329.703 771.366L328.76 769.787ZM317.867 770.683L316.892 772.242L316.903 772.249L316.915 772.256L317.867 770.683ZM315.665 768.575L314.074 769.495L314.082 769.51L314.091 769.525L315.665 768.575ZM314.602 766.598L316.262 765.807L315.763 764.759H314.602V766.598ZM314.08 766.598V764.759H312.527L312.267 766.29L314.08 766.598ZM313.334 771V772.839H314.887L315.146 771.307L313.334 771ZM315.796 756.674L313.981 756.378L313.981 756.382L315.796 756.674ZM315.815 762.401L314.018 762.792L314.019 762.795L315.815 762.401ZM317.96 766.262L316.751 767.648L316.761 767.656L317.96 766.262ZM327.063 766.187L328.114 767.696L328.123 767.69L327.063 766.187ZM330.495 762.233L332.112 763.108L332.115 763.103L330.495 762.233ZM332.361 756.674L334.173 756.983L334.174 756.974L334.176 756.965L332.361 756.674ZM332.323 751.227L330.523 751.598L330.524 751.606L330.526 751.614L332.323 751.227ZM330.197 747.366L328.97 748.735L328.979 748.743L328.987 748.75L330.197 747.366ZM321.038 747.291L322.045 748.829L322.048 748.827L321.038 747.291ZM317.643 751.059L316.034 750.168L316.032 750.173L317.643 751.059ZM309.081 771L310.894 771.301L317.237 733.098L315.423 732.797L313.609 732.496L307.267 770.699L309.081 771ZM315.423 732.797V734.635H319.825V732.797V730.958H315.423V732.797ZM319.825 732.797L318.011 732.499L315.698 746.602L317.512 746.899L319.326 747.197L321.639 733.095L319.825 732.797ZM317.512 746.899V748.738H317.885V746.899V745.061H317.512V746.899ZM317.885 746.899L319.321 748.048C319.681 747.597 320.203 746.998 320.899 746.241L319.545 744.997L318.192 743.752C317.47 744.537 316.885 745.206 316.45 745.751L317.885 746.899ZM319.545 744.997L320.909 746.23C321.434 745.65 322.189 745.079 323.235 744.545L322.399 742.907L321.564 741.27C320.222 741.955 319.075 742.776 318.182 743.763L319.545 744.997ZM322.399 742.907L323.249 744.538C324.099 744.095 325.311 743.813 326.988 743.813V741.975V740.136C324.935 740.136 323.088 740.476 321.55 741.277L322.399 742.907ZM326.988 741.975V743.813C329.084 743.813 330.701 744.332 331.957 745.262L333.051 743.784L334.145 742.307C332.142 740.824 329.718 740.136 326.988 740.136V741.975ZM333.051 743.784L331.962 745.266C333.238 746.204 334.179 747.555 334.74 749.439L336.502 748.914L338.264 748.389C337.506 745.846 336.146 743.777 334.139 742.303L333.051 743.784ZM336.502 748.914L334.742 749.448C335.31 751.319 335.414 753.632 334.949 756.449L336.763 756.748L338.577 757.048C339.106 753.845 339.036 750.936 338.261 748.38L336.502 748.914ZM336.763 756.748L334.949 756.451C334.484 759.283 333.608 761.672 332.354 763.658L333.909 764.639L335.464 765.62C337.02 763.154 338.047 760.283 338.577 757.046L336.763 756.748ZM333.909 764.639L332.353 763.66C331.098 765.653 329.584 767.154 327.817 768.209L328.76 769.787L329.703 771.366C332.016 769.984 333.934 768.052 335.465 765.618L333.909 764.639ZM328.76 769.787L327.82 768.208C326.081 769.242 324.199 769.758 322.138 769.758V771.597V773.435C324.853 773.435 327.385 772.745 329.701 771.367L328.76 769.787ZM322.138 771.597V769.758C320.46 769.758 319.42 769.474 318.818 769.11L317.867 770.683L316.915 772.256C318.328 773.111 320.135 773.435 322.138 773.435V771.597ZM317.867 770.683L318.841 769.124C318.024 768.613 317.527 768.102 317.24 767.625L315.665 768.575L314.091 769.525C314.749 770.615 315.719 771.509 316.892 772.242L317.867 770.683ZM315.665 768.575L317.257 767.655C316.809 766.88 316.481 766.268 316.262 765.807L314.602 766.598L312.942 767.388C313.22 767.972 313.602 768.678 314.074 769.495L315.665 768.575ZM314.602 766.598V764.759H314.08V766.598V768.436H314.602V766.598ZM314.08 766.598L312.267 766.29L311.521 770.693L313.334 771L315.146 771.307L315.892 766.905L314.08 766.598ZM313.334 771V769.161H309.081V771V772.839H313.334V771ZM315.796 756.674L313.981 756.382C313.606 758.709 313.597 760.858 314.018 762.792L315.815 762.401L317.611 762.009C317.311 760.635 317.289 758.966 317.611 756.966L315.796 756.674ZM315.815 762.401L314.019 762.795C314.448 764.748 315.333 766.411 316.751 767.648L317.96 766.262L319.168 764.876C318.447 764.248 317.902 763.336 317.61 762.006L315.815 762.401ZM317.96 766.262L316.761 767.656C318.241 768.93 320.121 769.481 322.213 769.481V767.642V765.804C320.773 765.804 319.817 765.435 319.159 764.868L317.96 766.262ZM322.213 767.642V769.481C324.396 769.481 326.386 768.899 328.114 767.696L327.063 766.187L326.012 764.679C324.954 765.416 323.711 765.804 322.213 765.804V767.642ZM327.063 766.187L328.123 767.69C329.77 766.528 331.096 764.985 332.112 763.108L330.495 762.233L328.878 761.357C328.104 762.788 327.141 763.882 326.003 764.685L327.063 766.187ZM330.495 762.233L332.115 763.103C333.113 761.246 333.794 759.201 334.173 756.983L332.361 756.674L330.548 756.364C330.23 758.226 329.668 759.887 328.876 761.362L330.495 762.233ZM332.361 756.674L334.176 756.965C334.527 754.776 334.527 752.725 334.121 750.84L332.323 751.227L330.526 751.614C330.816 752.962 330.841 754.542 330.545 756.383L332.361 756.674ZM332.323 751.227L334.124 750.856C333.72 748.898 332.837 747.231 331.406 745.981L330.197 747.366L328.987 748.75C329.72 749.391 330.255 750.298 330.523 751.598L332.323 751.227ZM330.197 747.366L331.423 745.996C329.926 744.655 327.973 744.091 325.794 744.091V745.929V747.768C327.346 747.768 328.329 748.161 328.97 748.735L330.197 747.366ZM325.794 745.929V744.091C323.676 744.091 321.733 744.633 320.027 745.755L321.038 747.291L322.048 748.827C323.103 748.133 324.331 747.768 325.794 747.768V745.929ZM321.038 747.291L320.031 745.753C318.382 746.832 317.056 748.325 316.034 750.168L317.643 751.059L319.251 751.95C320.021 750.56 320.958 749.541 322.045 748.829L321.038 747.291ZM317.643 751.059L316.032 750.173C315.031 751.991 314.357 754.069 313.981 756.378L315.796 756.674L317.611 756.969C317.931 755 318.488 753.336 319.253 751.946L317.643 751.059ZM360.584 752.57L362.398 752.867L362.748 750.731H360.584V752.57ZM359.912 756.674V758.512H361.474L361.727 756.971L359.912 756.674ZM343.198 756.674L341.384 756.377L341.035 758.512H343.198V756.674ZM343.87 752.57V750.731H342.308L342.056 752.273L343.87 752.57ZM360.584 752.57L358.769 752.273L358.098 756.377L359.912 756.674L361.727 756.971L362.398 752.867L360.584 752.57ZM359.912 756.674V754.835H343.198V756.674V758.512H359.912V756.674ZM343.198 756.674L345.013 756.971L345.684 752.867L343.87 752.57L342.056 752.273L341.384 756.377L343.198 756.674ZM343.87 752.57V754.409H360.584V752.57V750.731H343.87V752.57ZM363.48 781.745L361.667 781.441L361.307 783.583H363.48V781.745ZM370.083 742.348V740.509H368.527L368.27 742.044L370.083 742.348ZM374.336 742.348L376.151 742.645L376.501 740.509H374.336V742.348ZM373.59 746.899L371.776 746.602L371.426 748.738H373.59V746.899ZM374.113 746.899V748.738H374.996L375.548 748.048L374.113 746.899ZM375.754 744.997L374.391 743.763L374.39 743.764L375.754 744.997ZM378.608 742.907L379.444 744.545L379.45 744.542L378.608 742.907ZM389.278 743.784L390.372 742.307L389.278 743.784ZM392.729 748.914L394.488 748.38V748.38L392.729 748.914ZM392.99 756.748L391.176 756.449L391.176 756.451L392.99 756.748ZM390.136 764.639L391.688 765.624L391.691 765.62L390.136 764.639ZM384.988 769.787L385.928 771.367L385.935 771.363L384.988 769.787ZM374.094 770.683L373.128 772.247L373.135 772.252L373.142 772.256L374.094 770.683ZM371.893 768.575L370.301 769.495L370.307 769.506L371.893 768.575ZM370.829 766.598L372.489 765.807L371.99 764.759H370.829V766.598ZM370.456 766.598V764.759H368.9L368.643 766.294L370.456 766.598ZM367.919 781.745V783.583H369.476L369.733 782.048L367.919 781.745ZM372.023 756.674L370.209 756.378L370.208 756.382L372.023 756.674ZM372.023 762.401L370.224 762.779L370.226 762.787L370.228 762.795L372.023 762.401ZM374.168 766.262L372.96 767.648L372.969 767.655L372.977 767.662L374.168 766.262ZM383.272 766.187L384.329 767.692L384.331 767.69L383.272 766.187ZM386.704 762.233L385.089 761.353L385.087 761.357L386.704 762.233ZM388.588 756.674L390.4 756.983L390.402 756.974L390.403 756.965L388.588 756.674ZM388.551 751.227L386.753 751.611L386.753 751.614L388.551 751.227ZM386.424 747.366L385.198 748.735L385.207 748.743L386.424 747.366ZM377.265 747.291L378.272 748.829L378.275 748.827L377.265 747.291ZM373.87 751.059L372.262 750.168L372.259 750.173L373.87 751.059ZM363.48 781.745L365.293 782.049L371.897 742.652L370.083 742.348L368.27 742.044L361.667 781.441L363.48 781.745ZM370.083 742.348V744.186H374.336V742.348V740.509H370.083V742.348ZM374.336 742.348L372.522 742.05L371.776 746.602L373.59 746.899L375.405 747.197L376.151 742.645L374.336 742.348ZM373.59 746.899V748.738H374.113V746.899V745.061H373.59V746.899ZM374.113 746.899L375.548 748.048C375.914 747.591 376.433 746.987 377.118 746.229L375.754 744.997L374.39 743.764C373.682 744.548 373.107 745.213 372.677 745.751L374.113 746.899ZM375.754 744.997L377.117 746.23C377.642 745.65 378.398 745.079 379.444 744.545L378.608 742.907L377.772 741.27C376.431 741.955 375.284 742.776 374.391 743.763L375.754 744.997ZM378.608 742.907L379.45 744.542C380.317 744.095 381.539 743.813 383.216 743.813V741.975V740.136C381.161 740.136 379.311 740.476 377.766 741.273L378.608 742.907ZM383.216 741.975V743.813C385.311 743.813 386.928 744.332 388.184 745.262L389.278 743.784L390.372 742.307C388.37 740.824 385.945 740.136 383.216 740.136V741.975ZM389.278 743.784L388.184 745.262C389.452 746.201 390.396 747.556 390.97 749.448L392.729 748.914L394.488 748.38C393.719 745.844 392.362 743.78 390.372 742.307L389.278 743.784ZM392.729 748.914L390.97 749.448C391.538 751.319 391.642 753.632 391.176 756.449L392.99 756.748L394.804 757.048C395.333 753.845 395.264 750.936 394.488 748.38L392.729 748.914ZM392.99 756.748L391.176 756.451C390.712 759.283 389.835 761.672 388.581 763.658L390.136 764.639L391.691 765.62C393.248 763.154 394.274 760.283 394.805 757.046L392.99 756.748ZM390.136 764.639L388.584 763.654C387.315 765.653 385.797 767.156 384.04 768.212L384.988 769.787L385.935 771.363C388.232 769.982 390.147 768.053 391.688 765.624L390.136 764.639ZM384.988 769.787L384.047 768.208C382.309 769.242 380.427 769.758 378.366 769.758V771.597V773.435C381.08 773.435 383.613 772.745 385.928 771.367L384.988 769.787ZM378.366 771.597V769.758C376.688 769.758 375.647 769.474 375.045 769.11L374.094 770.683L373.142 772.256C374.555 773.111 376.362 773.435 378.366 773.435V771.597ZM374.094 770.683L375.06 769.118C374.233 768.608 373.747 768.103 373.478 767.644L371.893 768.575L370.307 769.506C370.958 770.614 371.941 771.514 373.128 772.247L374.094 770.683ZM371.893 768.575L373.484 767.655C373.036 766.88 372.709 766.268 372.489 765.807L370.829 766.598L369.17 767.388C369.448 767.972 369.829 768.678 370.301 769.495L371.893 768.575ZM370.829 766.598V764.759H370.456V766.598V768.436H370.829V766.598ZM370.456 766.598L368.643 766.294L366.106 781.441L367.919 781.745L369.733 782.048L372.27 766.901L370.456 766.598ZM367.919 781.745V779.906H363.48V781.745V783.583H367.919V781.745ZM372.023 756.674L370.208 756.382C369.834 758.706 369.818 760.85 370.224 762.779L372.023 762.401L373.822 762.022C373.532 760.643 373.516 758.97 373.838 756.966L372.023 756.674ZM372.023 762.401L370.228 762.795C370.657 764.748 371.542 766.411 372.96 767.648L374.168 766.262L375.377 764.876C374.656 764.248 374.111 763.336 373.819 762.006L372.023 762.401ZM374.168 766.262L372.977 767.662C374.467 768.929 376.348 769.481 378.44 769.481V767.642V765.804C377.001 765.804 376.034 765.435 375.36 764.861L374.168 766.262ZM378.44 767.642V769.481C380.623 769.481 382.61 768.899 384.329 767.692L383.272 766.187L382.214 764.683C381.172 765.416 379.938 765.804 378.44 765.804V767.642ZM383.272 766.187L384.331 767.69C385.979 766.528 387.305 764.985 388.321 763.108L386.704 762.233L385.087 761.357C384.312 762.788 383.35 763.882 382.212 764.685L383.272 766.187ZM386.704 762.233L388.318 763.112C389.331 761.253 390.021 759.204 390.4 756.983L388.588 756.674L386.776 756.364C386.458 758.222 385.892 759.88 385.089 761.353L386.704 762.233ZM388.588 756.674L390.403 756.965C390.754 754.776 390.754 752.725 390.348 750.84L388.551 751.227L386.753 751.614C387.044 752.962 387.068 754.542 386.773 756.383L388.588 756.674ZM388.551 751.227L390.348 750.843C389.932 748.895 389.053 747.235 387.642 745.988L386.424 747.366L385.207 748.743C385.934 749.386 386.472 750.3 386.753 751.611L388.551 751.227ZM386.424 747.366L387.65 745.996C386.153 744.655 384.201 744.091 382.022 744.091V745.929V747.768C383.574 747.768 384.556 748.161 385.198 748.735L386.424 747.366ZM382.022 745.929V744.091C379.903 744.091 377.96 744.633 376.255 745.755L377.265 747.291L378.275 748.827C379.33 748.133 380.559 747.768 382.022 747.768V745.929ZM377.265 747.291L376.258 745.753C374.609 746.832 373.283 748.325 372.262 750.168L373.87 751.059L375.478 751.95C376.248 750.56 377.185 749.541 378.272 748.829L377.265 747.291ZM373.87 751.059L372.259 750.173C371.258 751.991 370.585 754.069 370.209 756.378L372.023 756.674L373.838 756.969C374.158 755 374.716 753.336 375.481 751.946L373.87 751.059ZM398.768 764.434L397.016 764.992L397.019 765.001L398.768 764.434ZM398.414 756.525L400.229 756.817L400.229 756.817L398.414 756.525ZM401.231 748.858L399.687 747.858L399.686 747.861L401.231 748.858ZM406.51 743.784L407.418 745.383L407.421 745.381L406.51 743.784ZM420.09 743.877L419.017 745.371L419.023 745.375L419.029 745.379L420.09 743.877ZM423.858 749.175L422.108 749.739L422.109 749.742L423.858 749.175ZM424.231 757.122L426.045 757.416L426.046 757.412L424.231 757.122ZM421.377 764.751L419.84 763.741L419.839 763.743L421.377 764.751ZM416.098 769.806L417.01 771.402L417.013 771.401L416.098 769.806ZM414.475 766.094L413.429 764.582L413.423 764.586L414.475 766.094ZM418.094 762.009L416.484 761.121L416.479 761.13L418.094 762.009ZM419.978 756.525L421.792 756.823L421.793 756.815L419.978 756.525ZM419.94 751.32L418.138 751.681L418.138 751.683L419.94 751.32ZM417.87 747.422L416.61 748.76L416.618 748.768L417.87 747.422ZM408.132 747.496L407.084 745.986L407.078 745.99L408.132 747.496ZM404.514 751.619L402.896 750.745V750.745L404.514 751.619ZM402.667 757.122L404.482 757.412L404.483 757.409L402.667 757.122ZM402.686 762.326L400.881 762.676L400.882 762.684L400.884 762.692L402.686 762.326ZM404.756 766.187L403.504 767.534L403.513 767.542L403.521 767.549L404.756 766.187ZM409.158 771.597V769.758C406.82 769.758 405.004 769.205 403.597 768.211L402.536 769.713L401.476 771.215C403.625 772.733 406.224 773.435 409.158 773.435V771.597ZM402.536 769.713L403.597 768.211C402.173 767.206 401.14 765.79 400.517 763.867L398.768 764.434L397.019 765.001C397.863 767.605 399.342 769.708 401.476 771.215L402.536 769.713ZM398.768 764.434L400.52 763.876C399.907 761.954 399.777 759.62 400.229 756.817L398.414 756.525L396.599 756.232C396.08 759.448 396.186 762.387 397.017 764.992L398.768 764.434ZM398.414 756.525L400.229 756.817C400.667 754.096 401.527 751.788 402.775 749.855L401.231 748.858L399.686 747.861C398.124 750.28 397.106 753.083 396.599 756.232L398.414 756.525ZM401.231 748.858L402.774 749.857C404.044 747.896 405.593 746.419 407.418 745.383L406.51 743.784L405.601 742.185C403.223 743.536 401.253 745.442 399.687 747.858L401.231 748.858ZM406.51 743.784L407.421 745.381C409.245 744.34 411.255 743.813 413.486 743.813V741.975V740.136C410.644 740.136 408.002 740.816 405.598 742.187L406.51 743.784ZM413.486 741.975V743.813C415.821 743.813 417.625 744.371 419.017 745.371L420.09 743.877L421.162 742.384C419.022 740.847 416.424 740.136 413.486 740.136V741.975ZM420.09 743.877L419.029 745.379C420.45 746.383 421.484 747.803 422.108 749.739L423.858 749.175L425.607 748.611C424.764 745.996 423.286 743.884 421.15 742.376L420.09 743.877ZM423.858 749.175L422.109 749.742C422.731 751.66 422.867 754.003 422.415 756.831L424.231 757.122L426.046 757.412C426.564 754.171 426.452 751.216 425.607 748.608L423.858 749.175ZM424.231 757.122L422.416 756.827C421.979 759.515 421.111 761.808 419.84 763.741L421.377 764.751L422.913 765.761C424.503 763.341 425.537 760.548 426.045 757.416L424.231 757.122ZM421.377 764.751L419.839 763.743C418.569 765.682 417.016 767.159 415.182 768.212L416.098 769.806L417.013 771.401C419.382 770.041 421.349 768.148 422.915 765.759L421.377 764.751ZM416.098 769.806L415.185 768.21C413.389 769.236 411.393 769.758 409.158 769.758V771.597V773.435C411.997 773.435 414.628 772.764 417.01 771.402L416.098 769.806ZM409.233 767.642V769.481C411.578 769.481 413.703 768.874 415.527 767.602L414.475 766.094L413.423 764.586C412.287 765.378 410.917 765.804 409.233 765.804V767.642ZM414.475 766.094L415.521 767.606C417.264 766.4 418.659 764.816 419.709 762.888L418.094 762.009L416.479 761.13C415.687 762.585 414.67 763.723 413.429 764.582L414.475 766.094ZM418.094 762.009L419.704 762.897C420.74 761.016 421.435 758.988 421.792 756.823L419.978 756.525L418.164 756.226C417.873 757.991 417.312 759.619 416.484 761.121L418.094 762.009ZM419.978 756.525L421.793 756.815C422.121 754.766 422.115 752.807 421.743 750.957L419.94 751.32L418.138 751.683C418.412 753.042 418.431 754.553 418.162 756.234L419.978 756.525ZM419.94 751.32L421.743 750.96C421.355 749.021 420.5 747.356 419.121 746.075L417.87 747.422L416.618 748.768C417.353 749.452 417.879 750.387 418.138 751.681L419.94 751.32ZM417.87 747.422L419.13 746.083C417.634 744.675 415.641 744.091 413.411 744.091V745.929V747.768C415.012 747.768 415.991 748.178 416.61 748.76L417.87 747.422ZM413.411 745.929V744.091C411.061 744.091 408.927 744.706 407.084 745.986L408.132 747.496L409.181 749.006C410.347 748.197 411.733 747.768 413.411 747.768V745.929ZM408.132 747.496L407.078 745.99C405.337 747.209 403.943 748.806 402.896 750.745L404.514 751.619L406.131 752.492C406.924 751.024 407.944 749.873 409.187 749.002L408.132 747.496ZM404.514 751.619L402.896 750.745C401.874 752.636 401.193 754.67 400.851 756.834L402.667 757.122L404.483 757.409C404.762 755.644 405.312 754.008 406.131 752.492L404.514 751.619ZM402.667 757.122L400.851 756.831C400.524 758.876 400.523 760.83 400.881 762.676L402.686 762.326L404.49 761.976C404.226 760.613 404.213 759.098 404.482 757.412L402.667 757.122ZM402.686 762.326L400.884 762.692C401.274 764.611 402.131 766.258 403.504 767.534L404.756 766.187L406.008 764.841C405.267 764.152 404.744 763.225 404.487 761.96L402.686 762.326ZM404.756 766.187L403.521 767.549C405.027 768.915 407.013 769.481 409.233 769.481V767.642V765.804C407.622 765.804 406.625 765.4 405.991 764.825L404.756 766.187ZM452.701 748.765L453.177 750.541L454.813 750.102L454.51 748.436L452.701 748.765ZM448.523 749.884L446.728 750.283L447.144 752.156L448.998 751.66L448.523 749.884ZM447.739 747.944L446.141 748.853L446.152 748.871L446.163 748.89L447.739 747.944ZM446.06 746.396L445.174 748.007L445.19 748.015L445.206 748.024L446.06 746.396ZM438.431 746.993L439.395 748.558L439.405 748.552L438.431 746.993ZM436.211 750.033L438.023 750.345L438.026 750.327L438.029 750.309L436.211 750.033ZM436.957 752.626L435.694 753.962L436.957 752.626ZM440.39 754.212L439.934 755.993L439.936 755.993L440.39 754.212ZM444.493 755.256L444.952 753.476L444.947 753.474L444.493 755.256ZM449.754 758.11L448.335 759.279L448.341 759.287L448.347 759.294L449.754 758.11ZM450.836 763.016L449.022 762.714V762.714L450.836 763.016ZM444.251 770.478L444.954 772.177L444.251 770.478ZM431.249 769.694L430.144 771.164L430.151 771.169L431.249 769.694ZM428.526 764.135L428.101 762.347L426.619 762.698L426.689 764.22L428.526 764.135ZM432.928 763.091L434.762 762.957L434.604 760.803L432.504 761.302L432.928 763.091ZM434.57 766.56L433.423 767.998L433.433 768.006L433.443 768.014L434.57 766.56ZM443.878 766.411L444.865 767.962L444.875 767.956L443.878 766.411ZM446.21 763.24L444.402 762.905L444.396 762.935L444.392 762.965L446.21 763.24ZM445.613 760.722L444.213 761.914L444.219 761.921L444.226 761.929L445.613 760.722ZM442.628 759.211L442.189 760.996L442.197 760.998L442.204 761L442.628 759.211ZM438.077 758.092L437.631 759.875L437.638 759.877L438.077 758.092ZM432.742 755.182L431.286 756.305L431.293 756.313L432.742 755.182ZM431.734 750.257L433.547 750.565L433.547 750.564L431.734 750.257ZM433.823 745.967L432.464 744.729L432.457 744.737L433.823 745.967ZM438.077 743.038L437.375 741.339L437.37 741.34L438.077 743.038ZM450.034 743.84L448.815 745.217L448.822 745.223L450.034 743.84ZM452.701 748.765L452.225 746.989L448.047 748.108L448.523 749.884L448.998 751.66L453.177 750.541L452.701 748.765ZM448.523 749.884L450.317 749.485C450.123 748.61 449.785 747.78 449.316 746.998L447.739 747.944L446.163 748.89C446.44 749.351 446.624 749.814 446.728 750.283L448.523 749.884ZM447.739 747.944L449.337 747.035C448.774 746.045 447.93 745.3 446.914 744.768L446.06 746.396L445.206 748.024C445.708 748.287 445.983 748.575 446.141 748.853L447.739 747.944ZM446.06 746.396L446.946 744.785C445.824 744.167 444.457 743.941 443.001 743.941V745.78V747.619C444.132 747.619 444.805 747.803 445.174 748.007L446.06 746.396ZM443.001 745.78V743.941C440.956 743.941 439.084 744.416 437.457 745.433L438.431 746.993L439.405 748.552C440.365 747.952 441.54 747.619 443.001 747.619V745.78ZM438.431 746.993L437.467 745.427C435.824 746.438 434.679 747.875 434.393 749.758L436.211 750.033L438.029 750.309C438.117 749.729 438.451 749.139 439.395 748.558L438.431 746.993ZM436.211 750.033L434.399 749.721C434.128 751.292 434.483 752.817 435.694 753.962L436.957 752.626L438.22 751.29C438.064 751.142 437.921 750.938 438.023 750.345L436.211 750.033ZM436.957 752.626L435.694 753.962C436.718 754.93 438.225 755.556 439.934 755.993L440.39 754.212L440.845 752.43C439.345 752.047 438.565 751.615 438.22 751.29L436.957 752.626ZM440.39 754.212L439.936 755.993L444.04 757.038L444.493 755.256L444.947 753.474L440.843 752.43L440.39 754.212ZM444.493 755.256L444.035 757.037C446.313 757.623 447.64 758.435 448.335 759.279L449.754 758.11L451.173 756.941C449.779 755.249 447.598 754.157 444.952 753.476L444.493 755.256ZM449.754 758.11L448.347 759.294C448.975 760.04 449.293 761.09 449.022 762.714L450.836 763.016L452.649 763.318C453.05 760.914 452.647 758.692 451.16 756.926L449.754 758.11ZM450.836 763.016L449.022 762.714C448.808 763.997 448.255 765.148 447.32 766.193L448.691 767.418L450.061 768.644C451.439 767.103 452.316 765.319 452.649 763.318L450.836 763.016ZM448.691 767.418L447.32 766.193C446.369 767.256 445.128 768.125 443.548 768.779L444.251 770.478L444.954 772.177C446.98 771.338 448.699 770.168 450.061 768.644L448.691 767.418ZM444.251 770.478L443.548 768.779C441.996 769.421 440.23 769.758 438.226 769.758V771.597V773.435C440.648 773.435 442.9 773.026 444.954 772.177L444.251 770.478ZM438.226 771.597V769.758C435.524 769.758 433.631 769.176 432.347 768.22L431.249 769.694L430.151 771.169C432.275 772.75 435.033 773.435 438.226 773.435V771.597ZM431.249 769.694L432.354 768.225C431.153 767.321 430.453 766.013 430.362 764.051L428.526 764.135L426.689 764.22C426.822 767.107 427.938 769.505 430.144 771.164L431.249 769.694ZM428.526 764.135L428.95 765.924L433.353 764.88L432.928 763.091L432.504 761.302L428.101 762.347L428.526 764.135ZM432.928 763.091L431.094 763.225C431.235 765.144 431.954 766.826 433.423 767.998L434.57 766.56L435.716 765.123C435.22 764.728 434.845 764.097 434.762 762.957L432.928 763.091ZM434.57 766.56L433.443 768.014C434.872 769.121 436.717 769.555 438.748 769.555V767.717V765.878C437.197 765.878 436.257 765.542 435.696 765.107L434.57 766.56ZM438.748 767.717V769.555C441.057 769.555 443.133 769.064 444.865 767.962L443.878 766.411L442.891 764.86C441.887 765.499 440.543 765.878 438.748 765.878V767.717ZM443.878 766.411L444.875 767.956C446.541 766.88 447.739 765.417 448.027 763.515L446.21 763.24L444.392 762.965C444.307 763.526 443.95 764.176 442.881 764.866L443.878 766.411ZM446.21 763.24L448.017 763.575C448.289 762.11 448.01 760.676 446.999 759.515L445.613 760.722L444.226 761.929C444.384 762.11 444.504 762.356 444.402 762.905L446.21 763.24ZM445.613 760.722L447.012 759.53C446.069 758.422 444.624 757.794 443.052 757.422L442.628 759.211L442.204 761C443.467 761.299 444.012 761.678 444.213 761.914L445.613 760.722ZM442.628 759.211L443.067 757.425L438.516 756.306L438.077 758.092L437.638 759.877L442.189 760.996L442.628 759.211ZM438.077 758.092L438.522 756.308C436.168 755.719 434.849 754.893 434.191 754.05L432.742 755.182L431.293 756.313C432.674 758.082 434.911 759.195 437.631 759.875L438.077 758.092ZM432.742 755.182L434.197 754.059C433.57 753.245 433.277 752.154 433.547 750.565L431.734 750.257L429.922 749.949C429.52 752.314 429.899 754.507 431.286 756.305L432.742 755.182ZM431.734 750.257L433.547 750.564C433.761 749.298 434.299 748.186 435.19 747.196L433.823 745.967L432.457 744.737C431.109 746.234 430.254 747.982 429.921 749.95L431.734 750.257ZM433.823 745.967L435.183 747.204C436.116 746.179 437.303 745.351 438.783 744.735L438.077 743.038L437.37 741.34C435.442 742.143 433.794 743.267 432.464 744.729L433.823 745.967ZM438.077 743.038L438.778 744.737C440.254 744.128 441.878 743.813 443.673 743.813V741.975V740.136C441.438 740.136 439.332 740.53 437.375 741.339L438.077 743.038ZM443.673 741.975V743.813C446.281 743.813 447.882 744.391 448.815 745.217L450.034 743.84L451.252 742.463C449.375 740.802 446.735 740.136 443.673 740.136V741.975ZM450.034 743.84L448.822 745.223C449.878 746.148 450.584 747.4 450.892 749.094L452.701 748.765L454.51 748.436C454.072 746.025 452.999 743.994 451.245 742.457L450.034 743.84ZM473.356 742.348L475.171 742.638L475.512 740.509H473.356V742.348ZM472.759 746.078V747.917H474.326L474.574 746.369L472.759 746.078ZM457.91 746.078L456.095 745.788L455.754 747.917H457.91V746.078ZM458.507 742.348V740.509H456.939L456.692 742.057L458.507 742.348ZM463.954 735.483V733.645H462.394L462.14 735.184L463.954 735.483ZM468.356 735.483L470.17 735.785L470.527 733.645H468.356V735.483ZM463.805 762.792L461.991 762.49L461.989 762.502L463.805 762.792ZM463.898 765.59L462.203 766.302L462.212 766.323L462.221 766.343L463.898 765.59ZM465.129 766.822L464.467 768.537L464.49 768.545L464.513 768.554L465.129 766.822ZM468.132 767.045L468.423 768.861L468.458 768.855L468.493 768.848L468.132 767.045ZM468.879 766.896L470.712 766.758L470.556 764.686L468.518 765.093L468.879 766.896ZM469.177 770.851L469.758 772.595L471.118 772.142L471.01 770.712L469.177 770.851ZM467.815 771.187L467.462 769.382L467.439 769.387L467.417 769.392L467.815 771.187ZM462.238 770.571L463.045 768.919L462.238 770.571ZM459.72 768.127L461.341 767.261L459.72 768.127ZM459.253 763.986L457.439 763.687L457.439 763.688L459.253 763.986ZM473.356 742.348L471.54 742.057L470.943 745.788L472.759 746.078L474.574 746.369L475.171 742.638L473.356 742.348ZM472.759 746.078V744.24H457.91V746.078V747.917H472.759V746.078ZM457.91 746.078L459.726 746.369L460.323 742.638L458.507 742.348L456.692 742.057L456.095 745.788L457.91 746.078ZM458.507 742.348V744.186H473.356V742.348V740.509H458.507V742.348ZM463.954 735.483V737.322H468.356V735.483V733.645H463.954V735.483ZM468.356 735.483L466.543 735.181L461.991 762.49L463.805 762.792L465.618 763.095L470.17 735.785L468.356 735.483ZM463.805 762.792L461.989 762.502C461.776 763.835 461.737 765.192 462.203 766.302L463.898 765.59L465.593 764.878C465.537 764.745 465.436 764.237 465.62 763.083L463.805 762.792ZM463.898 765.59L462.221 766.343C462.663 767.328 463.404 768.126 464.467 768.537L465.129 766.822L465.792 765.107C465.76 765.094 465.68 765.071 465.575 764.837L463.898 765.59ZM465.129 766.822L464.513 768.554C465.287 768.829 466.101 768.959 466.939 768.959V767.12V765.281C466.483 765.281 466.09 765.212 465.745 765.089L465.129 766.822ZM466.939 767.12V768.959C467.475 768.959 467.979 768.932 468.423 768.861L468.132 767.045L467.842 765.23C467.664 765.258 467.372 765.281 466.939 765.281V767.12ZM468.132 767.045L468.493 768.848C468.804 768.786 469.053 768.736 469.239 768.699L468.879 766.896L468.518 765.093C468.332 765.131 468.083 765.18 467.772 765.243L468.132 767.045ZM468.879 766.896L467.045 767.035L467.344 770.989L469.177 770.851L471.01 770.712L470.712 766.758L468.879 766.896ZM469.177 770.851L468.596 769.107C468.367 769.183 468 769.277 467.462 769.382L467.815 771.187L468.168 772.991C468.775 772.872 469.316 772.743 469.758 772.595L469.177 770.851ZM467.815 771.187L467.417 769.392C467.031 769.478 466.484 769.535 465.745 769.535V771.373V773.212C466.647 773.212 467.481 773.144 468.214 772.981L467.815 771.187ZM465.745 771.373V769.535C464.775 769.535 463.883 769.328 463.045 768.919L462.238 770.571L461.431 772.223C462.782 772.883 464.228 773.212 465.745 773.212V771.373ZM462.238 770.571L463.045 768.919C462.305 768.557 461.747 768.021 461.341 767.261L459.72 768.127L458.098 768.993C458.861 770.422 459.982 771.515 461.431 772.223L462.238 770.571ZM459.72 768.127L461.341 767.261C461.005 766.632 460.836 765.694 461.067 764.284L459.253 763.986L457.439 763.688C457.123 765.611 457.265 767.434 458.098 768.993L459.72 768.127ZM459.253 763.986L461.067 764.285L465.768 735.782L463.954 735.483L462.14 735.184L457.439 763.687L459.253 763.986ZM480.024 769.769L478.983 771.284L478.99 771.289L480.024 769.769ZM476.275 764.62L474.524 765.181L474.525 765.184L476.275 764.62ZM475.939 756.898L477.753 757.197L475.939 756.898ZM478.83 749.138L480.376 750.134L480.378 750.13L478.83 749.138ZM484.221 743.877L485.148 745.465L485.155 745.461L484.221 743.877ZM495.619 742.721L496.242 740.991L495.619 742.721ZM499.2 745.146L497.834 746.376L497.841 746.383L499.2 745.146ZM501.308 749.548L499.512 749.939L501.308 749.548ZM501.234 756.301L499.42 755.997L499.418 756.01L501.234 756.301ZM500.935 758.166V760.005H502.503L502.751 758.457L500.935 758.166ZM478.849 758.166L477.033 757.881L476.7 760.005H478.849V758.166ZM479.446 754.361V752.522H477.873L477.63 754.076L479.446 754.361ZM497.055 754.361V756.199H498.597L498.866 754.681L497.055 754.361ZM496.831 750.033L495.087 750.614L495.09 750.622L495.092 750.63L496.831 750.033ZM494.612 747.03L493.555 748.534L493.563 748.54L494.612 747.03ZM486.012 747.272L486.978 748.837L486.988 748.831L486.012 747.272ZM482.431 750.63L483.928 751.697L483.932 751.691L482.431 750.63ZM480.64 754.734L478.827 754.426L478.826 754.436L478.824 754.445L480.64 754.734ZM480.118 758.017L478.302 757.728L478.301 757.732L480.118 758.017ZM480.285 763.688L478.548 764.288L478.55 764.294L478.552 764.301L480.285 763.688ZM482.878 766.728L482.049 768.369L482.056 768.373L482.063 768.376L482.878 766.728ZM490.769 767.157L491.337 768.906L491.347 768.903L491.357 768.899L490.769 767.157ZM493.436 765.665L494.62 767.072L494.626 767.066L494.633 767.061L493.436 765.665ZM495.414 763.165L495.936 761.403L494.502 760.978L493.794 762.295L495.414 763.165ZM499.443 764.359L501.104 765.147L502.024 763.207L499.965 762.596L499.443 764.359ZM496.552 768.165L497.765 769.546L497.766 769.545L496.552 768.165ZM492.224 770.702L492.852 772.429L492.859 772.427L492.224 770.702ZM486.833 771.597V769.758C484.355 769.758 482.472 769.211 481.059 768.249L480.024 769.769L478.99 771.289C481.158 772.765 483.815 773.435 486.833 773.435V771.597ZM480.024 769.769L481.066 768.254C479.632 767.268 478.618 765.898 478.025 764.057L476.275 764.62L474.525 765.184C475.35 767.745 476.835 769.807 478.983 771.284L480.024 769.769ZM476.275 764.62L478.026 764.06C477.427 762.191 477.303 759.923 477.753 757.197L475.939 756.898L474.125 756.598C473.606 759.742 473.705 762.623 474.524 765.181L476.275 764.62ZM475.939 756.898L477.753 757.197C478.202 754.481 479.085 752.137 480.376 750.134L478.83 749.138L477.285 748.142C475.691 750.615 474.646 753.444 474.125 756.598L475.939 756.898ZM478.83 749.138L480.378 750.13C481.676 748.105 483.266 746.564 485.148 745.465L484.221 743.877L483.294 742.29C480.874 743.703 478.87 745.668 477.283 748.146L478.83 749.138ZM484.221 743.877L485.155 745.461C487.015 744.365 489.053 743.813 491.31 743.813V741.975V740.136C488.418 740.136 485.731 740.853 483.288 742.294L484.221 743.877ZM491.31 741.975V743.813C492.593 743.813 493.819 744.026 494.996 744.45L495.619 742.721L496.242 740.991C494.658 740.42 493.011 740.136 491.31 740.136V741.975ZM495.619 742.721L494.996 744.45C496.083 744.842 497.024 745.476 497.834 746.376L499.2 745.146L500.567 743.916C499.362 742.577 497.915 741.594 496.242 740.991L495.619 742.721ZM499.2 745.146L497.841 746.383C498.583 747.198 499.166 748.349 499.512 749.939L501.308 749.548L503.105 749.157C502.655 747.091 501.833 745.307 500.56 743.908L499.2 745.146ZM501.308 749.548L499.512 749.939C499.843 751.461 499.845 753.459 499.42 755.997L501.234 756.301L503.047 756.604C503.517 753.795 503.569 751.292 503.105 749.157L501.308 749.548ZM501.234 756.301L499.418 756.01L499.12 757.876L500.935 758.166L502.751 758.457L503.049 756.591L501.234 756.301ZM500.935 758.166V756.328H478.849V758.166V760.005H500.935V758.166ZM478.849 758.166L480.665 758.451L481.262 754.646L479.446 754.361L477.63 754.076L477.033 757.881L478.849 758.166ZM479.446 754.361V756.199H497.055V754.361V752.522H479.446V754.361ZM497.055 754.361L498.866 754.681C499.194 752.826 499.127 751.059 498.57 749.436L496.831 750.033L495.092 750.63C495.406 751.544 495.489 752.662 495.245 754.04L497.055 754.361ZM496.831 750.033L498.576 749.452C498.032 747.822 497.057 746.489 495.66 745.519L494.612 747.03L493.563 748.54C494.281 749.038 494.785 749.707 495.087 750.614L496.831 750.033ZM494.612 747.03L495.668 745.525C494.243 744.524 492.523 744.091 490.638 744.091V745.929V747.768C491.962 747.768 492.891 748.068 493.555 748.534L494.612 747.03ZM490.638 745.929V744.091C488.632 744.091 486.753 744.639 485.037 745.714L486.012 747.272L486.988 748.831C488.132 748.114 489.337 747.768 490.638 747.768V745.929ZM486.012 747.272L485.046 745.708C483.408 746.719 482.031 748.009 480.929 749.569L482.431 750.63L483.932 751.691C484.745 750.54 485.756 749.591 486.978 748.837L486.012 747.272ZM482.431 750.63L480.934 749.563C479.842 751.094 479.117 752.717 478.827 754.426L480.64 754.734L482.453 755.041C482.635 753.965 483.104 752.852 483.928 751.697L482.431 750.63ZM480.64 754.734L478.824 754.445L478.302 757.728L480.118 758.017L481.933 758.306L482.456 755.023L480.64 754.734ZM480.118 758.017L478.301 757.732C477.907 760.24 477.922 762.475 478.548 764.288L480.285 763.688L482.023 763.088C481.679 762.09 481.582 760.544 481.934 758.302L480.118 758.017ZM480.285 763.688L478.552 764.301C479.194 766.113 480.36 767.516 482.049 768.369L482.878 766.728L483.707 765.087C482.934 764.697 482.372 764.073 482.019 763.074L480.285 763.688ZM482.878 766.728L482.063 768.376C483.62 769.147 485.463 769.481 487.504 769.481V767.642V765.804C485.841 765.804 484.599 765.528 483.694 765.081L482.878 766.728ZM487.504 767.642V769.481C488.854 769.481 490.137 769.296 491.337 768.906L490.769 767.157L490.201 765.409C489.411 765.665 488.518 765.804 487.504 765.804V767.642ZM490.769 767.157L491.357 768.899C492.564 768.492 493.656 767.883 494.62 767.072L493.436 765.665L492.253 764.258C491.65 764.765 490.964 765.151 490.181 765.415L490.769 767.157ZM493.436 765.665L494.633 767.061C495.604 766.228 496.401 765.212 497.033 764.036L495.414 763.165L493.794 762.295C493.357 763.109 492.836 763.758 492.24 764.269L493.436 765.665ZM495.414 763.165L494.891 764.928L498.921 766.122L499.443 764.359L499.965 762.596L495.936 761.403L495.414 763.165ZM499.443 764.359L497.782 763.572C497.209 764.78 496.4 765.849 495.337 766.784L496.552 768.165L497.766 769.545C499.19 768.292 500.309 766.824 501.104 765.147L499.443 764.359ZM496.552 768.165L495.338 766.784C494.289 767.705 493.046 768.439 491.588 768.976L492.224 770.702L492.859 772.427C494.71 771.745 496.352 770.788 497.765 769.546L496.552 768.165ZM492.224 770.702L491.596 768.974C490.178 769.489 488.596 769.758 486.833 769.758V771.597V773.435C488.975 773.435 490.987 773.108 492.852 772.429L492.224 770.702ZM505.571 771L503.757 770.698L503.4 772.839H505.571V771ZM510.346 742.348V740.509H508.789L508.533 742.045L510.346 742.348ZM514.599 742.348L516.411 742.66L516.782 740.509H514.599V742.348ZM513.853 746.675L512.041 746.363L511.67 748.514H513.853V746.675ZM514.151 746.675V748.514H515.261L515.778 747.532L514.151 746.675ZM517.565 743.224L516.646 741.632L517.565 743.224ZM523.646 741.919L523.598 743.757L523.622 743.757H523.646V741.919ZM524.747 741.975L526.56 742.277L526.87 740.421L525.007 740.155L524.747 741.975ZM524.001 746.452L523.555 748.235L525.487 748.718L525.814 746.754L524.001 746.452ZM522.993 746.284L522.691 748.097L522.712 748.101L522.733 748.104L522.993 746.284ZM517.453 747.03L518.254 748.685L518.262 748.681L518.268 748.678L517.453 747.03ZM514.487 749.418L515.93 750.557L515.937 750.549L514.487 749.418ZM512.958 752.868L511.146 752.555L511.145 752.562L511.144 752.57L512.958 752.868ZM509.973 771V772.839H511.534L511.787 771.299L509.973 771ZM505.571 771L507.384 771.302L512.16 742.65L510.346 742.348L508.533 742.045L503.757 770.698L505.571 771ZM510.346 742.348V744.186H514.599V742.348V740.509H510.346V742.348ZM514.599 742.348L512.787 742.035L512.041 746.363L513.853 746.675L515.665 746.988L516.411 742.66L514.599 742.348ZM513.853 746.675V748.514H514.151V746.675V744.837H513.853V746.675ZM514.151 746.675L515.778 747.532C516.347 746.452 517.223 745.545 518.484 744.817L517.565 743.224L516.646 741.632C514.848 742.67 513.449 744.063 512.525 745.819L514.151 746.675ZM517.565 743.224L518.484 744.817C519.743 744.09 521.05 743.739 522.434 743.739V741.9V740.062C520.385 740.062 518.447 740.593 516.646 741.632L517.565 743.224ZM522.434 741.9V743.739C522.748 743.739 523.136 743.744 523.598 743.757L523.646 741.919L523.695 740.081C523.212 740.068 522.791 740.062 522.434 740.062V741.9ZM523.646 741.919V743.757C524.088 743.757 524.354 743.776 524.487 743.795L524.747 741.975L525.007 740.155C524.618 740.099 524.149 740.08 523.646 740.08V741.919ZM524.747 741.975L522.933 741.672L522.187 746.149L524.001 746.452L525.814 746.754L526.56 742.277L524.747 741.975ZM524.001 746.452L524.447 744.668C524.187 744.603 523.751 744.535 523.253 744.464L522.993 746.284L522.733 748.104C522.987 748.14 523.186 748.17 523.335 748.195C523.498 748.222 523.557 748.236 523.555 748.235L524.001 746.452ZM522.993 746.284L523.296 744.47C522.662 744.365 522 744.315 521.315 744.315V746.153V747.992C521.823 747.992 522.28 748.029 522.691 748.097L522.993 746.284ZM521.315 746.153V744.315C519.655 744.315 518.087 744.665 516.638 745.382L517.453 747.03L518.268 748.678C519.182 748.226 520.188 747.992 521.315 747.992V746.153ZM517.453 747.03L516.652 745.375C515.221 746.068 514.01 747.041 513.038 748.286L514.487 749.418L515.937 750.549C516.557 749.754 517.322 749.136 518.254 748.685L517.453 747.03ZM514.487 749.418L513.045 748.278C512.055 749.531 511.421 750.967 511.146 752.555L512.958 752.868L514.769 753.182C514.942 752.184 515.328 751.319 515.93 750.557L514.487 749.418ZM512.958 752.868L511.144 752.57L508.159 770.701L509.973 771L511.787 771.299L514.772 753.167L512.958 752.868ZM509.973 771V769.161H505.571V771V772.839H509.973V771Z" fill="white" mask="url(#path-178-outside-1_119_2465)"/>
</svg>
