<svg width="1886" height="253" viewBox="0 0 1886 253" fill="none" xmlns="http://www.w3.org/2000/svg">
<line x1="1885.01" y1="121.445" x2="0.00369726" y2="127.048" stroke="#0073FF" stroke-width="2.88911"/>
<path d="M942.632 1.40039C1000.32 1.40039 1052.48 14.7325 1090.17 36.2168C1127.9 57.724 1150.87 87.2219 1150.87 119.5C1150.87 151.778 1127.9 181.276 1090.17 202.783C1052.48 224.267 1000.32 237.6 942.632 237.6C884.941 237.6 832.78 224.267 795.091 202.783C757.361 181.276 734.396 151.778 734.396 119.5C734.396 87.2219 757.361 57.724 795.091 36.2168C832.78 14.7327 884.941 1.40042 942.632 1.40039Z" fill="white" stroke="#0073FF" stroke-width="2.8"/>
<mask id="path-3-outside-1_104_6045" maskUnits="userSpaceOnUse" x="775.996" y="89" width="339" height="61" fill="black">
<rect fill="white" x="775.996" y="89" width="339" height="61"/>
<path d="M778.588 92.7461H787.344V136.214L812.477 92.7461H823.705V146H814.949V102.532L789.816 146H778.588V92.7461ZM836.932 92.7461H861.55C863.885 92.7461 866.116 92.9177 868.245 93.2611C870.443 93.6044 872.4 94.2568 874.117 95.2182C875.833 96.1109 877.207 97.4157 878.237 99.1324C879.267 100.849 879.782 103.047 879.782 105.725C879.782 108.609 879.095 110.944 877.722 112.729C876.348 114.515 874.426 115.991 871.953 117.158V117.261C875.044 117.879 877.481 119.322 879.267 121.588C881.121 123.854 882.048 126.772 882.048 130.343C882.048 132.609 881.636 134.704 880.812 136.626C880.057 138.549 878.958 140.197 877.516 141.571C876.074 142.944 874.357 144.043 872.365 144.867C870.374 145.622 868.211 146 865.876 146H836.932V92.7461ZM864.228 138.584C867.112 138.584 869.275 137.76 870.717 136.111C872.228 134.395 872.983 132.266 872.983 129.725C872.983 127.322 872.194 125.399 870.614 123.957C869.035 122.515 866.391 121.794 862.683 121.794H845.584V138.584H864.228ZM860.623 114.583C864.4 114.583 867.009 113.897 868.451 112.523C869.962 111.15 870.717 109.33 870.717 107.064C870.717 104.866 869.996 103.184 868.554 102.017C867.112 100.781 864.468 100.162 860.623 100.162H845.584V114.583H860.623ZM915.22 147.133C910.962 147.133 907.22 146.446 903.992 145.073C900.833 143.7 898.19 141.777 896.061 139.305C893.932 136.832 892.318 133.88 891.22 130.446C890.189 127.013 889.674 123.27 889.674 119.219C889.674 115.236 890.292 111.562 891.529 108.197C892.765 104.763 894.481 101.811 896.679 99.3384C898.945 96.8663 901.589 94.9435 904.61 93.5701C907.7 92.1967 911.065 91.51 914.705 91.51C919.443 91.51 923.357 92.5057 926.447 94.4972C929.606 96.4199 932.113 98.8921 933.967 101.914C935.89 104.935 937.194 108.231 937.881 111.802C938.636 115.373 938.945 118.772 938.808 122H898.945C898.876 124.334 899.151 126.566 899.769 128.695C900.387 130.755 901.383 132.609 902.756 134.257C904.13 135.837 905.881 137.107 908.009 138.069C910.138 139.03 912.645 139.511 915.529 139.511C919.237 139.511 922.259 138.652 924.593 136.936C926.997 135.219 928.576 132.609 929.332 129.107H937.984C936.817 135.15 934.242 139.682 930.259 142.704C926.276 145.657 921.263 147.133 915.22 147.133ZM929.538 114.274C929.4 112.214 928.92 110.257 928.096 108.403C927.34 106.549 926.276 104.969 924.902 103.665C923.598 102.291 922.018 101.227 920.164 100.471C918.379 99.6474 916.387 99.2354 914.19 99.2354C911.924 99.2354 909.864 99.6474 908.009 100.471C906.224 101.227 904.679 102.291 903.374 103.665C902.069 105.038 901.039 106.652 900.284 108.506C899.529 110.291 899.082 112.214 898.945 114.274H929.538ZM947.884 92.7461H956.639V113.965H983.627V92.7461H992.382V146H983.627V121.485H956.639V146H947.884V92.7461ZM1018.4 100.471H999.342V92.7461H1046.21V100.471H1027.15V146H1018.4V100.471ZM1053.2 92.7461H1061.96V113.141H1078.44C1083.66 113.141 1087.85 114.583 1091.01 117.467C1094.17 120.283 1095.74 124.266 1095.74 129.416C1095.74 134.429 1094.23 138.446 1091.21 141.468C1088.19 144.489 1084.07 146 1078.85 146H1053.2V92.7461ZM1075.66 138.275C1083.01 138.275 1086.68 135.322 1086.68 129.416C1086.68 123.579 1083.01 120.661 1075.66 120.661H1061.96V138.275H1075.66ZM1104.19 92.7461H1112.95V146H1104.19V92.7461Z"/>
</mask>
<path d="M778.588 92.7461H787.344V136.214L812.477 92.7461H823.705V146H814.949V102.532L789.816 146H778.588V92.7461ZM836.932 92.7461H861.55C863.885 92.7461 866.116 92.9177 868.245 93.2611C870.443 93.6044 872.4 94.2568 874.117 95.2182C875.833 96.1109 877.207 97.4157 878.237 99.1324C879.267 100.849 879.782 103.047 879.782 105.725C879.782 108.609 879.095 110.944 877.722 112.729C876.348 114.515 874.426 115.991 871.953 117.158V117.261C875.044 117.879 877.481 119.322 879.267 121.588C881.121 123.854 882.048 126.772 882.048 130.343C882.048 132.609 881.636 134.704 880.812 136.626C880.057 138.549 878.958 140.197 877.516 141.571C876.074 142.944 874.357 144.043 872.365 144.867C870.374 145.622 868.211 146 865.876 146H836.932V92.7461ZM864.228 138.584C867.112 138.584 869.275 137.76 870.717 136.111C872.228 134.395 872.983 132.266 872.983 129.725C872.983 127.322 872.194 125.399 870.614 123.957C869.035 122.515 866.391 121.794 862.683 121.794H845.584V138.584H864.228ZM860.623 114.583C864.4 114.583 867.009 113.897 868.451 112.523C869.962 111.15 870.717 109.33 870.717 107.064C870.717 104.866 869.996 103.184 868.554 102.017C867.112 100.781 864.468 100.162 860.623 100.162H845.584V114.583H860.623ZM915.22 147.133C910.962 147.133 907.22 146.446 903.992 145.073C900.833 143.7 898.19 141.777 896.061 139.305C893.932 136.832 892.318 133.88 891.22 130.446C890.189 127.013 889.674 123.27 889.674 119.219C889.674 115.236 890.292 111.562 891.529 108.197C892.765 104.763 894.481 101.811 896.679 99.3384C898.945 96.8663 901.589 94.9435 904.61 93.5701C907.7 92.1967 911.065 91.51 914.705 91.51C919.443 91.51 923.357 92.5057 926.447 94.4972C929.606 96.4199 932.113 98.8921 933.967 101.914C935.89 104.935 937.194 108.231 937.881 111.802C938.636 115.373 938.945 118.772 938.808 122H898.945C898.876 124.334 899.151 126.566 899.769 128.695C900.387 130.755 901.383 132.609 902.756 134.257C904.13 135.837 905.881 137.107 908.009 138.069C910.138 139.03 912.645 139.511 915.529 139.511C919.237 139.511 922.259 138.652 924.593 136.936C926.997 135.219 928.576 132.609 929.332 129.107H937.984C936.817 135.15 934.242 139.682 930.259 142.704C926.276 145.657 921.263 147.133 915.22 147.133ZM929.538 114.274C929.4 112.214 928.92 110.257 928.096 108.403C927.34 106.549 926.276 104.969 924.902 103.665C923.598 102.291 922.018 101.227 920.164 100.471C918.379 99.6474 916.387 99.2354 914.19 99.2354C911.924 99.2354 909.864 99.6474 908.009 100.471C906.224 101.227 904.679 102.291 903.374 103.665C902.069 105.038 901.039 106.652 900.284 108.506C899.529 110.291 899.082 112.214 898.945 114.274H929.538ZM947.884 92.7461H956.639V113.965H983.627V92.7461H992.382V146H983.627V121.485H956.639V146H947.884V92.7461ZM1018.4 100.471H999.342V92.7461H1046.21V100.471H1027.15V146H1018.4V100.471ZM1053.2 92.7461H1061.96V113.141H1078.44C1083.66 113.141 1087.85 114.583 1091.01 117.467C1094.17 120.283 1095.74 124.266 1095.74 129.416C1095.74 134.429 1094.23 138.446 1091.21 141.468C1088.19 144.489 1084.07 146 1078.85 146H1053.2V92.7461ZM1075.66 138.275C1083.01 138.275 1086.68 135.322 1086.68 129.416C1086.68 123.579 1083.01 120.661 1075.66 120.661H1061.96V138.275H1075.66ZM1104.19 92.7461H1112.95V146H1104.19V92.7461Z" fill="white"/>
<path d="M778.588 92.7461V90.7461H776.588V92.7461H778.588ZM787.344 92.7461H789.344V90.7461H787.344V92.7461ZM787.344 136.214H785.344V143.669L789.075 137.216L787.344 136.214ZM812.477 92.7461V90.7461H811.323L810.746 91.745L812.477 92.7461ZM823.705 92.7461H825.705V90.7461H823.705V92.7461ZM823.705 146V148H825.705V146H823.705ZM814.949 146H812.949V148H814.949V146ZM814.949 102.532H816.949V95.077L813.218 101.531L814.949 102.532ZM789.816 146V148H790.97L791.547 147.001L789.816 146ZM778.588 146H776.588V148H778.588V146ZM778.588 92.7461V94.7461H787.344V92.7461V90.7461H778.588V92.7461ZM787.344 92.7461H785.344V136.214H787.344H789.344V92.7461H787.344ZM787.344 136.214L789.075 137.216L814.209 93.7472L812.477 92.7461L810.746 91.745L785.613 135.213L787.344 136.214ZM812.477 92.7461V94.7461H823.705V92.7461V90.7461H812.477V92.7461ZM823.705 92.7461H821.705V146H823.705H825.705V92.7461H823.705ZM823.705 146V144H814.949V146V148H823.705V146ZM814.949 146H816.949V102.532H814.949H812.949V146H814.949ZM814.949 102.532L813.218 101.531L788.085 144.999L789.816 146L791.547 147.001L816.681 103.533L814.949 102.532ZM789.816 146V144H778.588V146V148H789.816V146ZM778.588 146H780.588V92.7461H778.588H776.588V146H778.588ZM836.932 92.7461V90.7461H834.932V92.7461H836.932ZM868.245 93.2611L867.927 95.2356L867.936 95.2371L868.245 93.2611ZM874.117 95.2182L873.139 96.9632L873.166 96.9783L873.194 96.9926L874.117 95.2182ZM878.237 99.1324L879.952 98.1034L879.952 98.1034L878.237 99.1324ZM877.722 112.729L876.137 111.51L876.137 111.51L877.722 112.729ZM871.953 117.158L871.099 115.35L869.953 115.891V117.158H871.953ZM871.953 117.261H869.953V118.901L871.561 119.223L871.953 117.261ZM879.267 121.588L877.696 122.825L877.707 122.84L877.719 122.854L879.267 121.588ZM880.812 136.626L878.974 135.839L878.962 135.867L878.95 135.895L880.812 136.626ZM877.516 141.571L878.895 143.019L878.895 143.019L877.516 141.571ZM872.365 144.867L873.075 146.737L873.103 146.726L873.13 146.715L872.365 144.867ZM836.932 146H834.932V148H836.932V146ZM870.717 136.111L869.216 134.79L869.212 134.794L870.717 136.111ZM870.614 123.957L871.963 122.48L871.963 122.48L870.614 123.957ZM845.584 121.794V119.794H843.584V121.794H845.584ZM845.584 138.584H843.584V140.584H845.584V138.584ZM868.451 112.523L867.106 111.043L867.089 111.059L867.072 111.075L868.451 112.523ZM868.554 102.017L867.253 103.535L867.274 103.553L867.296 103.571L868.554 102.017ZM845.584 100.162V98.1625H843.584V100.162H845.584ZM845.584 114.583H843.584V116.583H845.584V114.583ZM836.932 92.7461V94.7461H861.55V92.7461V90.7461H836.932V92.7461ZM861.55 92.7461V94.7461C863.787 94.7461 865.912 94.9105 867.927 95.2356L868.245 93.2611L868.564 91.2866C866.321 90.9249 863.983 90.7461 861.55 90.7461V92.7461ZM868.245 93.2611L867.936 95.2371C869.929 95.5485 871.655 96.132 873.139 96.9632L874.117 95.2182L875.094 93.4732C873.144 92.3816 870.956 91.6604 868.554 91.2851L868.245 93.2611ZM874.117 95.2182L873.194 96.9926C874.571 97.7087 875.675 98.75 876.522 100.161L878.237 99.1324L879.952 98.1034C878.738 96.0813 877.096 94.5131 875.039 93.4438L874.117 95.2182ZM878.237 99.1324L876.522 100.161C877.313 101.479 877.782 103.291 877.782 105.725H879.782H881.782C881.782 102.803 881.221 100.219 879.952 98.1034L878.237 99.1324ZM879.782 105.725H877.782C877.782 108.293 877.174 110.161 876.137 111.51L877.722 112.729L879.307 113.949C881.017 111.726 881.782 108.925 881.782 105.725H879.782ZM877.722 112.729L876.137 111.51C874.994 112.995 873.345 114.289 871.099 115.35L871.953 117.158L872.807 118.967C875.506 117.693 877.703 116.034 879.307 113.949L877.722 112.729ZM871.953 117.158H869.953V117.261H871.953H873.953V117.158H871.953ZM871.953 117.261L871.561 119.223C874.231 119.757 876.233 120.968 877.696 122.825L879.267 121.588L880.838 120.35C878.73 117.675 875.856 116.002 872.346 115.3L871.953 117.261ZM879.267 121.588L877.719 122.854C879.221 124.689 880.048 127.129 880.048 130.343H882.048H884.048C884.048 126.415 883.021 123.018 880.815 120.321L879.267 121.588ZM882.048 130.343H880.048C880.048 132.361 879.682 134.185 878.974 135.839L880.812 136.626L882.65 137.414C883.59 135.222 884.048 132.857 884.048 130.343H882.048ZM880.812 136.626L878.95 135.895C878.298 137.557 877.36 138.958 876.136 140.122L877.516 141.571L878.895 143.019C880.556 141.437 881.816 139.541 882.673 137.358L880.812 136.626ZM877.516 141.571L876.136 140.122C874.887 141.312 873.383 142.281 871.601 143.019L872.365 144.867L873.13 146.715C875.331 145.804 877.26 144.576 878.895 143.019L877.516 141.571ZM872.365 144.867L871.656 142.997C869.912 143.658 867.992 144 865.876 144V146V148C868.43 148 870.836 147.586 873.075 146.737L872.365 144.867ZM865.876 146V144H836.932V146V148H865.876V146ZM836.932 146H838.932V92.7461H836.932H834.932V146H836.932ZM864.228 138.584V140.584C867.495 140.584 870.289 139.638 872.223 137.428L870.717 136.111L869.212 134.794C868.261 135.881 866.729 136.584 864.228 136.584V138.584ZM870.717 136.111L872.219 137.433C874.087 135.309 874.983 132.694 874.983 129.725H872.983H870.983C870.983 131.838 870.369 133.48 869.216 134.79L870.717 136.111ZM872.983 129.725H874.983C874.983 126.837 874.011 124.35 871.963 122.48L870.614 123.957L869.266 125.434C870.377 126.448 870.983 127.807 870.983 129.725H872.983ZM870.614 123.957L871.963 122.48C869.826 120.528 866.554 119.794 862.683 119.794V121.794V123.794C866.228 123.794 868.244 124.501 869.266 125.434L870.614 123.957ZM862.683 121.794V119.794H845.584V121.794V123.794H862.683V121.794ZM845.584 121.794H843.584V138.584H845.584H847.584V121.794H845.584ZM845.584 138.584V140.584H864.228V138.584V136.584H845.584V138.584ZM860.623 114.583V116.583C864.506 116.583 867.8 115.905 869.831 113.971L868.451 112.523L867.072 111.075C866.218 111.888 864.293 112.583 860.623 112.583V114.583ZM868.451 112.523L869.797 114.003C871.773 112.207 872.717 109.825 872.717 107.064H870.717H868.717C868.717 108.835 868.151 110.093 867.106 111.043L868.451 112.523ZM870.717 107.064H872.717C872.717 104.387 871.812 102.081 869.813 100.462L868.554 102.017L867.296 103.571C868.18 104.287 868.717 105.346 868.717 107.064H870.717ZM868.554 102.017L869.856 100.498C867.828 98.76 864.533 98.1625 860.623 98.1625V100.162V102.162C864.404 102.162 866.396 102.801 867.253 103.535L868.554 102.017ZM860.623 100.162V98.1625H845.584V100.162V102.162H860.623V100.162ZM845.584 100.162H843.584V114.583H845.584H847.584V100.162H845.584ZM845.584 114.583V116.583H860.623V114.583V112.583H845.584V114.583ZM903.992 145.073L903.195 146.907L903.202 146.91L903.209 146.913L903.992 145.073ZM896.061 139.305L897.576 138L897.576 138L896.061 139.305ZM891.22 130.446L889.304 131.021L889.309 131.038L889.315 131.056L891.22 130.446ZM891.529 108.197L893.406 108.887L893.41 108.874L891.529 108.197ZM896.679 99.3384L895.205 97.987L895.194 97.9983L895.184 98.0097L896.679 99.3384ZM904.61 93.5701L903.798 91.7425L903.79 91.7459L903.783 91.7494L904.61 93.5701ZM926.447 94.4972L925.364 96.1783L925.386 96.1922L925.408 96.2056L926.447 94.4972ZM933.967 101.914L932.262 102.96L932.271 102.974L932.28 102.987L933.967 101.914ZM937.881 111.802L935.917 112.18L935.921 112.198L935.924 112.216L937.881 111.802ZM938.808 122V124H940.725L940.806 122.085L938.808 122ZM898.945 122V120H897.003L896.946 121.941L898.945 122ZM899.769 128.695L897.848 129.253L897.851 129.261L897.853 129.27L899.769 128.695ZM902.756 134.257L901.22 135.538L901.233 135.554L901.247 135.57L902.756 134.257ZM908.009 138.069L908.833 136.246L908.833 136.246L908.009 138.069ZM924.593 136.936L923.431 135.308L923.42 135.316L923.409 135.324L924.593 136.936ZM929.332 129.107V127.107H927.717L927.377 128.685L929.332 129.107ZM937.984 129.107L939.948 129.486L940.407 127.107H937.984V129.107ZM930.259 142.704L931.45 144.31L931.459 144.304L931.467 144.297L930.259 142.704ZM929.538 114.274V116.274H931.675L931.533 114.141L929.538 114.274ZM928.096 108.403L926.243 109.158L926.255 109.187L926.268 109.215L928.096 108.403ZM924.902 103.665L923.452 105.042L923.488 105.079L923.525 105.115L924.902 103.665ZM920.164 100.471L919.326 102.287L919.367 102.306L919.41 102.324L920.164 100.471ZM908.009 100.471L908.789 102.313L908.805 102.306L908.822 102.299L908.009 100.471ZM903.374 103.665L904.824 105.042L904.824 105.042L903.374 103.665ZM900.284 108.506L902.126 109.285L902.131 109.273L902.136 109.261L900.284 108.506ZM898.945 114.274L896.949 114.141L896.807 116.274H898.945V114.274ZM915.22 147.133V145.133C911.175 145.133 907.708 144.481 904.775 143.233L903.992 145.073L903.209 146.913C906.731 148.412 910.749 149.133 915.22 149.133V147.133ZM903.992 145.073L904.79 143.239C901.891 141.979 899.498 140.231 897.576 138L896.061 139.305L894.545 140.61C896.881 143.323 899.776 145.42 903.195 146.907L903.992 145.073ZM896.061 139.305L897.576 138C895.64 135.751 894.15 133.041 893.124 129.837L891.22 130.446L889.315 131.056C890.487 134.718 892.224 137.914 894.545 140.61L896.061 139.305ZM891.22 130.446L893.135 129.871C892.168 126.647 891.674 123.1 891.674 119.219H889.674H887.674C887.674 123.44 888.211 127.378 889.304 131.021L891.22 130.446ZM889.674 119.219H891.674C891.674 115.445 892.259 112.007 893.406 108.887L891.529 108.197L889.651 107.507C888.325 111.116 887.674 115.026 887.674 119.219H889.674ZM891.529 108.197L893.41 108.874C894.569 105.656 896.162 102.93 898.174 100.667L896.679 99.3384L895.184 98.0097C892.801 100.691 890.96 103.871 889.647 107.519L891.529 108.197ZM896.679 99.3384L898.153 100.69C900.239 98.414 902.664 96.6517 905.438 95.3908L904.61 93.5701L903.783 91.7494C900.514 93.2353 897.65 95.3186 895.205 97.987L896.679 99.3384ZM904.61 93.5701L905.423 95.3977C908.238 94.1464 911.323 93.51 914.705 93.51V91.51V89.51C910.807 89.51 907.163 90.247 903.798 91.7425L904.61 93.5701ZM914.705 91.51V93.51C919.169 93.51 922.678 94.4474 925.364 96.1783L926.447 94.4972L927.531 92.816C924.036 90.5641 919.718 89.51 914.705 89.51V91.51ZM926.447 94.4972L925.408 96.2056C928.308 97.9707 930.581 100.22 932.262 102.96L933.967 101.914L935.672 100.868C933.644 97.5639 930.905 94.8691 927.487 92.7888L926.447 94.4972ZM933.967 101.914L932.28 102.987C934.065 105.793 935.277 108.852 935.917 112.18L937.881 111.802L939.845 111.424C939.112 107.61 937.714 104.077 935.654 100.84L933.967 101.914ZM937.881 111.802L935.924 112.216C936.65 115.644 936.939 118.875 936.81 121.915L938.808 122L940.806 122.085C940.952 118.67 940.623 115.102 939.838 111.388L937.881 111.802ZM938.808 122V120H898.945V122V124H938.808V122ZM898.945 122L896.946 121.941C896.871 124.473 897.169 126.913 897.848 129.253L899.769 128.695L901.69 128.137C901.133 126.219 900.881 124.196 900.944 122.058L898.945 122ZM899.769 128.695L897.853 129.27C898.549 131.588 899.673 133.682 901.22 135.538L902.756 134.257L904.293 132.977C903.092 131.537 902.225 129.923 901.685 128.12L899.769 128.695ZM902.756 134.257L901.247 135.57C902.83 137.391 904.825 138.825 907.186 139.891L908.009 138.069L908.833 136.246C906.936 135.389 905.429 134.283 904.265 132.945L902.756 134.257ZM908.009 138.069L907.186 139.891C909.627 140.994 912.426 141.511 915.529 141.511V139.511V137.511C912.864 137.511 910.649 137.066 908.833 136.246L908.009 138.069ZM915.529 139.511V141.511C919.544 141.511 923.015 140.579 925.778 138.547L924.593 136.936L923.409 135.324C921.503 136.726 918.931 137.511 915.529 137.511V139.511ZM924.593 136.936L925.756 138.563C928.647 136.498 930.45 133.409 931.287 129.529L929.332 129.107L927.377 128.685C926.703 131.81 925.347 133.939 923.431 135.308L924.593 136.936ZM929.332 129.107V131.107H937.984V129.107V127.107H929.332V129.107ZM937.984 129.107L936.02 128.728C934.924 134.404 932.555 138.452 929.05 141.11L930.259 142.704L931.467 144.297C935.928 140.913 938.709 135.896 939.948 129.486L937.984 129.107ZM930.259 142.704L929.068 141.097C925.499 143.743 920.93 145.133 915.22 145.133V147.133V149.133C921.596 149.133 927.053 147.57 931.45 144.31L930.259 142.704ZM929.538 114.274L931.533 114.141C931.381 111.851 930.844 109.663 929.923 107.591L928.096 108.403L926.268 109.215C926.995 110.851 927.42 112.577 927.542 114.407L929.538 114.274ZM928.096 108.403L929.948 107.648C929.091 105.547 927.871 103.726 926.28 102.215L924.902 103.665L923.525 105.115C924.681 106.213 925.589 107.551 926.243 109.158L928.096 108.403ZM924.902 103.665L926.352 102.287C924.841 100.696 923.02 99.4756 920.919 98.6193L920.164 100.471L919.41 102.324C921.016 102.978 922.354 103.886 923.452 105.042L924.902 103.665ZM920.164 100.471L921.002 98.6556C918.925 97.6967 916.642 97.2354 914.19 97.2354V99.2354V101.235C916.132 101.235 917.833 101.598 919.326 102.287L920.164 100.471ZM914.19 99.2354V97.2354C911.677 97.2354 909.335 97.6936 907.197 98.6439L908.009 100.471L908.822 102.299C910.392 101.601 912.171 101.235 914.19 101.235V99.2354ZM908.009 100.471L907.23 98.6296C905.198 99.4894 903.423 100.71 901.924 102.287L903.374 103.665L904.824 105.042C905.935 103.873 907.25 102.964 908.789 102.313L908.009 100.471ZM903.374 103.665L901.924 102.287C900.438 103.851 899.276 105.68 898.432 107.751L900.284 108.506L902.136 109.261C902.803 107.624 903.701 106.225 904.824 105.042L903.374 103.665ZM900.284 108.506L898.442 107.727C897.594 109.73 897.101 111.873 896.949 114.141L898.945 114.274L900.941 114.407C901.064 112.555 901.463 110.852 902.126 109.285L900.284 108.506ZM898.945 114.274V116.274H929.538V114.274V112.274H898.945V114.274ZM947.884 92.7461V90.7461H945.884V92.7461H947.884ZM956.639 92.7461H958.639V90.7461H956.639V92.7461ZM956.639 113.965H954.639V115.965H956.639V113.965ZM983.627 113.965V115.965H985.627V113.965H983.627ZM983.627 92.7461V90.7461H981.627V92.7461H983.627ZM992.382 92.7461H994.382V90.7461H992.382V92.7461ZM992.382 146V148H994.382V146H992.382ZM983.627 146H981.627V148H983.627V146ZM983.627 121.485H985.627V119.485H983.627V121.485ZM956.639 121.485V119.485H954.639V121.485H956.639ZM956.639 146V148H958.639V146H956.639ZM947.884 146H945.884V148H947.884V146ZM947.884 92.7461V94.7461H956.639V92.7461V90.7461H947.884V92.7461ZM956.639 92.7461H954.639V113.965H956.639H958.639V92.7461H956.639ZM956.639 113.965V115.965H983.627V113.965V111.965H956.639V113.965ZM983.627 113.965H985.627V92.7461H983.627H981.627V113.965H983.627ZM983.627 92.7461V94.7461H992.382V92.7461V90.7461H983.627V92.7461ZM992.382 92.7461H990.382V146H992.382H994.382V92.7461H992.382ZM992.382 146V144H983.627V146V148H992.382V146ZM983.627 146H985.627V121.485H983.627H981.627V146H983.627ZM983.627 121.485V119.485H956.639V121.485V123.485H983.627V121.485ZM956.639 121.485H954.639V146H956.639H958.639V121.485H956.639ZM956.639 146V144H947.884V146V148H956.639V146ZM947.884 146H949.884V92.7461H947.884H945.884V146H947.884ZM1018.4 100.471H1020.4V98.4715H1018.4V100.471ZM999.342 100.471H997.342V102.471H999.342V100.471ZM999.342 92.7461V90.7461H997.342V92.7461H999.342ZM1046.21 92.7461H1048.21V90.7461H1046.21V92.7461ZM1046.21 100.471V102.471H1048.21V100.471H1046.21ZM1027.15 100.471V98.4715H1025.15V100.471H1027.15ZM1027.15 146V148H1029.15V146H1027.15ZM1018.4 146H1016.4V148H1018.4V146ZM1018.4 100.471V98.4715H999.342V100.471V102.471H1018.4V100.471ZM999.342 100.471H1001.34V92.7461H999.342H997.342V100.471H999.342ZM999.342 92.7461V94.7461H1046.21V92.7461V90.7461H999.342V92.7461ZM1046.21 92.7461H1044.21V100.471H1046.21H1048.21V92.7461H1046.21ZM1046.21 100.471V98.4715H1027.15V100.471V102.471H1046.21V100.471ZM1027.15 100.471H1025.15V146H1027.15H1029.15V100.471H1027.15ZM1027.15 146V144H1018.4V146V148H1027.15V146ZM1018.4 146H1020.4V100.471H1018.4H1016.4V146H1018.4ZM1053.2 92.7461V90.7461H1051.2V92.7461H1053.2ZM1061.96 92.7461H1063.96V90.7461H1061.96V92.7461ZM1061.96 113.141H1059.96V115.141H1061.96V113.141ZM1091.01 117.467L1089.66 118.944L1089.67 118.952L1089.68 118.96L1091.01 117.467ZM1091.21 141.468L1089.8 140.054L1091.21 141.468ZM1053.2 146H1051.2V148H1053.2V146ZM1061.96 120.661V118.661H1059.96V120.661H1061.96ZM1061.96 138.275H1059.96V140.275H1061.96V138.275ZM1104.19 92.7461V90.7461H1102.19V92.7461H1104.19ZM1112.95 92.7461H1114.95V90.7461H1112.95V92.7461ZM1112.95 146V148H1114.95V146H1112.95ZM1104.19 146H1102.19V148H1104.19V146ZM1053.2 92.7461V94.7461H1061.96V92.7461V90.7461H1053.2V92.7461ZM1061.96 92.7461H1059.96V113.141H1061.96H1063.96V92.7461H1061.96ZM1061.96 113.141V115.141H1078.44V113.141V111.141H1061.96V113.141ZM1078.44 113.141V115.141C1083.27 115.141 1086.94 116.467 1089.66 118.944L1091.01 117.467L1092.35 115.99C1088.75 112.699 1084.04 111.141 1078.44 111.141V113.141ZM1091.01 117.467L1089.68 118.96C1092.32 121.315 1093.74 124.702 1093.74 129.416H1095.74H1097.74C1097.74 123.83 1096.01 119.25 1092.34 115.974L1091.01 117.467ZM1095.74 129.416H1093.74C1093.74 133.998 1092.38 137.472 1089.8 140.054L1091.21 141.468L1092.63 142.882C1096.09 139.421 1097.74 134.86 1097.74 129.416H1095.74ZM1091.21 141.468L1089.8 140.054C1087.23 142.62 1083.67 144 1078.85 144V146V148C1084.48 148 1089.15 146.359 1092.63 142.882L1091.21 141.468ZM1078.85 146V144H1053.2V146V148H1078.85V146ZM1053.2 146H1055.2V92.7461H1053.2H1051.2V146H1053.2ZM1075.66 138.275V140.275C1079.55 140.275 1082.83 139.502 1085.18 137.619C1087.6 135.669 1088.68 132.807 1088.68 129.416H1086.68H1084.68C1084.68 131.931 1083.92 133.498 1082.67 134.501C1081.34 135.571 1079.12 136.275 1075.66 136.275V138.275ZM1086.68 129.416H1088.68C1088.68 126.051 1087.6 123.213 1085.17 121.283C1082.83 119.423 1079.54 118.661 1075.66 118.661V120.661V122.661C1079.12 122.661 1081.35 123.357 1082.68 124.415C1083.92 125.404 1084.68 126.944 1084.68 129.416H1086.68ZM1075.66 120.661V118.661H1061.96V120.661V122.661H1075.66V120.661ZM1061.96 120.661H1059.96V138.275H1061.96H1063.96V120.661H1061.96ZM1061.96 138.275V140.275H1075.66V138.275V136.275H1061.96V138.275ZM1104.19 92.7461V94.7461H1112.95V92.7461V90.7461H1104.19V92.7461ZM1112.95 92.7461H1110.95V146H1112.95H1114.95V92.7461H1112.95ZM1112.95 146V144H1104.19V146V148H1112.95V146ZM1104.19 146H1106.19V92.7461H1104.19H1102.19V146H1104.19Z" fill="#0073FF" mask="url(#path-3-outside-1_104_6045)"/>
</svg>
