<svg width="358" height="537" viewBox="0 0 358 537" fill="none" xmlns="http://www.w3.org/2000/svg">
<path d="M152.986 116.919C234.561 54.9327 352.213 72.2871 415.74 155.89C479.266 239.494 464.464 357.493 382.888 419.479C301.312 481.465 183.661 464.111 120.135 380.508C56.608 296.904 71.4098 178.905 152.986 116.919Z" fill="#0073FF" stroke="white" stroke-width="6.21945"/>
<ellipse cx="269.124" cy="268.364" rx="18.6201" ry="18.7153" transform="rotate(-37.2296 269.124 268.364)" fill="white"/>
<path d="M242.272 233.025C261.68 218.277 289.442 222.13 304.276 241.653C319.111 261.175 315.385 288.954 295.977 303.701C276.568 318.449 248.806 314.597 233.972 295.074C219.138 275.551 222.864 247.772 242.272 233.025Z" stroke="white" stroke-width="3.10973"/>
<path d="M169.505 134.464C242.508 78.9928 346.898 93.5011 402.665 166.892C458.431 240.283 444.44 344.744 371.438 400.215C298.436 455.686 194.045 441.178 138.279 367.788C82.5122 294.397 96.5031 189.935 169.505 134.464Z" stroke="white" stroke-width="3.10973"/>
<path d="M216.893 201.025C254.538 172.42 308.375 179.899 337.138 217.752C365.901 255.604 358.681 309.476 321.036 338.081C283.391 366.685 229.555 359.208 200.792 321.355C172.029 283.502 179.249 229.63 216.893 201.025Z" stroke="white" stroke-width="3.10973"/>
<path d="M180.221 152.239L199.359 183.549L210.681 198.45" stroke="white" stroke-width="1.55486"/>
<path d="M150.29 188.484L192.659 192.913L199.313 197.473L204.619 203.057" stroke="white" stroke-width="1.55486"/>
<path d="M212.861 136.963L212.558 179.93L214.417 187.868L218.663 193.454" stroke="white" stroke-width="1.55486"/>
<path d="M235.774 119.553L225.044 172.58L223.929 180.906L227.888 187.514" stroke="white" stroke-width="1.55486"/>
<path d="M252.02 115.754L234.673 168.467L232.885 177.305L236.169 184.425" stroke="white" stroke-width="1.55486" stroke-dasharray="6.22 6.22"/>
<path d="M275.671 124.495L250.763 165.858L247.381 173.164L248.338 179.454" stroke="white" stroke-width="1.55486"/>
<path d="M291.158 130.889L272.56 156.774L263.358 171.244L263.331 183.018" stroke="white" stroke-width="1.55486"/>
<path d="M310.532 135.4L295.303 158.725L286.776 172.683L285.661 181.009" stroke="white" stroke-width="1.55486"/>
<path d="M329.719 118.684L307.618 170.736L303.452 179.243L300.635 186.726" stroke="white" stroke-width="1.55486" stroke-dasharray="6.22 6.22"/>
<path d="M362.437 136.56L354.387 146.95L350.703 210.65L350.422 217.274L349.944 220.842L342.176 224.608" stroke="white" stroke-width="1.55486" stroke-dasharray="6.22 6.22"/>
<path d="M380.89 152.454L369.948 161.836L365.946 227.914L365.468 231.482L363.143 275.986L356.012 274.994" stroke="white" stroke-width="1.55486" stroke-dasharray="6.22 6.22"/>
<path d="M394.013 168.324L382.557 177.029L379.806 241.956L379.684 247.391L377.884 274.401L372.005 300.237L362.877 323.199L357.009 330.863L346.704 335.488L338.899 335.009L332.722 326.881" stroke="white" stroke-width="1.55486" stroke-dasharray="6.22 6.22"/>
<path d="M405.755 183.776L392.24 189.772L387.686 250.927L383.928 306.135L377.778 320.424L363.394 342.065L341.535 365.058L318.427 379.412L308.085 379.791L298.9 380.36L290.575 374.933L286.261 366.458L281.64 342.191" stroke="white" stroke-width="1.55486" stroke-dasharray="6.22 6.22"/>
<path d="M335.21 145.495L330.371 154.515L325.697 194.728L319.522 200.39" stroke="white" stroke-width="1.55486"/>
<path d="M176.959 229.872C176.889 229.448 176.49 229.161 176.067 229.23L169.172 230.363C168.749 230.433 168.463 230.833 168.532 231.257C168.602 231.682 169.002 231.969 169.425 231.9L175.553 230.893L176.563 237.038C176.633 237.463 177.032 237.75 177.455 237.681C177.878 237.611 178.165 237.211 178.095 236.787L176.959 229.872ZM162.789 248.731L163.42 249.185L176.824 230.453L176.193 229.998L175.562 229.544L162.158 248.277L162.789 248.731Z" fill="white"/>
<path d="M175.519 230.511L189.915 208.888L194.988 207.17L199.583 209.02" stroke="white" stroke-width="1.55486"/>
<path d="M133.43 246.466L184.094 202.626L188.812 199.041L195.784 201.223L202.278 206.972" stroke="white" stroke-width="1.55486"/>
<rect x="1.09068" y="-0.127446" width="14.6425" height="16.6315" transform="matrix(0.619295 -0.785159 0.783631 0.621227 169.137 380.567)" stroke="white" stroke-width="1.55486"/>
<path d="M255.184 250.017C265.26 242.36 279.673 244.36 287.375 254.496C295.076 264.631 293.142 279.053 283.065 286.709C272.989 294.366 258.576 292.366 250.875 282.23C243.173 272.095 245.108 257.673 255.184 250.017Z" stroke="white" stroke-width="1.55486"/>
<line y1="-0.777431" x2="16.6856" y2="-0.777431" transform="matrix(0.973744 -0.227645 0.23133 0.972875 93.0967 308.097)" stroke="white" stroke-width="1.55486"/>
<line y1="-0.777431" x2="16.067" y2="-0.777431" transform="matrix(0.947172 -0.320726 0.323623 0.946186 95.2305 319.298)" stroke="white" stroke-width="1.55486"/>
<line y1="-0.777431" x2="16.067" y2="-0.777431" transform="matrix(0.947172 -0.320726 0.323623 0.946186 98.7109 329.474)" stroke="white" stroke-width="1.55486"/>
<line y1="-0.777431" x2="16.6745" y2="-0.777431" transform="matrix(0.894866 -0.446336 0.447996 0.894036 104.25 342.36)" stroke="white" stroke-width="1.55486"/>
<line y1="-0.777431" x2="16.6726" y2="-0.777431" transform="matrix(0.859826 -0.510588 0.511573 0.85924 112.166 355.576)" stroke="white" stroke-width="1.55486"/>
<line x1="121.671" y1="370.883" x2="135.149" y2="360.642" stroke="white" stroke-width="1.55486"/>
<line y1="-0.777431" x2="15.2358" y2="-0.777431" transform="matrix(0.714506 -0.699629 0.69873 0.715385 136.145 389.834)" stroke="white" stroke-width="1.55486"/>
<line y1="-0.777431" x2="17.0127" y2="-0.777431" transform="matrix(0.73172 -0.681605 0.680866 0.732408 149.468 393.475)" stroke="white" stroke-width="1.55486"/>
<line y1="-0.777431" x2="29.5704" y2="-0.777431" transform="matrix(0.635601 -0.772018 0.77057 0.637355 158.414 408.046)" stroke="white" stroke-width="1.55486"/>
<line y1="-0.777431" x2="15.1558" y2="-0.777431" transform="matrix(0.439755 -0.898118 0.896316 0.443416 191.523 432.035)" stroke="white" stroke-width="1.55486"/>
<line y1="-0.777431" x2="15.9922" y2="-0.777431" transform="matrix(0.352389 -0.935854 0.934228 0.356676 206.35 420.77)" stroke="white" stroke-width="1.55486"/>
<line y1="-0.777431" x2="16.9586" y2="-0.777431" transform="matrix(0.27161 -0.962407 0.961066 0.276319 220.05 436.001)" stroke="white" stroke-width="1.55486"/>
<line y1="-0.777431" x2="25.2227" y2="-0.777431" transform="matrix(0.179681 -0.983725 0.9828 0.184674 235.342 439.339)" stroke="white" stroke-width="1.55486"/>
<line y1="-0.777431" x2="13.6999" y2="-0.777431" transform="matrix(-0.132437 -0.991191 0.991764 -0.128081 296.999 430.952)" stroke="white" stroke-width="1.55486"/>
<line y1="-0.777431" x2="16.028" y2="-0.777431" transform="matrix(-0.0933338 -0.995635 0.996052 -0.0887683 280.751 434.75)" stroke="white" stroke-width="1.55486"/>
<line y1="-0.777431" x2="15.6523" y2="-0.777431" transform="matrix(0.0562978 -0.998414 0.998118 0.0613296 260.387 433.13)" stroke="white" stroke-width="1.55486"/>
<line y1="-0.777431" x2="13.2607" y2="-0.777431" transform="matrix(0.0424388 -0.999099 0.998874 0.0474506 257.446 446.048)" stroke="white" stroke-width="1.55486"/>
<line y1="-0.777431" x2="12.2498" y2="-0.777431" transform="matrix(-0.0640846 -0.997944 0.998235 -0.0593855 279.159 446.644)" stroke="white" stroke-width="1.55486"/>
<line y1="-0.777431" x2="13.2607" y2="-0.777431" transform="matrix(0.0424388 -0.999099 0.998874 0.0474506 267.983 448.725)" stroke="white" stroke-width="1.55486"/>
<line y1="-0.777431" x2="19.8148" y2="-0.777431" transform="matrix(-0.111376 -0.993778 0.994269 -0.106902 292.786 453.385)" stroke="white" stroke-width="1.55486"/>
<line y1="-0.777431" x2="15.2023" y2="-0.777431" transform="matrix(-0.18706 -0.982348 0.983104 -0.183051 306.975 446.877)" stroke="white" stroke-width="1.55486"/>
<line y1="-0.777431" x2="15.2023" y2="-0.777431" transform="matrix(-0.18706 -0.982348 0.983104 -0.183051 310.552 429.201)" stroke="white" stroke-width="1.55486"/>
<line y1="-0.777431" x2="18.3117" y2="-0.777431" transform="matrix(-0.267723 -0.963496 0.964432 -0.264332 324.251 444.433)" stroke="white" stroke-width="1.55486"/>
<line y1="-0.777431" x2="14.5276" y2="-0.777431" transform="matrix(-0.288522 -0.957473 0.958436 -0.285309 322.044 424.742)" stroke="white" stroke-width="1.55486"/>
<line y1="-0.777431" x2="14.5276" y2="-0.777431" transform="matrix(-0.288522 -0.957473 0.958436 -0.285309 332.657 435.91)" stroke="white" stroke-width="1.55486"/>
<line y1="-0.777431" x2="14.0259" y2="-0.777431" transform="matrix(-0.394936 -0.918709 0.919654 -0.39273 333.537 420.282)" stroke="white" stroke-width="1.55486"/>
<line y1="-0.777431" x2="12.0192" y2="-0.777431" transform="matrix(-0.422436 -0.906393 0.907288 -0.420511 344.149 431.45)" stroke="white" stroke-width="1.55486"/>
<line y1="-0.777431" x2="10.3478" y2="-0.777431" transform="matrix(-0.466612 -0.884462 0.885233 -0.465148 353.584 424.282)" stroke="white" stroke-width="1.55486"/>
<line x1="365.339" y1="404.665" x2="355.045" y2="391.118" stroke="white" stroke-width="1.55486"/>
<line x1="358.601" y1="409.786" x2="352.425" y2="401.657" stroke="white" stroke-width="1.55486"/>
<line y1="-0.777431" x2="9.15587" y2="-0.777431" transform="matrix(-0.267723 -0.963496 0.964432 -0.264332 342.336 417.871)" stroke="white" stroke-width="1.55486"/>
<line y1="-0.777431" x2="8.67375" y2="-0.777431" transform="matrix(-0.437991 -0.898979 0.899837 -0.436226 352.48 414.436)" stroke="white" stroke-width="1.55486"/>
<ellipse cx="150.171" cy="279.688" rx="1.69274" ry="1.70139" transform="rotate(-37.2296 150.171 279.688)" fill="white"/>
<ellipse cx="156.273" cy="279.325" rx="1.69274" ry="1.70139" transform="rotate(-37.2296 156.273 279.325)" fill="white"/>
<ellipse cx="151.911" cy="284.776" rx="1.69274" ry="1.70139" transform="rotate(-37.2296 151.911 284.776)" fill="white"/>
<ellipse cx="154.363" cy="293.598" rx="1.69274" ry="1.70139" transform="rotate(-37.2296 154.363 293.598)" fill="white"/>
<ellipse cx="151.348" cy="298.025" rx="1.69274" ry="1.70139" transform="rotate(-37.2296 151.348 298.025)" fill="white"/>
<ellipse cx="161.569" cy="303.08" rx="1.69274" ry="1.70139" transform="rotate(-37.2296 161.569 303.08)" fill="white"/>
<ellipse cx="157.843" cy="303.774" rx="1.69274" ry="1.70139" transform="rotate(-37.2296 157.843 303.774)" fill="white"/>
<ellipse cx="159.584" cy="308.863" rx="1.69274" ry="1.70139" transform="rotate(-37.2296 159.584 308.863)" fill="white"/>
<ellipse cx="169.165" cy="318.675" rx="1.69274" ry="1.70139" transform="rotate(-37.2296 169.165 318.675)" fill="white"/>
<ellipse cx="158.31" cy="318.378" rx="1.69274" ry="1.70139" transform="rotate(-37.2296 158.31 318.378)" fill="white"/>
<ellipse cx="161.398" cy="322.442" rx="1.69274" ry="1.70139" transform="rotate(-37.2296 161.398 322.442)" fill="white"/>
<ellipse cx="174.313" cy="325.449" rx="1.69274" ry="1.70139" transform="rotate(-37.2296 174.313 325.449)" fill="white"/>
<ellipse cx="169.239" cy="327.166" rx="1.69274" ry="1.70139" transform="rotate(-37.2296 169.239 327.166)" fill="white"/>
<ellipse cx="172.328" cy="331.23" rx="1.69274" ry="1.70139" transform="rotate(-37.2296 172.328 331.23)" fill="white"/>
<ellipse cx="183.258" cy="340.02" rx="1.69274" ry="1.70139" transform="rotate(-37.2296 183.258 340.02)" fill="white"/>
<ellipse cx="178.185" cy="341.738" rx="1.69274" ry="1.70139" transform="rotate(-37.2296 178.185 341.738)" fill="white"/>
<ellipse cx="175.098" cy="337.674" rx="1.69274" ry="1.70139" transform="rotate(-37.2296 175.098 337.674)" fill="white"/>
<ellipse cx="172.083" cy="342.1" rx="1.69274" ry="1.70139" transform="rotate(-37.2296 172.083 342.1)" fill="white"/>
<ellipse cx="184.681" cy="347.487" rx="1.69274" ry="1.70139" transform="rotate(-37.2296 184.681 347.487)" fill="white"/>
<ellipse cx="189.753" cy="345.77" rx="1.69274" ry="1.70139" transform="rotate(-37.2296 189.753 345.77)" fill="white"/>
<ellipse cx="187.768" cy="351.551" rx="1.69274" ry="1.70139" transform="rotate(-37.2296 187.768 351.551)" fill="white"/>
<ellipse cx="193.234" cy="355.946" rx="1.69274" ry="1.70139" transform="rotate(-37.2296 193.234 355.946)" fill="white"/>
<ellipse cx="194.655" cy="363.412" rx="1.69274" ry="1.70139" transform="rotate(-37.2296 194.655 363.412)" fill="white"/>
<ellipse cx="204.164" cy="364.735" rx="1.69274" ry="1.70139" transform="rotate(-37.2296 204.164 364.735)" fill="white"/>
<ellipse cx="207.178" cy="360.308" rx="1.69274" ry="1.70139" transform="rotate(-37.2296 207.178 360.308)" fill="white"/>
<ellipse cx="208.6" cy="367.775" rx="1.69274" ry="1.70139" transform="rotate(-37.2296 208.6 367.775)" fill="white"/>
<ellipse cx="212.399" cy="375.572" rx="1.69274" ry="1.70139" transform="rotate(-37.2296 212.399 375.572)" fill="white"/>
<ellipse cx="220.487" cy="369.427" rx="1.69274" ry="1.70139" transform="rotate(-37.2296 220.487 369.427)" fill="white"/>
<ellipse cx="215.806" cy="377.257" rx="1.69274" ry="1.70139" transform="rotate(-37.2296 215.806 377.257)" fill="white"/>
<ellipse cx="223.722" cy="390.474" rx="1.69274" ry="1.70139" transform="rotate(-37.2296 223.722 390.474)" fill="white"/>
<ellipse cx="227.299" cy="372.798" rx="1.69274" ry="1.70139" transform="rotate(-37.2296 227.299 372.798)" fill="white"/>
<ellipse cx="225.314" cy="378.58" rx="1.69274" ry="1.70139" transform="rotate(-37.2296 225.314 378.58)" fill="white"/>
<ellipse cx="230.069" cy="379.241" rx="1.69274" ry="1.70139" transform="rotate(-37.2296 230.069 379.241)" fill="white"/>
<ellipse cx="243.546" cy="368.999" rx="1.69274" ry="1.70139" transform="rotate(-37.2296 243.546 368.999)" fill="white"/>
<ellipse cx="236.881" cy="382.611" rx="1.69274" ry="1.70139" transform="rotate(-37.2296 236.881 382.611)" fill="white"/>
<ellipse cx="236.244" cy="387.369" rx="1.69274" ry="1.70139" transform="rotate(-37.2296 236.244 387.369)" fill="white"/>
<ellipse cx="243.302" cy="379.869" rx="1.69274" ry="1.70139" transform="rotate(-37.2296 243.302 379.869)" fill="white"/>
<ellipse cx="244.724" cy="387.337" rx="1.69274" ry="1.70139" transform="rotate(-37.2296 244.724 387.337)" fill="white"/>
<line y1="-0.777431" x2="12.0001" y2="-0.777431" transform="matrix(0.132676 -0.991159 0.99047 0.13773 249.53 432.832)" stroke="white" stroke-width="1.55486"/>
<line y1="-0.777431" x2="10.7113" y2="-0.777431" transform="matrix(-0.56277 0.826614 -0.824887 -0.565297 193.285 400.78)" stroke="white" stroke-width="1.55486"/>
<line y1="-0.777431" x2="10.7113" y2="-0.777431" transform="matrix(0.56277 -0.826614 0.824887 0.565297 174.417 415.117)" stroke="white" stroke-width="1.55486"/>
<line x1="133.09" y1="357.932" x2="139.829" y2="352.812" stroke="white" stroke-width="1.55486"/>
<line x1="131.891" y1="375.939" x2="138.63" y2="370.818" stroke="white" stroke-width="1.55486"/>
<line x1="145.442" y1="374.189" x2="152.181" y2="369.068" stroke="white" stroke-width="1.55486"/>
<line y1="-0.777431" x2="13.9629" y2="-0.777431" transform="matrix(0.919654 -0.39273 0.394936 0.918709 121.846 337.537)" stroke="white" stroke-width="1.55486"/>
<line y1="-0.777431" x2="13.9629" y2="-0.777431" transform="matrix(0.919654 -0.39273 0.394936 0.918709 114.247 321.943)" stroke="white" stroke-width="1.55486"/>
<line y1="-0.777431" x2="5.35565" y2="-0.777431" transform="matrix(0.947172 -0.320726 0.323623 0.946186 111.085 309.387)" stroke="white" stroke-width="1.55486"/>
<line y1="-0.777431" x2="5.35565" y2="-0.777431" transform="matrix(0.947172 -0.320726 0.323623 0.946186 107.923 296.833)" stroke="white" stroke-width="1.55486"/>
<line y1="-0.777431" x2="6.11288" y2="-0.777431" transform="matrix(0.998235 -0.0593855 0.0640846 0.997944 105.079 281.898)" stroke="white" stroke-width="1.55486"/>
<line y1="-0.777431" x2="8.4793" y2="-0.777431" transform="matrix(0.999993 -0.00382834 0.00872468 0.999962 94.7852 268.352)" stroke="white" stroke-width="1.55486"/>
<line y1="-0.777431" x2="6.11288" y2="-0.777431" transform="matrix(0.998235 -0.0593855 0.0640846 0.997944 105.96 266.271)" stroke="white" stroke-width="1.55486"/>
<line y1="-0.777431" x2="18.2442" y2="-0.777431" transform="matrix(0.513062 -0.858351 0.856541 0.516078 343.223 130.859)" stroke="white" stroke-width="1.55486"/>
<line y1="-0.777431" x2="18.2442" y2="-0.777431" transform="matrix(0.513062 -0.858351 0.856541 0.516078 356.138 133.867)" stroke="white" stroke-width="1.55486"/>
<line y1="-0.777431" x2="17.4489" y2="-0.777431" transform="matrix(0.400214 -0.916422 0.91468 0.404179 334.987 120.022)" stroke="white" stroke-width="1.55486"/>
<line y1="-0.777431" x2="16.9586" y2="-0.777431" transform="matrix(0.27161 -0.962407 0.961066 0.276319 313.985 123.159)" stroke="white" stroke-width="1.55486"/>
<line y1="-0.777431" x2="8.4793" y2="-0.777431" transform="matrix(0.27161 -0.962407 0.961066 0.276319 320.651 109.547)" stroke="white" stroke-width="1.55486"/>
<line y1="-0.777431" x2="8.4793" y2="-0.777431" transform="matrix(0.27161 -0.962407 0.961066 0.276319 305.434 114.7)" stroke="white" stroke-width="1.55486"/>
<line y1="-0.777431" x2="9.60009" y2="-0.777431" transform="matrix(0.132676 -0.991159 0.99047 0.13773 300.923 103.169)" stroke="white" stroke-width="1.55486"/>
<line y1="-0.777431" x2="13.2485" y2="-0.777431" transform="matrix(0.221906 -0.975068 0.973943 0.226795 294.258 116.781)" stroke="white" stroke-width="1.55486"/>
<line y1="-0.777431" x2="15.6523" y2="-0.777431" transform="matrix(0.0562978 -0.998414 0.998118 0.0613296 276.27 115.491)" stroke="white" stroke-width="1.55486"/>
<line y1="-0.777431" x2="12.0001" y2="-0.777431" transform="matrix(0.132676 -0.991159 0.99047 0.13773 273.427 100.557)" stroke="white" stroke-width="1.55486"/>
<line y1="-0.777431" x2="12.0001" y2="-0.777431" transform="matrix(0.132676 -0.991159 0.99047 0.13773 253.527 113.541)" stroke="white" stroke-width="1.55486"/>
<line y1="-0.777431" x2="12.3816" y2="-0.777431" transform="matrix(-0.364247 -0.931302 0.93228 -0.361736 214.146 109.276)" stroke="white" stroke-width="1.55486"/>
<line y1="-0.777431" x2="9.15588" y2="-0.777431" transform="matrix(-0.267723 -0.963496 0.964432 -0.264332 220.322 117.404)" stroke="white" stroke-width="1.55486"/>
<line y1="-0.777431" x2="6.12488" y2="-0.777431" transform="matrix(-0.0640846 -0.997944 0.998235 -0.0593855 236.888 111.226)" stroke="white" stroke-width="1.55486"/>
<line y1="-0.777431" x2="13.6999" y2="-0.777431" transform="matrix(-0.132437 -0.991191 0.991764 -0.128081 236.814 102.735)" stroke="white" stroke-width="1.55486"/>
<line y1="-0.777431" x2="12.0295" y2="-0.777431" transform="matrix(-0.48695 -0.87343 0.874124 -0.485702 209.539 125.597)" stroke="white" stroke-width="1.55486"/>
<line y1="-0.777431" x2="15.4058" y2="-0.777431" transform="matrix(-0.513862 -0.857873 0.858448 -0.512901 181.725 125.364)" stroke="white" stroke-width="1.55486"/>
<line x1="174.833" y1="145.558" x2="167.628" y2="136.075" stroke="white" stroke-width="1.55486"/>
<line x1="173.02" y1="131.978" x2="162.726" y2="118.432" stroke="white" stroke-width="1.55486"/>
<line x1="163.902" y1="136.769" x2="153.609" y2="123.222" stroke="white" stroke-width="1.55486"/>
<line y1="-0.777431" x2="14.0259" y2="-0.777431" transform="matrix(-0.779308 -0.626641 0.624769 -0.78081 154.599 165.207)" stroke="white" stroke-width="1.55486"/>
<line y1="-0.777431" x2="8.67375" y2="-0.777431" transform="matrix(-0.748765 -0.662836 0.661366 -0.750064 161.264 151.596)" stroke="white" stroke-width="1.55486"/>
<line y1="-0.777431" x2="16.1327" y2="-0.777431" transform="matrix(0.824887 0.565297 -0.56277 0.826614 124.015 158.531)" stroke="white" stroke-width="1.55486"/>
<line y1="-0.777431" x2="10.7551" y2="-0.777431" transform="matrix(-0.824887 -0.565297 0.56277 -0.826614 140.166 182.584)" stroke="white" stroke-width="1.55486"/>
<line y1="-0.777431" x2="9.15587" y2="-0.777431" transform="matrix(0.856541 0.516078 -0.513062 0.858352 122.963 193.519)" stroke="white" stroke-width="1.55486"/>
<line y1="-0.777431" x2="10.8726" y2="-0.777431" transform="matrix(0.969218 0.246205 -0.241379 0.970431 111.691 223.453)" stroke="white" stroke-width="1.55486"/>
<line y1="-0.777431" x2="12.0001" y2="-0.777431" transform="matrix(0.99047 0.13773 -0.132676 0.991159 82.9961 238.847)" stroke="white" stroke-width="1.55486"/>
<line y1="-0.777431" x2="23.6061" y2="-0.777431" transform="matrix(-0.922935 -0.384955 0.380854 -0.924635 126.518 212.187)" stroke="white" stroke-width="1.55486"/>
<line y1="-0.777431" x2="14.4001" y2="-0.777431" transform="matrix(-0.99047 -0.13773 0.132676 -0.991159 118.335 246.184)" stroke="white" stroke-width="1.55486"/>
<line y1="-0.777431" x2="10.8726" y2="-0.777431" transform="matrix(0.969218 0.246205 -0.241379 0.970431 107.723 235.016)" stroke="white" stroke-width="1.55486"/>
<line y1="-0.777431" x2="13.716" y2="-0.777431" transform="matrix(-0.69865 -0.715464 0.714586 -0.699547 210.036 221.378)" stroke="white" stroke-width="1.55486"/>
<line y1="-0.777431" x2="12.9472" y2="-0.777431" transform="matrix(-0.244235 -0.969716 0.970611 -0.240652 241.035 197.823)" stroke="white" stroke-width="1.55486"/>
<line y1="-0.777431" x2="15.6523" y2="-0.777431" transform="matrix(0.0562978 -0.998414 0.998118 0.0613295 270.517 194.653)" stroke="white" stroke-width="1.55486"/>
<line y1="-0.777431" x2="13.2485" y2="-0.777431" transform="matrix(0.221906 -0.975068 0.973943 0.226795 287.475 194.588)" stroke="white" stroke-width="1.55486"/>
<line y1="-0.777431" x2="13.238" y2="-0.777431" transform="matrix(0.379134 -0.925342 0.923646 0.383247 296.293 200.597)" stroke="white" stroke-width="1.55486"/>
<line y1="-0.777431" x2="12.9018" y2="-0.777431" transform="matrix(0.491904 -0.87065 0.868827 0.495116 304.188 205.393)" stroke="white" stroke-width="1.55486"/>
<line x1="319.796" y1="220.337" x2="331.926" y2="211.119" stroke="white" stroke-width="1.55486"/>
<line y1="-0.777431" x2="15.61" y2="-0.777431" transform="matrix(0.908954 -0.416896 0.418859 0.908051 334.358 242.3)" stroke="white" stroke-width="1.55486"/>
<line y1="-0.777431" x2="13.6645" y2="-0.777431" transform="matrix(0.991764 -0.128081 0.132437 0.991191 339.579 257.565)" stroke="white" stroke-width="1.55486"/>
<line y1="-0.777431" x2="13.2485" y2="-0.777431" transform="matrix(0.998874 0.0474506 -0.0424388 0.999099 340.683 267.41)" stroke="white" stroke-width="1.55486"/>
<line y1="-0.777431" x2="13.2606" y2="-0.777431" transform="matrix(-0.973943 -0.226795 0.221906 -0.975068 351.688 284.691)" stroke="white" stroke-width="1.55486"/>
<line y1="-0.777431" x2="12.3816" y2="-0.777431" transform="matrix(-0.799664 -0.600448 0.598291 -0.801279 340.099 317.002)" stroke="white" stroke-width="1.55486"/>
<line y1="-0.777431" x2="12.2498" y2="-0.777431" transform="matrix(-0.94429 -0.329115 0.324665 -0.945829 348.747 297.609)" stroke="white" stroke-width="1.55486"/>
<line y1="-0.777431" x2="31.0433" y2="-0.777431" transform="matrix(-0.72711 -0.686521 0.685317 -0.728245 332.723 326.88)" stroke="white" stroke-width="1.55486"/>
</svg>
