<svg width="501" height="707" viewBox="0 0 501 707" fill="none" xmlns="http://www.w3.org/2000/svg">
<g clip-path="url(#clip0_44_106)">
<rect width="499.602" height="707" transform="translate(0.630859)" fill="white"/>
<ellipse cx="399.975" cy="274.713" rx="45.4832" ry="43.8037" fill="#4192F5"/>
<ellipse cx="106.093" cy="274.713" rx="45.4832" ry="43.8037" fill="#4192F5"/>
<path d="M104.87 212.718C95.2201 212.718 85.9053 214.112 76.9252 216.901C67.9451 219.69 59.439 223.566 51.4071 228.53C43.3752 233.495 35.9011 239.407 28.9847 246.268C22.0126 253.184 15.6818 260.714 9.99257 268.857L27.6461 280.32C33.0564 273.459 38.6899 267.24 44.5465 261.662C50.3474 256.084 56.455 251.315 62.8693 247.355C69.2837 243.451 75.977 240.411 82.9491 238.236C89.9213 236.116 97.2281 235.056 104.87 235.056C112.511 235.056 119.762 235.865 126.623 237.483C133.483 239.156 140.037 241.666 146.284 245.013C152.531 248.359 158.527 252.57 164.272 257.646C169.962 262.722 175.511 268.69 180.922 275.551L198.575 264.088C192.886 255.945 186.611 248.666 179.75 242.252C172.946 235.893 165.611 230.511 157.746 226.104C149.826 221.753 141.459 218.435 132.647 216.148C123.778 213.861 114.519 212.718 104.87 212.718Z" fill="#4192F5"/>
<path d="M398.295 212.718C388.646 212.718 379.331 214.112 370.351 216.901C361.371 219.69 352.865 223.566 344.833 228.53C336.801 233.495 329.327 239.407 322.41 246.268C315.438 253.184 309.108 260.714 303.418 268.857L321.072 280.32C326.482 273.459 332.116 267.24 337.972 261.662C343.773 256.084 349.881 251.315 356.295 247.355C362.71 243.451 369.403 240.411 376.375 238.236C383.347 236.116 390.654 235.056 398.295 235.056C405.937 235.056 413.188 235.865 420.048 237.483C426.909 239.156 433.463 241.666 439.71 245.013C445.957 248.359 451.953 252.57 457.698 257.646C463.387 262.722 468.937 268.69 474.348 275.551L492.001 264.088C486.312 255.945 480.037 248.666 473.176 242.252C466.371 235.893 459.037 230.511 451.172 226.104C443.252 221.753 434.885 218.435 426.072 216.148C417.204 213.861 407.945 212.718 398.295 212.718Z" fill="#4192F5"/>
<path d="M245.723 495.042C236.074 495.042 226.759 493.648 217.779 490.859C208.799 488.07 200.293 484.194 192.261 479.229C184.229 474.265 176.755 468.353 169.838 461.492C162.866 454.576 156.535 447.046 150.846 438.902L168.5 427.44C173.91 434.301 179.543 440.52 185.4 446.098C191.201 451.675 197.308 456.444 203.723 460.405C210.137 464.309 216.83 467.349 223.803 469.524C230.775 471.644 238.082 472.703 245.723 472.703C253.365 472.703 260.616 471.895 267.476 470.277C274.337 468.604 280.891 466.094 287.138 462.747C293.385 459.401 299.381 455.189 305.126 450.114C310.815 445.038 316.365 439.07 321.775 432.209L339.429 443.671C333.739 451.815 327.465 459.094 320.604 465.508C313.799 471.867 306.464 477.249 298.6 481.656C290.679 486.006 282.313 489.325 273.5 491.612C264.632 493.899 255.373 495.042 245.723 495.042Z" fill="#4192F5"/>
<path d="M32.4215 10.9607V23.5557H30.3056V11.6324L30.9941 11.666L25.1332 23.5557H22.7654L16.9045 11.6828L17.593 11.6492V23.5557H15.477V10.9607H18.8693L24.5119 22.5984H23.4035L29.0293 10.9607H32.4215ZM43.7389 23.5557L43.3695 20.0291L43.8061 18.8031L43.3695 17.594L43.7389 14.0506H45.9893L45.4855 18.8031L45.9893 23.5557H43.7389ZM44.4107 18.8031C44.198 19.7996 43.8453 20.6728 43.3527 21.4229C42.8601 22.173 42.2499 22.7552 41.5222 23.1694C40.8057 23.5837 40.0052 23.7908 39.1208 23.7908C38.1915 23.7908 37.3687 23.5837 36.6522 23.1694C35.9356 22.744 35.3759 22.1562 34.9728 21.4061C34.5698 20.656 34.3683 19.7884 34.3683 18.8031C34.3683 17.8067 34.5698 16.9391 34.9728 16.2002C35.3759 15.4501 35.9356 14.8679 36.6522 14.4537C37.3687 14.0282 38.1915 13.8155 39.1208 13.8155C40.0052 13.8155 40.8057 14.0226 41.5222 14.4369C42.2499 14.8511 42.8601 15.4333 43.3527 16.1834C43.8565 16.9223 44.2092 17.7955 44.4107 18.8031ZM36.585 18.8031C36.585 19.4413 36.7137 20.0067 36.9712 20.4993C37.2399 20.9807 37.6038 21.3613 38.0628 21.6412C38.5218 21.9099 39.048 22.0443 39.6414 22.0443C40.2459 22.0443 40.8057 21.9099 41.3207 21.6412C41.8357 21.3613 42.2891 20.9807 42.681 20.4993C43.084 20.0067 43.4031 19.4413 43.6382 18.8031C43.4031 18.165 43.084 17.6052 42.681 17.1238C42.2891 16.6312 41.8357 16.2506 41.3207 15.9819C40.8057 15.702 40.2459 15.562 39.6414 15.562C39.048 15.562 38.5218 15.702 38.0628 15.9819C37.6038 16.2506 37.2399 16.6312 36.9712 17.1238C36.7137 17.6052 36.585 18.165 36.585 18.8031ZM58.5861 19.8107C58.4741 20.5944 58.1663 21.2886 57.6625 21.8931C57.1587 22.4865 56.5149 22.9511 55.7312 23.287C54.9475 23.6228 54.0743 23.7908 53.1115 23.7908C52.0143 23.7908 51.0459 23.5837 50.2062 23.1694C49.3778 22.744 48.7284 22.1562 48.2582 21.4061C47.788 20.656 47.5529 19.7884 47.5529 18.8031C47.5529 17.8179 47.788 16.9503 48.2582 16.2002C48.7284 15.4501 49.3778 14.8679 50.2062 14.4537C51.0459 14.0282 52.0143 13.8155 53.1115 13.8155C54.0743 13.8155 54.9475 13.9835 55.7312 14.3193C56.5149 14.6552 57.1587 15.1254 57.6625 15.73C58.1663 16.3233 58.4741 17.0175 58.5861 17.8123H56.3862C56.2294 17.0958 55.8544 16.536 55.261 16.133C54.6677 15.73 53.9511 15.5284 53.1115 15.5284C52.4397 15.5284 51.852 15.6628 51.3482 15.9315C50.8444 16.189 50.4525 16.564 50.1726 17.0566C49.9039 17.538 49.7696 18.1202 49.7696 18.8031C49.7696 19.4749 49.9039 20.057 50.1726 20.5497C50.4525 21.0423 50.8444 21.4229 51.3482 21.6916C51.852 21.9491 52.4397 22.0778 53.1115 22.0778C53.9623 22.0778 54.6844 21.8707 55.2778 21.4565C55.8712 21.0423 56.2406 20.4937 56.3862 19.8107H58.5861ZM62.8385 14.8063H65.0216V23.5557H62.8385V14.8063ZM58.8921 14.0506H68.9681V15.7635H58.8921V14.0506ZM75.1239 23.7908C74.0155 23.7908 73.0303 23.5837 72.1683 23.1694C71.3062 22.744 70.6289 22.1562 70.1363 21.4061C69.6436 20.656 69.3973 19.7828 69.3973 18.7864C69.3973 17.8011 69.6269 16.9391 70.0859 16.2002C70.5561 15.4501 71.1998 14.8679 72.0171 14.4537C72.8456 14.0282 73.7916 13.8155 74.8552 13.8155C75.9188 13.8155 76.8368 14.0562 77.6093 14.5376C78.393 15.0078 78.9975 15.674 79.423 16.536C79.8484 17.3981 80.0611 18.4113 80.0611 19.5756H71.1103V17.9131H78.9696L77.878 18.5345C77.8444 17.9075 77.6933 17.3701 77.4246 16.9223C77.1671 16.4745 76.8144 16.133 76.3666 15.8979C75.93 15.6516 75.4094 15.5284 74.8048 15.5284C74.1667 15.5284 73.6069 15.6572 73.1255 15.9147C72.6553 16.1722 72.2858 16.536 72.0171 17.0063C71.7484 17.4653 71.6141 18.0139 71.6141 18.652C71.6141 19.3573 71.7708 19.9675 72.0843 20.4825C72.409 20.9975 72.8624 21.3949 73.4445 21.6748C74.0379 21.9435 74.7376 22.0778 75.5437 22.0778C76.2714 22.0778 77.0159 21.9659 77.7772 21.742C78.5385 21.5069 79.2103 21.1822 79.7924 20.768V22.3465C79.2103 22.7944 78.4993 23.147 77.6597 23.4045C76.8312 23.662 75.9859 23.7908 75.1239 23.7908ZM81.8574 14.0506H84.0405V17.3589L83.9397 17.6948V19.6092L84.0405 20.197V26.3266H81.8574V14.0506ZM83.2008 18.8031C83.4135 17.7955 83.7662 16.9223 84.2588 16.1834C84.7514 15.4333 85.356 14.8511 86.0725 14.4369C86.8002 14.0226 87.6063 13.8155 88.4907 13.8155C89.42 13.8155 90.2428 14.0282 90.9594 14.4537C91.6759 14.8679 92.2356 15.4501 92.6387 16.2002C93.0417 16.9391 93.2432 17.8067 93.2432 18.8031C93.2432 19.7884 93.0417 20.656 92.6387 21.4061C92.2356 22.1562 91.6759 22.744 90.9594 23.1694C90.2428 23.5837 89.42 23.7908 88.4907 23.7908C87.6063 23.7908 86.8058 23.5837 86.0893 23.1694C85.3728 22.7552 84.7626 22.173 84.2588 21.4229C83.7662 20.6728 83.4135 19.7996 83.2008 18.8031ZM91.0265 18.8031C91.0265 18.165 90.8922 17.6052 90.6235 17.1238C90.366 16.6312 90.0077 16.2506 89.5487 15.9819C89.0897 15.702 88.5635 15.562 87.9701 15.562C87.3768 15.562 86.817 15.702 86.2908 15.9819C85.7758 16.2506 85.3224 16.6312 84.9305 17.1238C84.5387 17.6052 84.2196 18.165 83.9733 18.8031C84.2196 19.4413 84.5387 20.0067 84.9305 20.4993C85.3224 20.9807 85.7758 21.3613 86.2908 21.6412C86.817 21.9099 87.3768 22.0443 87.9701 22.0443C88.5635 22.0443 89.0897 21.9099 89.5487 21.6412C90.0077 21.3613 90.366 20.9807 90.6235 20.4993C90.8922 20.0067 91.0265 19.4413 91.0265 18.8031ZM94.8912 16.7544H98.8041V18.5512H94.8912V16.7544ZM100.947 23.5557V14.0506H103.13V21.7084L102.475 21.4733L108.537 14.0506H111.023L102.962 23.5557H100.947ZM108.772 23.5557L105.817 18.8535L107.345 17.4765L111.325 23.5557H108.772ZM114.073 14.0506H123.427V23.5557H121.243V14.7224L122.251 15.73H115.164L116.105 14.9575C116.161 15.6516 116.205 16.3121 116.239 16.9391C116.284 17.5548 116.306 18.109 116.306 18.6016C116.306 20.3929 116.054 21.6972 115.55 22.5145C115.047 23.3318 114.235 23.7404 113.115 23.7404C112.813 23.7404 112.522 23.7068 112.242 23.6396C111.962 23.5725 111.694 23.4661 111.436 23.3206V21.6916C111.638 21.77 111.834 21.8315 112.024 21.8763C112.225 21.9211 112.41 21.9435 112.578 21.9435C113.194 21.9435 113.636 21.658 113.905 21.087C114.185 20.5161 114.325 19.5868 114.325 18.2993C114.325 17.7396 114.302 17.1014 114.257 16.3849C114.224 15.6684 114.162 14.8903 114.073 14.0506ZM134.61 23.5557L134.241 20.0291L134.677 18.8031L134.241 17.594L134.61 14.0506H136.86L136.357 18.8031L136.86 23.5557H134.61ZM135.282 18.8031C135.069 19.7996 134.716 20.6728 134.224 21.4229C133.731 22.173 133.121 22.7552 132.393 23.1694C131.677 23.5837 130.876 23.7908 129.992 23.7908C129.063 23.7908 128.24 23.5837 127.523 23.1694C126.807 22.744 126.247 22.1562 125.844 21.4061C125.441 20.656 125.239 19.7884 125.239 18.8031C125.239 17.8067 125.441 16.9391 125.844 16.2002C126.247 15.4501 126.807 14.8679 127.523 14.4537C128.24 14.0282 129.063 13.8155 129.992 13.8155C130.876 13.8155 131.677 14.0226 132.393 14.4369C133.121 14.8511 133.731 15.4333 134.224 16.1834C134.728 16.9223 135.08 17.7955 135.282 18.8031ZM127.456 18.8031C127.456 19.4413 127.585 20.0067 127.842 20.4993C128.111 20.9807 128.475 21.3613 128.934 21.6412C129.393 21.9099 129.919 22.0443 130.512 22.0443C131.117 22.0443 131.677 21.9099 132.192 21.6412C132.707 21.3613 133.16 20.9807 133.552 20.4993C133.955 20.0067 134.274 19.4413 134.509 18.8031C134.274 18.165 133.955 17.6052 133.552 17.1238C133.16 16.6312 132.707 16.2506 132.192 15.9819C131.677 15.702 131.117 15.562 130.512 15.562C129.919 15.562 129.393 15.702 128.934 15.9819C128.475 16.2506 128.111 16.6312 127.842 17.1238C127.585 17.6052 127.456 18.165 127.456 18.8031ZM149.457 19.8107C149.345 20.5944 149.037 21.2886 148.534 21.8931C148.03 22.4865 147.386 22.9511 146.602 23.287C145.819 23.6228 144.945 23.7908 143.983 23.7908C142.885 23.7908 141.917 23.5837 141.077 23.1694C140.249 22.744 139.599 22.1562 139.129 21.4061C138.659 20.656 138.424 19.7884 138.424 18.8031C138.424 17.8179 138.659 16.9503 139.129 16.2002C139.599 15.4501 140.249 14.8679 141.077 14.4537C141.917 14.0282 142.885 13.8155 143.983 13.8155C144.945 13.8155 145.819 13.9835 146.602 14.3193C147.386 14.6552 148.03 15.1254 148.534 15.73C149.037 16.3233 149.345 17.0175 149.457 17.8123H147.257C147.1 17.0958 146.725 16.536 146.132 16.133C145.539 15.73 144.822 15.5284 143.983 15.5284C143.311 15.5284 142.723 15.6628 142.219 15.9315C141.715 16.189 141.324 16.564 141.044 17.0566C140.775 17.538 140.641 18.1202 140.641 18.8031C140.641 19.4749 140.775 20.057 141.044 20.5497C141.324 21.0423 141.715 21.4229 142.219 21.6916C142.723 21.9491 143.311 22.0778 143.983 22.0778C144.833 22.0778 145.555 21.8707 146.149 21.4565C146.742 21.0423 147.112 20.4937 147.257 19.8107H149.457ZM161.609 19.8107C161.497 20.5944 161.19 21.2886 160.686 21.8931C160.182 22.4865 159.538 22.9511 158.755 23.287C157.971 23.6228 157.098 23.7908 156.135 23.7908C155.038 23.7908 154.069 23.5837 153.229 23.1694C152.401 22.744 151.752 22.1562 151.281 21.4061C150.811 20.656 150.576 19.7884 150.576 18.8031C150.576 17.8179 150.811 16.9503 151.281 16.2002C151.752 15.4501 152.401 14.8679 153.229 14.4537C154.069 14.0282 155.038 13.8155 156.135 13.8155C157.098 13.8155 157.971 13.9835 158.755 14.3193C159.538 14.6552 160.182 15.1254 160.686 15.73C161.19 16.3233 161.497 17.0175 161.609 17.8123H159.409C159.253 17.0958 158.878 16.536 158.284 16.133C157.691 15.73 156.974 15.5284 156.135 15.5284C155.463 15.5284 154.875 15.6628 154.371 15.9315C153.868 16.189 153.476 16.564 153.196 17.0566C152.927 17.538 152.793 18.1202 152.793 18.8031C152.793 19.4749 152.927 20.057 153.196 20.5497C153.476 21.0423 153.868 21.4229 154.371 21.6916C154.875 21.9491 155.463 22.0778 156.135 22.0778C156.986 22.0778 157.708 21.8707 158.301 21.4565C158.894 21.0423 159.264 20.4937 159.409 19.8107H161.609ZM25.4019 35.0506V44.5557H23.2188V35.7392L24.2264 36.73H16.4007L17.4083 35.7392V44.5557H15.2251V35.0506H25.4019ZM32.9781 44.7908C31.8249 44.7908 30.8117 44.5837 29.9385 44.1694C29.0764 43.744 28.3991 43.1562 27.9065 42.4061C27.4251 41.656 27.1844 40.7884 27.1844 39.8031C27.1844 38.8067 27.4251 37.9391 27.9065 37.2002C28.3991 36.4501 29.0764 35.8679 29.9385 35.4537C30.8117 35.0282 31.8249 34.8155 32.9781 34.8155C34.1312 34.8155 35.1388 35.0282 36.0009 35.4537C36.8741 35.8679 37.5515 36.4501 38.0329 37.2002C38.5255 37.9391 38.7718 38.8067 38.7718 39.8031C38.7718 40.7884 38.5255 41.656 38.0329 42.4061C37.5515 43.1562 36.8741 43.744 36.0009 44.1694C35.1388 44.5837 34.1312 44.7908 32.9781 44.7908ZM32.9781 43.0778C33.717 43.0778 34.3495 42.9435 34.8757 42.6748C35.4131 42.4061 35.8274 42.0311 36.1184 41.5497C36.4095 41.057 36.5551 40.4749 36.5551 39.8031C36.5551 39.1314 36.4095 38.5548 36.1184 38.0734C35.8274 37.5808 35.4131 37.2002 34.8757 36.9315C34.3495 36.6628 33.717 36.5284 32.9781 36.5284C32.2504 36.5284 31.6178 36.6628 31.0804 36.9315C30.543 37.2002 30.1288 37.5808 29.8377 38.0734C29.5466 38.5548 29.4011 39.1314 29.4011 39.8031C29.4011 40.4749 29.5466 41.057 29.8377 41.5497C30.1288 42.0311 30.543 42.4061 31.0804 42.6748C31.6178 42.9435 32.2504 43.0778 32.9781 43.0778ZM44.9907 44.5557V35.0506H47.1403V43.4641L46.4853 43.313L52.9843 35.0506H55.8056V44.5557H53.6561V36.0246L54.3278 36.1926L47.7448 44.5557H44.9907ZM65.6335 35.0506V36.7635H59.3024L60.31 35.7559V44.5557H58.1269V35.0506H65.6335ZM67.0156 35.0506H69.1987V38.3589L69.098 38.6948V40.6092L69.1987 41.197V47.3266H67.0156V35.0506ZM68.359 39.8031C68.5718 38.7955 68.9244 37.9223 69.417 37.1834C69.9096 36.4333 70.5142 35.8511 71.2307 35.4369C71.9584 35.0226 72.7645 34.8155 73.6489 34.8155C74.5782 34.8155 75.4011 35.0282 76.1176 35.4537C76.8341 35.8679 77.3939 36.4501 77.7969 37.2002C78.1999 37.9391 78.4015 38.8067 78.4015 39.8031C78.4015 40.7884 78.1999 41.656 77.7969 42.4061C77.3939 43.1562 76.8341 43.744 76.1176 44.1694C75.4011 44.5837 74.5782 44.7908 73.6489 44.7908C72.7645 44.7908 71.964 44.5837 71.2475 44.1694C70.531 43.7552 69.9208 43.173 69.417 42.4229C68.9244 41.6728 68.5718 40.7996 68.359 39.8031ZM76.1847 39.8031C76.1847 39.165 76.0504 38.6052 75.7817 38.1238C75.5242 37.6312 75.1659 37.2506 74.7069 36.9819C74.2479 36.702 73.7217 36.562 73.1284 36.562C72.535 36.562 71.9752 36.702 71.449 36.9819C70.934 37.2506 70.4806 37.6312 70.0888 38.1238C69.6969 38.6052 69.3778 39.165 69.1315 39.8031C69.3778 40.4413 69.6969 41.0067 70.0888 41.4993C70.4806 41.9807 70.934 42.3613 71.449 42.6412C71.9752 42.9099 72.535 43.0443 73.1284 43.0443C73.7217 43.0443 74.2479 42.9099 74.7069 42.6412C75.1659 42.3613 75.5242 41.9807 75.7817 41.4993C76.0504 41.0067 76.1847 40.4413 76.1847 39.8031ZM85.4065 44.7908C84.2982 44.7908 83.313 44.5837 82.4509 44.1694C81.5888 43.744 80.9115 43.1562 80.4189 42.4061C79.9263 41.656 79.68 40.7828 79.68 39.7864C79.68 38.8011 79.9095 37.9391 80.3685 37.2002C80.8387 36.4501 81.4825 35.8679 82.2998 35.4537C83.1282 35.0282 84.0743 34.8155 85.1378 34.8155C86.2014 34.8155 87.1194 35.0562 87.8919 35.5376C88.6756 36.0078 89.2802 36.674 89.7056 37.536C90.1311 38.3981 90.3438 39.4113 90.3438 40.5756H81.3929V38.9131H89.2522L88.1606 39.5345C88.127 38.9075 87.9759 38.3701 87.7072 37.9223C87.4497 37.4745 87.0971 37.133 86.6492 36.8979C86.2126 36.6516 85.692 36.5284 85.0875 36.5284C84.4493 36.5284 83.8895 36.6572 83.4081 36.9147C82.9379 37.1722 82.5684 37.536 82.2998 38.0063C82.0311 38.4653 81.8967 39.0139 81.8967 39.652C81.8967 40.3573 82.0535 40.9675 82.3669 41.4825C82.6916 41.9975 83.145 42.3949 83.7272 42.6748C84.3206 42.9435 85.0203 43.0778 85.8264 43.0778C86.5541 43.0778 87.2986 42.9659 88.0599 42.742C88.8212 42.5069 89.4929 42.1822 90.0751 41.768V43.3465C89.4929 43.7944 88.782 44.147 87.9423 44.4045C87.1139 44.662 86.2686 44.7908 85.4065 44.7908ZM15.2251 55.0506H17.3915V64.5557H15.2251V55.0506ZM23.3027 55.0506H25.4691V64.5557H23.3027V55.0506ZM16.4511 58.8963H24.2096V60.5756H16.4511V58.8963ZM36.6542 64.5557L36.2848 61.0291L36.7214 59.8031L36.2848 58.594L36.6542 55.0506H38.9046L38.4008 59.8031L38.9046 64.5557H36.6542ZM37.326 59.8031C37.1133 60.7996 36.7606 61.6728 36.268 62.4229C35.7754 63.173 35.1652 63.7552 34.4375 64.1694C33.721 64.5837 32.9205 64.7908 32.0361 64.7908C31.1068 64.7908 30.284 64.5837 29.5675 64.1694C28.8509 63.744 28.2912 63.1562 27.8881 62.4061C27.4851 61.656 27.2836 60.7884 27.2836 59.8031C27.2836 58.8067 27.4851 57.9391 27.8881 57.2002C28.2912 56.4501 28.8509 55.8679 29.5675 55.4537C30.284 55.0282 31.1068 54.8155 32.0361 54.8155C32.9205 54.8155 33.721 55.0226 34.4375 55.4369C35.1652 55.8511 35.7754 56.4333 36.268 57.1834C36.7718 57.9223 37.1245 58.7955 37.326 59.8031ZM29.5003 59.8031C29.5003 60.4413 29.629 61.0067 29.8865 61.4993C30.1552 61.9807 30.5191 62.3613 30.9781 62.6412C31.4371 62.9099 31.9633 63.0443 32.5567 63.0443C33.1612 63.0443 33.721 62.9099 34.236 62.6412C34.751 62.3613 35.2044 61.9807 35.5963 61.4993C35.9993 61.0067 36.3184 60.4413 36.5535 59.8031C36.3184 59.165 35.9993 58.6052 35.5963 58.1238C35.2044 57.6312 34.751 57.2506 34.236 56.9819C33.721 56.702 33.1612 56.562 32.5567 56.562C31.9633 56.562 31.4371 56.702 30.9781 56.9819C30.5191 57.2506 30.1552 57.6312 29.8865 58.1238C29.629 58.6052 29.5003 59.165 29.5003 59.8031ZM52.9565 55.0506V56.7635H46.6254L47.633 55.7559V64.5557H45.4499V55.0506H52.9565ZM54.3386 64.5557V55.0506H56.4881V63.4641L55.8332 63.313L62.3322 55.0506H65.1535V64.5557H63.0039V56.0246L63.6757 56.1926L57.0927 64.5557H54.3386ZM70.4808 55.8063H72.6639V64.5557H70.4808V55.8063ZM66.5343 55.0506H76.6104V56.7635H66.5343V55.0506ZM86.4603 64.5557L86.0909 61.0291L86.5275 59.8031L86.0909 58.594L86.4603 55.0506H88.7106L88.2068 59.8031L88.7106 64.5557H86.4603ZM87.132 59.8031C86.9193 60.7996 86.5667 61.6728 86.0741 62.4229C85.5815 63.173 84.9713 63.7552 84.2436 64.1694C83.5271 64.5837 82.7266 64.7908 81.8421 64.7908C80.9129 64.7908 80.09 64.5837 79.3735 64.1694C78.657 63.744 78.0972 63.1562 77.6942 62.4061C77.2911 61.656 77.0896 60.7884 77.0896 59.8031C77.0896 58.8067 77.2911 57.9391 77.6942 57.2002C78.0972 56.4501 78.657 55.8679 79.3735 55.4537C80.09 55.0282 80.9129 54.8155 81.8421 54.8155C82.7266 54.8155 83.5271 55.0226 84.2436 55.4369C84.9713 55.8511 85.5815 56.4333 86.0741 57.1834C86.5779 57.9223 86.9305 58.7955 87.132 59.8031ZM79.3063 59.8031C79.3063 60.4413 79.4351 61.0067 79.6926 61.4993C79.9613 61.9807 80.3251 62.3613 80.7842 62.6412C81.2432 62.9099 81.7694 63.0443 82.3627 63.0443C82.9673 63.0443 83.5271 62.9099 84.0421 62.6412C84.5571 62.3613 85.0105 61.9807 85.4023 61.4993C85.8054 61.0067 86.1244 60.4413 86.3595 59.8031C86.1244 59.165 85.8054 58.6052 85.4023 58.1238C85.0105 57.6312 84.5571 57.2506 84.0421 56.9819C83.5271 56.702 82.9673 56.562 82.3627 56.562C81.7694 56.562 81.2432 56.702 80.7842 56.9819C80.3251 57.2506 79.9613 57.6312 79.6926 58.1238C79.4351 58.6052 79.3063 59.165 79.3063 59.8031ZM90.8116 55.0506H92.9948V58.3589L92.894 58.6948V60.6092L92.9948 61.197V67.3266H90.8116V55.0506ZM92.1551 59.8031C92.3678 58.7955 92.7205 57.9223 93.2131 57.1834C93.7057 56.4333 94.3102 55.8511 95.0268 55.4369C95.7545 55.0226 96.5606 54.8155 97.445 54.8155C98.3742 54.8155 99.1971 55.0282 99.9136 55.4537C100.63 55.8679 101.19 56.4501 101.593 57.2002C101.996 57.9391 102.198 58.8067 102.198 59.8031C102.198 60.7884 101.996 61.656 101.593 62.4061C101.19 63.1562 100.63 63.744 99.9136 64.1694C99.1971 64.5837 98.3742 64.7908 97.445 64.7908C96.5606 64.7908 95.7601 64.5837 95.0436 64.1694C94.327 63.7552 93.7169 63.173 93.2131 62.4229C92.7205 61.6728 92.3678 60.7996 92.1551 59.8031ZM99.9808 59.8031C99.9808 59.165 99.8464 58.6052 99.5778 58.1238C99.3203 57.6312 98.962 57.2506 98.503 56.9819C98.044 56.702 97.5178 56.562 96.9244 56.562C96.331 56.562 95.7713 56.702 95.2451 56.9819C94.7301 57.2506 94.2767 57.6312 93.8848 58.1238C93.493 58.6052 93.1739 59.165 92.9276 59.8031C93.1739 60.4413 93.493 61.0067 93.8848 61.4993C94.2767 61.9807 94.7301 62.3613 95.2451 62.6412C95.7713 62.9099 96.331 63.0443 96.9244 63.0443C97.5178 63.0443 98.044 62.9099 98.503 62.6412C98.962 62.3613 99.3203 61.9807 99.5778 61.4993C99.8464 61.0067 99.9808 60.4413 99.9808 59.8031ZM109.203 64.7908C108.094 64.7908 107.109 64.5837 106.247 64.1694C105.385 63.744 104.708 63.1562 104.215 62.4061C103.722 61.656 103.476 60.7828 103.476 59.7864C103.476 58.8011 103.706 57.9391 104.165 57.2002C104.635 56.4501 105.279 55.8679 106.096 55.4537C106.924 55.0282 107.87 54.8155 108.934 54.8155C109.997 54.8155 110.915 55.0562 111.688 55.5376C112.472 56.0078 113.076 56.674 113.502 57.536C113.927 58.3981 114.14 59.4113 114.14 60.5756H105.189V58.9131H113.048L111.957 59.5345C111.923 58.9075 111.772 58.3701 111.503 57.9223C111.246 57.4745 110.893 57.133 110.445 56.8979C110.009 56.6516 109.488 56.5284 108.883 56.5284C108.245 56.5284 107.686 56.6572 107.204 56.9147C106.734 57.1722 106.364 57.536 106.096 58.0063C105.827 58.4653 105.693 59.0139 105.693 59.652C105.693 60.3573 105.849 60.9675 106.163 61.4825C106.488 61.9975 106.941 62.3949 107.523 62.6748C108.117 62.9435 108.816 63.0778 109.622 63.0778C110.35 63.0778 111.095 62.9659 111.856 62.742C112.617 62.5069 113.289 62.1822 113.871 61.768V63.3465C113.289 63.7944 112.578 64.147 111.738 64.4045C110.91 64.662 110.065 64.7908 109.203 64.7908Z" fill="#4192F5"/>
<path d="M20.8845 673.016C19.6418 673.016 18.5558 672.837 17.6266 672.479C16.6974 672.121 15.9697 671.611 15.4435 670.951C14.9173 670.29 14.6262 669.518 14.5702 668.633H16.7869C16.8989 669.473 17.3019 670.122 17.9961 670.581C18.7014 671.029 19.6642 671.253 20.8845 671.253C22.06 671.253 22.9725 671.074 23.6218 670.716C24.2824 670.346 24.6126 669.798 24.6126 669.07C24.6126 668.454 24.3439 667.995 23.8066 667.693C23.2692 667.391 22.4071 667.239 21.2204 667.239H18.7014V665.678H21.17C21.8753 665.678 22.4575 665.594 22.9165 665.426C23.3755 665.258 23.717 665.028 23.9409 664.737C24.1648 664.435 24.2768 664.105 24.2768 663.746C24.2768 663.31 24.1368 662.94 23.8569 662.638C23.5882 662.336 23.202 662.106 22.6982 661.95C22.1944 661.793 21.6066 661.714 20.9349 661.714C19.8153 661.714 18.9197 661.933 18.248 662.369C17.5762 662.806 17.1788 663.411 17.0556 664.183H14.8557C14.9341 663.388 15.2195 662.672 15.7122 662.034C16.216 661.395 16.9157 660.892 17.8113 660.522C18.7182 660.141 19.7929 659.951 21.0356 659.951C22.1552 659.951 23.1236 660.102 23.9409 660.405C24.7694 660.696 25.4075 661.104 25.8553 661.63C26.3144 662.145 26.5439 662.744 26.5439 663.427C26.5439 664.01 26.3703 664.541 26.0233 665.023C25.6762 665.504 25.1556 665.885 24.4615 666.165C23.7674 666.445 22.8941 666.585 21.8417 666.585V666.265C22.8829 666.221 23.7786 666.31 24.5287 666.534C25.2788 666.747 25.8553 667.077 26.2584 667.525C26.6726 667.973 26.8797 668.533 26.8797 669.204C26.8797 669.966 26.6446 670.632 26.1744 671.203C25.7154 671.774 25.0381 672.221 24.1424 672.546C23.2468 672.86 22.1608 673.016 20.8845 673.016ZM37.6874 672.781L37.318 669.255L37.7546 668.029L37.318 666.82L37.6874 663.276H39.9377L39.4339 668.029L39.9377 672.781H37.6874ZM38.3592 668.029C38.1465 669.025 37.7938 669.898 37.3012 670.648C36.8086 671.399 36.1984 671.981 35.4707 672.395C34.7542 672.809 33.9537 673.016 33.0693 673.016C32.14 673.016 31.3172 672.809 30.6006 672.395C29.8841 671.97 29.3243 671.382 28.9213 670.632C28.5183 669.882 28.3167 669.014 28.3167 668.029C28.3167 667.032 28.5183 666.165 28.9213 665.426C29.3243 664.676 29.8841 664.093 30.6006 663.679C31.3172 663.254 32.14 663.041 33.0693 663.041C33.9537 663.041 34.7542 663.248 35.4707 663.662C36.1984 664.077 36.8086 664.659 37.3012 665.409C37.805 666.148 38.1576 667.021 38.3592 668.029ZM30.5335 668.029C30.5335 668.667 30.6622 669.232 30.9197 669.725C31.1884 670.206 31.5523 670.587 32.0113 670.867C32.4703 671.136 32.9965 671.27 33.5899 671.27C34.1944 671.27 34.7542 671.136 35.2692 670.867C35.7842 670.587 36.2376 670.206 36.6295 669.725C37.0325 669.232 37.3516 668.667 37.5867 668.029C37.3516 667.391 37.0325 666.831 36.6295 666.349C36.2376 665.857 35.7842 665.476 35.2692 665.207C34.7542 664.928 34.1944 664.788 33.5899 664.788C32.9965 664.788 32.4703 664.928 32.0113 665.207C31.5523 665.476 31.1884 665.857 30.9197 666.349C30.6622 666.831 30.5335 667.391 30.5335 668.029ZM43.7013 663.276H53.0552V672.781H50.8721V663.948L51.8797 664.956H44.7929L45.7333 664.183C45.7893 664.877 45.834 665.538 45.8676 666.165C45.9124 666.78 45.9348 667.335 45.9348 667.827C45.9348 669.619 45.6829 670.923 45.1791 671.74C44.6753 672.557 43.8636 672.966 42.7441 672.966C42.4418 672.966 42.1507 672.932 41.8708 672.865C41.5909 672.798 41.3222 672.692 41.0647 672.546V670.917C41.2663 670.996 41.4622 671.057 41.6525 671.102C41.854 671.147 42.0387 671.169 42.2067 671.169C42.8224 671.169 43.2647 670.884 43.5334 670.313C43.8132 669.742 43.9532 668.812 43.9532 667.525C43.9532 666.965 43.9308 666.327 43.886 665.61C43.8524 664.894 43.7909 664.116 43.7013 663.276ZM59.3627 664.519C59.4298 663.59 59.7265 662.784 60.2527 662.101C60.7901 661.418 61.501 660.892 62.3855 660.522C63.2699 660.141 64.2775 659.951 65.4083 659.951C66.483 659.951 67.4235 660.119 68.2296 660.455C69.0468 660.791 69.6794 661.261 70.1272 661.866C70.5862 662.47 70.8157 663.17 70.8157 663.965C70.8157 664.58 70.6646 665.151 70.3623 665.678C70.0712 666.204 69.5842 666.741 68.9013 667.29C68.2296 667.827 67.3171 668.437 66.164 669.12L61.9824 671.589L61.6969 670.934H71.202V672.781H59.4802V671.169L64.8373 667.911C65.7777 667.34 66.5166 666.848 67.054 666.433C67.6026 666.008 67.9944 665.61 68.2296 665.241C68.4647 664.872 68.5822 664.48 68.5822 664.066C68.5822 663.629 68.4647 663.237 68.2296 662.89C67.9944 662.543 67.6362 662.269 67.1548 662.067C66.6846 661.866 66.08 661.765 65.3411 661.765C64.5014 661.765 63.8129 661.888 63.2755 662.134C62.7381 662.381 62.3351 662.716 62.0664 663.142C61.8089 663.556 61.6522 664.015 61.5962 664.519H59.3627ZM19.541 682.211H21.7578V693.781H19.541V682.211ZM14.3351 681.186H26.9637V683.134H14.3351V681.186ZM30.5493 694.016C29.441 694.016 28.4558 693.809 27.5937 693.395C26.7317 692.97 26.0543 692.382 25.5617 691.632C25.0691 690.882 24.8228 690.008 24.8228 689.012C24.8228 688.027 25.0523 687.165 25.5113 686.426C25.9816 685.676 26.6253 685.093 27.4426 684.679C28.271 684.254 29.2171 684.041 30.2806 684.041C31.3442 684.041 32.2623 684.282 33.0348 684.763C33.8184 685.233 34.423 685.9 34.8484 686.762C35.2739 687.624 35.4866 688.637 35.4866 689.801H26.5357V688.139H34.395L33.3035 688.76C33.2699 688.133 33.1187 687.596 32.85 687.148C32.5925 686.7 32.2399 686.359 31.792 686.123C31.3554 685.877 30.8348 685.754 30.2303 685.754C29.5921 685.754 29.0323 685.883 28.5509 686.14C28.0807 686.398 27.7113 686.762 27.4426 687.232C27.1739 687.691 27.0395 688.239 27.0395 688.878C27.0395 689.583 27.1963 690.193 27.5097 690.708C27.8344 691.223 28.2878 691.621 28.87 691.9C29.4634 692.169 30.1631 692.303 30.9692 692.303C31.6969 692.303 32.4414 692.191 33.2027 691.968C33.964 691.732 34.6357 691.408 35.2179 690.994V692.572C34.6357 693.02 33.9248 693.373 33.0851 693.63C32.2567 693.888 31.4114 694.016 30.5493 694.016ZM47.4596 684.276V693.781H45.2765V684.965L46.2841 685.956H38.4584L39.466 684.965V693.781H37.2828V684.276H47.4596ZM51.442 684.276H60.7959V693.781H58.6127V684.948L59.6203 685.956H52.5335L53.474 685.183C53.5299 685.877 53.5747 686.538 53.6083 687.165C53.6531 687.78 53.6755 688.335 53.6755 688.827C53.6755 690.619 53.4236 691.923 52.9198 692.74C52.416 693.557 51.6043 693.966 50.4848 693.966C50.1825 693.966 49.8914 693.932 49.6115 693.865C49.3316 693.798 49.0629 693.692 48.8054 693.546V691.917C49.0069 691.996 49.2029 692.057 49.3932 692.102C49.5947 692.147 49.7794 692.169 49.9474 692.169C50.5631 692.169 51.0053 691.884 51.274 691.313C51.5539 690.742 51.6939 689.812 51.6939 688.525C51.6939 687.965 51.6715 687.327 51.6267 686.61C51.5931 685.894 51.5315 685.116 51.442 684.276ZM63.1124 693.781V684.276H65.262V692.69L64.607 692.539L71.1061 684.276H73.9274V693.781H71.7778V685.25L72.4495 685.418L65.8665 693.781H63.1124ZM86.2911 684.276V692.572L85.9216 692.102H88.0544V696.183H86.1567V693.395L86.5262 693.781H76.2486V684.276H78.4318V692.572L78.0791 692.102H84.427L84.1079 692.572V684.276H86.2911ZM89.6308 693.781V684.276H91.814V691.934L91.159 691.699L97.2214 684.276H99.7069L91.646 693.781H89.6308ZM97.4565 693.781L94.5009 689.079L96.0291 687.702L100.009 693.781H97.4565ZM101.094 693.781V684.276H103.244V692.69L102.589 692.539L109.088 684.276H111.909V693.781H109.76V685.25L110.431 685.418L103.848 693.781H101.094ZM114.23 693.781V684.276H116.38V692.69L115.725 692.539L122.224 684.276H125.045V693.781H122.896V685.25L123.568 685.418L116.985 693.781H114.23ZM119.588 683.319C118.58 683.319 117.768 683.067 117.153 682.563C116.548 682.059 116.173 681.332 116.027 680.38H117.791C117.88 680.895 118.082 681.293 118.395 681.572C118.709 681.841 119.106 681.976 119.588 681.976C120.069 681.976 120.466 681.841 120.78 681.572C121.093 681.293 121.295 680.895 121.384 680.38H123.131C122.997 681.332 122.622 682.059 122.006 682.563C121.39 683.067 120.584 683.319 119.588 683.319ZM141.988 684.276V693.781H139.805V684.965L140.812 685.956H132.987L133.994 684.965V693.781H131.811V684.276H141.988ZM144.308 684.276H146.491V687.585L146.39 687.92V689.835L146.491 690.423V696.552H144.308V684.276ZM145.651 689.029C145.864 688.021 146.216 687.148 146.709 686.409C147.202 685.659 147.806 685.077 148.523 684.662C149.25 684.248 150.057 684.041 150.941 684.041C151.87 684.041 152.693 684.254 153.41 684.679C154.126 685.093 154.686 685.676 155.089 686.426C155.492 687.165 155.694 688.032 155.694 689.029C155.694 690.014 155.492 690.882 155.089 691.632C154.686 692.382 154.126 692.97 153.41 693.395C152.693 693.809 151.87 694.016 150.941 694.016C150.057 694.016 149.256 693.809 148.54 693.395C147.823 692.981 147.213 692.399 146.709 691.648C146.216 690.898 145.864 690.025 145.651 689.029ZM153.477 689.029C153.477 688.391 153.342 687.831 153.074 687.349C152.816 686.857 152.458 686.476 151.999 686.207C151.54 685.928 151.014 685.788 150.42 685.788C149.827 685.788 149.267 685.928 148.741 686.207C148.226 686.476 147.773 686.857 147.381 687.349C146.989 687.831 146.67 688.391 146.424 689.029C146.67 689.667 146.989 690.232 147.381 690.725C147.773 691.206 148.226 691.587 148.741 691.867C149.267 692.136 149.827 692.27 150.42 692.27C151.014 692.27 151.54 692.136 151.999 691.867C152.458 691.587 152.816 691.206 153.074 690.725C153.342 690.232 153.477 689.667 153.477 689.029ZM162.766 694.016C161.613 694.016 160.599 693.809 159.726 693.395C158.864 692.97 158.187 692.382 157.694 691.632C157.213 690.882 156.972 690.014 156.972 689.029C156.972 688.032 157.213 687.165 157.694 686.426C158.187 685.676 158.864 685.093 159.726 684.679C160.599 684.254 161.613 684.041 162.766 684.041C163.919 684.041 164.926 684.254 165.789 684.679C166.662 685.093 167.339 685.676 167.821 686.426C168.313 687.165 168.559 688.032 168.559 689.029C168.559 690.014 168.313 690.882 167.821 691.632C167.339 692.382 166.662 692.97 165.789 693.395C164.926 693.809 163.919 694.016 162.766 694.016ZM162.766 692.303C163.505 692.303 164.137 692.169 164.663 691.9C165.201 691.632 165.615 691.257 165.906 690.775C166.197 690.283 166.343 689.7 166.343 689.029C166.343 688.357 166.197 687.78 165.906 687.299C165.615 686.806 165.201 686.426 164.663 686.157C164.137 685.888 163.505 685.754 162.766 685.754C162.038 685.754 161.405 685.888 160.868 686.157C160.331 686.426 159.916 686.806 159.625 687.299C159.334 687.78 159.189 688.357 159.189 689.029C159.189 689.7 159.334 690.283 159.625 690.775C159.916 691.257 160.331 691.632 160.868 691.9C161.405 692.169 162.038 692.303 162.766 692.303ZM180.83 690.036C180.718 690.82 180.41 691.514 179.906 692.119C179.402 692.712 178.759 693.177 177.975 693.513C177.191 693.848 176.318 694.016 175.355 694.016C174.258 694.016 173.29 693.809 172.45 693.395C171.622 692.97 170.972 692.382 170.502 691.632C170.032 690.882 169.797 690.014 169.797 689.029C169.797 688.044 170.032 687.176 170.502 686.426C170.972 685.676 171.622 685.093 172.45 684.679C173.29 684.254 174.258 684.041 175.355 684.041C176.318 684.041 177.191 684.209 177.975 684.545C178.759 684.881 179.402 685.351 179.906 685.956C180.41 686.549 180.718 687.243 180.83 688.038H178.63C178.473 687.321 178.098 686.762 177.505 686.359C176.911 685.956 176.195 685.754 175.355 685.754C174.684 685.754 174.096 685.888 173.592 686.157C173.088 686.415 172.696 686.79 172.416 687.282C172.148 687.764 172.013 688.346 172.013 689.029C172.013 689.7 172.148 690.283 172.416 690.775C172.696 691.268 173.088 691.648 173.592 691.917C174.096 692.175 174.684 692.303 175.355 692.303C176.206 692.303 176.928 692.096 177.522 691.682C178.115 691.268 178.484 690.719 178.63 690.036H180.83ZM192.663 684.276V693.781H190.48V684.965L191.487 685.956H183.662L184.669 684.965V693.781H182.486V684.276H192.663ZM200.172 694.016C199.064 694.016 198.078 693.809 197.216 693.395C196.354 692.97 195.677 692.382 195.184 691.632C194.692 690.882 194.445 690.008 194.445 689.012C194.445 688.027 194.675 687.165 195.134 686.426C195.604 685.676 196.248 685.093 197.065 684.679C197.894 684.254 198.84 684.041 199.903 684.041C200.967 684.041 201.885 684.282 202.657 684.763C203.441 685.233 204.046 685.9 204.471 686.762C204.897 687.624 205.109 688.637 205.109 689.801H196.158V688.139H204.018L202.926 688.76C202.893 688.133 202.741 687.596 202.473 687.148C202.215 686.7 201.863 686.359 201.415 686.123C200.978 685.877 200.458 685.754 199.853 685.754C199.215 685.754 198.655 685.883 198.174 686.14C197.703 686.398 197.334 686.762 197.065 687.232C196.797 687.691 196.662 688.239 196.662 688.878C196.662 689.583 196.819 690.193 197.132 690.708C197.457 691.223 197.911 691.621 198.493 691.9C199.086 692.169 199.786 692.303 200.592 692.303C201.32 692.303 202.064 692.191 202.825 691.968C203.587 691.732 204.258 691.408 204.841 690.994V692.572C204.258 693.02 203.547 693.373 202.708 693.63C201.879 693.888 201.034 694.016 200.172 694.016ZM206.905 693.781V684.276H209.089V691.934L208.434 691.699L214.496 684.276H216.982L208.921 693.781H206.905ZM214.731 693.781L211.776 689.079L213.304 687.702L217.284 693.781H214.731ZM221.375 685.032H223.558V693.781H221.375V685.032ZM217.429 684.276H227.505V685.989H217.429V684.276ZM238.963 680.951C239.959 680.951 240.844 681.102 241.616 681.405C242.389 681.707 243.021 682.121 243.514 682.647C244.007 683.162 244.315 683.756 244.438 684.427H242.255C242.075 683.968 241.74 683.582 241.247 683.269C240.754 682.944 240.01 682.782 239.013 682.782C238.006 682.782 237.183 682.972 236.545 683.353C235.907 683.722 235.436 684.254 235.134 684.948C234.843 685.631 234.698 686.454 234.698 687.417C234.698 688.413 234.866 689.269 235.201 689.986C235.537 690.702 236.035 691.251 236.696 691.632C237.357 692.001 238.174 692.186 239.148 692.186C239.887 692.186 240.502 692.085 240.995 691.884C241.499 691.671 241.874 691.38 242.12 691.01C242.378 690.641 242.506 690.227 242.506 689.768C242.506 689.331 242.395 688.945 242.171 688.609C241.947 688.262 241.6 687.988 241.129 687.786C240.67 687.585 240.077 687.484 239.349 687.484C238.375 687.484 237.474 687.719 236.646 688.189C235.817 688.659 235.129 689.269 234.58 690.02L233.64 689.331C234.009 688.648 234.485 688.032 235.067 687.484C235.66 686.924 236.349 686.482 237.133 686.157C237.927 685.821 238.812 685.653 239.786 685.653C240.782 685.653 241.65 685.821 242.389 686.157C243.139 686.482 243.716 686.946 244.119 687.551C244.533 688.155 244.74 688.872 244.74 689.7C244.74 690.551 244.51 691.301 244.051 691.951C243.592 692.6 242.943 693.11 242.103 693.479C241.275 693.837 240.29 694.016 239.148 694.016C237.704 694.016 236.489 693.742 235.504 693.193C234.518 692.634 233.774 691.861 233.27 690.876C232.778 689.891 232.531 688.76 232.531 687.484C232.531 686.207 232.778 685.077 233.27 684.091C233.763 683.106 234.485 682.339 235.436 681.791C236.399 681.231 237.575 680.951 238.963 680.951ZM253.039 694.016C251.662 694.016 250.475 693.748 249.479 693.21C248.483 692.662 247.716 691.9 247.178 690.926C246.641 689.941 246.372 688.794 246.372 687.484C246.372 686.174 246.641 685.032 247.178 684.058C247.716 683.073 248.483 682.311 249.479 681.774C250.475 681.225 251.662 680.951 253.039 680.951C254.416 680.951 255.597 681.225 256.583 681.774C257.579 682.311 258.346 683.073 258.883 684.058C259.421 685.032 259.689 686.174 259.689 687.484C259.689 688.794 259.421 689.941 258.883 690.926C258.346 691.9 257.579 692.662 256.583 693.21C255.597 693.748 254.416 694.016 253.039 694.016ZM253.039 692.186C254.439 692.186 255.525 691.777 256.297 690.96C257.07 690.131 257.456 688.973 257.456 687.484C257.456 685.995 257.07 684.842 256.297 684.024C255.525 683.196 254.439 682.782 253.039 682.782C251.64 682.782 250.548 683.196 249.764 684.024C248.992 684.842 248.606 685.995 248.606 687.484C248.606 688.973 248.992 690.131 249.764 690.96C250.548 691.777 251.64 692.186 253.039 692.186Z" fill="#4192F5"/>
<path d="M394.628 15.2933C394.695 14.3641 394.992 13.558 395.518 12.8751C396.056 12.1922 396.767 11.666 397.651 11.2965C398.535 10.9159 399.543 10.7255 400.674 10.7255C401.749 10.7255 402.689 10.8935 403.495 11.2293C404.312 11.5652 404.945 12.0354 405.393 12.64C405.852 13.2445 406.081 13.9443 406.081 14.7392C406.081 15.3549 405.93 15.9259 405.628 16.4521C405.337 16.9783 404.85 17.5157 404.167 18.0642C403.495 18.6016 402.583 19.2118 401.43 19.8947L397.248 22.3633L396.963 21.7084H406.468V23.5557H394.746V21.9435L400.103 18.6856C401.043 18.1146 401.782 17.622 402.32 17.2078C402.868 16.7823 403.26 16.3849 403.495 16.0154C403.73 15.646 403.848 15.2542 403.848 14.8399C403.848 14.4033 403.73 14.0114 403.495 13.6644C403.26 13.3173 402.902 13.043 402.42 12.8415C401.95 12.64 401.346 12.5392 400.607 12.5392C399.767 12.5392 399.078 12.6624 398.541 12.9087C398.004 13.155 397.601 13.4908 397.332 13.9163C397.074 14.3305 396.918 14.7895 396.862 15.2933H394.628ZM409.29 10.9607H418.493V12.7575H410.012L410.936 12.1698L410.23 17.4765L409.575 17.4933C409.833 17.1014 410.18 16.732 410.617 16.3849C411.064 16.0378 411.602 15.758 412.229 15.5452C412.867 15.3213 413.583 15.2094 414.378 15.2094C415.475 15.2094 416.405 15.3997 417.166 15.7803C417.927 16.1498 418.504 16.6536 418.896 17.2917C419.299 17.9299 419.5 18.652 419.5 19.4581C419.5 20.2978 419.265 21.0423 418.795 21.6916C418.325 22.3409 417.659 22.8559 416.797 23.2366C415.946 23.606 414.932 23.7908 413.757 23.7908C412.581 23.7908 411.563 23.6172 410.701 23.2702C409.838 22.9231 409.156 22.4529 408.652 21.8595C408.159 21.255 407.857 20.5832 407.745 19.8443H409.978C410.135 20.5049 410.538 21.0255 411.188 21.4061C411.837 21.7868 412.693 21.9771 413.757 21.9771C414.473 21.9771 415.089 21.8763 415.604 21.6748C416.13 21.4621 416.539 21.171 416.83 20.8016C417.121 20.4209 417.267 19.9731 417.267 19.4581C417.267 18.9543 417.144 18.5177 416.897 18.1482C416.662 17.7676 416.298 17.4765 415.806 17.275C415.324 17.0622 414.709 16.9559 413.958 16.9559C413.343 16.9559 412.788 17.0286 412.296 17.1742C411.814 17.3197 411.395 17.5045 411.036 17.7284C410.689 17.9523 410.398 18.1874 410.163 18.4337H408.316L409.29 10.9607ZM425.798 23.5557V14.0506H429.04L433.036 22.5145H432.18L436.143 14.0506H439.384V23.5557H437.335V14.7727H437.906L433.658 23.5557H431.525L427.276 14.8063L427.847 14.7895V23.5557H425.798ZM450.573 23.5557L450.204 20.0291L450.64 18.8031L450.204 17.594L450.573 14.0506H452.823L452.32 18.8031L452.823 23.5557H450.573ZM451.245 18.8031C451.032 19.7996 450.679 20.6728 450.187 21.4229C449.694 22.173 449.084 22.7552 448.356 23.1694C447.64 23.5837 446.839 23.7908 445.955 23.7908C445.026 23.7908 444.203 23.5837 443.486 23.1694C442.77 22.744 442.21 22.1562 441.807 21.4061C441.404 20.656 441.202 19.7884 441.202 18.8031C441.202 17.8067 441.404 16.9391 441.807 16.2002C442.21 15.4501 442.77 14.8679 443.486 14.4537C444.203 14.0282 445.026 13.8155 445.955 13.8155C446.839 13.8155 447.64 14.0226 448.356 14.4369C449.084 14.8511 449.694 15.4333 450.187 16.1834C450.691 16.9223 451.043 17.7955 451.245 18.8031ZM443.419 18.8031C443.419 19.4413 443.548 20.0067 443.805 20.4993C444.074 20.9807 444.438 21.3613 444.897 21.6412C445.356 21.9099 445.882 22.0443 446.475 22.0443C447.08 22.0443 447.64 21.9099 448.155 21.6412C448.67 21.3613 449.123 20.9807 449.515 20.4993C449.918 20.0067 450.237 19.4413 450.472 18.8031C450.237 18.165 449.918 17.6052 449.515 17.1238C449.123 16.6312 448.67 16.2506 448.155 15.9819C447.64 15.702 447.08 15.562 446.475 15.562C445.882 15.562 445.356 15.702 444.897 15.9819C444.438 16.2506 444.074 16.6312 443.805 17.1238C443.548 17.6052 443.419 18.165 443.419 18.8031ZM454.924 14.0506H457.108V17.3589L457.007 17.6948V19.6092L457.108 20.197V26.3266H454.924V14.0506ZM456.268 18.8031C456.481 17.7955 456.833 16.9223 457.326 16.1834C457.818 15.4333 458.423 14.8511 459.139 14.4369C459.867 14.0226 460.673 13.8155 461.558 13.8155C462.487 13.8155 463.31 14.0282 464.026 14.4537C464.743 14.8679 465.303 15.4501 465.706 16.2002C466.109 16.9391 466.31 17.8067 466.31 18.8031C466.31 19.7884 466.109 20.656 465.706 21.4061C465.303 22.1562 464.743 22.744 464.026 23.1694C463.31 23.5837 462.487 23.7908 461.558 23.7908C460.673 23.7908 459.873 23.5837 459.156 23.1694C458.44 22.7552 457.83 22.173 457.326 21.4229C456.833 20.6728 456.481 19.7996 456.268 18.8031ZM464.094 18.8031C464.094 18.165 463.959 17.6052 463.69 17.1238C463.433 16.6312 463.075 16.2506 462.616 15.9819C462.157 15.702 461.631 15.562 461.037 15.562C460.444 15.562 459.884 15.702 459.358 15.9819C458.843 16.2506 458.389 16.6312 457.998 17.1238C457.606 17.6052 457.287 18.165 457.04 18.8031C457.287 19.4413 457.606 20.0067 457.998 20.4993C458.389 20.9807 458.843 21.3613 459.358 21.6412C459.884 21.9099 460.444 22.0443 461.037 22.0443C461.631 22.0443 462.157 21.9099 462.616 21.6412C463.075 21.3613 463.433 20.9807 463.69 20.4993C463.959 20.0067 464.094 19.4413 464.094 18.8031ZM470.739 14.8063H472.922V23.5557H470.739V14.8063ZM466.792 14.0506H476.868V15.7635H466.792V14.0506ZM486.718 23.5557L486.349 20.0291L486.785 18.8031L486.349 17.594L486.718 14.0506H488.968L488.465 18.8031L488.968 23.5557H486.718ZM487.39 18.8031C487.177 19.7996 486.824 20.6728 486.332 21.4229C485.839 22.173 485.229 22.7552 484.501 23.1694C483.785 23.5837 482.984 23.7908 482.1 23.7908C481.171 23.7908 480.348 23.5837 479.631 23.1694C478.915 22.744 478.355 22.1562 477.952 21.4061C477.549 20.656 477.347 19.7884 477.347 18.8031C477.347 17.8067 477.549 16.9391 477.952 16.2002C478.355 15.4501 478.915 14.8679 479.631 14.4537C480.348 14.0282 481.171 13.8155 482.1 13.8155C482.984 13.8155 483.785 14.0226 484.501 14.4369C485.229 14.8511 485.839 15.4333 486.332 16.1834C486.836 16.9223 487.188 17.7955 487.39 18.8031ZM479.564 18.8031C479.564 19.4413 479.693 20.0067 479.95 20.4993C480.219 20.9807 480.583 21.3613 481.042 21.6412C481.501 21.9099 482.027 22.0443 482.621 22.0443C483.225 22.0443 483.785 21.9099 484.3 21.6412C484.815 21.3613 485.268 20.9807 485.66 20.4993C486.063 20.0067 486.382 19.4413 486.617 18.8031C486.382 18.165 486.063 17.6052 485.66 17.1238C485.268 16.6312 484.815 16.2506 484.3 15.9819C483.785 15.702 483.225 15.562 482.621 15.562C482.027 15.562 481.501 15.702 481.042 15.9819C480.583 16.2506 480.219 16.6312 479.95 17.1238C479.693 17.6052 479.564 18.165 479.564 18.8031ZM444.109 31.9607V44.5557H441.893V32.6324L443.102 33.7072L437.829 34.6308V32.8675L442.447 31.9607H444.109ZM452.148 44.7908C451.163 44.7908 450.279 44.6396 449.495 44.3374C448.722 44.0351 448.09 43.6208 447.597 43.0946C447.116 42.5685 446.808 41.9751 446.674 41.3145H448.857C449.036 41.7736 449.372 42.1654 449.864 42.4901C450.357 42.8036 451.102 42.9603 452.098 42.9603C453.117 42.9603 453.94 42.7756 454.567 42.4061C455.205 42.0255 455.669 41.4881 455.96 40.794C456.263 40.0998 456.414 39.277 456.414 38.3253C456.414 37.3177 456.246 36.4613 455.91 35.7559C455.574 35.0394 455.076 34.4964 454.415 34.127C453.755 33.7463 452.938 33.556 451.964 33.556C451.225 33.556 450.603 33.6624 450.1 33.8751C449.607 34.0766 449.232 34.3621 448.974 34.7316C448.728 35.0898 448.605 35.504 448.605 35.9743C448.605 36.3997 448.717 36.7859 448.941 37.133C449.165 37.4801 449.512 37.7544 449.982 37.9559C450.452 38.1574 451.046 38.2582 451.762 38.2582C452.736 38.2582 453.637 38.0231 454.466 37.5528C455.294 37.0826 455.983 36.4725 456.531 35.7224L457.472 36.4109C457.114 37.0938 456.638 37.7152 456.044 38.275C455.451 38.8235 454.757 39.2658 453.962 39.6016C453.178 39.9263 452.299 40.0886 451.325 40.0886C450.329 40.0886 449.456 39.9263 448.706 39.6016C447.967 39.2658 447.39 38.7955 446.976 38.191C446.573 37.5752 446.371 36.8587 446.371 36.0414C446.371 35.1906 446.601 34.4405 447.06 33.7911C447.519 33.1418 448.168 32.638 449.008 32.2797C449.848 31.9103 450.833 31.7255 451.964 31.7255C453.408 31.7255 454.623 32.0054 455.608 32.5652C456.593 33.1138 457.337 33.8807 457.841 34.8659C458.345 35.8399 458.591 36.9707 458.58 38.2582C458.591 39.5345 458.345 40.6652 457.841 41.6504C457.349 42.6244 456.621 43.3913 455.658 43.9511C454.707 44.5109 453.537 44.7908 452.148 44.7908ZM461.909 44.69C461.528 44.69 461.203 44.5557 460.935 44.287C460.666 44.0183 460.532 43.6936 460.532 43.313C460.532 42.9211 460.666 42.5964 460.935 42.3389C461.203 42.0702 461.528 41.9359 461.909 41.9359C462.3 41.9359 462.625 42.0702 462.883 42.3389C463.151 42.5964 463.286 42.9211 463.286 43.313C463.286 43.6936 463.151 44.0183 462.883 44.287C462.625 44.5557 462.3 44.69 461.909 44.69ZM461.909 38.5101C461.528 38.5101 461.203 38.3757 460.935 38.107C460.666 37.8383 460.532 37.5137 460.532 37.133C460.532 36.7412 460.666 36.4165 460.935 36.159C461.203 35.8903 461.528 35.7559 461.909 35.7559C462.3 35.7559 462.625 35.8903 462.883 36.159C463.151 36.4165 463.286 36.7412 463.286 37.133C463.286 37.5137 463.151 37.8383 462.883 38.107C462.625 38.3757 462.3 38.5101 461.909 38.5101ZM471.883 44.7908C470.506 44.7908 469.319 44.5221 468.323 43.9847C467.326 43.4361 466.559 42.6748 466.022 41.7008C465.485 40.7156 465.216 39.568 465.216 38.2582C465.216 36.9483 465.485 35.8063 466.022 34.8323C466.559 33.8471 467.326 33.0858 468.323 32.5484C469.319 31.9998 470.506 31.7255 471.883 31.7255C473.26 31.7255 474.441 31.9998 475.426 32.5484C476.423 33.0858 477.19 33.8471 477.727 34.8323C478.264 35.8063 478.533 36.9483 478.533 38.2582C478.533 39.568 478.264 40.7156 477.727 41.7008C477.19 42.6748 476.423 43.4361 475.426 43.9847C474.441 44.5221 473.26 44.7908 471.883 44.7908ZM471.883 42.9603C473.282 42.9603 474.368 42.5517 475.141 41.7344C475.913 40.9059 476.3 39.7472 476.3 38.2582C476.3 36.7691 475.913 35.616 475.141 34.7987C474.368 33.9703 473.282 33.556 471.883 33.556C470.483 33.556 469.392 33.9703 468.608 34.7987C467.836 35.616 467.449 36.7691 467.449 38.2582C467.449 39.7472 467.836 40.9059 468.608 41.7344C469.392 42.5517 470.483 42.9603 471.883 42.9603ZM486.872 44.7908C485.495 44.7908 484.308 44.5221 483.312 43.9847C482.316 43.4361 481.549 42.6748 481.011 41.7008C480.474 40.7156 480.205 39.568 480.205 38.2582C480.205 36.9483 480.474 35.8063 481.011 34.8323C481.549 33.8471 482.316 33.0858 483.312 32.5484C484.308 31.9998 485.495 31.7255 486.872 31.7255C488.249 31.7255 489.43 31.9998 490.416 32.5484C491.412 33.0858 492.179 33.8471 492.716 34.8323C493.254 35.8063 493.522 36.9483 493.522 38.2582C493.522 39.568 493.254 40.7156 492.716 41.7008C492.179 42.6748 491.412 43.4361 490.416 43.9847C489.43 44.5221 488.249 44.7908 486.872 44.7908ZM486.872 42.9603C488.272 42.9603 489.358 42.5517 490.13 41.7344C490.903 40.9059 491.289 39.7472 491.289 38.2582C491.289 36.7691 490.903 35.616 490.13 34.7987C489.358 33.9703 488.272 33.556 486.872 33.556C485.473 33.556 484.381 33.9703 483.598 34.7987C482.825 35.616 482.439 36.7691 482.439 38.2582C482.439 39.7472 482.825 40.9059 483.598 41.7344C484.381 42.5517 485.473 42.9603 486.872 42.9603Z" fill="#4192F5"/>
<path d="M351.752 680.955H358.599C359.435 680.955 360.162 681.045 360.78 681.226C361.403 681.401 361.92 681.644 362.33 681.955C362.74 682.267 363.043 682.639 363.24 683.071C363.442 683.497 363.543 683.959 363.543 684.456C363.543 685.271 363.287 685.984 362.773 686.597C363.363 686.946 363.803 687.4 364.093 687.958C364.383 688.515 364.527 689.149 364.527 689.86C364.527 690.456 364.426 690.994 364.224 691.476C364.027 691.957 363.724 692.369 363.314 692.714C362.909 693.053 362.395 693.315 361.772 693.501C361.155 693.681 360.425 693.771 359.583 693.771H351.752V680.955ZM359.599 685.875C359.823 685.875 360.042 685.883 360.255 685.9C360.622 685.55 360.805 685.151 360.805 684.702C360.805 684.238 360.622 683.88 360.255 683.628C359.894 683.371 359.364 683.243 358.665 683.243H354.351V685.875H359.599ZM359.648 691.508C360.348 691.508 360.878 691.358 361.239 691.057C361.606 690.757 361.789 690.333 361.789 689.786C361.789 689.24 361.606 688.813 361.239 688.507C360.878 688.201 360.348 688.048 359.648 688.048H354.351V691.508H359.648ZM371.538 680.955H374.293L380.493 693.771H377.762L376.737 691.615H369.251L368.258 693.771H365.52L371.538 680.955ZM375.712 689.475L372.94 683.653L370.243 689.475H375.712ZM383.084 689.959C383.548 690.221 384.019 690.459 384.494 690.672C384.975 690.88 385.473 691.057 385.987 691.205C386.5 691.347 387.039 691.456 387.602 691.533C388.17 691.609 388.774 691.648 389.414 691.648C390.185 691.648 390.841 691.599 391.382 691.5C391.923 691.396 392.363 691.257 392.702 691.082C393.047 690.902 393.295 690.688 393.448 690.442C393.607 690.196 393.686 689.928 393.686 689.639C393.686 689.174 393.492 688.808 393.104 688.54C392.716 688.267 392.117 688.13 391.308 688.13C390.953 688.13 390.578 688.155 390.185 688.204C389.791 688.247 389.392 688.297 388.988 688.351C388.589 688.406 388.192 688.458 387.799 688.507C387.411 688.551 387.044 688.573 386.7 688.573C386.126 688.573 385.574 688.499 385.044 688.351C384.519 688.204 384.051 687.982 383.641 687.687C383.237 687.392 382.914 687.023 382.674 686.58C382.433 686.137 382.313 685.621 382.313 685.03C382.313 684.681 382.359 684.333 382.452 683.989C382.551 683.645 382.704 683.317 382.912 683.005C383.125 682.688 383.398 682.396 383.732 682.128C384.065 681.854 384.467 681.619 384.937 681.422C385.413 681.226 385.959 681.073 386.577 680.963C387.2 680.848 387.908 680.791 388.701 680.791C389.275 680.791 389.851 680.824 390.431 680.889C391.01 680.95 391.573 681.037 392.12 681.152C392.672 681.267 393.202 681.406 393.711 681.57C394.219 681.729 394.692 681.906 395.129 682.103L393.99 684.202C393.629 684.044 393.241 683.899 392.825 683.768C392.41 683.631 391.975 683.513 391.521 683.415C391.068 683.317 390.598 683.24 390.111 683.185C389.63 683.125 389.138 683.095 388.635 683.095C387.919 683.095 387.329 683.147 386.864 683.251C386.405 683.355 386.038 683.489 385.765 683.653C385.492 683.811 385.3 683.992 385.191 684.194C385.087 684.391 385.035 684.588 385.035 684.784C385.035 685.167 385.208 685.481 385.552 685.727C385.896 685.968 386.421 686.088 387.126 686.088C387.411 686.088 387.736 686.069 388.102 686.031C388.474 685.987 388.862 685.941 389.266 685.891C389.676 685.842 390.092 685.798 390.513 685.76C390.939 685.716 391.352 685.695 391.751 685.695C392.505 685.695 393.172 685.779 393.752 685.949C394.337 686.118 394.826 686.362 395.22 686.679C395.613 686.99 395.911 687.37 396.113 687.818C396.316 688.261 396.417 688.759 396.417 689.311C396.417 690.049 396.245 690.707 395.9 691.287C395.561 691.861 395.075 692.347 394.441 692.746C393.812 693.14 393.052 693.441 392.161 693.648C391.27 693.851 390.278 693.952 389.184 693.952C388.463 693.952 387.758 693.905 387.069 693.812C386.38 693.725 385.719 693.599 385.085 693.435C384.456 693.266 383.855 693.066 383.281 692.837C382.712 692.602 382.184 692.345 381.698 692.066L383.084 689.959ZM399.877 689.959C400.342 690.221 400.812 690.459 401.287 690.672C401.769 690.88 402.266 691.057 402.78 691.205C403.294 691.347 403.832 691.456 404.395 691.533C404.964 691.609 405.568 691.648 406.207 691.648C406.978 691.648 407.634 691.599 408.175 691.5C408.717 691.396 409.157 691.257 409.496 691.082C409.84 690.902 410.089 690.688 410.242 690.442C410.4 690.196 410.48 689.928 410.48 689.639C410.48 689.174 410.285 688.808 409.897 688.54C409.509 688.267 408.911 688.13 408.102 688.13C407.746 688.13 407.372 688.155 406.978 688.204C406.585 688.247 406.186 688.297 405.781 688.351C405.382 688.406 404.986 688.458 404.592 688.507C404.204 688.551 403.838 688.573 403.493 688.573C402.919 688.573 402.367 688.499 401.837 688.351C401.312 688.204 400.845 687.982 400.435 687.687C400.03 687.392 399.708 687.023 399.467 686.58C399.227 686.137 399.106 685.621 399.106 685.03C399.106 684.681 399.153 684.333 399.246 683.989C399.344 683.645 399.497 683.317 399.705 683.005C399.918 682.688 400.191 682.396 400.525 682.128C400.858 681.854 401.26 681.619 401.73 681.422C402.206 681.226 402.753 681.073 403.37 680.963C403.993 680.848 404.701 680.791 405.494 680.791C406.068 680.791 406.645 680.824 407.224 680.889C407.804 680.95 408.367 681.037 408.913 681.152C409.465 681.267 409.996 681.406 410.504 681.57C411.013 681.729 411.485 681.906 411.923 682.103L410.783 684.202C410.422 684.044 410.034 683.899 409.619 683.768C409.203 683.631 408.768 683.513 408.315 683.415C407.861 683.317 407.391 683.24 406.904 683.185C406.423 683.125 405.931 683.095 405.428 683.095C404.712 683.095 404.122 683.147 403.657 683.251C403.198 683.355 402.832 683.489 402.558 683.653C402.285 683.811 402.094 683.992 401.984 684.194C401.881 684.391 401.829 684.588 401.829 684.784C401.829 685.167 402.001 685.481 402.345 685.727C402.69 685.968 403.214 686.088 403.92 686.088C404.204 686.088 404.529 686.069 404.895 686.031C405.267 685.987 405.655 685.941 406.06 685.891C406.47 685.842 406.885 685.798 407.306 685.76C407.733 685.716 408.145 685.695 408.544 685.695C409.299 685.695 409.966 685.779 410.545 685.949C411.13 686.118 411.619 686.362 412.013 686.679C412.407 686.99 412.704 687.37 412.907 687.818C413.109 688.261 413.21 688.759 413.21 689.311C413.21 690.049 413.038 690.707 412.694 691.287C412.355 691.861 411.868 692.347 411.234 692.746C410.605 693.14 409.845 693.441 408.954 693.648C408.063 693.851 407.071 693.952 405.978 693.952C405.256 693.952 404.551 693.905 403.862 693.812C403.173 693.725 402.512 693.599 401.878 693.435C401.249 693.266 400.648 693.066 400.074 692.837C399.505 692.602 398.978 692.345 398.491 692.066L399.877 689.959ZM415.375 686.342H422.894V688.163H415.375V686.342ZM426.445 689.959C426.909 690.221 427.379 690.459 427.855 690.672C428.336 690.88 428.834 691.057 429.347 691.205C429.861 691.347 430.4 691.456 430.963 691.533C431.531 691.609 432.135 691.648 432.775 691.648C433.546 691.648 434.202 691.599 434.743 691.5C435.284 691.396 435.724 691.257 436.063 691.082C436.408 690.902 436.656 690.688 436.809 690.442C436.968 690.196 437.047 689.928 437.047 689.639C437.047 689.174 436.853 688.808 436.465 688.54C436.077 688.267 435.478 688.13 434.669 688.13C434.314 688.13 433.939 688.155 433.546 688.204C433.152 688.247 432.753 688.297 432.349 688.351C431.95 688.406 431.553 688.458 431.16 688.507C430.772 688.551 430.405 688.573 430.061 688.573C429.487 688.573 428.935 688.499 428.404 688.351C427.88 688.204 427.412 687.982 427.002 687.687C426.598 687.392 426.275 687.023 426.035 686.58C425.794 686.137 425.674 685.621 425.674 685.03C425.674 684.681 425.72 684.333 425.813 683.989C425.912 683.645 426.065 683.317 426.273 683.005C426.486 682.688 426.759 682.396 427.092 682.128C427.426 681.854 427.828 681.619 428.298 681.422C428.773 681.226 429.32 681.073 429.938 680.963C430.561 680.848 431.269 680.791 432.062 680.791C432.636 680.791 433.212 680.824 433.792 680.889C434.371 680.95 434.934 681.037 435.481 681.152C436.033 681.267 436.563 681.406 437.072 681.57C437.58 681.729 438.053 681.906 438.49 682.103L437.351 684.202C436.99 684.044 436.602 683.899 436.186 683.768C435.771 683.631 435.336 683.513 434.882 683.415C434.429 683.317 433.959 683.24 433.472 683.185C432.991 683.125 432.499 683.095 431.996 683.095C431.28 683.095 430.69 683.147 430.225 683.251C429.766 683.355 429.399 683.489 429.126 683.653C428.853 683.811 428.661 683.992 428.552 684.194C428.448 684.391 428.396 684.588 428.396 684.784C428.396 685.167 428.568 685.481 428.913 685.727C429.257 685.968 429.782 686.088 430.487 686.088C430.772 686.088 431.097 686.069 431.463 686.031C431.835 685.987 432.223 685.941 432.627 685.891C433.037 685.842 433.453 685.798 433.874 685.76C434.3 685.716 434.713 685.695 435.112 685.695C435.866 685.695 436.533 685.779 437.113 685.949C437.698 686.118 438.187 686.362 438.581 686.679C438.974 686.99 439.272 687.37 439.474 687.818C439.677 688.261 439.778 688.759 439.778 689.311C439.778 690.049 439.606 690.707 439.261 691.287C438.922 691.861 438.436 692.347 437.802 692.746C437.173 693.14 436.413 693.441 435.522 693.648C434.631 693.851 433.639 693.952 432.545 693.952C431.824 693.952 431.119 693.905 430.43 693.812C429.741 693.725 429.08 693.599 428.445 693.435C427.817 693.266 427.215 693.066 426.642 692.837C426.073 692.602 425.545 692.345 425.059 692.066L426.445 689.959ZM442.639 680.955H449.396C450.38 680.955 451.233 681.062 451.955 681.275C452.676 681.488 453.275 681.797 453.75 682.201C454.226 682.601 454.578 683.09 454.808 683.669C455.043 684.249 455.161 684.902 455.161 685.629C455.161 686.312 455.046 686.944 454.816 687.523C454.587 688.103 454.234 688.606 453.758 689.032C453.288 689.453 452.693 689.784 451.971 690.024C451.249 690.259 450.397 690.377 449.413 690.377L445.239 690.369V693.771H442.639V680.955ZM449.462 688.122C449.954 688.122 450.383 688.064 450.749 687.95C451.121 687.829 451.43 687.663 451.676 687.449C451.927 687.231 452.113 686.968 452.233 686.662C452.359 686.351 452.422 686.006 452.422 685.629C452.422 684.869 452.173 684.279 451.676 683.858C451.184 683.431 450.446 683.218 449.462 683.218H445.239V688.122H449.462ZM457.252 687.326C457.252 686.359 457.429 685.473 457.785 684.67C458.14 683.866 458.637 683.177 459.277 682.603C459.922 682.024 460.693 681.576 461.589 681.258C462.491 680.941 463.489 680.783 464.582 680.783C465.67 680.783 466.665 680.941 467.567 681.258C468.469 681.576 469.24 682.024 469.879 682.603C470.525 683.177 471.025 683.866 471.38 684.67C471.735 685.473 471.913 686.359 471.913 687.326C471.913 688.299 471.735 689.193 471.38 690.008C471.025 690.817 470.525 691.514 469.879 692.099C469.24 692.684 468.469 693.14 467.567 693.468C466.665 693.791 465.67 693.952 464.582 693.952C463.489 693.952 462.491 693.791 461.589 693.468C460.693 693.14 459.922 692.684 459.277 692.099C458.637 691.514 458.14 690.817 457.785 690.008C457.429 689.193 457.252 688.299 457.252 687.326ZM459.851 687.326C459.851 687.988 459.969 688.584 460.204 689.114C460.444 689.644 460.775 690.098 461.196 690.475C461.622 690.847 462.122 691.134 462.696 691.336C463.276 691.538 463.904 691.64 464.582 691.64C465.26 691.64 465.886 691.538 466.46 691.336C467.04 691.134 467.54 690.847 467.961 690.475C468.382 690.098 468.712 689.644 468.953 689.114C469.193 688.584 469.314 687.988 469.314 687.326C469.314 686.665 469.193 686.072 468.953 685.547C468.712 685.022 468.382 684.579 467.961 684.219C467.54 683.852 467.04 683.574 466.46 683.382C465.886 683.191 465.26 683.095 464.582 683.095C463.904 683.095 463.276 683.191 462.696 683.382C462.122 683.574 461.622 683.852 461.196 684.219C460.775 684.579 460.444 685.022 460.204 685.547C459.969 686.072 459.851 686.665 459.851 687.326ZM478.662 683.235H473.93V680.955H485.992V683.235H481.261V693.771H478.662V683.235Z" fill="#4192F5"/>
</g>
<defs>
<clipPath id="clip0_44_106">
<rect width="499.602" height="707" fill="white" transform="translate(0.630859)"/>
</clipPath>
</defs>
</svg>
