<svg width="1886" height="1091" viewBox="0 0 1886 1091" fill="none" xmlns="http://www.w3.org/2000/svg">
<line x1="943.818" x2="943.818" y2="1090.77" stroke="white" stroke-width="2.88911"/>
<path d="M942.505 311.104C1053.88 311.104 1154.65 336.841 1227.52 378.379C1300.43 419.941 1345.14 477.138 1345.14 540C1345.14 602.863 1300.43 660.059 1227.52 701.621C1154.65 743.159 1053.88 768.896 942.505 768.896C831.126 768.896 730.361 743.158 657.492 701.621C584.582 660.059 539.868 602.863 539.868 540C539.868 477.138 584.582 419.941 657.492 378.379C730.361 336.842 831.126 311.104 942.505 311.104Z" fill="white" stroke="#0073FF" stroke-width="2.88911"/>
<mask id="path-3-outside-1_72_5434" maskUnits="userSpaceOnUse" x="681.626" y="369.784" width="522" height="339" fill="black">
<rect fill="white" x="681.626" y="369.784" width="522" height="339"/>
<path d="M711.975 437.976H749.699C760.42 437.976 768.097 436.122 772.73 432.416C777.495 428.578 779.878 422.886 779.878 415.341C779.878 410.311 779.084 406.34 777.495 403.428C775.907 400.516 773.723 398.266 770.943 396.678C768.163 395.089 764.921 394.097 761.214 393.7C757.64 393.17 753.802 392.905 749.699 392.905H711.975V437.976ZM693.113 377.022H744.536C747.581 377.022 750.824 377.088 754.265 377.22C757.839 377.22 761.347 377.419 764.788 377.816C768.23 378.08 771.406 378.544 774.318 379.206C777.363 379.867 779.944 380.86 782.062 382.184C786.695 384.963 790.599 388.802 793.776 393.7C797.085 398.597 798.74 404.62 798.74 411.767C798.74 419.312 796.887 425.864 793.18 431.423C789.607 436.85 784.444 440.888 777.694 443.535V443.932C786.43 445.785 793.114 449.756 797.747 455.845C802.38 461.934 804.696 469.346 804.696 478.082C804.696 483.244 803.77 488.274 801.916 493.172C800.063 498.069 797.284 502.437 793.577 506.276C790.004 509.982 785.503 513.026 780.076 515.409C774.782 517.659 768.627 518.784 761.611 518.784H693.113V377.022ZM711.975 502.9H759.229C767.568 502.9 774.054 500.65 778.686 496.15C783.452 491.649 785.834 485.428 785.834 477.486C785.834 472.854 784.974 469.015 783.253 465.971C781.532 462.926 779.216 460.544 776.304 458.823C773.524 456.97 770.281 455.712 766.575 455.051C762.869 454.256 759.03 453.859 755.059 453.859H711.975V502.9ZM853.453 460.213H901.502L877.875 394.097H877.478L853.453 460.213ZM867.55 377.022H888.398L943.792 518.784H922.945L907.458 476.097H847.497L831.613 518.784H812.354L867.55 377.022ZM1039.78 418.518C1038.72 408.326 1035.01 400.98 1028.66 396.479C1022.44 391.846 1014.43 389.53 1004.63 389.53C1000.66 389.53 996.759 389.927 992.92 390.721C989.082 391.515 985.64 392.839 982.596 394.692C979.684 396.545 977.301 399.06 975.448 402.237C973.727 405.281 972.867 409.12 972.867 413.753C972.867 418.121 974.124 421.695 976.639 424.474C979.287 427.122 982.728 429.306 986.964 431.026C991.332 432.747 996.229 434.203 1001.66 435.394C1007.08 436.453 1012.58 437.645 1018.14 438.968C1023.83 440.292 1029.39 441.88 1034.81 443.733C1040.24 445.454 1045.07 447.837 1049.31 450.881C1053.68 453.925 1057.12 457.764 1059.63 462.397C1062.28 467.03 1063.6 472.854 1063.6 479.869C1063.6 487.414 1061.88 493.9 1058.44 499.327C1055.13 504.621 1050.83 508.989 1045.54 512.431C1040.24 515.74 1034.28 518.122 1027.67 519.578C1021.18 521.167 1014.69 521.961 1008.21 521.961C1000.27 521.961 992.722 520.968 985.574 518.983C978.559 516.997 972.338 514.019 966.911 510.048C961.616 505.945 957.38 500.783 954.204 494.561C951.159 488.208 949.637 480.729 949.637 472.126H967.506C967.506 478.082 968.631 483.244 970.882 487.612C973.264 491.848 976.309 495.356 980.015 498.135C983.853 500.915 988.288 502.967 993.317 504.29C998.347 505.614 1003.51 506.276 1008.8 506.276C1013.04 506.276 1017.28 505.879 1021.51 505.084C1025.88 504.29 1029.78 502.967 1033.23 501.113C1036.67 499.128 1039.45 496.481 1041.56 493.172C1043.68 489.862 1044.74 485.627 1044.74 480.465C1044.74 475.567 1043.42 471.596 1040.77 468.552C1038.26 465.507 1034.81 463.059 1030.45 461.206C1026.21 459.22 1021.38 457.632 1015.95 456.44C1010.52 455.249 1004.97 454.058 999.274 452.867C993.714 451.543 988.221 450.087 982.794 448.499C977.367 446.778 972.47 444.594 968.102 441.946C963.866 439.167 960.425 435.659 957.777 431.423C955.263 427.055 954.005 421.628 954.005 415.143C954.005 407.995 955.461 401.84 958.373 396.678C961.285 391.383 965.124 387.081 969.889 383.772C974.786 380.331 980.279 377.816 986.368 376.227C992.589 374.507 998.943 373.646 1005.43 373.646C1012.71 373.646 1019.46 374.507 1025.68 376.227C1031.9 377.948 1037.33 380.662 1041.96 384.368C1046.73 388.074 1050.43 392.773 1053.08 398.465C1055.86 404.024 1057.38 410.708 1057.65 418.518H1039.78ZM1168.52 418.518C1167.46 408.326 1163.76 400.98 1157.4 396.479C1151.18 391.846 1143.17 389.53 1133.38 389.53C1129.41 389.53 1125.5 389.927 1121.67 390.721C1117.83 391.515 1114.39 392.839 1111.34 394.692C1108.43 396.545 1106.05 399.06 1104.19 402.237C1102.47 405.281 1101.61 409.12 1101.61 413.753C1101.61 418.121 1102.87 421.695 1105.38 424.474C1108.03 427.122 1111.47 429.306 1115.71 431.026C1120.08 432.747 1124.97 434.203 1130.4 435.394C1135.83 436.453 1141.32 437.645 1146.88 438.968C1152.57 440.292 1158.13 441.88 1163.56 443.733C1168.99 445.454 1173.82 447.837 1178.05 450.881C1182.42 453.925 1185.86 457.764 1188.38 462.397C1191.02 467.03 1192.35 472.854 1192.35 479.869C1192.35 487.414 1190.63 493.9 1187.19 499.327C1183.88 504.621 1179.58 508.989 1174.28 512.431C1168.99 515.74 1163.03 518.122 1156.41 519.578C1149.93 521.167 1143.44 521.961 1136.95 521.961C1129.01 521.961 1121.47 520.968 1114.32 518.983C1107.3 516.997 1101.08 514.019 1095.66 510.048C1090.36 505.945 1086.13 500.783 1082.95 494.561C1079.9 488.208 1078.38 480.729 1078.38 472.126H1096.25C1096.25 478.082 1097.38 483.244 1099.63 487.612C1102.01 491.848 1105.05 495.356 1108.76 498.135C1112.6 500.915 1117.03 502.967 1122.06 504.29C1127.09 505.614 1132.25 506.276 1137.55 506.276C1141.79 506.276 1146.02 505.879 1150.26 505.084C1154.62 504.29 1158.53 502.967 1161.97 501.113C1165.41 499.128 1168.19 496.481 1170.31 493.172C1172.43 489.862 1173.49 485.627 1173.49 480.465C1173.49 475.567 1172.16 471.596 1169.52 468.552C1167 465.507 1163.56 463.059 1159.19 461.206C1154.96 459.22 1150.12 457.632 1144.7 456.44C1139.27 455.249 1133.71 454.058 1128.02 452.867C1122.46 451.543 1116.97 450.087 1111.54 448.499C1106.11 446.778 1101.22 444.594 1096.85 441.946C1092.61 439.167 1089.17 435.659 1086.52 431.423C1084.01 427.055 1082.75 421.628 1082.75 415.143C1082.75 407.995 1084.21 401.84 1087.12 396.678C1090.03 391.383 1093.87 387.081 1098.63 383.772C1103.53 380.331 1109.02 377.816 1115.11 376.227C1121.33 374.507 1127.69 373.646 1134.17 373.646C1141.45 373.646 1148.2 374.507 1154.43 376.227C1160.65 377.948 1166.07 380.662 1170.71 384.368C1175.47 388.074 1179.18 392.773 1181.83 398.465C1184.61 404.024 1186.13 410.708 1186.39 418.518H1168.52ZM775.113 601.518C774.054 591.326 770.347 583.98 763.994 579.479C757.773 574.846 749.765 572.53 739.97 572.53C735.999 572.53 732.094 572.927 728.255 573.721C724.417 574.515 720.975 575.839 717.931 577.692C715.019 579.545 712.636 582.06 710.783 585.237C709.063 588.281 708.202 592.12 708.202 596.753C708.202 601.121 709.46 604.695 711.975 607.474C714.622 610.122 718.063 612.306 722.299 614.026C726.667 615.747 731.565 617.203 736.992 618.394C742.419 619.453 747.912 620.645 753.471 621.968C759.163 623.292 764.722 624.88 770.149 626.733C775.576 628.454 780.407 630.837 784.643 633.881C789.011 636.925 792.452 640.764 794.967 645.397C797.615 650.03 798.938 655.854 798.938 662.869C798.938 670.414 797.217 676.9 793.776 682.327C790.467 687.621 786.165 691.989 780.87 695.431C775.576 698.74 769.619 701.122 763.001 702.578C756.515 704.167 750.029 704.961 743.544 704.961C735.602 704.961 728.057 703.968 720.909 701.983C713.894 699.997 707.673 697.019 702.246 693.048C696.951 688.945 692.716 683.783 689.539 677.561C686.494 671.208 684.972 663.729 684.972 655.126H702.841C702.841 661.082 703.967 666.244 706.217 670.612C708.599 674.848 711.644 678.356 715.35 681.135C719.188 683.915 723.623 685.967 728.653 687.29C733.682 688.614 738.845 689.276 744.139 689.276C748.375 689.276 752.611 688.879 756.846 688.084C761.214 687.29 765.119 685.967 768.561 684.113C772.002 682.128 774.782 679.481 776.9 676.172C779.017 672.862 780.076 668.627 780.076 663.465C780.076 658.567 778.753 654.596 776.105 651.552C773.59 648.507 770.149 646.059 765.781 644.206C761.545 642.22 756.714 640.632 751.287 639.44C745.86 638.249 740.301 637.058 734.609 635.867C729.05 634.543 723.557 633.087 718.13 631.499C712.703 629.778 707.805 627.594 703.437 624.946C699.201 622.167 695.76 618.659 693.113 614.423C690.598 610.055 689.34 604.628 689.34 598.143C689.34 590.995 690.796 584.84 693.708 579.678C696.62 574.383 700.459 570.081 705.224 566.772C710.122 563.331 715.615 560.816 721.703 559.227C727.925 557.507 734.278 556.646 740.764 556.646C748.044 556.646 754.795 557.507 761.016 559.227C767.237 560.948 772.664 563.662 777.297 567.368C782.062 571.074 785.768 575.773 788.415 581.465C791.195 587.024 792.717 593.708 792.982 601.518H775.113ZM840.72 627.925H877.65C888.371 628.057 896.181 625.873 901.078 621.373C906.108 616.872 908.623 610.386 908.623 601.915C908.623 593.444 906.108 587.024 901.078 582.656C896.181 578.156 888.371 575.905 877.65 575.905H840.72V627.925ZM821.858 560.022H884.003C898.299 560.022 909.086 563.728 916.366 571.14C923.779 578.42 927.485 588.679 927.485 601.915C927.485 615.151 923.779 625.476 916.366 632.888C909.086 640.301 898.299 643.941 884.003 643.808H840.72V701.784H821.858V560.022ZM961.523 630.903C961.523 638.051 962.45 645.132 964.303 652.147C966.156 659.03 969.068 665.252 973.039 670.811C977.01 676.37 982.106 680.871 988.327 684.312C994.548 687.621 1001.96 689.276 1010.56 689.276C1019.17 689.276 1026.58 687.621 1032.8 684.312C1039.02 680.871 1044.12 676.37 1048.09 670.811C1052.06 665.252 1054.97 659.03 1056.83 652.147C1058.68 645.132 1059.61 638.051 1059.61 630.903C1059.61 623.755 1058.68 616.74 1056.83 609.857C1054.97 602.842 1052.06 596.554 1048.09 590.995C1044.12 585.436 1039.02 581.001 1032.8 577.692C1026.58 574.251 1019.17 572.53 1010.56 572.53C1001.96 572.53 994.548 574.251 988.327 577.692C982.106 581.001 977.01 585.436 973.039 590.995C969.068 596.554 966.156 602.842 964.303 609.857C962.45 616.74 961.523 623.755 961.523 630.903ZM942.661 630.903C942.661 621.24 944.051 611.975 946.831 603.106C949.743 594.105 954.045 586.164 959.737 579.281C965.428 572.398 972.51 566.905 980.981 562.801C989.452 558.698 999.314 556.646 1010.56 556.646C1021.82 556.646 1031.68 558.698 1040.15 562.801C1048.62 566.905 1055.7 572.398 1061.39 579.281C1067.08 586.164 1071.32 594.105 1074.1 603.106C1077.01 611.975 1078.47 621.24 1078.47 630.903C1078.47 640.565 1077.01 649.897 1074.1 658.898C1071.32 667.766 1067.08 675.642 1061.39 682.525C1055.7 689.408 1048.62 694.901 1040.15 699.005C1031.68 702.975 1021.82 704.961 1010.56 704.961C999.314 704.961 989.452 702.975 980.981 699.005C972.51 694.901 965.428 689.408 959.737 682.525C954.045 675.642 949.743 667.766 946.831 658.898C944.051 649.897 942.661 640.565 942.661 630.903ZM1133.62 575.905H1086.36V560.022H1199.73V575.905H1152.48V701.784H1133.62V575.905Z"/>
</mask>
<path d="M711.975 437.976H749.699C760.42 437.976 768.097 436.122 772.73 432.416C777.495 428.578 779.878 422.886 779.878 415.341C779.878 410.311 779.084 406.34 777.495 403.428C775.907 400.516 773.723 398.266 770.943 396.678C768.163 395.089 764.921 394.097 761.214 393.7C757.64 393.17 753.802 392.905 749.699 392.905H711.975V437.976ZM693.113 377.022H744.536C747.581 377.022 750.824 377.088 754.265 377.22C757.839 377.22 761.347 377.419 764.788 377.816C768.23 378.08 771.406 378.544 774.318 379.206C777.363 379.867 779.944 380.86 782.062 382.184C786.695 384.963 790.599 388.802 793.776 393.7C797.085 398.597 798.74 404.62 798.74 411.767C798.74 419.312 796.887 425.864 793.18 431.423C789.607 436.85 784.444 440.888 777.694 443.535V443.932C786.43 445.785 793.114 449.756 797.747 455.845C802.38 461.934 804.696 469.346 804.696 478.082C804.696 483.244 803.77 488.274 801.916 493.172C800.063 498.069 797.284 502.437 793.577 506.276C790.004 509.982 785.503 513.026 780.076 515.409C774.782 517.659 768.627 518.784 761.611 518.784H693.113V377.022ZM711.975 502.9H759.229C767.568 502.9 774.054 500.65 778.686 496.15C783.452 491.649 785.834 485.428 785.834 477.486C785.834 472.854 784.974 469.015 783.253 465.971C781.532 462.926 779.216 460.544 776.304 458.823C773.524 456.97 770.281 455.712 766.575 455.051C762.869 454.256 759.03 453.859 755.059 453.859H711.975V502.9ZM853.453 460.213H901.502L877.875 394.097H877.478L853.453 460.213ZM867.55 377.022H888.398L943.792 518.784H922.945L907.458 476.097H847.497L831.613 518.784H812.354L867.55 377.022ZM1039.78 418.518C1038.72 408.326 1035.01 400.98 1028.66 396.479C1022.44 391.846 1014.43 389.53 1004.63 389.53C1000.66 389.53 996.759 389.927 992.92 390.721C989.082 391.515 985.64 392.839 982.596 394.692C979.684 396.545 977.301 399.06 975.448 402.237C973.727 405.281 972.867 409.12 972.867 413.753C972.867 418.121 974.124 421.695 976.639 424.474C979.287 427.122 982.728 429.306 986.964 431.026C991.332 432.747 996.229 434.203 1001.66 435.394C1007.08 436.453 1012.58 437.645 1018.14 438.968C1023.83 440.292 1029.39 441.88 1034.81 443.733C1040.24 445.454 1045.07 447.837 1049.31 450.881C1053.68 453.925 1057.12 457.764 1059.63 462.397C1062.28 467.03 1063.6 472.854 1063.6 479.869C1063.6 487.414 1061.88 493.9 1058.44 499.327C1055.13 504.621 1050.83 508.989 1045.54 512.431C1040.24 515.74 1034.28 518.122 1027.67 519.578C1021.18 521.167 1014.69 521.961 1008.21 521.961C1000.27 521.961 992.722 520.968 985.574 518.983C978.559 516.997 972.338 514.019 966.911 510.048C961.616 505.945 957.38 500.783 954.204 494.561C951.159 488.208 949.637 480.729 949.637 472.126H967.506C967.506 478.082 968.631 483.244 970.882 487.612C973.264 491.848 976.309 495.356 980.015 498.135C983.853 500.915 988.288 502.967 993.317 504.29C998.347 505.614 1003.51 506.276 1008.8 506.276C1013.04 506.276 1017.28 505.879 1021.51 505.084C1025.88 504.29 1029.78 502.967 1033.23 501.113C1036.67 499.128 1039.45 496.481 1041.56 493.172C1043.68 489.862 1044.74 485.627 1044.74 480.465C1044.74 475.567 1043.42 471.596 1040.77 468.552C1038.26 465.507 1034.81 463.059 1030.45 461.206C1026.21 459.22 1021.38 457.632 1015.95 456.44C1010.52 455.249 1004.97 454.058 999.274 452.867C993.714 451.543 988.221 450.087 982.794 448.499C977.367 446.778 972.47 444.594 968.102 441.946C963.866 439.167 960.425 435.659 957.777 431.423C955.263 427.055 954.005 421.628 954.005 415.143C954.005 407.995 955.461 401.84 958.373 396.678C961.285 391.383 965.124 387.081 969.889 383.772C974.786 380.331 980.279 377.816 986.368 376.227C992.589 374.507 998.943 373.646 1005.43 373.646C1012.71 373.646 1019.46 374.507 1025.68 376.227C1031.9 377.948 1037.33 380.662 1041.96 384.368C1046.73 388.074 1050.43 392.773 1053.08 398.465C1055.86 404.024 1057.38 410.708 1057.65 418.518H1039.78ZM1168.52 418.518C1167.46 408.326 1163.76 400.98 1157.4 396.479C1151.18 391.846 1143.17 389.53 1133.38 389.53C1129.41 389.53 1125.5 389.927 1121.67 390.721C1117.83 391.515 1114.39 392.839 1111.34 394.692C1108.43 396.545 1106.05 399.06 1104.19 402.237C1102.47 405.281 1101.61 409.12 1101.61 413.753C1101.61 418.121 1102.87 421.695 1105.38 424.474C1108.03 427.122 1111.47 429.306 1115.71 431.026C1120.08 432.747 1124.97 434.203 1130.4 435.394C1135.83 436.453 1141.32 437.645 1146.88 438.968C1152.57 440.292 1158.13 441.88 1163.56 443.733C1168.99 445.454 1173.82 447.837 1178.05 450.881C1182.42 453.925 1185.86 457.764 1188.38 462.397C1191.02 467.03 1192.35 472.854 1192.35 479.869C1192.35 487.414 1190.63 493.9 1187.19 499.327C1183.88 504.621 1179.58 508.989 1174.28 512.431C1168.99 515.74 1163.03 518.122 1156.41 519.578C1149.93 521.167 1143.44 521.961 1136.95 521.961C1129.01 521.961 1121.47 520.968 1114.32 518.983C1107.3 516.997 1101.08 514.019 1095.66 510.048C1090.36 505.945 1086.13 500.783 1082.95 494.561C1079.9 488.208 1078.38 480.729 1078.38 472.126H1096.25C1096.25 478.082 1097.38 483.244 1099.63 487.612C1102.01 491.848 1105.05 495.356 1108.76 498.135C1112.6 500.915 1117.03 502.967 1122.06 504.29C1127.09 505.614 1132.25 506.276 1137.55 506.276C1141.79 506.276 1146.02 505.879 1150.26 505.084C1154.62 504.29 1158.53 502.967 1161.97 501.113C1165.41 499.128 1168.19 496.481 1170.31 493.172C1172.43 489.862 1173.49 485.627 1173.49 480.465C1173.49 475.567 1172.16 471.596 1169.52 468.552C1167 465.507 1163.56 463.059 1159.19 461.206C1154.96 459.22 1150.12 457.632 1144.7 456.44C1139.27 455.249 1133.71 454.058 1128.02 452.867C1122.46 451.543 1116.97 450.087 1111.54 448.499C1106.11 446.778 1101.22 444.594 1096.85 441.946C1092.61 439.167 1089.17 435.659 1086.52 431.423C1084.01 427.055 1082.75 421.628 1082.75 415.143C1082.75 407.995 1084.21 401.84 1087.12 396.678C1090.03 391.383 1093.87 387.081 1098.63 383.772C1103.53 380.331 1109.02 377.816 1115.11 376.227C1121.33 374.507 1127.69 373.646 1134.17 373.646C1141.45 373.646 1148.2 374.507 1154.43 376.227C1160.65 377.948 1166.07 380.662 1170.71 384.368C1175.47 388.074 1179.18 392.773 1181.83 398.465C1184.61 404.024 1186.13 410.708 1186.39 418.518H1168.52ZM775.113 601.518C774.054 591.326 770.347 583.98 763.994 579.479C757.773 574.846 749.765 572.53 739.97 572.53C735.999 572.53 732.094 572.927 728.255 573.721C724.417 574.515 720.975 575.839 717.931 577.692C715.019 579.545 712.636 582.06 710.783 585.237C709.063 588.281 708.202 592.12 708.202 596.753C708.202 601.121 709.46 604.695 711.975 607.474C714.622 610.122 718.063 612.306 722.299 614.026C726.667 615.747 731.565 617.203 736.992 618.394C742.419 619.453 747.912 620.645 753.471 621.968C759.163 623.292 764.722 624.88 770.149 626.733C775.576 628.454 780.407 630.837 784.643 633.881C789.011 636.925 792.452 640.764 794.967 645.397C797.615 650.03 798.938 655.854 798.938 662.869C798.938 670.414 797.217 676.9 793.776 682.327C790.467 687.621 786.165 691.989 780.87 695.431C775.576 698.74 769.619 701.122 763.001 702.578C756.515 704.167 750.029 704.961 743.544 704.961C735.602 704.961 728.057 703.968 720.909 701.983C713.894 699.997 707.673 697.019 702.246 693.048C696.951 688.945 692.716 683.783 689.539 677.561C686.494 671.208 684.972 663.729 684.972 655.126H702.841C702.841 661.082 703.967 666.244 706.217 670.612C708.599 674.848 711.644 678.356 715.35 681.135C719.188 683.915 723.623 685.967 728.653 687.29C733.682 688.614 738.845 689.276 744.139 689.276C748.375 689.276 752.611 688.879 756.846 688.084C761.214 687.29 765.119 685.967 768.561 684.113C772.002 682.128 774.782 679.481 776.9 676.172C779.017 672.862 780.076 668.627 780.076 663.465C780.076 658.567 778.753 654.596 776.105 651.552C773.59 648.507 770.149 646.059 765.781 644.206C761.545 642.22 756.714 640.632 751.287 639.44C745.86 638.249 740.301 637.058 734.609 635.867C729.05 634.543 723.557 633.087 718.13 631.499C712.703 629.778 707.805 627.594 703.437 624.946C699.201 622.167 695.76 618.659 693.113 614.423C690.598 610.055 689.34 604.628 689.34 598.143C689.34 590.995 690.796 584.84 693.708 579.678C696.62 574.383 700.459 570.081 705.224 566.772C710.122 563.331 715.615 560.816 721.703 559.227C727.925 557.507 734.278 556.646 740.764 556.646C748.044 556.646 754.795 557.507 761.016 559.227C767.237 560.948 772.664 563.662 777.297 567.368C782.062 571.074 785.768 575.773 788.415 581.465C791.195 587.024 792.717 593.708 792.982 601.518H775.113ZM840.72 627.925H877.65C888.371 628.057 896.181 625.873 901.078 621.373C906.108 616.872 908.623 610.386 908.623 601.915C908.623 593.444 906.108 587.024 901.078 582.656C896.181 578.156 888.371 575.905 877.65 575.905H840.72V627.925ZM821.858 560.022H884.003C898.299 560.022 909.086 563.728 916.366 571.14C923.779 578.42 927.485 588.679 927.485 601.915C927.485 615.151 923.779 625.476 916.366 632.888C909.086 640.301 898.299 643.941 884.003 643.808H840.72V701.784H821.858V560.022ZM961.523 630.903C961.523 638.051 962.45 645.132 964.303 652.147C966.156 659.03 969.068 665.252 973.039 670.811C977.01 676.37 982.106 680.871 988.327 684.312C994.548 687.621 1001.96 689.276 1010.56 689.276C1019.17 689.276 1026.58 687.621 1032.8 684.312C1039.02 680.871 1044.12 676.37 1048.09 670.811C1052.06 665.252 1054.97 659.03 1056.83 652.147C1058.68 645.132 1059.61 638.051 1059.61 630.903C1059.61 623.755 1058.68 616.74 1056.83 609.857C1054.97 602.842 1052.06 596.554 1048.09 590.995C1044.12 585.436 1039.02 581.001 1032.8 577.692C1026.58 574.251 1019.17 572.53 1010.56 572.53C1001.96 572.53 994.548 574.251 988.327 577.692C982.106 581.001 977.01 585.436 973.039 590.995C969.068 596.554 966.156 602.842 964.303 609.857C962.45 616.74 961.523 623.755 961.523 630.903ZM942.661 630.903C942.661 621.24 944.051 611.975 946.831 603.106C949.743 594.105 954.045 586.164 959.737 579.281C965.428 572.398 972.51 566.905 980.981 562.801C989.452 558.698 999.314 556.646 1010.56 556.646C1021.82 556.646 1031.68 558.698 1040.15 562.801C1048.62 566.905 1055.7 572.398 1061.39 579.281C1067.08 586.164 1071.32 594.105 1074.1 603.106C1077.01 611.975 1078.47 621.24 1078.47 630.903C1078.47 640.565 1077.01 649.897 1074.1 658.898C1071.32 667.766 1067.08 675.642 1061.39 682.525C1055.7 689.408 1048.62 694.901 1040.15 699.005C1031.68 702.975 1021.82 704.961 1010.56 704.961C999.314 704.961 989.452 702.975 980.981 699.005C972.51 694.901 965.428 689.408 959.737 682.525C954.045 675.642 949.743 667.766 946.831 658.898C944.051 649.897 942.661 640.565 942.661 630.903ZM1133.62 575.905H1086.36V560.022H1199.73V575.905H1152.48V701.784H1133.62V575.905Z" fill="white"/>
<path d="M711.975 437.976H708.975V440.976H711.975V437.976ZM772.73 432.416L774.604 434.759L774.612 434.752L772.73 432.416ZM777.495 403.428L774.861 404.865L774.861 404.865L777.495 403.428ZM770.943 396.678L769.455 399.282L769.455 399.282L770.943 396.678ZM761.214 393.7L760.775 396.667L760.835 396.676L760.895 396.682L761.214 393.7ZM711.975 392.905V389.905H708.975V392.905H711.975ZM693.113 377.022V374.022H690.113V377.022H693.113ZM754.265 377.22L754.15 380.218L754.207 380.22H754.265V377.22ZM764.788 377.816L764.444 380.796L764.501 380.803L764.558 380.807L764.788 377.816ZM774.318 379.206L773.654 382.131L773.667 382.134L773.681 382.137L774.318 379.206ZM782.062 382.184L780.472 384.728L780.495 384.742L780.518 384.756L782.062 382.184ZM793.776 393.7L791.259 395.332L791.274 395.356L791.29 395.379L793.776 393.7ZM793.18 431.423L790.684 429.759L790.68 429.766L790.675 429.773L793.18 431.423ZM777.694 443.535L776.598 440.742L774.694 441.489V443.535H777.694ZM777.694 443.932H774.694V446.362L777.071 446.867L777.694 443.932ZM797.747 455.845L795.359 457.661L795.359 457.661L797.747 455.845ZM793.577 506.276L791.419 504.192L791.418 504.193L793.577 506.276ZM780.076 515.409L781.25 518.17L781.266 518.163L781.282 518.156L780.076 515.409ZM693.113 518.784H690.113V521.784H693.113V518.784ZM711.975 502.9H708.975V505.9H711.975V502.9ZM778.686 496.15L776.627 493.969L776.611 493.983L776.596 493.998L778.686 496.15ZM783.253 465.971L780.641 467.447L780.641 467.447L783.253 465.971ZM776.304 458.823L774.64 461.319L774.708 461.364L774.778 461.406L776.304 458.823ZM766.575 455.051L765.946 457.984L765.997 457.995L766.048 458.004L766.575 455.051ZM711.975 453.859V450.859H708.975V453.859H711.975ZM711.975 437.976V440.976H749.699V437.976V434.976H711.975V437.976ZM749.699 437.976V440.976C760.615 440.976 769.155 439.118 774.604 434.759L772.73 432.416L770.856 430.074C767.04 433.127 760.225 434.976 749.699 434.976V437.976ZM772.73 432.416L774.612 434.752C780.247 430.213 782.878 423.561 782.878 415.341H779.878H776.878C776.878 422.211 774.743 426.942 770.848 430.08L772.73 432.416ZM779.878 415.341H782.878C782.878 410.047 782.05 405.514 780.129 401.992L777.495 403.428L774.861 404.865C776.117 407.166 776.878 410.575 776.878 415.341H779.878ZM777.495 403.428L780.129 401.992C778.284 398.61 775.712 395.947 772.432 394.073L770.943 396.678L769.455 399.282C771.734 400.585 773.529 402.422 774.861 404.865L777.495 403.428ZM770.943 396.678L772.432 394.073C769.238 392.248 765.585 391.151 761.534 390.717L761.214 393.7L760.895 396.682C764.256 397.043 767.089 397.93 769.455 399.282L770.943 396.678ZM761.214 393.7L761.654 390.732C757.917 390.178 753.93 389.905 749.699 389.905V392.905V395.905C753.674 395.905 757.364 396.162 760.775 396.667L761.214 393.7ZM749.699 392.905V389.905H711.975V392.905V395.905H749.699V392.905ZM711.975 392.905H708.975V437.976H711.975H714.975V392.905H711.975ZM693.113 377.022V380.022H744.536V377.022V374.022H693.113V377.022ZM744.536 377.022V380.022C747.538 380.022 750.742 380.087 754.15 380.218L754.265 377.22L754.38 374.222C750.905 374.089 747.624 374.022 744.536 374.022V377.022ZM754.265 377.22V380.22C757.728 380.22 761.12 380.412 764.444 380.796L764.788 377.816L765.132 374.836C761.573 374.425 757.95 374.22 754.265 374.22V377.22ZM764.788 377.816L764.558 380.807C767.875 381.062 770.905 381.506 773.654 382.131L774.318 379.206L774.983 376.28C771.908 375.581 768.584 375.099 765.018 374.825L764.788 377.816ZM774.318 379.206L773.681 382.137C776.468 382.743 778.709 383.626 780.472 384.728L782.062 382.184L783.652 379.64C781.179 378.094 778.257 376.992 774.956 376.274L774.318 379.206ZM782.062 382.184L780.518 384.756C784.728 387.282 788.311 390.786 791.259 395.332L793.776 393.7L796.293 392.067C792.888 386.818 788.661 382.645 783.605 379.611L782.062 382.184ZM793.776 393.7L791.29 395.379C794.2 399.685 795.74 405.091 795.74 411.767H798.74H801.74C801.74 404.148 799.971 397.509 796.262 392.02L793.776 393.7ZM798.74 411.767H795.74C795.74 418.799 794.021 424.755 790.684 429.759L793.18 431.423L795.677 433.088C799.753 426.973 801.74 419.825 801.74 411.767H798.74ZM793.18 431.423L790.675 429.773C787.481 434.624 782.842 438.293 776.598 440.742L777.694 443.535L778.789 446.328C786.047 443.482 791.732 439.077 795.686 433.073L793.18 431.423ZM777.694 443.535H774.694V443.932H777.694H780.694V443.535H777.694ZM777.694 443.932L777.071 446.867C785.228 448.597 791.233 452.238 795.359 457.661L797.747 455.845L800.134 454.028C794.995 447.274 787.631 442.973 778.316 440.997L777.694 443.932ZM797.747 455.845L795.359 457.661C799.54 463.155 801.696 469.905 801.696 478.082H804.696H807.696C807.696 468.787 805.22 460.712 800.134 454.028L797.747 455.845ZM804.696 478.082H801.696C801.696 482.876 800.837 487.547 799.111 492.11L801.916 493.172L804.722 494.233C806.702 489.002 807.696 483.612 807.696 478.082H804.696ZM801.916 493.172L799.111 492.11C797.404 496.619 794.848 500.641 791.419 504.192L793.577 506.276L795.736 508.359C799.719 504.233 802.722 499.519 804.722 494.233L801.916 493.172ZM793.577 506.276L791.418 504.193C788.153 507.579 783.993 510.413 778.87 512.662L780.076 515.409L781.282 518.156C787.014 515.64 791.854 512.385 795.737 508.358L793.577 506.276ZM780.076 515.409L778.903 512.648C774.051 514.71 768.31 515.784 761.611 515.784V518.784V521.784C768.944 521.784 775.512 520.608 781.25 518.17L780.076 515.409ZM761.611 518.784V515.784H693.113V518.784V521.784H761.611V518.784ZM693.113 518.784H696.113V377.022H693.113H690.113V518.784H693.113ZM711.975 502.9V505.9H759.229V502.9V499.9H711.975V502.9ZM759.229 502.9V505.9C768.112 505.9 775.435 503.491 780.777 498.302L778.686 496.15L776.596 493.998C772.673 497.809 767.024 499.9 759.229 499.9V502.9ZM778.686 496.15L780.746 498.331C786.236 493.146 788.834 486.066 788.834 477.486H785.834H782.834C782.834 484.791 780.667 490.152 776.627 493.969L778.686 496.15ZM785.834 477.486H788.834C788.834 472.499 787.91 468.112 785.865 464.494L783.253 465.971L780.641 467.447C782.038 469.918 782.834 473.208 782.834 477.486H785.834ZM783.253 465.971L785.865 464.494C783.894 461.009 781.21 458.238 777.83 456.24L776.304 458.823L774.778 461.406C777.221 462.85 779.17 464.844 780.641 467.447L783.253 465.971ZM776.304 458.823L777.968 456.327C774.804 454.217 771.163 452.822 767.102 452.097L766.575 455.051L766.048 458.004C769.399 458.602 772.245 459.722 774.64 461.319L776.304 458.823ZM766.575 455.051L767.204 452.117C763.281 451.277 759.232 450.859 755.059 450.859V453.859V456.859C758.829 456.859 762.456 457.236 765.946 457.984L766.575 455.051ZM755.059 453.859V450.859H711.975V453.859V456.859H755.059V453.859ZM711.975 453.859H708.975V502.9H711.975H714.975V453.859H711.975ZM853.453 460.213L850.634 459.188L849.171 463.213H853.453V460.213ZM901.502 460.213V463.213H905.76L904.327 459.203L901.502 460.213ZM877.875 394.097L880.7 393.087L879.988 391.097H877.875V394.097ZM877.478 394.097V391.097H875.376L874.658 393.072L877.478 394.097ZM867.55 377.022V374.022H865.499L864.755 375.933L867.55 377.022ZM888.398 377.022L891.192 375.93L890.446 374.022H888.398V377.022ZM943.792 518.784V521.784H948.185L946.587 517.692L943.792 518.784ZM922.945 518.784L920.125 519.807L920.842 521.784H922.945V518.784ZM907.458 476.097L910.278 475.073L909.561 473.097H907.458V476.097ZM847.497 476.097V473.097H845.412L844.685 475.05L847.497 476.097ZM831.613 518.784V521.784H833.698L834.425 519.83L831.613 518.784ZM812.354 518.784L809.559 517.696L807.967 521.784H812.354V518.784ZM853.453 460.213V463.213H901.502V460.213V457.213H853.453V460.213ZM901.502 460.213L904.327 459.203L880.7 393.087L877.875 394.097L875.05 395.106L898.677 461.222L901.502 460.213ZM877.875 394.097V391.097H877.478V394.097V397.097H877.875V394.097ZM877.478 394.097L874.658 393.072L850.634 459.188L853.453 460.213L856.273 461.237L880.297 395.121L877.478 394.097ZM867.55 377.022V380.022H888.398V377.022V374.022H867.55V377.022ZM888.398 377.022L885.603 378.113L940.998 519.876L943.792 518.784L946.587 517.692L891.192 375.93L888.398 377.022ZM943.792 518.784V515.784H922.945V518.784V521.784H943.792V518.784ZM922.945 518.784L925.765 517.761L910.278 475.073L907.458 476.097L904.638 477.12L920.125 519.807L922.945 518.784ZM907.458 476.097V473.097H847.497V476.097V479.097H907.458V476.097ZM847.497 476.097L844.685 475.05L828.802 517.738L831.613 518.784L834.425 519.83L850.309 477.143L847.497 476.097ZM831.613 518.784V515.784H812.354V518.784V521.784H831.613V518.784ZM812.354 518.784L815.15 519.873L870.346 378.11L867.55 377.022L864.755 375.933L809.559 517.696L812.354 518.784ZM1039.78 418.518L1036.79 418.828L1037.07 421.518H1039.78V418.518ZM1028.66 396.479L1026.87 398.885L1026.9 398.907L1026.92 398.927L1028.66 396.479ZM992.92 390.721L993.528 393.659L993.528 393.659L992.92 390.721ZM982.596 394.692L981.036 392.13L981.01 392.145L980.985 392.161L982.596 394.692ZM975.448 402.237L972.857 400.725L972.847 400.743L972.836 400.761L975.448 402.237ZM976.639 424.474L974.415 426.487L974.465 426.543L974.518 426.596L976.639 424.474ZM986.964 431.026L985.835 433.806L985.849 433.812L985.864 433.818L986.964 431.026ZM1001.66 435.394L1001.01 438.325L1001.05 438.332L1001.08 438.339L1001.66 435.394ZM1018.14 438.968L1017.44 441.887L1017.45 441.888L1017.46 441.89L1018.14 438.968ZM1034.81 443.733L1033.84 446.572L1033.88 446.583L1033.91 446.593L1034.81 443.733ZM1049.31 450.881L1047.56 453.317L1047.57 453.33L1047.59 453.342L1049.31 450.881ZM1059.63 462.397L1057 463.828L1057.01 463.857L1057.03 463.885L1059.63 462.397ZM1058.44 499.327L1055.91 497.72L1055.9 497.728L1055.9 497.737L1058.44 499.327ZM1045.54 512.431L1047.13 514.975L1047.15 514.961L1047.17 514.946L1045.54 512.431ZM1027.67 519.578L1027.02 516.648L1026.99 516.656L1026.95 516.664L1027.67 519.578ZM985.574 518.983L984.757 521.869L984.764 521.871L984.771 521.873L985.574 518.983ZM966.911 510.048L965.073 512.419L965.106 512.445L965.139 512.469L966.911 510.048ZM954.204 494.561L951.498 495.858L951.515 495.892L951.532 495.926L954.204 494.561ZM949.637 472.126V469.126H946.637V472.126H949.637ZM967.506 472.126H970.506V469.126H967.506V472.126ZM970.882 487.612L968.215 488.986L968.24 489.035L968.267 489.083L970.882 487.612ZM980.015 498.135L978.215 500.535L978.235 500.55L978.255 500.565L980.015 498.135ZM993.317 504.29L992.554 507.191L993.317 504.29ZM1021.51 505.084L1020.97 502.133L1020.97 502.134L1020.96 502.136L1021.51 505.084ZM1033.23 501.113L1034.65 503.755L1034.69 503.734L1034.72 503.712L1033.23 501.113ZM1041.56 493.172L1039.04 491.554L1039.04 491.554L1041.56 493.172ZM1040.77 468.552L1038.46 470.462L1038.48 470.492L1038.51 470.52L1040.77 468.552ZM1030.45 461.206L1029.17 463.922L1029.22 463.946L1029.27 463.967L1030.45 461.206ZM999.274 452.867L998.579 455.785L998.619 455.794L998.659 455.803L999.274 452.867ZM982.794 448.499L981.888 451.358L981.92 451.368L981.952 451.378L982.794 448.499ZM968.102 441.946L966.456 444.455L966.501 444.484L966.547 444.512L968.102 441.946ZM957.777 431.423L955.178 432.92L955.205 432.967L955.233 433.013L957.777 431.423ZM958.373 396.678L960.986 398.152L960.994 398.138L961.002 398.123L958.373 396.678ZM969.889 383.772L971.6 386.236L971.607 386.232L971.614 386.227L969.889 383.772ZM986.368 376.227L987.125 379.13L987.147 379.125L987.168 379.119L986.368 376.227ZM1025.68 376.227L1026.48 373.336L1026.48 373.336L1025.68 376.227ZM1041.96 384.368L1040.09 386.71L1040.1 386.723L1040.12 386.736L1041.96 384.368ZM1053.08 398.465L1050.36 399.73L1050.38 399.768L1050.4 399.806L1053.08 398.465ZM1057.65 418.518V421.518H1060.75L1060.64 418.416L1057.65 418.518ZM1039.78 418.518L1042.76 418.208C1041.64 407.444 1037.66 399.177 1030.39 394.031L1028.66 396.479L1026.92 398.927C1032.37 402.782 1035.79 409.207 1036.79 418.828L1039.78 418.518ZM1028.66 396.479L1030.45 394.073C1023.59 388.963 1014.9 386.53 1004.63 386.53V389.53V392.53C1013.96 392.53 1021.29 394.729 1026.87 398.885L1028.66 396.479ZM1004.63 389.53V386.53C1000.46 386.53 996.354 386.947 992.312 387.784L992.92 390.721L993.528 393.659C997.164 392.907 1000.87 392.53 1004.63 392.53V389.53ZM992.92 390.721L992.312 387.784C988.171 388.64 984.402 390.081 981.036 392.13L982.596 394.692L984.156 397.255C986.879 395.597 989.993 394.391 993.528 393.659L992.92 390.721ZM982.596 394.692L980.985 392.161C977.643 394.288 974.935 397.163 972.857 400.725L975.448 402.237L978.039 403.749C979.668 400.957 981.724 398.803 984.206 397.223L982.596 394.692ZM975.448 402.237L972.836 400.761C970.792 404.379 969.867 408.765 969.867 413.753H972.867H975.867C975.867 409.475 976.663 406.184 978.06 403.713L975.448 402.237ZM972.867 413.753H969.867C969.867 418.734 971.32 423.066 974.415 426.487L976.639 424.474L978.864 422.462C976.929 420.323 975.867 417.508 975.867 413.753H972.867ZM976.639 424.474L974.518 426.596C977.504 429.582 981.308 431.967 985.835 433.806L986.964 431.026L988.093 428.247C984.149 426.645 981.069 424.662 978.761 422.353L976.639 424.474ZM986.964 431.026L985.864 433.818C990.404 435.606 995.458 437.105 1001.01 438.325L1001.66 435.394L1002.3 432.464C997.001 431.301 992.259 429.888 988.063 428.235L986.964 431.026ZM1001.66 435.394L1001.08 438.339C1006.47 439.39 1011.92 440.572 1017.44 441.887L1018.14 438.968L1018.83 436.05C1013.23 434.717 1007.7 433.517 1002.23 432.45L1001.66 435.394ZM1018.14 438.968L1017.46 441.89C1023.05 443.192 1028.51 444.752 1033.84 446.572L1034.81 443.733L1035.78 440.894C1030.26 439.008 1024.6 437.392 1018.82 436.046L1018.14 438.968ZM1034.81 443.733L1033.91 446.593C1039.06 448.227 1043.6 450.474 1047.56 453.317L1049.31 450.881L1051.06 448.445C1046.54 445.2 1041.42 442.681 1035.72 440.874L1034.81 443.733ZM1049.31 450.881L1047.59 453.342C1051.58 456.122 1054.71 459.61 1057 463.828L1059.63 462.397L1062.27 460.966C1059.53 455.918 1055.77 451.728 1051.02 448.42L1049.31 450.881ZM1059.63 462.397L1057.03 463.885C1059.35 467.944 1060.6 473.216 1060.6 479.869H1063.6H1066.6C1066.6 472.491 1065.21 466.115 1062.24 460.908L1059.63 462.397ZM1063.6 479.869H1060.6C1060.6 486.945 1058.99 492.852 1055.91 497.72L1058.44 499.327L1060.97 500.933C1064.77 494.947 1066.6 487.882 1066.6 479.869H1063.6ZM1058.44 499.327L1055.9 497.737C1052.82 502.656 1048.83 506.71 1043.9 509.915L1045.54 512.431L1047.17 514.946C1052.83 511.269 1057.44 506.587 1060.98 500.917L1058.44 499.327ZM1045.54 512.431L1043.95 509.887C1038.97 512.999 1033.33 515.26 1027.02 516.648L1027.67 519.578L1028.31 522.508C1035.24 520.985 1041.52 518.48 1047.13 514.975L1045.54 512.431ZM1027.67 519.578L1026.95 516.664C1020.69 518.197 1014.45 518.961 1008.21 518.961V521.961V524.961C1014.94 524.961 1021.67 524.136 1028.38 522.492L1027.67 519.578ZM1008.21 521.961V518.961C1000.52 518.961 993.245 518 986.377 516.092L985.574 518.983L984.771 521.873C992.198 523.936 1000.01 524.961 1008.21 524.961V521.961ZM985.574 518.983L986.391 516.096C979.69 514.2 973.798 511.37 968.682 507.627L966.911 510.048L965.139 512.469C970.877 516.668 977.427 519.795 984.757 521.869L985.574 518.983ZM966.911 510.048L968.748 507.677C963.817 503.855 959.86 499.043 956.875 493.197L954.204 494.561L951.532 495.926C954.9 502.523 959.415 508.034 965.073 512.419L966.911 510.048ZM954.204 494.561L956.909 493.265C954.097 487.396 952.637 480.378 952.637 472.126H949.637H946.637C946.637 481.081 948.222 489.02 951.498 495.858L954.204 494.561ZM949.637 472.126V475.126H967.506V472.126V469.126H949.637V472.126ZM967.506 472.126H964.506C964.506 478.46 965.704 484.112 968.215 488.986L970.882 487.612L973.548 486.238C971.559 482.376 970.506 477.704 970.506 472.126H967.506ZM970.882 487.612L968.267 489.083C970.843 493.664 974.159 497.494 978.215 500.535L980.015 498.135L981.815 495.735C978.458 493.218 975.685 490.032 973.496 486.142L970.882 487.612ZM980.015 498.135L978.255 500.565C982.422 503.582 987.201 505.783 992.554 507.191L993.317 504.29L994.081 501.389C989.374 500.15 985.285 498.248 981.774 495.705L980.015 498.135ZM993.317 504.29L992.554 507.191C997.837 508.582 1003.26 509.276 1008.8 509.276V506.276V503.276C1003.76 503.276 998.857 502.646 994.081 501.389L993.317 504.29ZM1008.8 506.276V509.276C1013.23 509.276 1017.65 508.861 1022.06 508.033L1021.51 505.084L1020.96 502.136C1016.9 502.896 1012.85 503.276 1008.8 503.276V506.276ZM1021.51 505.084L1022.05 508.036C1026.68 507.193 1030.89 505.776 1034.65 503.755L1033.23 501.113L1031.8 498.472C1028.67 500.157 1025.07 501.387 1020.97 502.133L1021.51 505.084ZM1033.23 501.113L1034.72 503.712C1038.58 501.489 1041.71 498.507 1044.09 494.789L1041.56 493.172L1039.04 491.554C1037.18 494.454 1034.76 496.767 1031.73 498.515L1033.23 501.113ZM1041.56 493.172L1044.09 494.789C1046.6 490.867 1047.74 486.023 1047.74 480.465H1044.74H1041.74C1041.74 485.23 1040.76 488.858 1039.04 491.554L1041.56 493.172ZM1044.74 480.465H1047.74C1047.74 475.005 1046.25 470.284 1043.03 466.583L1040.77 468.552L1038.51 470.52C1040.58 472.908 1041.74 476.129 1041.74 480.465H1044.74ZM1040.77 468.552L1043.08 466.641C1040.21 463.158 1036.34 460.447 1031.62 458.444L1030.45 461.206L1029.27 463.967C1033.29 465.67 1036.3 467.857 1038.46 470.462L1040.77 468.552ZM1030.45 461.206L1031.72 458.489C1027.25 456.394 1022.2 454.741 1016.59 453.51L1015.95 456.44L1015.31 459.371C1020.56 460.523 1025.17 462.047 1029.17 463.922L1030.45 461.206ZM1015.95 456.44L1016.59 453.51C1011.16 452.317 1005.59 451.123 999.888 449.93L999.274 452.867L998.659 455.803C1004.34 456.992 1009.89 458.182 1015.31 459.371L1015.95 456.44ZM999.274 452.867L999.969 449.948C994.458 448.636 989.015 447.193 983.637 445.619L982.794 448.499L981.952 451.378C987.428 452.981 992.971 454.45 998.579 455.785L999.274 452.867ZM982.794 448.499L983.701 445.639C978.476 443.982 973.8 441.892 969.657 439.381L968.102 441.946L966.547 444.512C971.14 447.296 976.259 449.574 981.888 451.358L982.794 448.499ZM968.102 441.946L969.748 439.438C965.869 436.893 962.736 433.696 960.321 429.833L957.777 431.423L955.233 433.013C958.114 437.622 961.863 441.441 966.456 444.455L968.102 441.946ZM957.777 431.423L960.377 429.927C958.189 426.127 957.005 421.251 957.005 415.143H954.005H951.005C951.005 422.006 952.336 427.984 955.178 432.92L957.777 431.423ZM954.005 415.143H957.005C957.005 408.405 958.375 402.78 960.986 398.152L958.373 396.678L955.76 395.204C952.547 400.9 951.005 407.585 951.005 415.143H954.005ZM958.373 396.678L961.002 398.123C963.7 393.217 967.231 389.27 971.6 386.236L969.889 383.772L968.178 381.308C963.016 384.892 958.87 389.549 955.744 395.232L958.373 396.678ZM969.889 383.772L971.614 386.227C976.203 383.002 981.365 380.633 987.125 379.13L986.368 376.227L985.611 373.325C979.193 374.999 973.369 377.66 968.164 381.318L969.889 383.772ZM986.368 376.227L987.168 379.119C993.127 377.47 999.212 376.646 1005.43 376.646V373.646V370.646C998.674 370.646 992.051 371.543 985.568 373.336L986.368 376.227ZM1005.43 373.646V376.646C1012.47 376.646 1018.95 377.479 1024.88 379.119L1025.68 376.227L1026.48 373.336C1019.97 371.535 1012.95 370.646 1005.43 370.646V373.646ZM1025.68 376.227L1024.88 379.119C1030.75 380.741 1035.8 383.28 1040.09 386.71L1041.96 384.368L1043.84 382.025C1038.86 378.044 1033.06 375.155 1026.48 373.336L1025.68 376.227ZM1041.96 384.368L1040.12 386.736C1044.49 390.138 1047.91 394.453 1050.36 399.73L1053.08 398.465L1055.8 397.199C1052.96 391.093 1048.96 386.01 1043.8 382L1041.96 384.368ZM1053.08 398.465L1050.4 399.806C1052.94 404.894 1054.39 411.134 1054.65 418.62L1057.65 418.518L1060.64 418.416C1060.37 410.283 1058.78 403.154 1055.76 397.123L1053.08 398.465ZM1057.65 418.518V415.518H1039.78V418.518V421.518H1057.65V418.518ZM1168.52 418.518L1165.54 418.828L1165.82 421.518H1168.52V418.518ZM1157.4 396.479L1155.61 398.885L1155.64 398.907L1155.67 398.927L1157.4 396.479ZM1121.67 390.721L1122.27 393.659L1122.27 393.659L1121.67 390.721ZM1111.34 394.692L1109.78 392.13L1109.76 392.145L1109.73 392.161L1111.34 394.692ZM1104.19 402.237L1101.6 400.725L1101.59 400.743L1101.58 400.761L1104.19 402.237ZM1105.38 424.474L1103.16 426.487L1103.21 426.543L1103.26 426.596L1105.38 424.474ZM1115.71 431.026L1114.58 433.806L1114.59 433.812L1114.61 433.818L1115.71 431.026ZM1130.4 435.394L1129.76 438.325L1129.79 438.332L1129.83 438.339L1130.4 435.394ZM1146.88 438.968L1146.19 441.887L1146.19 441.888L1146.2 441.89L1146.88 438.968ZM1163.56 443.733L1162.59 446.572L1162.62 446.583L1162.65 446.593L1163.56 443.733ZM1178.05 450.881L1176.3 453.317L1176.32 453.33L1176.34 453.342L1178.05 450.881ZM1188.38 462.397L1185.74 463.828L1185.76 463.857L1185.77 463.885L1188.38 462.397ZM1187.19 499.327L1184.65 497.72L1184.65 497.728L1184.64 497.737L1187.19 499.327ZM1174.28 512.431L1175.87 514.975L1175.89 514.961L1175.92 514.946L1174.28 512.431ZM1156.41 519.578L1155.77 516.648L1155.73 516.656L1155.7 516.664L1156.41 519.578ZM1114.32 518.983L1113.5 521.869L1113.51 521.871L1113.52 521.873L1114.32 518.983ZM1095.66 510.048L1093.82 512.419L1093.85 512.445L1093.88 512.469L1095.66 510.048ZM1082.95 494.561L1080.24 495.858L1080.26 495.892L1080.28 495.926L1082.95 494.561ZM1078.38 472.126V469.126H1075.38V472.126H1078.38ZM1096.25 472.126H1099.25V469.126H1096.25V472.126ZM1099.63 487.612L1096.96 488.986L1096.99 489.035L1097.01 489.083L1099.63 487.612ZM1108.76 498.135L1106.96 500.535L1106.98 500.55L1107 500.565L1108.76 498.135ZM1122.06 504.29L1121.3 507.191L1122.06 504.29ZM1150.26 505.084L1149.72 502.133L1149.71 502.134L1149.7 502.136L1150.26 505.084ZM1161.97 501.113L1163.39 503.755L1163.43 503.734L1163.47 503.712L1161.97 501.113ZM1170.31 493.172L1167.78 491.554L1167.78 491.554L1170.31 493.172ZM1169.52 468.552L1167.2 470.462L1167.23 470.492L1167.25 470.52L1169.52 468.552ZM1159.19 461.206L1157.92 463.922L1157.97 463.946L1158.02 463.967L1159.19 461.206ZM1128.02 452.867L1127.32 455.785L1127.36 455.794L1127.4 455.803L1128.02 452.867ZM1111.54 448.499L1110.63 451.358L1110.66 451.368L1110.7 451.378L1111.54 448.499ZM1096.85 441.946L1095.2 444.455L1095.25 444.484L1095.29 444.512L1096.85 441.946ZM1086.52 431.423L1083.92 432.92L1083.95 432.967L1083.98 433.013L1086.52 431.423ZM1087.12 396.678L1089.73 398.152L1089.74 398.138L1089.75 398.123L1087.12 396.678ZM1098.63 383.772L1100.35 386.236L1100.35 386.232L1100.36 386.227L1098.63 383.772ZM1115.11 376.227L1115.87 379.13L1115.89 379.125L1115.91 379.119L1115.11 376.227ZM1154.43 376.227L1155.23 373.336L1155.23 373.336L1154.43 376.227ZM1170.71 384.368L1168.83 386.71L1168.85 386.723L1168.86 386.736L1170.71 384.368ZM1181.83 398.465L1179.11 399.73L1179.12 399.768L1179.14 399.806L1181.83 398.465ZM1186.39 418.518V421.518H1189.5L1189.39 418.416L1186.39 418.518ZM1168.52 418.518L1171.51 418.208C1170.39 407.444 1166.4 399.177 1159.14 394.031L1157.4 396.479L1155.67 398.927C1161.11 402.782 1164.54 409.207 1165.54 418.828L1168.52 418.518ZM1157.4 396.479L1159.2 394.073C1152.33 388.963 1143.65 386.53 1133.38 386.53V389.53V392.53C1142.7 392.53 1150.03 394.729 1155.61 398.885L1157.4 396.479ZM1133.38 389.53V386.53C1129.21 386.53 1125.1 386.947 1121.06 387.784L1121.67 390.721L1122.27 393.659C1125.91 392.907 1129.61 392.53 1133.38 392.53V389.53ZM1121.67 390.721L1121.06 387.784C1116.92 388.64 1113.15 390.081 1109.78 392.13L1111.34 394.692L1112.9 397.255C1115.62 395.597 1118.74 394.391 1122.27 393.659L1121.67 390.721ZM1111.34 394.692L1109.73 392.161C1106.39 394.288 1103.68 397.163 1101.6 400.725L1104.19 402.237L1106.78 403.749C1108.41 400.957 1110.47 398.803 1112.95 397.223L1111.34 394.692ZM1104.19 402.237L1101.58 400.761C1099.54 404.379 1098.61 408.765 1098.61 413.753H1101.61H1104.61C1104.61 409.475 1105.41 406.184 1106.81 403.713L1104.19 402.237ZM1101.61 413.753H1098.61C1098.61 418.734 1100.06 423.066 1103.16 426.487L1105.38 424.474L1107.61 422.462C1105.67 420.323 1104.61 417.508 1104.61 413.753H1101.61ZM1105.38 424.474L1103.26 426.596C1106.25 429.582 1110.05 431.967 1114.58 433.806L1115.71 431.026L1116.84 428.247C1112.89 426.645 1109.81 424.662 1107.51 422.353L1105.38 424.474ZM1115.71 431.026L1114.61 433.818C1119.15 435.606 1124.2 437.105 1129.76 438.325L1130.4 435.394L1131.04 432.464C1125.75 431.301 1121 429.888 1116.81 428.235L1115.71 431.026ZM1130.4 435.394L1129.83 438.339C1135.21 439.39 1140.67 440.572 1146.19 441.887L1146.88 438.968L1147.58 436.05C1141.98 434.717 1136.44 433.517 1130.98 432.45L1130.4 435.394ZM1146.88 438.968L1146.2 441.89C1151.8 443.192 1157.26 444.752 1162.59 446.572L1163.56 443.733L1164.53 440.894C1159 439.008 1153.35 437.392 1147.56 436.046L1146.88 438.968ZM1163.56 443.733L1162.65 446.593C1167.8 448.227 1172.35 450.474 1176.3 453.317L1178.05 450.881L1179.8 448.445C1175.29 445.2 1170.17 442.681 1164.47 440.874L1163.56 443.733ZM1178.05 450.881L1176.34 453.342C1180.33 456.122 1183.45 459.61 1185.74 463.828L1188.38 462.397L1191.01 460.966C1188.27 455.918 1184.52 451.728 1179.77 448.42L1178.05 450.881ZM1188.38 462.397L1185.77 463.885C1188.09 467.944 1189.35 473.216 1189.35 479.869H1192.35H1195.35C1195.35 472.491 1193.96 466.115 1190.98 460.908L1188.38 462.397ZM1192.35 479.869H1189.35C1189.35 486.945 1187.74 492.852 1184.65 497.72L1187.19 499.327L1189.72 500.933C1193.52 494.947 1195.35 487.882 1195.35 479.869H1192.35ZM1187.19 499.327L1184.64 497.737C1181.57 502.656 1177.58 506.71 1172.65 509.915L1174.28 512.431L1175.92 514.946C1181.57 511.269 1186.19 506.587 1189.73 500.917L1187.19 499.327ZM1174.28 512.431L1172.69 509.887C1167.71 512.999 1162.08 515.26 1155.77 516.648L1156.41 519.578L1157.06 522.508C1163.98 520.985 1170.26 518.48 1175.87 514.975L1174.28 512.431ZM1156.41 519.578L1155.7 516.664C1149.44 518.197 1143.19 518.961 1136.95 518.961V521.961V524.961C1143.69 524.961 1150.41 524.136 1157.12 522.492L1156.41 519.578ZM1136.95 521.961V518.961C1129.26 518.961 1121.99 518 1115.12 516.092L1114.32 518.983L1113.52 521.873C1120.94 523.936 1128.76 524.961 1136.95 524.961V521.961ZM1114.32 518.983L1115.14 516.096C1108.44 514.2 1102.54 511.37 1097.43 507.627L1095.66 510.048L1093.88 512.469C1099.62 516.668 1106.17 519.795 1113.5 521.869L1114.32 518.983ZM1095.66 510.048L1097.49 507.677C1092.56 503.855 1088.61 499.043 1085.62 493.197L1082.95 494.561L1080.28 495.926C1083.65 502.523 1088.16 508.034 1093.82 512.419L1095.66 510.048ZM1082.95 494.561L1085.65 493.265C1082.84 487.396 1081.38 480.378 1081.38 472.126H1078.38H1075.38C1075.38 481.081 1076.97 489.02 1080.24 495.858L1082.95 494.561ZM1078.38 472.126V475.126H1096.25V472.126V469.126H1078.38V472.126ZM1096.25 472.126H1093.25C1093.25 478.46 1094.45 484.112 1096.96 488.986L1099.63 487.612L1102.29 486.238C1100.3 482.376 1099.25 477.704 1099.25 472.126H1096.25ZM1099.63 487.612L1097.01 489.083C1099.59 493.664 1102.9 497.494 1106.96 500.535L1108.76 498.135L1110.56 495.735C1107.2 493.218 1104.43 490.032 1102.24 486.142L1099.63 487.612ZM1108.76 498.135L1107 500.565C1111.17 503.582 1115.95 505.783 1121.3 507.191L1122.06 504.29L1122.83 501.389C1118.12 500.15 1114.03 498.248 1110.52 495.705L1108.76 498.135ZM1122.06 504.29L1121.3 507.191C1126.58 508.582 1132 509.276 1137.55 509.276V506.276V503.276C1132.51 503.276 1127.6 502.646 1122.83 501.389L1122.06 504.29ZM1137.55 506.276V509.276C1141.97 509.276 1146.39 508.861 1150.81 508.033L1150.26 505.084L1149.7 502.136C1145.65 502.896 1141.6 503.276 1137.55 503.276V506.276ZM1150.26 505.084L1150.79 508.036C1155.43 507.193 1159.64 505.776 1163.39 503.755L1161.97 501.113L1160.55 498.472C1157.42 500.157 1153.82 501.387 1149.72 502.133L1150.26 505.084ZM1161.97 501.113L1163.47 503.712C1167.32 501.489 1170.46 498.507 1172.84 494.789L1170.31 493.172L1167.78 491.554C1165.93 494.454 1163.5 496.767 1160.47 498.515L1161.97 501.113ZM1170.31 493.172L1172.84 494.789C1175.35 490.867 1176.49 486.023 1176.49 480.465H1173.49H1170.49C1170.49 485.23 1169.51 488.858 1167.78 491.554L1170.31 493.172ZM1173.49 480.465H1176.49C1176.49 475.005 1175 470.284 1171.78 466.583L1169.52 468.552L1167.25 470.52C1169.33 472.908 1170.49 476.129 1170.49 480.465H1173.49ZM1169.52 468.552L1171.83 466.641C1168.95 463.158 1165.09 460.447 1160.36 458.444L1159.19 461.206L1158.02 463.967C1162.03 465.67 1165.05 467.857 1167.2 470.462L1169.52 468.552ZM1159.19 461.206L1160.46 458.489C1155.99 456.394 1150.95 454.741 1145.34 453.51L1144.7 456.44L1144.05 459.371C1149.3 460.523 1153.92 462.047 1157.92 463.922L1159.19 461.206ZM1144.7 456.44L1145.34 453.51C1139.9 452.317 1134.33 451.123 1128.63 449.93L1128.02 452.867L1127.4 455.803C1133.09 456.992 1138.64 458.182 1144.05 459.371L1144.7 456.44ZM1128.02 452.867L1128.71 449.948C1123.2 448.636 1117.76 447.193 1112.38 445.619L1111.54 448.499L1110.7 451.378C1116.17 452.981 1121.72 454.45 1127.32 455.785L1128.02 452.867ZM1111.54 448.499L1112.45 445.639C1107.22 443.982 1102.54 441.892 1098.4 439.381L1096.85 441.946L1095.29 444.512C1099.89 447.296 1105 449.574 1110.63 451.358L1111.54 448.499ZM1096.85 441.946L1098.49 439.438C1094.61 436.893 1091.48 433.696 1089.07 429.833L1086.52 431.423L1083.98 433.013C1086.86 437.622 1090.61 441.441 1095.2 444.455L1096.85 441.946ZM1086.52 431.423L1089.12 429.927C1086.93 426.127 1085.75 421.251 1085.75 415.143H1082.75H1079.75C1079.75 422.006 1081.08 427.984 1083.92 432.92L1086.52 431.423ZM1082.75 415.143H1085.75C1085.75 408.405 1087.12 402.78 1089.73 398.152L1087.12 396.678L1084.51 395.204C1081.29 400.9 1079.75 407.585 1079.75 415.143H1082.75ZM1087.12 396.678L1089.75 398.123C1092.45 393.217 1095.98 389.27 1100.35 386.236L1098.63 383.772L1096.92 381.308C1091.76 384.892 1087.62 389.549 1084.49 395.232L1087.12 396.678ZM1098.63 383.772L1100.36 386.227C1104.95 383.002 1110.11 380.633 1115.87 379.13L1115.11 376.227L1114.36 373.325C1107.94 374.999 1102.11 377.66 1096.91 381.318L1098.63 383.772ZM1115.11 376.227L1115.91 379.119C1121.87 377.47 1127.96 376.646 1134.17 376.646V373.646V370.646C1127.42 370.646 1120.8 371.543 1114.31 373.336L1115.11 376.227ZM1134.17 373.646V376.646C1141.22 376.646 1147.7 377.479 1153.63 379.119L1154.43 376.227L1155.23 373.336C1148.71 371.535 1141.69 370.646 1134.17 370.646V373.646ZM1154.43 376.227L1153.63 379.119C1159.49 380.741 1164.54 383.28 1168.83 386.71L1170.71 384.368L1172.58 382.025C1167.6 378.044 1161.8 375.155 1155.23 373.336L1154.43 376.227ZM1170.71 384.368L1168.86 386.736C1173.24 390.138 1176.65 394.453 1179.11 399.73L1181.83 398.465L1184.55 397.199C1181.71 391.093 1177.71 386.01 1172.55 382L1170.71 384.368ZM1181.83 398.465L1179.14 399.806C1181.69 404.894 1183.14 411.134 1183.39 418.62L1186.39 418.518L1189.39 418.416C1189.11 410.283 1187.52 403.154 1184.51 397.123L1181.83 398.465ZM1186.39 418.518V415.518H1168.52V418.518V421.518H1186.39V418.518ZM775.113 601.518L772.129 601.828L772.408 604.518H775.113V601.518ZM763.994 579.479L762.202 581.885L762.231 581.907L762.26 581.927L763.994 579.479ZM728.255 573.721L728.863 576.659L728.863 576.659L728.255 573.721ZM717.931 577.692L716.371 575.13L716.346 575.145L716.32 575.161L717.931 577.692ZM710.783 585.237L708.192 583.725L708.182 583.743L708.172 583.761L710.783 585.237ZM711.975 607.474L709.75 609.487L709.8 609.543L709.853 609.596L711.975 607.474ZM722.299 614.026L721.17 616.806L721.185 616.812L721.199 616.818L722.299 614.026ZM736.992 618.394L736.348 621.325L736.383 621.332L736.417 621.339L736.992 618.394ZM753.471 621.968L752.776 624.887L752.784 624.888L752.791 624.89L753.471 621.968ZM770.149 626.733L769.179 629.572L769.211 629.583L769.242 629.593L770.149 626.733ZM784.643 633.881L782.892 636.317L782.91 636.33L782.927 636.342L784.643 633.881ZM794.967 645.397L792.331 646.828L792.346 646.857L792.363 646.885L794.967 645.397ZM793.776 682.327L791.242 680.72L791.237 680.728L791.232 680.737L793.776 682.327ZM780.87 695.431L782.46 697.975L782.483 697.961L782.505 697.946L780.87 695.431ZM763.001 702.578L762.357 699.648L762.322 699.656L762.288 699.664L763.001 702.578ZM720.909 701.983L720.092 704.869L720.099 704.871L720.106 704.873L720.909 701.983ZM702.246 693.048L700.408 695.419L700.441 695.445L700.474 695.469L702.246 693.048ZM689.539 677.561L686.833 678.858L686.85 678.892L686.867 678.926L689.539 677.561ZM684.972 655.126V652.126H681.972V655.126H684.972ZM702.841 655.126H705.841V652.126H702.841V655.126ZM706.217 670.612L703.55 671.986L703.575 672.035L703.602 672.083L706.217 670.612ZM715.35 681.135L713.55 683.535L713.57 683.55L713.59 683.565L715.35 681.135ZM728.653 687.29L727.889 690.191L728.653 687.29ZM756.846 688.084L756.31 685.133L756.301 685.134L756.293 685.136L756.846 688.084ZM768.561 684.113L769.983 686.755L770.022 686.734L770.06 686.712L768.561 684.113ZM776.9 676.172L774.373 674.554L774.373 674.554L776.9 676.172ZM776.105 651.552L773.792 653.462L773.817 653.492L773.842 653.52L776.105 651.552ZM765.781 644.206L764.508 646.922L764.558 646.946L764.609 646.967L765.781 644.206ZM734.609 635.867L733.914 638.785L733.954 638.794L733.994 638.803L734.609 635.867ZM718.13 631.499L717.223 634.358L717.255 634.368L717.287 634.378L718.13 631.499ZM703.437 624.946L701.791 627.455L701.836 627.484L701.882 627.512L703.437 624.946ZM693.113 614.423L690.513 615.92L690.54 615.967L690.569 616.013L693.113 614.423ZM693.708 579.678L696.321 581.152L696.329 581.138L696.337 581.123L693.708 579.678ZM705.224 566.772L706.935 569.236L706.942 569.232L706.949 569.227L705.224 566.772ZM721.703 559.227L722.461 562.13L722.482 562.125L722.503 562.119L721.703 559.227ZM761.016 559.227L761.816 556.336L761.816 556.336L761.016 559.227ZM777.297 567.368L775.423 569.71L775.439 569.723L775.455 569.736L777.297 567.368ZM788.415 581.465L785.695 582.73L785.713 582.768L785.732 582.806L788.415 581.465ZM792.982 601.518V604.518H796.085L795.98 601.416L792.982 601.518ZM775.113 601.518L778.097 601.208C776.978 590.444 772.993 582.177 765.728 577.031L763.994 579.479L762.26 581.927C767.702 585.782 771.129 592.207 772.129 601.828L775.113 601.518ZM763.994 579.479L765.786 577.073C758.924 571.963 750.239 569.53 739.97 569.53V572.53V575.53C749.291 575.53 756.621 577.729 762.202 581.885L763.994 579.479ZM739.97 572.53V569.53C735.797 569.53 731.689 569.947 727.648 570.784L728.255 573.721L728.863 576.659C732.499 575.907 736.2 575.53 739.97 575.53V572.53ZM728.255 573.721L727.648 570.784C723.506 571.64 719.737 573.081 716.371 575.13L717.931 577.692L719.491 580.255C722.214 578.597 725.328 577.391 728.863 576.659L728.255 573.721ZM717.931 577.692L716.32 575.161C712.979 577.288 710.27 580.163 708.192 583.725L710.783 585.237L713.375 586.749C715.003 583.957 717.059 581.803 719.542 580.223L717.931 577.692ZM710.783 585.237L708.172 583.761C706.127 587.379 705.202 591.765 705.202 596.753H708.202H711.202C711.202 592.475 711.998 589.184 713.395 586.713L710.783 585.237ZM708.202 596.753H705.202C705.202 601.734 706.655 606.066 709.75 609.487L711.975 607.474L714.199 605.462C712.265 603.323 711.202 600.508 711.202 596.753H708.202ZM711.975 607.474L709.853 609.596C712.839 612.582 716.643 614.967 721.17 616.806L722.299 614.026L723.428 611.247C719.484 609.645 716.405 607.662 714.096 605.353L711.975 607.474ZM722.299 614.026L721.199 616.818C725.74 618.606 730.793 620.105 736.348 621.325L736.992 618.394L737.635 615.464C732.336 614.301 727.595 612.888 723.399 611.235L722.299 614.026ZM736.992 618.394L736.417 621.339C741.802 622.39 747.255 623.572 752.776 624.887L753.471 621.968L754.166 619.05C748.568 617.717 743.035 616.517 737.566 615.45L736.992 618.394ZM753.471 621.968L752.791 624.89C758.387 626.192 763.849 627.752 769.179 629.572L770.149 626.733L771.118 623.894C765.594 622.008 759.938 620.392 754.151 619.046L753.471 621.968ZM770.149 626.733L769.242 629.593C774.395 631.227 778.936 633.474 782.892 636.317L784.643 633.881L786.394 631.445C781.878 628.2 776.757 625.681 771.056 623.874L770.149 626.733ZM784.643 633.881L782.927 636.342C786.916 639.122 790.041 642.61 792.331 646.828L794.967 645.397L797.604 643.966C794.864 638.918 791.105 634.728 786.358 631.42L784.643 633.881ZM794.967 645.397L792.363 646.885C794.682 650.944 795.938 656.216 795.938 662.869H798.938H801.938C801.938 655.491 800.547 649.115 797.572 643.908L794.967 645.397ZM798.938 662.869H795.938C795.938 669.945 794.33 675.852 791.242 680.72L793.776 682.327L796.31 683.933C800.105 677.947 801.938 670.882 801.938 662.869H798.938ZM793.776 682.327L791.232 680.737C788.158 685.656 784.168 689.71 779.235 692.915L780.87 695.431L782.505 697.946C788.163 694.269 792.776 689.587 796.32 683.917L793.776 682.327ZM780.87 695.431L779.28 692.887C774.3 695.999 768.669 698.26 762.357 699.648L763.001 702.578L763.646 705.508C770.57 703.985 776.851 701.48 782.46 697.975L780.87 695.431ZM763.001 702.578L762.288 699.664C756.028 701.197 749.782 701.961 743.544 701.961V704.961V707.961C750.277 707.961 757.002 707.136 763.715 705.492L763.001 702.578ZM743.544 704.961V701.961C735.854 701.961 728.581 701 721.712 699.092L720.909 701.983L720.106 704.873C727.533 706.936 735.349 707.961 743.544 707.961V704.961ZM720.909 701.983L721.726 699.096C715.025 697.2 709.133 694.37 704.017 690.627L702.246 693.048L700.474 695.469C706.213 699.668 712.763 702.795 720.092 704.869L720.909 701.983ZM702.246 693.048L704.084 690.677C699.153 686.855 695.196 682.043 692.211 676.197L689.539 677.561L686.867 678.926C690.236 685.523 694.75 691.034 700.408 695.419L702.246 693.048ZM689.539 677.561L692.244 676.265C689.432 670.396 687.972 663.378 687.972 655.126H684.972H681.972C681.972 664.081 683.557 672.02 686.833 678.858L689.539 677.561ZM684.972 655.126V658.126H702.841V655.126V652.126H684.972V655.126ZM702.841 655.126H699.841C699.841 661.46 701.039 667.112 703.55 671.986L706.217 670.612L708.884 669.238C706.894 665.376 705.841 660.704 705.841 655.126H702.841ZM706.217 670.612L703.602 672.083C706.179 676.664 709.494 680.494 713.55 683.535L715.35 681.135L717.15 678.735C713.793 676.218 711.02 673.032 708.831 669.142L706.217 670.612ZM715.35 681.135L713.59 683.565C717.757 686.582 722.536 688.783 727.889 690.191L728.653 687.29L729.416 684.389C724.71 683.15 720.62 681.248 717.109 678.705L715.35 681.135ZM728.653 687.29L727.889 690.191C733.173 691.582 738.592 692.276 744.139 692.276V689.276V686.276C739.098 686.276 734.192 685.646 729.416 684.389L728.653 687.29ZM744.139 689.276V692.276C748.564 692.276 752.984 691.861 757.399 691.033L756.846 688.084L756.293 685.136C752.237 685.896 748.186 686.276 744.139 686.276V689.276ZM756.846 688.084L757.383 691.036C762.019 690.193 766.229 688.776 769.983 686.755L768.561 684.113L767.138 681.472C764.009 683.157 760.409 684.387 756.31 685.133L756.846 688.084ZM768.561 684.113L770.06 686.712C773.912 684.489 777.046 681.507 779.426 677.789L776.9 676.172L774.373 674.554C772.517 677.454 770.092 679.767 767.061 681.515L768.561 684.113ZM776.9 676.172L779.426 677.789C781.936 673.867 783.076 669.023 783.076 663.465H780.076H777.076C777.076 668.23 776.098 671.858 774.373 674.554L776.9 676.172ZM780.076 663.465H783.076C783.076 658.005 781.587 653.284 778.369 649.583L776.105 651.552L773.842 653.52C775.918 655.908 777.076 659.129 777.076 663.465H780.076ZM776.105 651.552L778.418 649.641C775.541 646.158 771.675 643.447 766.953 641.444L765.781 644.206L764.609 646.967C768.623 648.67 771.64 650.857 773.792 653.462L776.105 651.552ZM765.781 644.206L767.054 641.489C762.584 639.394 757.535 637.741 751.93 636.51L751.287 639.44L750.644 642.371C755.893 643.523 760.507 645.047 764.508 646.922L765.781 644.206ZM751.287 639.44L751.93 636.51C746.493 635.317 740.924 634.123 735.224 632.93L734.609 635.867L733.994 638.803C739.677 639.992 745.227 641.182 750.644 642.371L751.287 639.44ZM734.609 635.867L735.304 632.948C729.794 631.636 724.35 630.193 718.972 628.619L718.13 631.499L717.287 634.378C722.763 635.981 728.306 637.45 733.914 638.785L734.609 635.867ZM718.13 631.499L719.036 628.639C713.811 626.982 709.135 624.892 704.992 622.381L703.437 624.946L701.882 627.512C706.476 630.296 711.594 632.574 717.223 634.358L718.13 631.499ZM703.437 624.946L705.083 622.438C701.204 619.893 698.071 616.696 695.657 612.833L693.113 614.423L690.569 616.013C693.449 620.622 697.199 624.441 701.791 627.455L703.437 624.946ZM693.113 614.423L695.713 612.927C693.525 609.127 692.34 604.251 692.34 598.143H689.34H686.34C686.34 605.006 687.671 610.984 690.513 615.92L693.113 614.423ZM689.34 598.143H692.34C692.34 591.405 693.71 585.78 696.321 581.152L693.708 579.678L691.095 578.204C687.882 583.9 686.34 590.585 686.34 598.143H689.34ZM693.708 579.678L696.337 581.123C699.035 576.217 702.566 572.27 706.935 569.236L705.224 566.772L703.513 564.308C698.351 567.892 694.205 572.549 691.08 578.232L693.708 579.678ZM705.224 566.772L706.949 569.227C711.538 566.002 716.701 563.633 722.461 562.13L721.703 559.227L720.946 556.325C714.529 557.999 708.705 560.66 703.499 564.318L705.224 566.772ZM721.703 559.227L722.503 562.119C728.463 560.47 734.547 559.646 740.764 559.646V556.646V553.646C734.009 553.646 727.387 554.543 720.904 556.336L721.703 559.227ZM740.764 556.646V559.646C747.808 559.646 754.286 560.479 760.216 562.119L761.016 559.227L761.816 556.336C755.303 554.535 748.28 553.646 740.764 553.646V556.646ZM761.016 559.227L760.216 562.119C766.08 563.741 771.134 566.28 775.423 569.71L777.297 567.368L779.171 565.025C774.194 561.044 768.393 558.155 761.816 556.336L761.016 559.227ZM777.297 567.368L775.455 569.736C779.829 573.138 783.241 577.453 785.695 582.73L788.415 581.465L791.135 580.199C788.295 574.093 784.295 569.01 779.138 565L777.297 567.368ZM788.415 581.465L785.732 582.806C788.276 587.894 789.73 594.134 789.984 601.62L792.982 601.518L795.98 601.416C795.704 593.283 794.114 586.154 791.099 580.123L788.415 581.465ZM792.982 601.518V598.518H775.113V601.518V604.518H792.982V601.518ZM840.72 627.925H837.72V630.925H840.72V627.925ZM877.65 627.925L877.687 624.925L877.668 624.925H877.65V627.925ZM901.078 621.373L899.078 619.137L899.063 619.15L899.048 619.164L901.078 621.373ZM901.078 582.656L899.048 584.865L899.079 584.893L899.111 584.921L901.078 582.656ZM840.72 575.905V572.905H837.72V575.905H840.72ZM821.858 560.022V557.022H818.858V560.022H821.858ZM916.366 571.14L914.226 573.242L914.245 573.262L914.264 573.281L916.366 571.14ZM916.366 632.888L914.245 630.767L914.236 630.777L914.226 630.786L916.366 632.888ZM884.003 643.808L884.031 640.809L884.017 640.808H884.003V643.808ZM840.72 643.808V640.808H837.72V643.808H840.72ZM840.72 701.784V704.784H843.72V701.784H840.72ZM821.858 701.784H818.858V704.784H821.858V701.784ZM840.72 627.925V630.925H877.65V627.925V624.925H840.72V627.925ZM877.65 627.925L877.613 630.924C888.654 631.061 897.389 628.837 903.108 623.582L901.078 621.373L899.048 619.164C894.973 622.909 888.089 625.053 877.687 624.925L877.65 627.925ZM901.078 621.373L903.079 623.608C908.9 618.4 911.623 611.006 911.623 601.915H908.623H905.623C905.623 609.767 903.316 615.345 899.078 619.137L901.078 621.373ZM908.623 601.915H911.623C911.623 592.828 908.901 585.476 903.045 580.391L901.078 582.656L899.111 584.921C903.315 588.572 905.623 594.059 905.623 601.915H908.623ZM901.078 582.656L903.108 580.447C897.403 575.205 888.687 572.905 877.65 572.905V575.905V578.905C888.055 578.905 894.958 581.106 899.048 584.865L901.078 582.656ZM877.65 575.905V572.905H840.72V575.905V578.905H877.65V575.905ZM840.72 575.905H837.72V627.925H840.72H843.72V575.905H840.72ZM821.858 560.022V563.022H884.003V560.022V557.022H821.858V560.022ZM884.003 560.022V563.022C897.804 563.022 907.695 566.593 914.226 573.242L916.366 571.14L918.507 569.038C910.477 560.863 898.794 557.022 884.003 557.022V560.022ZM916.366 571.14L914.264 573.281C920.956 579.852 924.485 589.251 924.485 601.915H927.485H930.485C930.485 588.106 926.602 576.988 918.469 569L916.366 571.14ZM927.485 601.915H924.485C924.485 614.576 920.956 624.056 914.245 630.767L916.366 632.888L918.488 635.01C926.601 626.896 930.485 615.727 930.485 601.915H927.485ZM916.366 632.888L914.226 630.786C907.705 637.426 897.826 640.936 884.031 640.809L884.003 643.808L883.975 646.808C898.771 646.945 910.468 643.176 918.507 634.99L916.366 632.888ZM884.003 643.808V640.808H840.72V643.808V646.808H884.003V643.808ZM840.72 643.808H837.72V701.784H840.72H843.72V643.808H840.72ZM840.72 701.784V698.784H821.858V701.784V704.784H840.72V701.784ZM821.858 701.784H824.858V560.022H821.858H818.858V701.784H821.858ZM964.303 652.147L961.403 652.914L961.404 652.92L961.406 652.927L964.303 652.147ZM973.039 670.811L970.598 672.555L970.598 672.555L973.039 670.811ZM988.327 684.312L986.875 686.937L986.897 686.949L986.918 686.961L988.327 684.312ZM1032.8 684.312L1034.21 686.961L1034.23 686.949L1034.25 686.937L1032.8 684.312ZM1048.09 670.811L1045.65 669.067L1045.65 669.067L1048.09 670.811ZM1056.83 652.147L1059.72 652.927L1059.72 652.92L1059.73 652.914L1056.83 652.147ZM1056.83 609.857L1053.93 610.623L1053.93 610.63L1053.93 610.637L1056.83 609.857ZM1048.09 590.995L1045.65 592.739L1045.65 592.739L1048.09 590.995ZM1032.8 577.692L1031.35 580.317L1031.37 580.329L1031.39 580.341L1032.8 577.692ZM988.327 577.692L989.736 580.341L989.758 580.329L989.78 580.317L988.327 577.692ZM964.303 609.857L967.2 610.637L967.202 610.63L967.204 610.623L964.303 609.857ZM946.831 603.106L943.977 602.183L943.972 602.196L943.968 602.209L946.831 603.106ZM959.737 579.281L957.425 577.369L957.425 577.369L959.737 579.281ZM980.981 562.801L979.673 560.101L979.673 560.101L980.981 562.801ZM1040.15 562.801L1041.46 560.101L1041.46 560.101L1040.15 562.801ZM1061.39 579.281L1063.7 577.369L1063.7 577.369L1061.39 579.281ZM1074.1 603.106L1071.23 603.992L1071.24 604.017L1071.25 604.042L1074.1 603.106ZM1074.1 658.898L1071.25 657.975L1071.24 657.988L1071.24 658.001L1074.1 658.898ZM1040.15 699.005L1041.42 701.721L1041.44 701.713L1041.46 701.704L1040.15 699.005ZM980.981 699.005L979.673 701.704L979.69 701.713L979.708 701.721L980.981 699.005ZM946.831 658.898L943.965 659.783L943.972 659.809L943.981 659.834L946.831 658.898ZM961.523 630.903H958.523C958.523 638.313 959.484 645.652 961.403 652.914L964.303 652.147L967.204 651.381C965.416 644.612 964.523 637.788 964.523 630.903H961.523ZM964.303 652.147L961.406 652.927C963.348 660.141 966.41 666.691 970.598 672.555L973.039 670.811L975.48 669.067C971.727 663.812 968.964 657.92 967.2 651.367L964.303 652.147ZM973.039 670.811L970.598 672.555C974.839 678.493 980.279 683.288 986.875 686.937L988.327 684.312L989.78 681.687C983.933 678.453 979.181 674.248 975.48 669.067L973.039 670.811ZM988.327 684.312L986.918 686.961C993.659 690.546 1001.58 692.276 1010.56 692.276V689.276V686.276C1002.34 686.276 995.438 684.696 989.736 681.663L988.327 684.312ZM1010.56 689.276V692.276C1019.55 692.276 1027.47 690.546 1034.21 686.961L1032.8 684.312L1031.39 681.663C1025.69 684.696 1018.78 686.276 1010.56 686.276V689.276ZM1032.8 684.312L1034.25 686.937C1040.85 683.288 1046.29 678.493 1050.53 672.555L1048.09 670.811L1045.65 669.067C1041.95 674.248 1037.2 678.453 1031.35 681.687L1032.8 684.312ZM1048.09 670.811L1050.53 672.555C1054.72 666.691 1057.78 660.141 1059.72 652.927L1056.83 652.147L1053.93 651.367C1052.17 657.92 1049.4 663.812 1045.65 669.067L1048.09 670.811ZM1056.83 652.147L1059.73 652.914C1061.64 645.652 1062.61 638.313 1062.61 630.903H1059.61H1056.61C1056.61 637.788 1055.71 644.612 1053.93 651.381L1056.83 652.147ZM1059.61 630.903H1062.61C1062.61 623.493 1061.64 616.215 1059.72 609.077L1056.83 609.857L1053.93 610.637C1055.71 617.265 1056.61 624.018 1056.61 630.903H1059.61ZM1056.83 609.857L1059.73 609.091C1057.79 601.746 1054.73 595.124 1050.53 589.251L1048.09 590.995L1045.65 592.739C1049.4 597.985 1052.16 603.937 1053.93 610.623L1056.83 609.857ZM1048.09 590.995L1050.53 589.251C1046.28 583.302 1040.83 578.563 1034.21 575.044L1032.8 577.692L1031.39 580.341C1037.22 583.439 1041.96 587.569 1045.65 592.739L1048.09 590.995ZM1032.8 577.692L1034.25 575.067C1027.5 571.333 1019.57 569.53 1010.56 569.53V572.53V575.53C1018.77 575.53 1025.66 577.169 1031.35 580.317L1032.8 577.692ZM1010.56 572.53V569.53C1001.56 569.53 993.625 571.333 986.875 575.067L988.327 577.692L989.78 580.317C995.472 577.169 1002.36 575.53 1010.56 575.53V572.53ZM988.327 577.692L986.918 575.044C980.301 578.563 974.847 583.302 970.598 589.251L973.039 590.995L975.48 592.739C979.173 587.569 983.911 583.439 989.736 580.341L988.327 577.692ZM973.039 590.995L970.598 589.251C966.403 595.124 963.343 601.746 961.403 609.091L964.303 609.857L967.204 610.623C968.97 603.937 971.733 597.985 975.48 592.739L973.039 590.995ZM964.303 609.857L961.406 609.077C959.485 616.215 958.523 623.493 958.523 630.903H961.523H964.523C964.523 624.018 965.416 617.265 967.2 610.637L964.303 609.857ZM942.661 630.903H945.661C945.661 621.532 947.009 612.57 949.694 604.004L946.831 603.106L943.968 602.209C941.094 611.379 939.661 620.948 939.661 630.903H942.661ZM946.831 603.106L949.685 604.03C952.488 595.368 956.612 587.766 962.048 581.192L959.737 579.281L957.425 577.369C951.477 584.561 946.998 592.843 943.977 602.183L946.831 603.106ZM959.737 579.281L962.048 581.192C967.451 574.659 974.184 569.427 982.289 565.501L980.981 562.801L979.673 560.101C970.836 564.382 963.405 570.136 957.425 577.369L959.737 579.281ZM980.981 562.801L982.289 565.501C990.281 561.63 999.679 559.646 1010.56 559.646V556.646V553.646C998.948 553.646 988.624 555.766 979.673 560.101L980.981 562.801ZM1010.56 556.646V559.646C1021.45 559.646 1030.85 561.63 1038.84 565.501L1040.15 562.801L1041.46 560.101C1032.5 555.766 1022.18 553.646 1010.56 553.646V556.646ZM1040.15 562.801L1038.84 565.501C1046.95 569.427 1053.68 574.659 1059.08 581.192L1061.39 579.281L1063.7 577.369C1057.72 570.136 1050.29 564.382 1041.46 560.101L1040.15 562.801ZM1061.39 579.281L1059.08 581.192C1064.51 587.756 1068.56 595.345 1071.23 603.992L1074.1 603.106L1076.97 602.221C1074.08 592.866 1069.66 584.571 1063.7 577.369L1061.39 579.281ZM1074.1 603.106L1071.25 604.042C1074.06 612.598 1075.47 621.547 1075.47 630.903H1078.47H1081.47C1081.47 620.934 1079.96 611.351 1076.95 602.17L1074.1 603.106ZM1078.47 630.903H1075.47C1075.47 640.259 1074.06 649.278 1071.25 657.975L1074.1 658.898L1076.95 659.821C1079.96 650.516 1081.47 640.872 1081.47 630.903H1078.47ZM1074.1 658.898L1071.24 658.001C1068.57 666.514 1064.51 674.042 1059.08 680.613L1061.39 682.525L1063.7 684.437C1069.65 677.242 1074.07 669.019 1076.96 659.795L1074.1 658.898ZM1061.39 682.525L1059.08 680.613C1053.68 687.147 1046.95 692.379 1038.84 696.305L1040.15 699.005L1041.46 701.704C1050.29 697.424 1057.72 691.669 1063.7 684.437L1061.39 682.525ZM1040.15 699.005L1038.87 696.288C1030.87 700.038 1021.46 701.961 1010.56 701.961V704.961V707.961C1022.17 707.961 1032.48 705.913 1041.42 701.721L1040.15 699.005ZM1010.56 704.961V701.961C999.666 701.961 990.255 700.038 982.254 696.288L980.981 699.005L979.708 701.721C988.65 705.913 998.961 707.961 1010.56 707.961V704.961ZM980.981 699.005L982.289 696.305C974.184 692.379 967.451 687.147 962.048 680.613L959.737 682.525L957.425 684.437C963.405 691.669 970.836 697.424 979.673 701.704L980.981 699.005ZM959.737 682.525L962.048 680.613C956.606 674.032 952.482 666.491 949.681 657.962L946.831 658.898L943.981 659.834C947.004 669.042 951.483 677.252 957.425 684.437L959.737 682.525ZM946.831 658.898L949.697 658.013C947.009 649.306 945.661 640.273 945.661 630.903H942.661H939.661C939.661 640.858 941.094 650.488 943.965 659.783L946.831 658.898ZM1133.62 575.905H1136.62V572.905H1133.62V575.905ZM1086.36 575.905H1083.36V578.905H1086.36V575.905ZM1086.36 560.022V557.022H1083.36V560.022H1086.36ZM1199.73 560.022H1202.73V557.022H1199.73V560.022ZM1199.73 575.905V578.905H1202.73V575.905H1199.73ZM1152.48 575.905V572.905H1149.48V575.905H1152.48ZM1152.48 701.784V704.784H1155.48V701.784H1152.48ZM1133.62 701.784H1130.62V704.784H1133.62V701.784ZM1133.62 575.905V572.905H1086.36V575.905V578.905H1133.62V575.905ZM1086.36 575.905H1089.36V560.022H1086.36H1083.36V575.905H1086.36ZM1086.36 560.022V563.022H1199.73V560.022V557.022H1086.36V560.022ZM1199.73 560.022H1196.73V575.905H1199.73H1202.73V560.022H1199.73ZM1199.73 575.905V572.905H1152.48V575.905V578.905H1199.73V575.905ZM1152.48 575.905H1149.48V701.784H1152.48H1155.48V575.905H1152.48ZM1152.48 701.784V698.784H1133.62V701.784V704.784H1152.48V701.784ZM1133.62 701.784H1136.62V575.905H1133.62H1130.62V701.784H1133.62Z" fill="#0073FF" mask="url(#path-3-outside-1_72_5434)"/>
<line x1="1885.01" y1="538.556" x2="0.00467382" y2="544.159" stroke="white" stroke-width="2.88911"/>
<path d="M939.878 310.448C1051.16 310.448 1151.81 336.165 1224.57 377.637C1297.38 419.143 1341.86 476.162 1341.86 538.687C1341.86 601.212 1297.38 658.231 1224.57 699.737C1151.81 741.209 1051.16 766.926 939.878 766.926C828.591 766.926 727.943 741.209 655.189 699.737C582.376 658.231 537.899 601.212 537.898 538.687C537.898 476.162 582.376 419.143 655.189 377.637C727.943 336.165 828.591 310.448 939.878 310.448Z" stroke="#0073FF" stroke-width="4.20233"/>
</svg>
