<svg width="1886" height="239" viewBox="0 0 1886 239" fill="none" xmlns="http://www.w3.org/2000/svg">
<line x1="1885.01" y1="124.445" x2="0.00369726" y2="130.048" stroke="#0073FF" stroke-width="2.88911"/>
<path d="M943.626 1.40039C1001.32 1.40039 1053.48 14.7325 1091.17 36.2168C1128.9 57.724 1151.86 87.2219 1151.86 119.5C1151.86 151.778 1128.9 181.276 1091.17 202.783C1053.48 224.267 1001.32 237.6 943.626 237.6C885.935 237.6 833.774 224.267 796.085 202.783C758.355 181.276 735.391 151.778 735.391 119.5C735.391 87.2219 758.355 57.724 796.085 36.2168C833.774 14.7327 885.935 1.40042 943.626 1.40039Z" fill="white" stroke="#0073FF" stroke-width="2.8"/>
<mask id="path-3-outside-1_98_6027" maskUnits="userSpaceOnUse" x="806.99" y="34" width="272" height="177" fill="black">
<rect fill="white" x="806.99" y="34" width="272" height="177"/>
<path d="M823.81 70.0767H843.381C848.944 70.0767 852.926 69.1153 855.33 67.1925C857.802 65.2011 859.038 62.2483 859.038 58.334C859.038 55.7246 858.626 53.6645 857.802 52.1537C856.978 50.643 855.845 49.4756 854.403 48.6515C852.961 47.8275 851.278 47.3124 849.356 47.1064C847.502 46.8317 845.51 46.6944 843.381 46.6944H823.81V70.0767ZM814.025 38.4539H840.703C842.283 38.4539 843.965 38.4883 845.75 38.557C847.605 38.557 849.424 38.66 851.21 38.866C852.995 39.0033 854.643 39.2437 856.154 39.587C857.733 39.9304 859.072 40.4454 860.171 41.1321C862.575 42.5742 864.6 44.5656 866.249 47.1064C867.965 49.6472 868.824 52.7717 868.824 56.4799C868.824 60.3942 867.862 63.7933 865.94 66.6775C864.085 69.493 861.407 71.5874 857.905 72.9609V73.1669C862.437 74.1282 865.905 76.1884 868.309 79.3472C870.712 82.506 871.914 86.3516 871.914 90.8838C871.914 93.562 871.433 96.1715 870.472 98.7123C869.51 101.253 868.068 103.519 866.146 105.511C864.291 107.433 861.957 109.013 859.141 110.249C856.394 111.416 853.201 112 849.562 112H814.025V38.4539ZM823.81 103.76H848.326C852.652 103.76 856.017 102.592 858.42 100.257C860.892 97.9226 862.128 94.695 862.128 90.5748C862.128 88.1714 861.682 86.1799 860.789 84.6005C859.897 83.0211 858.695 81.785 857.184 80.8923C855.742 79.9309 854.06 79.2785 852.137 78.9352C850.214 78.5232 848.223 78.3171 846.162 78.3171H823.81V103.76ZM897.209 81.6133H922.136L909.879 47.3124H909.673L897.209 81.6133ZM904.522 38.4539H915.338L944.077 112H933.261L925.227 89.8538H894.119L885.878 112H875.887L904.522 38.4539ZM993.873 59.9821C993.324 54.6945 991.401 50.8833 988.105 48.5485C984.878 46.145 980.723 44.9433 975.641 44.9433C973.581 44.9433 971.555 45.1493 969.564 45.5613C967.573 45.9734 965.787 46.6601 964.208 47.6215C962.697 48.5828 961.461 49.8876 960.5 51.5357C959.607 53.1151 959.16 55.1065 959.16 57.51C959.16 59.7761 959.813 61.6302 961.118 63.0723C962.491 64.4457 964.276 65.5788 966.474 66.4715C968.74 67.3642 971.281 68.1196 974.096 68.7376C976.912 69.287 979.762 69.905 982.646 70.5917C985.599 71.2784 988.483 72.1025 991.298 73.0639C994.114 73.9566 996.62 75.1926 998.818 76.7721C1001.08 78.3515 1002.87 80.3429 1004.17 82.7464C1005.55 85.1499 1006.23 88.1714 1006.23 91.8109C1006.23 95.7251 1005.34 99.09 1003.56 101.905C1001.84 104.652 999.607 106.918 996.861 108.704C994.114 110.421 991.024 111.657 987.59 112.412C984.225 113.236 980.86 113.648 977.495 113.648C973.375 113.648 969.461 113.133 965.753 112.103C962.113 111.073 958.886 109.528 956.07 107.468C953.323 105.339 951.126 102.661 949.478 99.4333C947.899 96.1371 947.109 92.2572 947.109 87.7937H956.379C956.379 90.8838 956.963 93.562 958.13 95.8281C959.366 98.0256 960.946 99.8453 962.869 101.287C964.86 102.729 967.161 103.794 969.77 104.481C972.38 105.167 975.058 105.511 977.805 105.511C980.002 105.511 982.199 105.305 984.397 104.893C986.663 104.481 988.689 103.794 990.474 102.832C992.26 101.802 993.702 100.429 994.8 98.7123C995.899 96.9955 996.449 94.7981 996.449 92.1199C996.449 89.5791 995.762 87.519 994.388 85.9396C993.084 84.3601 991.298 83.0897 989.032 82.1284C986.835 81.0983 984.328 80.2743 981.513 79.6562C978.697 79.0382 975.813 78.4202 972.86 77.8021C969.976 77.1154 967.126 76.36 964.311 75.536C961.495 74.6433 958.954 73.5102 956.688 72.1368C954.491 70.6947 952.705 68.875 951.332 66.6775C950.027 64.4114 949.375 61.5959 949.375 58.231C949.375 54.5228 950.13 51.3297 951.641 48.6515C953.152 45.9047 955.143 43.6729 957.615 41.9561C960.156 40.1707 963.006 38.866 966.165 38.0419C969.392 37.1492 972.689 36.7029 976.053 36.7029C979.83 36.7029 983.332 37.1492 986.56 38.0419C989.788 38.9346 992.603 40.3424 995.006 42.2652C997.479 44.1879 999.401 46.6257 1000.77 49.5786C1002.22 52.4627 1003.01 55.9306 1003.14 59.9821H993.873ZM1060.67 59.9821C1060.12 54.6945 1058.19 50.8833 1054.9 48.5485C1051.67 46.145 1047.52 44.9433 1042.43 44.9433C1040.37 44.9433 1038.35 45.1493 1036.36 45.5613C1034.37 45.9734 1032.58 46.6601 1031 47.6215C1029.49 48.5828 1028.25 49.8876 1027.29 51.5357C1026.4 53.1151 1025.95 55.1065 1025.95 57.51C1025.95 59.7761 1026.61 61.6302 1027.91 63.0723C1029.28 64.4457 1031.07 65.5788 1033.27 66.4715C1035.53 67.3642 1038.07 68.1196 1040.89 68.7376C1043.7 69.287 1046.55 69.905 1049.44 70.5917C1052.39 71.2784 1055.28 72.1025 1058.09 73.0639C1060.91 73.9566 1063.41 75.1926 1065.61 76.7721C1067.88 78.3515 1069.66 80.3429 1070.97 82.7464C1072.34 85.1499 1073.03 88.1714 1073.03 91.8109C1073.03 95.7251 1072.13 99.09 1070.35 101.905C1068.63 104.652 1066.4 106.918 1063.65 108.704C1060.91 110.421 1057.82 111.657 1054.38 112.412C1051.02 113.236 1047.65 113.648 1044.29 113.648C1040.17 113.648 1036.25 113.133 1032.55 112.103C1028.91 111.073 1025.68 109.528 1022.86 107.468C1020.12 105.339 1017.92 102.661 1016.27 99.4333C1014.69 96.1371 1013.9 92.2572 1013.9 87.7937H1023.17C1023.17 90.8838 1023.76 93.562 1024.92 95.8281C1026.16 98.0256 1027.74 99.8453 1029.66 101.287C1031.65 102.729 1033.95 103.794 1036.56 104.481C1039.17 105.167 1041.85 105.511 1044.6 105.511C1046.79 105.511 1048.99 105.305 1051.19 104.893C1053.46 104.481 1055.48 103.794 1057.27 102.832C1059.05 101.802 1060.49 100.429 1061.59 98.7123C1062.69 96.9955 1063.24 94.7981 1063.24 92.1199C1063.24 89.5791 1062.55 87.519 1061.18 85.9396C1059.88 84.3601 1058.09 83.0897 1055.82 82.1284C1053.63 81.0983 1051.12 80.2743 1048.31 79.6562C1045.49 79.0382 1042.61 78.4202 1039.65 77.8021C1036.77 77.1154 1033.92 76.36 1031.1 75.536C1028.29 74.6433 1025.75 73.5102 1023.48 72.1368C1021.28 70.6947 1019.5 68.875 1018.12 66.6775C1016.82 64.4114 1016.17 61.5959 1016.17 58.231C1016.17 54.5228 1016.92 51.3297 1018.43 48.6515C1019.94 45.9047 1021.94 43.6729 1024.41 41.9561C1026.95 40.1707 1029.8 38.866 1032.96 38.0419C1036.19 37.1492 1039.48 36.7029 1042.85 36.7029C1046.62 36.7029 1050.13 37.1492 1053.35 38.0419C1056.58 38.9346 1059.4 40.3424 1061.8 42.2652C1064.27 44.1879 1066.19 46.6257 1067.57 49.5786C1069.01 52.4627 1069.8 55.9306 1069.94 59.9821H1060.67ZM856.566 154.982C856.017 149.695 854.094 145.883 850.798 143.549C847.57 141.145 843.416 139.943 838.334 139.943C836.274 139.943 834.248 140.149 832.257 140.561C830.265 140.973 828.48 141.66 826.9 142.621C825.39 143.583 824.154 144.888 823.192 146.536C822.299 148.115 821.853 150.107 821.853 152.51C821.853 154.776 822.505 156.63 823.81 158.072C825.184 159.446 826.969 160.579 829.167 161.471C831.433 162.364 833.973 163.12 836.789 163.738C839.604 164.287 842.454 164.905 845.338 165.592C848.291 166.278 851.175 167.102 853.991 168.064C856.806 168.957 859.313 170.193 861.51 171.772C863.776 173.351 865.562 175.343 866.867 177.746C868.24 180.15 868.927 183.171 868.927 186.811C868.927 190.725 868.034 194.09 866.249 196.905C864.532 199.652 862.3 201.918 859.553 203.704C856.806 205.421 853.716 206.657 850.283 207.412C846.918 208.236 843.553 208.648 840.188 208.648C836.068 208.648 832.154 208.133 828.445 207.103C824.806 206.073 821.578 204.528 818.763 202.468C816.016 200.339 813.819 197.661 812.171 194.433C810.591 191.137 809.801 187.257 809.801 182.794H819.072C819.072 185.884 819.656 188.562 820.823 190.828C822.059 193.026 823.639 194.845 825.561 196.287C827.553 197.729 829.853 198.794 832.463 199.481C835.072 200.167 837.75 200.511 840.497 200.511C842.695 200.511 844.892 200.305 847.089 199.893C849.356 199.481 851.381 198.794 853.167 197.832C854.952 196.802 856.394 195.429 857.493 193.712C858.592 191.996 859.141 189.798 859.141 187.12C859.141 184.579 858.454 182.519 857.081 180.94C855.776 179.36 853.991 178.09 851.725 177.128C849.527 176.098 847.021 175.274 844.205 174.656C841.39 174.038 838.506 173.42 835.553 172.802C832.669 172.115 829.819 171.36 827.003 170.536C824.188 169.643 821.647 168.51 819.381 167.137C817.184 165.695 815.398 163.875 814.025 161.678C812.72 159.411 812.068 156.596 812.068 153.231C812.068 149.523 812.823 146.33 814.334 143.652C815.844 140.905 817.836 138.673 820.308 136.956C822.849 135.171 825.699 133.866 828.857 133.042C832.085 132.149 835.381 131.703 838.746 131.703C842.523 131.703 846.025 132.149 849.253 133.042C852.48 133.935 855.296 135.342 857.699 137.265C860.171 139.188 862.094 141.626 863.467 144.579C864.909 147.463 865.699 150.931 865.837 154.982H856.566ZM890.603 168.682H909.762C915.324 168.751 919.376 167.617 921.917 165.283C924.526 162.948 925.831 159.583 925.831 155.188C925.831 150.793 924.526 147.463 921.917 145.197C919.376 142.862 915.324 141.694 909.762 141.694H890.603V168.682ZM880.817 133.454H913.058C920.475 133.454 926.071 135.377 929.848 139.222C933.694 142.999 935.616 148.321 935.616 155.188C935.616 162.055 933.694 167.411 929.848 171.257C926.071 175.103 920.475 176.991 913.058 176.922H890.603V207H880.817V133.454ZM953.275 170.227C953.275 173.935 953.756 177.609 954.718 181.249C955.679 184.819 957.19 188.047 959.25 190.931C961.31 193.815 963.954 196.15 967.181 197.936C970.409 199.652 974.254 200.511 978.718 200.511C983.181 200.511 987.027 199.652 990.255 197.936C993.482 196.15 996.126 193.815 998.186 190.931C1000.25 188.047 1001.76 184.819 1002.72 181.249C1003.68 177.609 1004.16 173.935 1004.16 170.227C1004.16 166.519 1003.68 162.879 1002.72 159.308C1001.76 155.669 1000.25 152.407 998.186 149.523C996.126 146.639 993.482 144.338 990.255 142.621C987.027 140.836 983.181 139.943 978.718 139.943C974.254 139.943 970.409 140.836 967.181 142.621C963.954 144.338 961.31 146.639 959.25 149.523C957.19 152.407 955.679 155.669 954.718 159.308C953.756 162.879 953.275 166.519 953.275 170.227ZM943.49 170.227C943.49 165.214 944.211 160.407 945.653 155.806C947.164 151.137 949.396 147.016 952.348 143.445C955.301 139.875 958.975 137.025 963.37 134.896C967.765 132.767 972.881 131.703 978.718 131.703C984.555 131.703 989.671 132.767 994.066 134.896C998.461 137.025 1002.13 139.875 1005.09 143.445C1008.04 147.016 1010.24 151.137 1011.68 155.806C1013.19 160.407 1013.95 165.214 1013.95 170.227C1013.95 175.24 1013.19 180.081 1011.68 184.751C1010.24 189.352 1008.04 193.438 1005.09 197.008C1002.13 200.579 998.461 203.429 994.066 205.558C989.671 207.618 984.555 208.648 978.718 208.648C972.881 208.648 967.765 207.618 963.37 205.558C958.975 203.429 955.301 200.579 952.348 197.008C949.396 193.438 947.164 189.352 945.653 184.751C944.211 180.081 943.49 175.24 943.49 170.227ZM1042.56 141.694H1018.04V133.454H1076.86V141.694H1052.34V207H1042.56V141.694Z"/>
</mask>
<path d="M823.81 70.0767H843.381C848.944 70.0767 852.926 69.1153 855.33 67.1925C857.802 65.2011 859.038 62.2483 859.038 58.334C859.038 55.7246 858.626 53.6645 857.802 52.1537C856.978 50.643 855.845 49.4756 854.403 48.6515C852.961 47.8275 851.278 47.3124 849.356 47.1064C847.502 46.8317 845.51 46.6944 843.381 46.6944H823.81V70.0767ZM814.025 38.4539H840.703C842.283 38.4539 843.965 38.4883 845.75 38.557C847.605 38.557 849.424 38.66 851.21 38.866C852.995 39.0033 854.643 39.2437 856.154 39.587C857.733 39.9304 859.072 40.4454 860.171 41.1321C862.575 42.5742 864.6 44.5656 866.249 47.1064C867.965 49.6472 868.824 52.7717 868.824 56.4799C868.824 60.3942 867.862 63.7933 865.94 66.6775C864.085 69.493 861.407 71.5874 857.905 72.9609V73.1669C862.437 74.1282 865.905 76.1884 868.309 79.3472C870.712 82.506 871.914 86.3516 871.914 90.8838C871.914 93.562 871.433 96.1715 870.472 98.7123C869.51 101.253 868.068 103.519 866.146 105.511C864.291 107.433 861.957 109.013 859.141 110.249C856.394 111.416 853.201 112 849.562 112H814.025V38.4539ZM823.81 103.76H848.326C852.652 103.76 856.017 102.592 858.42 100.257C860.892 97.9226 862.128 94.695 862.128 90.5748C862.128 88.1714 861.682 86.1799 860.789 84.6005C859.897 83.0211 858.695 81.785 857.184 80.8923C855.742 79.9309 854.06 79.2785 852.137 78.9352C850.214 78.5232 848.223 78.3171 846.162 78.3171H823.81V103.76ZM897.209 81.6133H922.136L909.879 47.3124H909.673L897.209 81.6133ZM904.522 38.4539H915.338L944.077 112H933.261L925.227 89.8538H894.119L885.878 112H875.887L904.522 38.4539ZM993.873 59.9821C993.324 54.6945 991.401 50.8833 988.105 48.5485C984.878 46.145 980.723 44.9433 975.641 44.9433C973.581 44.9433 971.555 45.1493 969.564 45.5613C967.573 45.9734 965.787 46.6601 964.208 47.6215C962.697 48.5828 961.461 49.8876 960.5 51.5357C959.607 53.1151 959.16 55.1065 959.16 57.51C959.16 59.7761 959.813 61.6302 961.118 63.0723C962.491 64.4457 964.276 65.5788 966.474 66.4715C968.74 67.3642 971.281 68.1196 974.096 68.7376C976.912 69.287 979.762 69.905 982.646 70.5917C985.599 71.2784 988.483 72.1025 991.298 73.0639C994.114 73.9566 996.62 75.1926 998.818 76.7721C1001.08 78.3515 1002.87 80.3429 1004.17 82.7464C1005.55 85.1499 1006.23 88.1714 1006.23 91.8109C1006.23 95.7251 1005.34 99.09 1003.56 101.905C1001.84 104.652 999.607 106.918 996.861 108.704C994.114 110.421 991.024 111.657 987.59 112.412C984.225 113.236 980.86 113.648 977.495 113.648C973.375 113.648 969.461 113.133 965.753 112.103C962.113 111.073 958.886 109.528 956.07 107.468C953.323 105.339 951.126 102.661 949.478 99.4333C947.899 96.1371 947.109 92.2572 947.109 87.7937H956.379C956.379 90.8838 956.963 93.562 958.13 95.8281C959.366 98.0256 960.946 99.8453 962.869 101.287C964.86 102.729 967.161 103.794 969.77 104.481C972.38 105.167 975.058 105.511 977.805 105.511C980.002 105.511 982.199 105.305 984.397 104.893C986.663 104.481 988.689 103.794 990.474 102.832C992.26 101.802 993.702 100.429 994.8 98.7123C995.899 96.9955 996.449 94.7981 996.449 92.1199C996.449 89.5791 995.762 87.519 994.388 85.9396C993.084 84.3601 991.298 83.0897 989.032 82.1284C986.835 81.0983 984.328 80.2743 981.513 79.6562C978.697 79.0382 975.813 78.4202 972.86 77.8021C969.976 77.1154 967.126 76.36 964.311 75.536C961.495 74.6433 958.954 73.5102 956.688 72.1368C954.491 70.6947 952.705 68.875 951.332 66.6775C950.027 64.4114 949.375 61.5959 949.375 58.231C949.375 54.5228 950.13 51.3297 951.641 48.6515C953.152 45.9047 955.143 43.6729 957.615 41.9561C960.156 40.1707 963.006 38.866 966.165 38.0419C969.392 37.1492 972.689 36.7029 976.053 36.7029C979.83 36.7029 983.332 37.1492 986.56 38.0419C989.788 38.9346 992.603 40.3424 995.006 42.2652C997.479 44.1879 999.401 46.6257 1000.77 49.5786C1002.22 52.4627 1003.01 55.9306 1003.14 59.9821H993.873ZM1060.67 59.9821C1060.12 54.6945 1058.19 50.8833 1054.9 48.5485C1051.67 46.145 1047.52 44.9433 1042.43 44.9433C1040.37 44.9433 1038.35 45.1493 1036.36 45.5613C1034.37 45.9734 1032.58 46.6601 1031 47.6215C1029.49 48.5828 1028.25 49.8876 1027.29 51.5357C1026.4 53.1151 1025.95 55.1065 1025.95 57.51C1025.95 59.7761 1026.61 61.6302 1027.91 63.0723C1029.28 64.4457 1031.07 65.5788 1033.27 66.4715C1035.53 67.3642 1038.07 68.1196 1040.89 68.7376C1043.7 69.287 1046.55 69.905 1049.44 70.5917C1052.39 71.2784 1055.28 72.1025 1058.09 73.0639C1060.91 73.9566 1063.41 75.1926 1065.61 76.7721C1067.88 78.3515 1069.66 80.3429 1070.97 82.7464C1072.34 85.1499 1073.03 88.1714 1073.03 91.8109C1073.03 95.7251 1072.13 99.09 1070.35 101.905C1068.63 104.652 1066.4 106.918 1063.65 108.704C1060.91 110.421 1057.82 111.657 1054.38 112.412C1051.02 113.236 1047.65 113.648 1044.29 113.648C1040.17 113.648 1036.25 113.133 1032.55 112.103C1028.91 111.073 1025.68 109.528 1022.86 107.468C1020.12 105.339 1017.92 102.661 1016.27 99.4333C1014.69 96.1371 1013.9 92.2572 1013.9 87.7937H1023.17C1023.17 90.8838 1023.76 93.562 1024.92 95.8281C1026.16 98.0256 1027.74 99.8453 1029.66 101.287C1031.65 102.729 1033.95 103.794 1036.56 104.481C1039.17 105.167 1041.85 105.511 1044.6 105.511C1046.79 105.511 1048.99 105.305 1051.19 104.893C1053.46 104.481 1055.48 103.794 1057.27 102.832C1059.05 101.802 1060.49 100.429 1061.59 98.7123C1062.69 96.9955 1063.24 94.7981 1063.24 92.1199C1063.24 89.5791 1062.55 87.519 1061.18 85.9396C1059.88 84.3601 1058.09 83.0897 1055.82 82.1284C1053.63 81.0983 1051.12 80.2743 1048.31 79.6562C1045.49 79.0382 1042.61 78.4202 1039.65 77.8021C1036.77 77.1154 1033.92 76.36 1031.1 75.536C1028.29 74.6433 1025.75 73.5102 1023.48 72.1368C1021.28 70.6947 1019.5 68.875 1018.12 66.6775C1016.82 64.4114 1016.17 61.5959 1016.17 58.231C1016.17 54.5228 1016.92 51.3297 1018.43 48.6515C1019.94 45.9047 1021.94 43.6729 1024.41 41.9561C1026.95 40.1707 1029.8 38.866 1032.96 38.0419C1036.19 37.1492 1039.48 36.7029 1042.85 36.7029C1046.62 36.7029 1050.13 37.1492 1053.35 38.0419C1056.58 38.9346 1059.4 40.3424 1061.8 42.2652C1064.27 44.1879 1066.19 46.6257 1067.57 49.5786C1069.01 52.4627 1069.8 55.9306 1069.94 59.9821H1060.67ZM856.566 154.982C856.017 149.695 854.094 145.883 850.798 143.549C847.57 141.145 843.416 139.943 838.334 139.943C836.274 139.943 834.248 140.149 832.257 140.561C830.265 140.973 828.48 141.66 826.9 142.621C825.39 143.583 824.154 144.888 823.192 146.536C822.299 148.115 821.853 150.107 821.853 152.51C821.853 154.776 822.505 156.63 823.81 158.072C825.184 159.446 826.969 160.579 829.167 161.471C831.433 162.364 833.973 163.12 836.789 163.738C839.604 164.287 842.454 164.905 845.338 165.592C848.291 166.278 851.175 167.102 853.991 168.064C856.806 168.957 859.313 170.193 861.51 171.772C863.776 173.351 865.562 175.343 866.867 177.746C868.24 180.15 868.927 183.171 868.927 186.811C868.927 190.725 868.034 194.09 866.249 196.905C864.532 199.652 862.3 201.918 859.553 203.704C856.806 205.421 853.716 206.657 850.283 207.412C846.918 208.236 843.553 208.648 840.188 208.648C836.068 208.648 832.154 208.133 828.445 207.103C824.806 206.073 821.578 204.528 818.763 202.468C816.016 200.339 813.819 197.661 812.171 194.433C810.591 191.137 809.801 187.257 809.801 182.794H819.072C819.072 185.884 819.656 188.562 820.823 190.828C822.059 193.026 823.639 194.845 825.561 196.287C827.553 197.729 829.853 198.794 832.463 199.481C835.072 200.167 837.75 200.511 840.497 200.511C842.695 200.511 844.892 200.305 847.089 199.893C849.356 199.481 851.381 198.794 853.167 197.832C854.952 196.802 856.394 195.429 857.493 193.712C858.592 191.996 859.141 189.798 859.141 187.12C859.141 184.579 858.454 182.519 857.081 180.94C855.776 179.36 853.991 178.09 851.725 177.128C849.527 176.098 847.021 175.274 844.205 174.656C841.39 174.038 838.506 173.42 835.553 172.802C832.669 172.115 829.819 171.36 827.003 170.536C824.188 169.643 821.647 168.51 819.381 167.137C817.184 165.695 815.398 163.875 814.025 161.678C812.72 159.411 812.068 156.596 812.068 153.231C812.068 149.523 812.823 146.33 814.334 143.652C815.844 140.905 817.836 138.673 820.308 136.956C822.849 135.171 825.699 133.866 828.857 133.042C832.085 132.149 835.381 131.703 838.746 131.703C842.523 131.703 846.025 132.149 849.253 133.042C852.48 133.935 855.296 135.342 857.699 137.265C860.171 139.188 862.094 141.626 863.467 144.579C864.909 147.463 865.699 150.931 865.837 154.982H856.566ZM890.603 168.682H909.762C915.324 168.751 919.376 167.617 921.917 165.283C924.526 162.948 925.831 159.583 925.831 155.188C925.831 150.793 924.526 147.463 921.917 145.197C919.376 142.862 915.324 141.694 909.762 141.694H890.603V168.682ZM880.817 133.454H913.058C920.475 133.454 926.071 135.377 929.848 139.222C933.694 142.999 935.616 148.321 935.616 155.188C935.616 162.055 933.694 167.411 929.848 171.257C926.071 175.103 920.475 176.991 913.058 176.922H890.603V207H880.817V133.454ZM953.275 170.227C953.275 173.935 953.756 177.609 954.718 181.249C955.679 184.819 957.19 188.047 959.25 190.931C961.31 193.815 963.954 196.15 967.181 197.936C970.409 199.652 974.254 200.511 978.718 200.511C983.181 200.511 987.027 199.652 990.255 197.936C993.482 196.15 996.126 193.815 998.186 190.931C1000.25 188.047 1001.76 184.819 1002.72 181.249C1003.68 177.609 1004.16 173.935 1004.16 170.227C1004.16 166.519 1003.68 162.879 1002.72 159.308C1001.76 155.669 1000.25 152.407 998.186 149.523C996.126 146.639 993.482 144.338 990.255 142.621C987.027 140.836 983.181 139.943 978.718 139.943C974.254 139.943 970.409 140.836 967.181 142.621C963.954 144.338 961.31 146.639 959.25 149.523C957.19 152.407 955.679 155.669 954.718 159.308C953.756 162.879 953.275 166.519 953.275 170.227ZM943.49 170.227C943.49 165.214 944.211 160.407 945.653 155.806C947.164 151.137 949.396 147.016 952.348 143.445C955.301 139.875 958.975 137.025 963.37 134.896C967.765 132.767 972.881 131.703 978.718 131.703C984.555 131.703 989.671 132.767 994.066 134.896C998.461 137.025 1002.13 139.875 1005.09 143.445C1008.04 147.016 1010.24 151.137 1011.68 155.806C1013.19 160.407 1013.95 165.214 1013.95 170.227C1013.95 175.24 1013.19 180.081 1011.68 184.751C1010.24 189.352 1008.04 193.438 1005.09 197.008C1002.13 200.579 998.461 203.429 994.066 205.558C989.671 207.618 984.555 208.648 978.718 208.648C972.881 208.648 967.765 207.618 963.37 205.558C958.975 203.429 955.301 200.579 952.348 197.008C949.396 193.438 947.164 189.352 945.653 184.751C944.211 180.081 943.49 175.24 943.49 170.227ZM1042.56 141.694H1018.04V133.454H1076.86V141.694H1052.34V207H1042.56V141.694Z" fill="white"/>
<path d="M823.81 70.0767H821.81V72.0767H823.81V70.0767ZM855.33 67.1925L856.579 68.7543L856.585 68.75L855.33 67.1925ZM857.802 52.1537L856.046 53.1114L856.046 53.1114L857.802 52.1537ZM854.403 48.6515L853.411 50.388L853.411 50.388L854.403 48.6515ZM849.356 47.1064L849.063 49.0848L849.102 49.0907L849.143 49.095L849.356 47.1064ZM823.81 46.6944V44.6944H821.81V46.6944H823.81ZM814.025 38.4539V36.4539H812.025V38.4539H814.025ZM845.75 38.557L845.674 40.5555L845.712 40.557H845.75V38.557ZM851.21 38.866L850.98 40.8528L851.018 40.8572L851.056 40.8601L851.21 38.866ZM856.154 39.587L855.711 41.5373L855.72 41.5394L855.729 41.5414L856.154 39.587ZM860.171 41.1321L859.111 42.8281L859.127 42.8377L859.142 42.8471L860.171 41.1321ZM866.249 47.1064L864.571 48.1948L864.581 48.2106L864.591 48.2261L866.249 47.1064ZM865.94 66.6775L864.275 65.5681L864.269 65.5775L865.94 66.6775ZM857.905 72.9609L857.175 71.0989L855.905 71.5969V72.9609H857.905ZM857.905 73.1669H855.905V74.7871L857.49 75.1233L857.905 73.1669ZM868.309 79.3472L866.717 80.5582L866.717 80.5582L868.309 79.3472ZM866.146 105.511L864.707 104.121L864.706 104.122L866.146 105.511ZM859.141 110.249L859.923 112.09L859.934 112.085L859.945 112.08L859.141 110.249ZM814.025 112H812.025V114H814.025V112ZM823.81 103.76H821.81V105.76H823.81V103.76ZM858.42 100.257L857.047 98.8033L857.037 98.813L857.027 98.8228L858.42 100.257ZM860.789 84.6005L859.048 85.5846L859.048 85.5846L860.789 84.6005ZM857.184 80.8923L856.075 82.5564L856.12 82.5865L856.167 82.6141L857.184 80.8923ZM852.137 78.9352L851.718 80.8908L851.751 80.898L851.785 80.904L852.137 78.9352ZM823.81 78.3171V76.3171H821.81V78.3171H823.81ZM823.81 70.0767V72.0767H843.381V70.0767V68.0767H823.81V70.0767ZM843.381 70.0767V72.0767C849.073 72.0767 853.632 71.1125 856.579 68.7543L855.33 67.1925L854.081 65.6308C852.221 67.1181 848.814 68.0767 843.381 68.0767V70.0767ZM855.33 67.1925L856.585 68.75C859.637 66.2913 861.038 62.6983 861.038 58.334H859.038H857.038C857.038 61.7982 855.967 64.1109 854.075 65.635L855.33 67.1925ZM859.038 58.334H861.038C861.038 55.5485 860.604 53.1138 859.558 51.196L857.802 52.1537L856.046 53.1114C856.648 54.2151 857.038 55.9007 857.038 58.334H859.038ZM857.802 52.1537L859.558 51.196C858.563 49.3723 857.171 47.9298 855.395 46.915L854.403 48.6515L853.411 50.388C854.519 51.0213 855.393 51.9136 856.046 53.1114L857.802 52.1537ZM854.403 48.6515L855.395 46.915C853.677 45.9334 851.721 45.3484 849.569 45.1178L849.356 47.1064L849.143 49.095C850.836 49.2764 852.244 49.7215 853.411 50.388L854.403 48.6515ZM849.356 47.1064L849.649 45.128C847.686 44.8372 845.595 44.6944 843.381 44.6944V46.6944V48.6944C845.425 48.6944 847.317 48.8263 849.063 49.0848L849.356 47.1064ZM843.381 46.6944V44.6944H823.81V46.6944V48.6944H843.381V46.6944ZM823.81 46.6944H821.81V70.0767H823.81H825.81V46.6944H823.81ZM814.025 38.4539V40.4539H840.703V38.4539V36.4539H814.025V38.4539ZM840.703 38.4539V40.4539C842.254 40.4539 843.91 40.4877 845.674 40.5555L845.75 38.557L845.827 36.5584C844.02 36.4889 842.311 36.4539 840.703 36.4539V38.4539ZM845.75 38.557V40.557C847.53 40.557 849.274 40.6558 850.98 40.8528L851.21 38.866L851.439 36.8792C849.575 36.6641 847.679 36.557 845.75 36.557V38.557ZM851.21 38.866L851.056 40.8601C852.759 40.991 854.309 41.2186 855.711 41.5373L856.154 39.587L856.597 37.6367C854.978 37.2687 853.231 37.0156 851.363 36.8719L851.21 38.866ZM856.154 39.587L855.729 41.5414C857.137 41.8474 858.249 42.2894 859.111 42.8281L860.171 41.1321L861.231 39.4361C859.896 38.6014 858.33 38.0133 856.579 37.6327L856.154 39.587ZM860.171 41.1321L859.142 42.8471C861.264 44.1201 863.075 45.8886 864.571 48.1948L866.249 47.1064L867.926 46.018C866.126 43.2426 863.885 41.0283 861.2 39.4171L860.171 41.1321ZM866.249 47.1064L864.591 48.2261C866.042 50.3724 866.824 53.0861 866.824 56.4799H868.824H870.824C870.824 52.4573 869.889 48.922 867.906 45.9867L866.249 47.1064ZM868.824 56.4799H866.824C866.824 60.052 865.952 63.0538 864.275 65.5681L865.94 66.6775L867.604 67.7869C869.773 64.5329 870.824 60.7363 870.824 56.4799H868.824ZM865.94 66.6775L864.269 65.5775C862.668 68.0085 860.339 69.8581 857.175 71.0989L857.905 72.9609L858.635 74.8228C862.475 73.3168 865.503 70.9775 867.61 67.7775L865.94 66.6775ZM857.905 72.9609H855.905V73.1669H857.905H859.905V72.9609H857.905ZM857.905 73.1669L857.49 75.1233C861.636 76.0028 864.651 77.8432 866.717 80.5582L868.309 79.3472L869.9 78.1362C867.159 74.5335 863.238 72.2537 858.32 71.2104L857.905 73.1669ZM868.309 79.3472L866.717 80.5582C868.819 83.3206 869.914 86.7242 869.914 90.8838H871.914H873.914C873.914 85.979 872.605 81.6915 869.9 78.1362L868.309 79.3472ZM871.914 90.8838H869.914C869.914 93.3167 869.478 95.6865 868.601 98.0045L870.472 98.7123L872.342 99.4201C873.388 96.6564 873.914 93.8073 873.914 90.8838H871.914ZM870.472 98.7123L868.601 98.0045C867.738 100.286 866.444 102.322 864.707 104.121L866.146 105.511L867.584 106.9C869.692 104.717 871.283 102.22 872.342 99.4201L870.472 98.7123ZM866.146 105.511L864.706 104.122C863.058 105.831 860.95 107.271 858.337 108.418L859.141 110.249L859.945 112.08C862.964 110.755 865.525 109.036 867.585 106.899L866.146 105.511ZM859.141 110.249L858.359 108.408C855.907 109.45 852.99 110 849.562 110V112V114C853.412 114 856.881 113.382 859.923 112.09L859.141 110.249ZM849.562 112V110H814.025V112V114H849.562V112ZM814.025 112H816.025V38.4539H814.025H812.025V112H814.025ZM823.81 103.76V105.76H848.326V103.76V101.76H823.81V103.76ZM848.326 103.76V105.76C853.015 105.76 856.937 104.486 859.814 101.692L858.42 100.257L857.027 98.8228C855.096 100.698 852.289 101.76 848.326 101.76V103.76ZM858.42 100.257L859.793 101.711C862.748 98.9205 864.128 95.1199 864.128 90.5748H862.128H860.128C860.128 94.2702 859.036 96.9246 857.047 98.8033L858.42 100.257ZM862.128 90.5748H864.128C864.128 87.9348 863.639 85.578 862.53 83.6164L860.789 84.6005L859.048 85.5846C859.725 86.7818 860.128 88.4079 860.128 90.5748H862.128ZM860.789 84.6005L862.53 83.6164C861.471 81.7427 860.024 80.2476 858.202 79.1704L857.184 80.8923L856.167 82.6141C857.365 83.3224 858.322 84.2995 859.048 85.5846L860.789 84.6005ZM857.184 80.8923L858.293 79.2282C856.595 78.0959 854.648 77.3519 852.488 76.9663L852.137 78.9352L851.785 80.904C853.471 81.2052 854.889 81.7659 856.075 82.5564L857.184 80.8923ZM852.137 78.9352L852.556 76.9796C850.489 76.5367 848.357 76.3171 846.162 76.3171V78.3171V80.3171C848.088 80.3171 849.939 80.5096 851.718 80.8908L852.137 78.9352ZM846.162 78.3171V76.3171H823.81V78.3171V80.3171H846.162V78.3171ZM823.81 78.3171H821.81V103.76H823.81H825.81V78.3171H823.81ZM897.209 81.6133L895.329 80.9303L894.354 83.6133H897.209V81.6133ZM922.136 81.6133V83.6133H924.975L924.02 80.9403L922.136 81.6133ZM909.879 47.3124L911.762 46.6394L911.288 45.3124H909.879V47.3124ZM909.673 47.3124V45.3124H908.271L907.793 46.6294L909.673 47.3124ZM904.522 38.4539V36.4539H903.155L902.659 37.7283L904.522 38.4539ZM915.338 38.4539L917.201 37.726L916.704 36.4539H915.338V38.4539ZM944.077 112V114H947.005L945.939 111.272L944.077 112ZM933.261 112L931.381 112.682L931.859 114H933.261V112ZM925.227 89.8538L927.107 89.1717L926.629 87.8538H925.227V89.8538ZM894.119 89.8538V87.8538H892.729L892.244 89.1563L894.119 89.8538ZM885.878 112V114H887.268L887.753 112.697L885.878 112ZM875.887 112L874.023 111.274L872.962 114H875.887V112ZM897.209 81.6133V83.6133H922.136V81.6133V79.6133H897.209V81.6133ZM922.136 81.6133L924.02 80.9403L911.762 46.6394L909.879 47.3124L907.995 47.9855L920.253 82.2864L922.136 81.6133ZM909.879 47.3124V45.3124H909.673V47.3124V49.3124H909.879V47.3124ZM909.673 47.3124L907.793 46.6294L895.329 80.9303L897.209 81.6133L899.089 82.2964L911.552 47.9955L909.673 47.3124ZM904.522 38.4539V40.4539H915.338V38.4539V36.4539H904.522V38.4539ZM915.338 38.4539L913.475 39.1819L942.214 112.728L944.077 112L945.939 111.272L917.201 37.726L915.338 38.4539ZM944.077 112V110H933.261V112V114H944.077V112ZM933.261 112L935.141 111.318L927.107 89.1717L925.227 89.8538L923.346 90.5359L931.381 112.682L933.261 112ZM925.227 89.8538V87.8538H894.119V89.8538V91.8538H925.227V89.8538ZM894.119 89.8538L892.244 89.1563L884.004 111.303L885.878 112L887.753 112.697L895.993 90.5512L894.119 89.8538ZM885.878 112V110H875.887V112V114H885.878V112ZM875.887 112L877.751 112.726L906.386 39.1796L904.522 38.4539L902.659 37.7283L874.023 111.274L875.887 112ZM993.873 59.9821L991.884 60.1888L992.07 61.9821H993.873V59.9821ZM988.105 48.5485L986.911 50.1526L986.93 50.1668L986.949 50.1806L988.105 48.5485ZM969.564 45.5613L969.969 47.5199L969.969 47.5199L969.564 45.5613ZM964.208 47.6215L963.168 45.9131L963.151 45.9234L963.134 45.9341L964.208 47.6215ZM960.5 51.5357L958.772 50.5279L958.765 50.5397L958.758 50.5516L960.5 51.5357ZM961.118 63.0723L959.635 64.4141L959.668 64.4512L959.703 64.4865L961.118 63.0723ZM966.474 66.4715L965.721 68.3244L965.731 68.3284L965.741 68.3323L966.474 66.4715ZM974.096 68.7376L973.667 70.6911L973.69 70.6961L973.713 70.7006L974.096 68.7376ZM982.646 70.5917L982.183 72.5374L982.193 72.5397L982.646 70.5917ZM991.298 73.0639L990.652 74.9566L990.673 74.9637L990.694 74.9703L991.298 73.0639ZM998.818 76.7721L997.65 78.3961L997.662 78.4046L997.674 78.4129L998.818 76.7721ZM1004.17 82.7464L1002.42 83.7006L1002.43 83.7197L1002.44 83.7387L1004.17 82.7464ZM1003.56 101.905L1001.87 100.834L1001.86 100.845L1003.56 101.905ZM996.861 108.704L997.921 110.4L997.936 110.39L997.951 110.381L996.861 108.704ZM987.59 112.412L987.16 110.459L987.137 110.464L987.114 110.469L987.59 112.412ZM965.753 112.103L965.208 114.027L965.218 114.03L965.753 112.103ZM956.07 107.468L954.845 109.049L954.867 109.066L954.889 109.082L956.07 107.468ZM949.478 99.4333L947.674 100.298L947.685 100.32L947.697 100.343L949.478 99.4333ZM947.109 87.7937V85.7937H945.109V87.7937H947.109ZM956.379 87.7937H958.379V85.7937H956.379V87.7937ZM958.13 95.8281L956.352 96.744L956.369 96.7766L956.387 96.8086L958.13 95.8281ZM962.869 101.287L961.669 102.887L961.682 102.897L961.696 102.907L962.869 101.287ZM969.77 104.481L969.261 106.415L969.77 104.481ZM984.397 104.893L984.039 102.925L984.028 102.927L984.397 104.893ZM990.474 102.832L991.422 104.593L991.448 104.58L991.474 104.565L990.474 102.832ZM994.8 98.7123L993.116 97.6342L993.116 97.6342L994.8 98.7123ZM994.388 85.9396L992.846 87.2133L992.863 87.2328L992.879 87.2519L994.388 85.9396ZM989.032 82.1284L988.183 83.9393L988.217 83.955L988.251 83.9695L989.032 82.1284ZM972.86 77.8021L972.397 79.7477L972.424 79.7541L972.451 79.7597L972.86 77.8021ZM964.311 75.536L963.706 77.4425L963.728 77.4492L963.749 77.4555L964.311 75.536ZM956.688 72.1368L955.591 73.8089L955.621 73.8286L955.652 73.8472L956.688 72.1368ZM951.332 66.6775L949.599 67.6754L949.617 67.7068L949.636 67.7375L951.332 66.6775ZM951.641 48.6515L953.383 49.6342L953.388 49.6248L953.393 49.6154L951.641 48.6515ZM957.615 41.9561L958.756 43.5989L958.765 43.5925L957.615 41.9561ZM966.165 38.0419L966.67 39.9772L966.684 39.9735L966.698 39.9695L966.165 38.0419ZM986.56 38.0419L987.093 36.1143L987.093 36.1143L986.56 38.0419ZM995.006 42.2652L993.757 43.8269L993.768 43.8355L993.779 43.8439L995.006 42.2652ZM1000.77 49.5786L998.961 50.422L998.973 50.4477L998.986 50.473L1000.77 49.5786ZM1003.14 59.9821V61.9821H1005.21L1005.14 59.9144L1003.14 59.9821ZM993.873 59.9821L995.863 59.7755C995.274 54.1069 993.165 49.6815 989.261 46.9165L988.105 48.5485L986.949 50.1806C989.638 52.0851 991.374 55.2821 991.884 60.1888L993.873 59.9821ZM988.105 48.5485L989.3 46.9444C985.645 44.2231 981.039 42.9433 975.641 42.9433V44.9433V46.9433C980.407 46.9433 984.11 48.067 986.911 50.1526L988.105 48.5485ZM975.641 44.9433V42.9433C973.447 42.9433 971.285 43.1629 969.159 43.6028L969.564 45.5613L969.969 47.5199C971.826 47.1358 973.716 46.9433 975.641 46.9433V44.9433ZM969.564 45.5613L969.159 43.6028C966.965 44.0566 964.962 44.8213 963.168 45.9131L964.208 47.6215L965.248 49.3299C966.613 48.4989 968.18 47.8901 969.969 47.5199L969.564 45.5613ZM964.208 47.6215L963.134 45.9341C961.337 47.0778 959.883 48.623 958.772 50.5279L960.5 51.5357L962.227 52.5434C963.039 51.1522 964.057 50.0878 965.282 49.3088L964.208 47.6215ZM960.5 51.5357L958.758 50.5516C957.65 52.5132 957.16 54.87 957.16 57.51H959.16H961.16C961.16 55.3431 961.564 53.717 962.241 52.5198L960.5 51.5357ZM959.16 57.51H957.16C957.16 60.1848 957.943 62.5444 959.635 64.4141L961.118 63.0723L962.601 61.7305C961.683 60.716 961.16 59.3674 961.16 57.51H959.16ZM961.118 63.0723L959.703 64.4865C961.303 66.0857 963.329 67.3528 965.721 68.3244L966.474 66.4715L967.227 64.6186C965.223 63.8048 963.679 62.8057 962.532 61.6581L961.118 63.0723ZM966.474 66.4715L965.741 68.3323C968.122 69.2702 970.767 70.0543 973.667 70.6911L974.096 68.7376L974.525 66.7841C971.795 66.1849 969.358 65.4582 967.207 64.6107L966.474 66.4715ZM974.096 68.7376L973.713 70.7006C976.501 71.2445 979.324 71.8568 982.183 72.5373L982.646 70.5917L983.109 68.6461C980.199 67.9533 977.323 67.3294 974.479 66.7746L974.096 68.7376ZM982.646 70.5917L982.193 72.5397C985.082 73.2115 987.901 74.0172 990.652 74.9566L991.298 73.0639L991.945 71.1712C989.064 70.1877 986.116 69.3453 983.099 68.6437L982.646 70.5917ZM991.298 73.0639L990.694 74.9703C993.326 75.805 995.639 76.9507 997.65 78.3961L998.818 76.7721L999.985 75.148C997.601 73.4346 994.901 72.1081 991.903 71.1574L991.298 73.0639ZM998.818 76.7721L997.674 78.4129C999.688 79.8162 1001.26 81.5735 1002.42 83.7006L1004.17 82.7464L1005.93 81.7922C1004.48 79.1124 1002.48 76.8868 999.961 75.1313L998.818 76.7721ZM1004.17 82.7464L1002.44 83.7387C1003.59 85.7594 1004.23 88.4131 1004.23 91.8109H1006.23H1008.23C1008.23 87.9296 1007.5 84.5403 1005.91 81.7541L1004.17 82.7464ZM1006.23 91.8109H1004.23C1004.23 95.4129 1003.42 98.3915 1001.87 100.834L1003.56 101.905L1005.24 102.977C1007.27 99.7884 1008.23 96.0373 1008.23 91.8109H1006.23ZM1003.56 101.905L1001.86 100.845C1000.3 103.342 998.276 105.399 995.771 107.027L996.861 108.704L997.951 110.381C1000.94 108.438 1003.38 105.963 1005.25 102.965L1003.56 101.905ZM996.861 108.704L995.801 107.008C993.263 108.594 990.39 109.748 987.16 110.459L987.59 112.412L988.02 114.365C991.657 113.565 994.964 112.248 997.921 110.4L996.861 108.704ZM987.59 112.412L987.114 110.469C983.901 111.256 980.695 111.648 977.495 111.648V113.648V115.648C981.025 115.648 984.55 115.216 988.066 114.355L987.59 112.412ZM977.495 113.648V111.648C973.543 111.648 969.81 111.154 966.288 110.176L965.753 112.103L965.218 114.03C969.112 115.112 973.207 115.648 977.495 115.648V113.648ZM965.753 112.103L966.297 110.179C962.868 109.208 959.859 107.762 957.251 105.854L956.07 107.468L954.889 109.082C957.912 111.294 961.359 112.938 965.208 114.027L965.753 112.103ZM956.07 107.468L957.295 105.887C954.791 103.946 952.779 101.501 951.259 98.5238L949.478 99.4333L947.697 100.343C949.473 103.821 951.856 106.732 954.845 109.049L956.07 107.468ZM949.478 99.4333L951.282 98.5691C949.857 95.5957 949.109 92.0231 949.109 87.7937H947.109H945.109C945.109 92.4914 945.94 96.6786 947.674 100.298L949.478 99.4333ZM947.109 87.7937V89.7937H956.379V87.7937V85.7937H947.109V87.7937ZM956.379 87.7937H954.379C954.379 91.1356 955.011 94.1406 956.352 96.744L958.13 95.8281L959.908 94.9122C958.915 92.9833 958.379 90.6321 958.379 87.7937H956.379ZM958.13 95.8281L956.387 96.8086C957.753 99.2359 959.513 101.271 961.669 102.887L962.869 101.287L964.069 99.6874C962.379 98.42 960.98 96.8152 959.874 94.8476L958.13 95.8281ZM962.869 101.287L961.696 102.907C963.906 104.508 966.436 105.671 969.261 106.415L969.77 104.481L970.279 102.546C967.885 101.916 965.814 100.951 964.042 99.6675L962.869 101.287ZM969.77 104.481L969.261 106.415C972.04 107.146 974.889 107.511 977.805 107.511V105.511V103.511C975.226 103.511 972.719 103.189 970.279 102.546L969.77 104.481ZM977.805 105.511V107.511C980.128 107.511 982.449 107.293 984.765 106.858L984.397 104.893L984.028 102.927C981.95 103.316 979.876 103.511 977.805 103.511V105.511ZM984.397 104.893L984.755 106.86C987.2 106.416 989.429 105.667 991.422 104.593L990.474 102.832L989.526 101.072C987.948 101.921 986.126 102.545 984.039 102.925L984.397 104.893ZM990.474 102.832L991.474 104.565C993.533 103.377 995.212 101.78 996.485 99.7904L994.8 98.7123L993.116 97.6342C992.192 99.078 990.986 100.228 989.475 101.1L990.474 102.832ZM994.8 98.7123L996.485 99.7904C997.845 97.6652 998.449 95.0625 998.449 92.1199H996.449H994.449C994.449 94.5336 993.953 96.3258 993.116 97.6342L994.8 98.7123ZM996.449 92.1199H998.449C998.449 89.2046 997.652 86.6444 995.898 84.6272L994.388 85.9396L992.879 87.2519C993.872 88.3935 994.449 89.9536 994.449 92.1199H996.449ZM994.388 85.9396L995.93 84.6658C994.384 82.7938 992.316 81.3489 989.813 80.2872L989.032 82.1284L988.251 83.9695C990.281 84.8306 991.783 85.9265 992.846 87.2133L994.388 85.9396ZM989.032 82.1284L989.881 80.3174C987.527 79.214 984.876 78.3468 981.942 77.7027L981.513 79.6562L981.084 81.6097C983.781 82.2017 986.142 82.9826 988.183 83.9393L989.032 82.1284ZM981.513 79.6562L981.942 77.7027C979.119 77.0832 976.229 76.4638 973.27 75.8445L972.86 77.8021L972.451 79.7597C975.397 80.3765 978.275 80.9931 981.084 81.6097L981.513 79.6562ZM972.86 77.8021L973.323 75.8565C970.472 75.1776 967.655 74.4309 964.873 73.6165L964.311 75.536L963.749 77.4555C966.597 78.2892 969.48 79.0532 972.397 79.7477L972.86 77.8021ZM964.311 75.536L964.915 73.6295C962.234 72.7794 959.841 71.7088 957.725 70.4264L956.688 72.1368L955.652 73.8472C958.068 75.3117 960.757 76.5072 963.706 77.4425L964.311 75.536ZM956.688 72.1368L957.786 70.4647C955.826 69.1787 954.246 67.5665 953.028 65.6175L951.332 66.6775L949.636 67.7375C951.165 70.1834 953.156 72.2107 955.591 73.8089L956.688 72.1368ZM951.332 66.6775L953.065 65.6796C951.979 63.7921 951.375 61.3439 951.375 58.231H949.375H947.375C947.375 61.8479 948.076 65.0306 949.599 67.6754L951.332 66.6775ZM949.375 58.231H951.375C951.375 54.7964 952.073 51.9563 953.383 49.6342L951.641 48.6515L949.899 47.6689C948.188 50.703 947.375 54.2493 947.375 58.231H949.375ZM951.641 48.6515L953.393 49.6154C954.762 47.1274 956.548 45.1322 958.756 43.5989L957.615 41.9561L956.475 40.3134C953.738 42.2136 951.542 44.682 949.889 47.6877L951.641 48.6515ZM957.615 41.9561L958.765 43.5925C961.101 41.9514 963.73 40.744 966.67 39.9772L966.165 38.0419L965.66 36.1067C962.282 36.9879 959.212 38.39 956.466 40.3198L957.615 41.9561ZM966.165 38.0419L966.698 39.9695C969.751 39.1251 972.868 38.7029 976.053 38.7029V36.7029V34.7029C972.509 34.7029 969.034 35.1733 965.632 36.1143L966.165 38.0419ZM976.053 36.7029V38.7029C979.673 38.7029 982.993 39.1305 986.027 39.9695L986.56 38.0419L987.093 36.1143C983.671 35.1679 979.988 34.7029 976.053 34.7029V36.7029ZM986.56 38.0419L986.027 39.9695C989.016 40.7965 991.583 42.0877 993.757 43.8269L995.006 42.2652L996.256 40.7034C993.623 38.5971 990.559 37.0728 987.093 36.1143L986.56 38.0419ZM995.006 42.2652L993.779 43.8439C995.99 45.5637 997.716 47.7455 998.961 50.422L1000.77 49.5786L1002.59 48.7351C1001.09 45.506 998.967 42.8122 996.234 40.6865L995.006 42.2652ZM1000.77 49.5786L998.986 50.473C1000.27 53.0427 1001.02 56.2141 1001.15 60.0499L1003.14 59.9821L1005.14 59.9144C1005 55.647 1004.16 51.8828 1002.56 48.6841L1000.77 49.5786ZM1003.14 59.9821V57.9821H993.873V59.9821V61.9821H1003.14V59.9821ZM1060.67 59.9821L1058.68 60.1888L1058.86 61.9821H1060.67V59.9821ZM1054.9 48.5485L1053.7 50.1526L1053.72 50.1668L1053.74 50.1806L1054.9 48.5485ZM1036.36 45.5613L1036.76 47.5199L1036.76 47.5199L1036.36 45.5613ZM1031 47.6215L1029.96 45.9131L1029.94 45.9234L1029.93 45.9341L1031 47.6215ZM1027.29 51.5357L1025.56 50.5279L1025.56 50.5397L1025.55 50.5516L1027.29 51.5357ZM1027.91 63.0723L1026.43 64.4141L1026.46 64.4512L1026.5 64.4865L1027.91 63.0723ZM1033.27 66.4715L1032.51 68.3244L1032.52 68.3284L1032.53 68.3323L1033.27 66.4715ZM1040.89 68.7376L1040.46 70.6911L1040.48 70.6961L1040.51 70.7006L1040.89 68.7376ZM1049.44 70.5917L1048.98 72.5374L1048.99 72.5397L1049.44 70.5917ZM1058.09 73.0639L1057.44 74.9566L1057.47 74.9637L1057.49 74.9703L1058.09 73.0639ZM1065.61 76.7721L1064.44 78.3961L1064.45 78.4046L1064.47 78.4129L1065.61 76.7721ZM1070.97 82.7464L1069.21 83.7006L1069.22 83.7197L1069.23 83.7387L1070.97 82.7464ZM1070.35 101.905L1068.66 100.834L1068.65 100.845L1070.35 101.905ZM1063.65 108.704L1064.71 110.4L1064.73 110.39L1064.74 110.381L1063.65 108.704ZM1054.38 112.412L1053.95 110.459L1053.93 110.464L1053.91 110.469L1054.38 112.412ZM1032.55 112.103L1032 114.027L1032.01 114.03L1032.55 112.103ZM1022.86 107.468L1021.64 109.049L1021.66 109.066L1021.68 109.082L1022.86 107.468ZM1016.27 99.4333L1014.47 100.298L1014.48 100.32L1014.49 100.343L1016.27 99.4333ZM1013.9 87.7937V85.7937H1011.9V87.7937H1013.9ZM1023.17 87.7937H1025.17V85.7937H1023.17V87.7937ZM1024.92 95.8281L1023.15 96.744L1023.16 96.7766L1023.18 96.8086L1024.92 95.8281ZM1029.66 101.287L1028.46 102.887L1028.47 102.897L1028.49 102.907L1029.66 101.287ZM1036.56 104.481L1036.05 106.415L1036.56 104.481ZM1051.19 104.893L1050.83 102.925L1050.82 102.927L1051.19 104.893ZM1057.27 102.832L1058.22 104.593L1058.24 104.58L1058.27 104.565L1057.27 102.832ZM1061.59 98.7123L1059.91 97.6342L1059.91 97.6342L1061.59 98.7123ZM1061.18 85.9396L1059.64 87.2133L1059.66 87.2328L1059.67 87.2519L1061.18 85.9396ZM1055.82 82.1284L1054.98 83.9393L1055.01 83.955L1055.04 83.9695L1055.82 82.1284ZM1039.65 77.8021L1039.19 79.7477L1039.22 79.7541L1039.24 79.7597L1039.65 77.8021ZM1031.1 75.536L1030.5 77.4425L1030.52 77.4492L1030.54 77.4555L1031.1 75.536ZM1023.48 72.1368L1022.38 73.8089L1022.41 73.8286L1022.44 73.8472L1023.48 72.1368ZM1018.12 66.6775L1016.39 67.6754L1016.41 67.7068L1016.43 67.7375L1018.12 66.6775ZM1018.43 48.6515L1020.18 49.6342L1020.18 49.6248L1020.19 49.6154L1018.43 48.6515ZM1024.41 41.9561L1025.55 43.5989L1025.56 43.5925L1024.41 41.9561ZM1032.96 38.0419L1033.46 39.9772L1033.48 39.9735L1033.49 39.9695L1032.96 38.0419ZM1053.35 38.0419L1053.89 36.1143L1053.89 36.1143L1053.35 38.0419ZM1061.8 42.2652L1060.55 43.8269L1060.56 43.8355L1060.57 43.8439L1061.8 42.2652ZM1067.57 49.5786L1065.75 50.422L1065.77 50.4477L1065.78 50.473L1067.57 49.5786ZM1069.94 59.9821V61.9821H1072.01L1071.94 59.9144L1069.94 59.9821ZM1060.67 59.9821L1062.66 59.7755C1062.07 54.1069 1059.96 49.6815 1056.05 46.9165L1054.9 48.5485L1053.74 50.1806C1056.43 52.0851 1058.17 55.2821 1058.68 60.1888L1060.67 59.9821ZM1054.9 48.5485L1056.09 46.9444C1052.44 44.2231 1047.83 42.9433 1042.43 42.9433V44.9433V46.9433C1047.2 46.9433 1050.9 48.067 1053.7 50.1526L1054.9 48.5485ZM1042.43 44.9433V42.9433C1040.24 42.9433 1038.08 43.1629 1035.95 43.6028L1036.36 45.5613L1036.76 47.5199C1038.62 47.1358 1040.51 46.9433 1042.43 46.9433V44.9433ZM1036.36 45.5613L1035.95 43.6028C1033.76 44.0566 1031.75 44.8213 1029.96 45.9131L1031 47.6215L1032.04 49.3299C1033.41 48.4989 1034.97 47.8901 1036.76 47.5199L1036.36 45.5613ZM1031 47.6215L1029.93 45.9341C1028.13 47.0778 1026.68 48.623 1025.56 50.5279L1027.29 51.5357L1029.02 52.5434C1029.83 51.1522 1030.85 50.0878 1032.07 49.3088L1031 47.6215ZM1027.29 51.5357L1025.55 50.5516C1024.44 52.5132 1023.95 54.87 1023.95 57.51H1025.95H1027.95C1027.95 55.3431 1028.36 53.717 1029.03 52.5198L1027.29 51.5357ZM1025.95 57.51H1023.95C1023.95 60.1848 1024.74 62.5444 1026.43 64.4141L1027.91 63.0723L1029.39 61.7305C1028.48 60.716 1027.95 59.3674 1027.95 57.51H1025.95ZM1027.91 63.0723L1026.5 64.4865C1028.1 66.0857 1030.12 67.3528 1032.51 68.3244L1033.27 66.4715L1034.02 64.6186C1032.02 63.8048 1030.47 62.8057 1029.32 61.6581L1027.91 63.0723ZM1033.27 66.4715L1032.53 68.3323C1034.91 69.2702 1037.56 70.0543 1040.46 70.6911L1040.89 68.7376L1041.32 66.7841C1038.59 66.1849 1036.15 65.4582 1034 64.6107L1033.27 66.4715ZM1040.89 68.7376L1040.51 70.7006C1043.29 71.2445 1046.12 71.8568 1048.98 72.5373L1049.44 70.5917L1049.9 68.6461C1046.99 67.9533 1044.12 67.3294 1041.27 66.7746L1040.89 68.7376ZM1049.44 70.5917L1048.99 72.5397C1051.87 73.2115 1054.69 74.0172 1057.44 74.9566L1058.09 73.0639L1058.74 71.1712C1055.86 70.1877 1052.91 69.3453 1049.89 68.6437L1049.44 70.5917ZM1058.09 73.0639L1057.49 74.9703C1060.12 75.805 1062.43 76.9507 1064.44 78.3961L1065.61 76.7721L1066.78 75.148C1064.39 73.4346 1061.69 72.1081 1058.7 71.1574L1058.09 73.0639ZM1065.61 76.7721L1064.47 78.4129C1066.48 79.8162 1068.05 81.5735 1069.21 83.7006L1070.97 82.7464L1072.72 81.7922C1071.27 79.1124 1069.27 76.8868 1066.75 75.1313L1065.61 76.7721ZM1070.97 82.7464L1069.23 83.7387C1070.38 85.7594 1071.03 88.4131 1071.03 91.8109H1073.03H1075.03C1075.03 87.9296 1074.3 84.5403 1072.7 81.7541L1070.97 82.7464ZM1073.03 91.8109H1071.03C1071.03 95.4129 1070.21 98.3915 1068.66 100.834L1070.35 101.905L1072.04 102.977C1074.06 99.7884 1075.03 96.0373 1075.03 91.8109H1073.03ZM1070.35 101.905L1068.65 100.845C1067.09 103.342 1065.07 105.399 1062.56 107.027L1063.65 108.704L1064.74 110.381C1067.73 108.438 1070.17 105.963 1072.04 102.965L1070.35 101.905ZM1063.65 108.704L1062.59 107.008C1060.06 108.594 1057.18 109.748 1053.95 110.459L1054.38 112.412L1054.81 114.365C1058.45 113.565 1061.76 112.248 1064.71 110.4L1063.65 108.704ZM1054.38 112.412L1053.91 110.469C1050.69 111.256 1047.49 111.648 1044.29 111.648V113.648V115.648C1047.82 115.648 1051.34 115.216 1054.86 114.355L1054.38 112.412ZM1044.29 113.648V111.648C1040.34 111.648 1036.6 111.154 1033.08 110.176L1032.55 112.103L1032.01 114.03C1035.9 115.112 1040 115.648 1044.29 115.648V113.648ZM1032.55 112.103L1033.09 110.179C1029.66 109.208 1026.65 107.762 1024.04 105.854L1022.86 107.468L1021.68 109.082C1024.71 111.294 1028.15 112.938 1032 114.027L1032.55 112.103ZM1022.86 107.468L1024.09 105.887C1021.58 103.946 1019.57 101.501 1018.05 98.5238L1016.27 99.4333L1014.49 100.343C1016.27 103.821 1018.65 106.732 1021.64 109.049L1022.86 107.468ZM1016.27 99.4333L1018.07 98.5691C1016.65 95.5957 1015.9 92.0231 1015.9 87.7937H1013.9H1011.9C1011.9 92.4914 1012.73 96.6786 1014.47 100.298L1016.27 99.4333ZM1013.9 87.7937V89.7937H1023.17V87.7937V85.7937H1013.9V87.7937ZM1023.17 87.7937H1021.17C1021.17 91.1356 1021.8 94.1406 1023.15 96.744L1024.92 95.8281L1026.7 94.9122C1025.71 92.9833 1025.17 90.6321 1025.17 87.7937H1023.17ZM1024.92 95.8281L1023.18 96.8086C1024.55 99.2359 1026.31 101.271 1028.46 102.887L1029.66 101.287L1030.86 99.6874C1029.17 98.42 1027.77 96.8152 1026.67 94.8476L1024.92 95.8281ZM1029.66 101.287L1028.49 102.907C1030.7 104.508 1033.23 105.671 1036.05 106.415L1036.56 104.481L1037.07 102.546C1034.68 101.916 1032.61 100.951 1030.83 99.6675L1029.66 101.287ZM1036.56 104.481L1036.05 106.415C1038.83 107.146 1041.68 107.511 1044.6 107.511V105.511V103.511C1042.02 103.511 1039.51 103.189 1037.07 102.546L1036.56 104.481ZM1044.6 105.511V107.511C1046.92 107.511 1049.24 107.293 1051.56 106.858L1051.19 104.893L1050.82 102.927C1048.74 103.316 1046.67 103.511 1044.6 103.511V105.511ZM1051.19 104.893L1051.55 106.86C1053.99 106.416 1056.22 105.667 1058.22 104.593L1057.27 102.832L1056.32 101.072C1054.74 101.921 1052.92 102.545 1050.83 102.925L1051.19 104.893ZM1057.27 102.832L1058.27 104.565C1060.33 103.377 1062 101.78 1063.28 99.7904L1061.59 98.7123L1059.91 97.6342C1058.98 99.078 1057.78 100.228 1056.27 101.1L1057.27 102.832ZM1061.59 98.7123L1063.28 99.7904C1064.64 97.6652 1065.24 95.0625 1065.24 92.1199H1063.24H1061.24C1061.24 94.5336 1060.75 96.3258 1059.91 97.6342L1061.59 98.7123ZM1063.24 92.1199H1065.24C1065.24 89.2046 1064.44 86.6444 1062.69 84.6272L1061.18 85.9396L1059.67 87.2519C1060.66 88.3935 1061.24 89.9536 1061.24 92.1199H1063.24ZM1061.18 85.9396L1062.72 84.6658C1061.18 82.7938 1059.11 81.3489 1056.61 80.2872L1055.82 82.1284L1055.04 83.9695C1057.07 84.8306 1058.58 85.9265 1059.64 87.2133L1061.18 85.9396ZM1055.82 82.1284L1056.67 80.3174C1054.32 79.214 1051.67 78.3468 1048.73 77.7027L1048.31 79.6562L1047.88 81.6097C1050.57 82.2017 1052.94 82.9826 1054.98 83.9393L1055.82 82.1284ZM1048.31 79.6562L1048.73 77.7027C1045.91 77.0832 1043.02 76.4638 1040.06 75.8445L1039.65 77.8021L1039.24 79.7597C1042.19 80.3765 1045.07 80.9931 1047.88 81.6097L1048.31 79.6562ZM1039.65 77.8021L1040.12 75.8565C1037.26 75.1776 1034.45 74.4309 1031.67 73.6165L1031.1 75.536L1030.54 77.4555C1033.39 78.2892 1036.27 79.0532 1039.19 79.7477L1039.65 77.8021ZM1031.1 75.536L1031.71 73.6295C1029.03 72.7794 1026.63 71.7088 1024.52 70.4264L1023.48 72.1368L1022.44 73.8472C1024.86 75.3117 1027.55 76.5072 1030.5 77.4425L1031.1 75.536ZM1023.48 72.1368L1024.58 70.4647C1022.62 69.1787 1021.04 67.5665 1019.82 65.6175L1018.12 66.6775L1016.43 67.7375C1017.96 70.1834 1019.95 72.2107 1022.38 73.8089L1023.48 72.1368ZM1018.12 66.6775L1019.86 65.6796C1018.77 63.7921 1018.17 61.3439 1018.17 58.231H1016.17H1014.17C1014.17 61.8479 1014.87 65.0306 1016.39 67.6754L1018.12 66.6775ZM1016.17 58.231H1018.17C1018.17 54.7964 1018.87 51.9563 1020.18 49.6342L1018.43 48.6515L1016.69 47.6689C1014.98 50.703 1014.17 54.2493 1014.17 58.231H1016.17ZM1018.43 48.6515L1020.19 49.6154C1021.55 47.1274 1023.34 45.1322 1025.55 43.5989L1024.41 41.9561L1023.27 40.3134C1020.53 42.2136 1018.33 44.682 1016.68 47.6877L1018.43 48.6515ZM1024.41 41.9561L1025.56 43.5925C1027.89 41.9514 1030.52 40.744 1033.46 39.9772L1032.96 38.0419L1032.45 36.1067C1029.07 36.9879 1026 38.39 1023.26 40.3198L1024.41 41.9561ZM1032.96 38.0419L1033.49 39.9695C1036.54 39.1251 1039.66 38.7029 1042.85 38.7029V36.7029V34.7029C1039.3 34.7029 1035.83 35.1733 1032.42 36.1143L1032.96 38.0419ZM1042.85 36.7029V38.7029C1046.47 38.7029 1049.79 39.1305 1052.82 39.9695L1053.35 38.0419L1053.89 36.1143C1050.46 35.1679 1046.78 34.7029 1042.85 34.7029V36.7029ZM1053.35 38.0419L1052.82 39.9695C1055.81 40.7965 1058.38 42.0877 1060.55 43.8269L1061.8 42.2652L1063.05 40.7034C1060.42 38.5971 1057.35 37.0728 1053.89 36.1143L1053.35 38.0419ZM1061.8 42.2652L1060.57 43.8439C1062.78 45.5637 1064.51 47.7455 1065.75 50.422L1067.57 49.5786L1069.38 48.7351C1067.88 45.506 1065.76 42.8122 1063.03 40.6865L1061.8 42.2652ZM1067.57 49.5786L1065.78 50.473C1067.06 53.0427 1067.81 56.2141 1067.94 60.0499L1069.94 59.9821L1071.94 59.9144C1071.79 55.647 1070.96 51.8828 1069.36 48.6841L1067.57 49.5786ZM1069.94 59.9821V57.9821H1060.67V59.9821V61.9821H1069.94V59.9821ZM856.566 154.982L854.577 155.189L854.763 156.982H856.566V154.982ZM850.798 143.549L849.603 145.153L849.622 145.167L849.642 145.181L850.798 143.549ZM832.257 140.561L832.662 142.52L832.662 142.52L832.257 140.561ZM826.9 142.621L825.86 140.913L825.843 140.923L825.827 140.934L826.9 142.621ZM823.192 146.536L821.465 145.528L821.458 145.54L821.451 145.552L823.192 146.536ZM823.81 158.072L822.327 159.414L822.361 159.451L822.396 159.487L823.81 158.072ZM829.167 161.471L828.414 163.324L828.424 163.328L828.433 163.332L829.167 161.471ZM836.789 163.738L836.36 165.691L836.383 165.696L836.406 165.701L836.789 163.738ZM845.338 165.592L844.875 167.537L844.885 167.54L845.338 165.592ZM853.991 168.064L853.345 169.957L853.365 169.964L853.386 169.97L853.991 168.064ZM861.51 171.772L860.343 173.396L860.355 173.405L860.367 173.413L861.51 171.772ZM866.867 177.746L865.109 178.701L865.119 178.72L865.13 178.739L866.867 177.746ZM866.249 196.905L864.56 195.834L864.553 195.845L866.249 196.905ZM859.553 203.704L860.613 205.4L860.628 205.39L860.643 205.381L859.553 203.704ZM850.283 207.412L849.853 205.459L849.83 205.464L849.807 205.469L850.283 207.412ZM828.445 207.103L827.901 209.027L827.91 209.03L828.445 207.103ZM818.763 202.468L817.538 204.049L817.56 204.066L817.582 204.082L818.763 202.468ZM812.171 194.433L810.367 195.298L810.378 195.32L810.389 195.343L812.171 194.433ZM809.801 182.794V180.794H807.801V182.794H809.801ZM819.072 182.794H821.072V180.794H819.072V182.794ZM820.823 190.828L819.045 191.744L819.062 191.777L819.08 191.809L820.823 190.828ZM825.561 196.287L824.361 197.887L824.375 197.897L824.388 197.907L825.561 196.287ZM832.463 199.481L831.954 201.415L832.463 199.481ZM847.089 199.893L846.732 197.925L846.721 197.927L847.089 199.893ZM853.167 197.832L854.115 199.593L854.141 199.58L854.166 199.565L853.167 197.832ZM857.493 193.712L855.809 192.634L855.809 192.634L857.493 193.712ZM857.081 180.94L855.539 182.213L855.555 182.233L855.572 182.252L857.081 180.94ZM851.725 177.128L850.876 178.939L850.909 178.955L850.944 178.97L851.725 177.128ZM835.553 172.802L835.09 174.748L835.116 174.754L835.143 174.76L835.553 172.802ZM827.003 170.536L826.399 172.442L826.42 172.449L826.442 172.455L827.003 170.536ZM819.381 167.137L818.284 168.809L818.314 168.829L818.344 168.847L819.381 167.137ZM814.025 161.678L812.291 162.675L812.309 162.707L812.329 162.738L814.025 161.678ZM814.334 143.652L816.076 144.634L816.081 144.625L816.086 144.615L814.334 143.652ZM820.308 136.956L821.449 138.599L821.458 138.593L820.308 136.956ZM828.857 133.042L829.362 134.977L829.377 134.973L829.391 134.97L828.857 133.042ZM849.253 133.042L849.786 131.114L849.786 131.114L849.253 133.042ZM857.699 137.265L856.45 138.827L856.46 138.835L856.471 138.844L857.699 137.265ZM863.467 144.579L861.654 145.422L861.666 145.448L861.679 145.473L863.467 144.579ZM865.837 154.982V156.982H867.905L867.835 154.914L865.837 154.982ZM856.566 154.982L858.555 154.775C857.966 149.107 855.857 144.682 851.954 141.916L850.798 143.549L849.642 145.181C852.33 147.085 854.067 150.282 854.577 155.189L856.566 154.982ZM850.798 143.549L851.992 141.944C848.338 139.223 843.732 137.943 838.334 137.943V139.943V141.943C843.1 141.943 846.802 143.067 849.603 145.153L850.798 143.549ZM838.334 139.943V137.943C836.14 137.943 833.978 138.163 831.851 138.603L832.257 140.561L832.662 142.52C834.518 142.136 836.408 141.943 838.334 141.943V139.943ZM832.257 140.561L831.851 138.603C829.658 139.057 827.654 139.821 825.86 140.913L826.9 142.621L827.94 144.33C829.305 143.499 830.872 142.89 832.662 142.52L832.257 140.561ZM826.9 142.621L825.827 140.934C824.029 142.078 822.576 143.623 821.465 145.528L823.192 146.536L824.92 147.543C825.731 146.152 826.75 145.088 827.974 144.309L826.9 142.621ZM823.192 146.536L821.451 145.552C820.342 147.513 819.853 149.87 819.853 152.51H821.853H823.853C823.853 150.343 824.257 148.717 824.933 147.52L823.192 146.536ZM821.853 152.51H819.853C819.853 155.185 820.636 157.544 822.327 159.414L823.81 158.072L825.293 156.73C824.375 155.716 823.853 154.367 823.853 152.51H821.853ZM823.81 158.072L822.396 159.487C823.995 161.086 826.022 162.353 828.414 163.324L829.167 161.471L829.919 159.619C827.916 158.805 826.372 157.806 825.224 156.658L823.81 158.072ZM829.167 161.471L828.433 163.332C830.814 164.27 833.459 165.054 836.36 165.691L836.789 163.738L837.218 161.784C834.488 161.185 832.051 160.458 829.9 159.611L829.167 161.471ZM836.789 163.738L836.406 165.701C839.194 166.245 842.017 166.857 844.875 167.537L845.338 165.592L845.802 163.646C842.892 162.953 840.015 162.329 837.172 161.775L836.789 163.738ZM845.338 165.592L844.885 167.54C847.774 168.212 850.594 169.017 853.345 169.957L853.991 168.064L854.637 166.171C851.757 165.188 848.808 164.345 845.791 163.644L845.338 165.592ZM853.991 168.064L853.386 169.97C856.019 170.805 858.332 171.951 860.343 173.396L861.51 171.772L862.678 170.148C860.294 168.435 857.594 167.108 854.595 166.157L853.991 168.064ZM861.51 171.772L860.367 173.413C862.38 174.816 863.954 176.573 865.109 178.701L866.867 177.746L868.624 176.792C867.17 174.112 865.173 171.887 862.654 170.131L861.51 171.772ZM866.867 177.746L865.13 178.739C866.285 180.759 866.927 183.413 866.927 186.811H868.927H870.927C870.927 182.93 870.195 179.54 868.603 176.754L866.867 177.746ZM868.927 186.811H866.927C866.927 190.413 866.109 193.392 864.56 195.834L866.249 196.905L867.938 197.977C869.959 194.788 870.927 191.037 870.927 186.811H868.927ZM866.249 196.905L864.553 195.845C862.992 198.342 860.968 200.399 858.463 202.027L859.553 203.704L860.643 205.381C863.632 203.438 866.071 200.963 867.945 197.965L866.249 196.905ZM859.553 203.704L858.493 202.008C855.956 203.594 853.082 204.748 849.853 205.459L850.283 207.412L850.712 209.365C854.35 208.565 857.657 207.248 860.613 205.4L859.553 203.704ZM850.283 207.412L849.807 205.469C846.593 206.256 843.388 206.648 840.188 206.648V208.648V210.648C843.718 210.648 847.242 210.216 850.758 209.355L850.283 207.412ZM840.188 208.648V206.648C836.236 206.648 832.503 206.154 828.981 205.176L828.445 207.103L827.91 209.03C831.805 210.112 835.9 210.648 840.188 210.648V208.648ZM828.445 207.103L828.99 205.179C825.56 204.208 822.552 202.762 819.944 200.854L818.763 202.468L817.582 204.082C820.605 206.294 824.052 207.938 827.901 209.027L828.445 207.103ZM818.763 202.468L819.988 200.887C817.484 198.946 815.472 196.501 813.952 193.524L812.171 194.433L810.389 195.343C812.165 198.821 814.549 201.732 817.538 204.049L818.763 202.468ZM812.171 194.433L813.974 193.569C812.549 190.596 811.801 187.023 811.801 182.794H809.801H807.801C807.801 187.491 808.633 191.679 810.367 195.298L812.171 194.433ZM809.801 182.794V184.794H819.072V182.794V180.794H809.801V182.794ZM819.072 182.794H817.072C817.072 186.136 817.704 189.141 819.045 191.744L820.823 190.828L822.601 189.912C821.607 187.983 821.072 185.632 821.072 182.794H819.072ZM820.823 190.828L819.08 191.809C820.445 194.236 822.206 196.271 824.361 197.887L825.561 196.287L826.761 194.687C825.071 193.42 823.673 191.815 822.566 189.848L820.823 190.828ZM825.561 196.287L824.388 197.907C826.598 199.508 829.129 200.671 831.954 201.415L832.463 199.481L832.972 197.546C830.578 196.916 828.507 195.951 826.734 194.668L825.561 196.287ZM832.463 199.481L831.954 201.415C834.732 202.146 837.582 202.511 840.497 202.511V200.511V198.511C837.919 198.511 835.412 198.189 832.972 197.546L832.463 199.481ZM840.497 200.511V202.511C842.82 202.511 845.141 202.293 847.458 201.858L847.089 199.893L846.721 197.927C844.643 198.316 842.569 198.511 840.497 198.511V200.511ZM847.089 199.893L847.447 201.86C849.892 201.416 852.122 200.667 854.115 199.593L853.167 197.832L852.219 196.072C850.641 196.921 848.819 197.545 846.732 197.925L847.089 199.893ZM853.167 197.832L854.166 199.565C856.226 198.377 857.904 196.78 859.178 194.79L857.493 193.712L855.809 192.634C854.884 194.078 853.679 195.228 852.167 196.1L853.167 197.832ZM857.493 193.712L859.178 194.79C860.538 192.665 861.141 190.062 861.141 187.12H859.141H857.141C857.141 189.534 856.646 191.326 855.809 192.634L857.493 193.712ZM859.141 187.12H861.141C861.141 184.205 860.344 181.644 858.59 179.627L857.081 180.94L855.572 182.252C856.565 183.394 857.141 184.954 857.141 187.12H859.141ZM857.081 180.94L858.623 179.666C857.077 177.794 855.008 176.349 852.506 175.287L851.725 177.128L850.944 178.97C852.973 179.831 854.476 180.927 855.539 182.213L857.081 180.94ZM851.725 177.128L852.574 175.317C850.22 174.214 847.568 173.347 844.634 172.703L844.205 174.656L843.777 176.61C846.473 177.202 848.835 177.983 850.876 178.939L851.725 177.128ZM844.205 174.656L844.634 172.703C841.812 172.083 838.921 171.464 835.963 170.845L835.553 172.802L835.143 174.76C838.09 175.376 840.968 175.993 843.777 176.61L844.205 174.656ZM835.553 172.802L836.016 170.857C833.165 170.178 830.348 169.431 827.565 168.617L827.003 170.536L826.442 172.455C829.29 173.289 832.173 174.053 835.09 174.748L835.553 172.802ZM827.003 170.536L827.608 168.63C824.927 167.779 822.533 166.709 820.418 165.426L819.381 167.137L818.344 168.847C820.761 170.312 823.449 171.507 826.399 172.442L827.003 170.536ZM819.381 167.137L820.478 165.465C818.519 164.179 816.939 162.567 815.721 160.618L814.025 161.678L812.329 162.738C813.857 165.183 815.848 167.211 818.284 168.809L819.381 167.137ZM814.025 161.678L815.758 160.68C814.671 158.792 814.068 156.344 814.068 153.231H812.068H810.068C810.068 156.848 810.769 160.031 812.291 162.675L814.025 161.678ZM812.068 153.231H814.068C814.068 149.796 814.766 146.956 816.076 144.634L814.334 143.652L812.592 142.669C810.88 145.703 810.068 149.249 810.068 153.231H812.068ZM814.334 143.652L816.086 144.615C817.454 142.127 819.241 140.132 821.449 138.599L820.308 136.956L819.167 135.313C816.431 137.214 814.234 139.682 812.581 142.688L814.334 143.652ZM820.308 136.956L821.458 138.593C823.793 136.951 826.423 135.744 829.362 134.977L828.857 133.042L828.353 131.107C824.975 131.988 821.904 133.39 819.158 135.32L820.308 136.956ZM828.857 133.042L829.391 134.97C832.444 134.125 835.56 133.703 838.746 133.703V131.703V129.703C835.202 129.703 831.726 130.173 828.324 131.114L828.857 133.042ZM838.746 131.703V133.703C842.365 133.703 845.686 134.131 848.719 134.97L849.253 133.042L849.786 131.114C846.364 130.168 842.68 129.703 838.746 129.703V131.703ZM849.253 133.042L848.719 134.97C851.709 135.796 854.276 137.088 856.45 138.827L857.699 137.265L858.948 135.703C856.316 133.597 853.251 132.073 849.786 131.114L849.253 133.042ZM857.699 137.265L856.471 138.844C858.682 140.564 860.409 142.745 861.654 145.422L863.467 144.579L865.281 143.735C863.779 140.506 861.66 137.812 858.927 135.686L857.699 137.265ZM863.467 144.579L861.679 145.473C862.963 148.043 863.708 151.214 863.838 155.05L865.837 154.982L867.835 154.914C867.691 150.647 866.856 146.883 865.256 143.684L863.467 144.579ZM865.837 154.982V152.982H856.566V154.982V156.982H865.837V154.982ZM890.603 168.682H888.603V170.682H890.603V168.682ZM909.762 168.682L909.787 166.682L909.774 166.682H909.762V168.682ZM921.917 165.283L920.583 163.792L920.573 163.801L920.563 163.81L921.917 165.283ZM921.917 145.197L920.563 146.669L920.584 146.688L920.605 146.707L921.917 145.197ZM890.603 141.694V139.694H888.603V141.694H890.603ZM880.817 133.454V131.454H878.817V133.454H880.817ZM929.848 139.222L928.421 140.624L928.434 140.637L928.447 140.649L929.848 139.222ZM929.848 171.257L928.434 169.843L928.428 169.849L928.421 169.856L929.848 171.257ZM913.058 176.922L913.077 174.922L913.067 174.922H913.058V176.922ZM890.603 176.922V174.922H888.603V176.922H890.603ZM890.603 207V209H892.603V207H890.603ZM880.817 207H878.817V209H880.817V207ZM890.603 168.682V170.682H909.762V168.682V166.682H890.603V168.682ZM909.762 168.682L909.737 170.682C915.513 170.753 920.181 169.594 923.27 166.755L921.917 165.283L920.563 163.81C918.571 165.641 915.136 166.748 909.787 166.682L909.762 168.682ZM921.917 165.283L923.25 166.773C926.388 163.966 927.831 159.996 927.831 155.188H925.831H923.831C923.831 159.17 922.665 161.93 920.583 163.792L921.917 165.283ZM925.831 155.188H927.831C927.831 150.383 926.388 146.431 923.228 143.687L921.917 145.197L920.605 146.707C922.664 148.495 923.831 151.203 923.831 155.188H925.831ZM921.917 145.197L923.27 143.724C920.191 140.895 915.535 139.694 909.762 139.694V141.694V143.694C915.114 143.694 918.561 144.829 920.563 146.669L921.917 145.197ZM909.762 141.694V139.694H890.603V141.694V143.694H909.762V141.694ZM890.603 141.694H888.603V168.682H890.603H892.603V141.694H890.603ZM880.817 133.454V135.454H913.058V133.454V131.454H880.817V133.454ZM913.058 133.454V135.454C920.145 135.454 925.144 137.287 928.421 140.624L929.848 139.222L931.275 137.821C926.998 133.467 920.805 131.454 913.058 131.454V133.454ZM929.848 139.222L928.447 140.649C931.811 143.954 933.616 148.703 933.616 155.188H935.616H937.616C937.616 147.939 935.576 142.044 931.25 137.795L929.848 139.222ZM935.616 155.188H933.616C933.616 161.671 931.812 166.465 928.434 169.843L929.848 171.257L931.262 172.671C935.575 168.358 937.616 162.439 937.616 155.188H935.616ZM929.848 171.257L928.421 169.856C925.15 173.186 920.16 174.988 913.077 174.922L913.058 176.922L913.04 178.922C920.789 178.994 926.992 177.019 931.275 172.658L929.848 171.257ZM913.058 176.922V174.922H890.603V176.922V178.922H913.058V176.922ZM890.603 176.922H888.603V207H890.603H892.603V176.922H890.603ZM890.603 207V205H880.817V207V209H890.603V207ZM880.817 207H882.817V133.454H880.817H878.817V207H880.817ZM954.718 181.249L952.784 181.759L952.786 181.769L954.718 181.249ZM959.25 190.931L957.622 192.094L957.622 192.094L959.25 190.931ZM967.181 197.936L966.213 199.686L966.227 199.694L966.242 199.701L967.181 197.936ZM990.255 197.936L991.194 199.701L991.208 199.694L991.223 199.686L990.255 197.936ZM998.186 190.931L996.558 189.769L996.558 189.769L998.186 190.931ZM1002.72 181.249L1004.65 181.769L1004.65 181.759L1002.72 181.249ZM1002.72 159.308L1000.78 159.819L1000.79 159.828L1002.72 159.308ZM998.186 149.523L996.558 150.685L996.558 150.685L998.186 149.523ZM990.255 142.621L989.286 144.372L989.301 144.379L989.315 144.387L990.255 142.621ZM967.181 142.621L968.12 144.387L968.135 144.379L968.149 144.372L967.181 142.621ZM954.718 159.308L956.649 159.828L956.651 159.819L954.718 159.308ZM945.653 155.806L943.75 155.191L943.747 155.199L943.745 155.208L945.653 155.806ZM952.348 143.445L950.807 142.171L950.807 142.171L952.348 143.445ZM963.37 134.896L962.498 133.096L962.498 133.096L963.37 134.896ZM994.066 134.896L994.938 133.096L994.938 133.096L994.066 134.896ZM1005.09 143.445L1006.63 142.171L1006.63 142.171L1005.09 143.445ZM1011.68 155.806L1009.77 156.396L1009.77 156.413L1009.78 156.43L1011.68 155.806ZM1011.68 184.751L1009.78 184.135L1009.77 184.144L1009.77 184.153L1011.68 184.751ZM1005.09 197.008L1003.55 195.734L1005.09 197.008ZM994.066 205.558L994.915 207.369L994.926 207.363L994.938 207.358L994.066 205.558ZM963.37 205.558L962.498 207.358L962.51 207.363L962.521 207.369L963.37 205.558ZM945.653 184.751L943.742 185.341L943.747 185.358L943.753 185.375L945.653 184.751ZM953.275 170.227H951.275C951.275 174.11 951.779 177.956 952.784 181.759L954.718 181.249L956.651 180.738C955.733 177.262 955.275 173.76 955.275 170.227H953.275ZM954.718 181.249L952.786 181.769C953.807 185.56 955.417 189.007 957.622 192.094L959.25 190.931L960.877 189.769C958.962 187.087 957.551 184.079 956.649 180.729L954.718 181.249ZM959.25 190.931L957.622 192.094C959.863 195.23 962.736 197.762 966.213 199.686L967.181 197.936L968.149 196.185C965.172 194.538 962.757 192.4 960.877 189.769L959.25 190.931ZM967.181 197.936L966.242 199.701C969.816 201.602 973.998 202.511 978.718 202.511V200.511V198.511C974.51 198.511 971.002 197.702 968.12 196.17L967.181 197.936ZM978.718 200.511V202.511C983.437 202.511 987.62 201.602 991.194 199.701L990.255 197.936L989.315 196.17C986.434 197.702 982.925 198.511 978.718 198.511V200.511ZM990.255 197.936L991.223 199.686C994.7 197.762 997.573 195.23 999.813 192.094L998.186 190.931L996.558 189.769C994.679 192.4 992.264 194.538 989.286 196.185L990.255 197.936ZM998.186 190.931L999.813 192.094C1002.02 189.007 1003.63 185.56 1004.65 181.769L1002.72 181.249L1000.79 180.729C999.885 184.079 998.474 187.087 996.558 189.769L998.186 190.931ZM1002.72 181.249L1004.65 181.759C1005.66 177.956 1006.16 174.11 1006.16 170.227H1004.16H1002.16C1002.16 173.76 1001.7 177.262 1000.78 180.738L1002.72 181.249ZM1004.16 170.227H1006.16C1006.16 166.344 1005.66 162.529 1004.65 158.788L1002.72 159.308L1000.79 159.828C1001.7 163.229 1002.16 166.694 1002.16 170.227H1004.16ZM1002.72 159.308L1004.65 158.798C1003.63 154.939 1002.02 151.453 999.813 148.36L998.186 149.523L996.558 150.685C998.469 153.361 999.881 156.399 1000.78 159.819L1002.72 159.308ZM998.186 149.523L999.813 148.36C997.568 145.217 994.685 142.713 991.194 140.856L990.255 142.621L989.315 144.387C992.279 145.963 994.684 148.061 996.558 150.685L998.186 149.523ZM990.255 142.621L991.223 140.871C987.642 138.891 983.449 137.943 978.718 137.943V139.943V141.943C982.914 141.943 986.412 142.781 989.286 144.372L990.255 142.621ZM978.718 139.943V137.943C973.986 137.943 969.793 138.891 966.213 140.871L967.181 142.621L968.149 144.372C971.024 142.781 974.522 141.943 978.718 141.943V139.943ZM967.181 142.621L966.242 140.856C962.75 142.713 959.868 145.217 957.622 148.36L959.25 149.523L960.877 150.685C962.752 148.061 965.157 145.963 968.12 144.387L967.181 142.621ZM959.25 149.523L957.622 148.36C955.413 151.453 953.803 154.939 952.784 158.798L954.718 159.308L956.651 159.819C957.555 156.399 958.966 153.361 960.877 150.685L959.25 149.523ZM954.718 159.308L952.786 158.788C951.779 162.529 951.275 166.344 951.275 170.227H953.275H955.275C955.275 166.694 955.733 163.229 956.649 159.828L954.718 159.308ZM943.49 170.227H945.49C945.49 165.409 946.182 160.804 947.562 156.404L945.653 155.806L943.745 155.208C942.239 160.01 941.49 165.019 941.49 170.227H943.49ZM945.653 155.806L947.556 156.422C948.994 151.978 951.107 148.085 953.89 144.72L952.348 143.445L950.807 142.171C947.684 145.948 945.334 150.295 943.75 155.191L945.653 155.806ZM952.348 143.445L953.89 144.72C956.65 141.382 960.091 138.707 964.242 136.696L963.37 134.896L962.498 133.096C957.859 135.343 953.953 138.367 950.807 142.171L952.348 143.445ZM963.37 134.896L964.242 136.696C968.317 134.722 973.125 133.703 978.718 133.703V131.703V129.703C972.637 129.703 967.213 130.812 962.498 133.096L963.37 134.896ZM978.718 131.703V133.703C984.311 133.703 989.119 134.722 993.194 136.696L994.066 134.896L994.938 133.096C990.223 130.812 984.799 129.703 978.718 129.703V131.703ZM994.066 134.896L993.194 136.696C997.345 138.707 1000.79 141.382 1003.55 144.72L1005.09 143.445L1006.63 142.171C1003.48 138.367 999.577 135.343 994.938 133.096L994.066 134.896ZM1005.09 143.445L1003.55 144.72C1006.32 148.078 1008.4 151.963 1009.77 156.396L1011.68 155.806L1013.59 155.216C1012.08 150.31 1009.76 145.954 1006.63 142.171L1005.09 143.445ZM1011.68 155.806L1009.78 156.43C1011.22 160.823 1011.95 165.418 1011.95 170.227H1013.95H1015.95C1015.95 165.01 1015.16 159.992 1013.58 155.182L1011.68 155.806ZM1013.95 170.227H1011.95C1011.95 175.035 1011.22 179.669 1009.78 184.135L1011.68 184.751L1013.58 185.366C1015.16 180.494 1015.95 175.444 1015.95 170.227H1013.95ZM1011.68 184.751L1009.77 184.153C1008.4 188.517 1006.33 192.371 1003.55 195.734L1005.09 197.008L1006.63 198.283C1009.75 194.504 1012.07 190.187 1013.59 185.349L1011.68 184.751ZM1005.09 197.008L1003.55 195.734C1000.79 199.072 997.345 201.747 993.194 203.758L994.066 205.558L994.938 207.358C999.577 205.111 1003.48 202.087 1006.63 198.283L1005.09 197.008ZM994.066 205.558L993.217 203.747C989.136 205.66 984.32 206.648 978.718 206.648V208.648V210.648C984.79 210.648 990.206 209.576 994.915 207.369L994.066 205.558ZM978.718 208.648V206.648C973.116 206.648 968.3 205.66 964.219 203.747L963.37 205.558L962.521 207.369C967.23 209.576 972.646 210.648 978.718 210.648V208.648ZM963.37 205.558L964.242 203.758C960.091 201.747 956.65 199.072 953.89 195.734L952.348 197.008L950.807 198.283C953.953 202.087 957.859 205.111 962.498 207.358L963.37 205.558ZM952.348 197.008L953.89 195.734C951.103 192.364 948.99 188.501 947.553 184.127L945.653 184.751L943.753 185.375C945.338 190.202 947.688 194.511 950.807 198.283L952.348 197.008ZM945.653 184.751L947.564 184.161C946.182 179.687 945.49 175.045 945.49 170.227H943.49H941.49C941.49 175.435 942.239 180.475 943.742 185.341L945.653 184.751ZM1042.56 141.694H1044.56V139.694H1042.56V141.694ZM1018.04 141.694H1016.04V143.694H1018.04V141.694ZM1018.04 133.454V131.454H1016.04V133.454H1018.04ZM1076.86 133.454H1078.86V131.454H1076.86V133.454ZM1076.86 141.694V143.694H1078.86V141.694H1076.86ZM1052.34 141.694V139.694H1050.34V141.694H1052.34ZM1052.34 207V209H1054.34V207H1052.34ZM1042.56 207H1040.56V209H1042.56V207ZM1042.56 141.694V139.694H1018.04V141.694V143.694H1042.56V141.694ZM1018.04 141.694H1020.04V133.454H1018.04H1016.04V141.694H1018.04ZM1018.04 133.454V135.454H1076.86V133.454V131.454H1018.04V133.454ZM1076.86 133.454H1074.86V141.694H1076.86H1078.86V133.454H1076.86ZM1076.86 141.694V139.694H1052.34V141.694V143.694H1076.86V141.694ZM1052.34 141.694H1050.34V207H1052.34H1054.34V141.694H1052.34ZM1052.34 207V205H1042.56V207V209H1052.34V207ZM1042.56 207H1044.56V141.694H1042.56H1040.56V207H1042.56Z" fill="#0073FF" mask="url(#path-3-outside-1_98_6027)"/>
</svg>
