<svg width="296" height="299" viewBox="0 0 296 299" fill="none" xmlns="http://www.w3.org/2000/svg">
<path d="M97.2322 55.1778C117.647 43.4387 144.255 39.3282 168.779 43.4282C193.304 47.5283 215.228 59.7312 226.9 80.0285C238.73 100.602 243.318 135.087 239.534 167.703C237.651 183.938 233.715 199.483 227.727 212.385C221.725 225.315 213.788 235.331 204.048 240.932C194.293 246.542 181.328 248.531 166.656 247.457C152.026 246.387 136.007 242.291 120.436 236.082C89.1252 223.597 60.5406 202.954 48.7593 182.466C37.155 162.286 38.6981 136.596 48.6812 112.574C58.6541 88.5768 76.7932 66.9311 97.2322 55.1778Z" fill="#0073FF" stroke="white" stroke-width="7.259"/>
<path d="M179.934 109.628C184.904 106.77 191.358 108.506 194.312 113.642C197.265 118.779 195.52 125.231 190.55 128.089C185.579 130.947 179.125 129.211 176.171 124.074C173.218 118.937 174.963 112.486 179.934 109.628Z" fill="white" stroke="white" stroke-width="7.259"/>
<path d="M101.117 154.95C106.088 152.092 112.541 153.828 115.495 158.965C118.449 164.101 116.704 170.553 111.733 173.411C106.762 176.27 100.309 174.533 97.3548 169.396C94.4011 164.259 96.1465 157.808 101.117 154.95Z" fill="white" stroke="white" stroke-width="7.259"/>
<mask id="path-4-inside-1_73_5468" fill="white">
<path d="M102.843 145.631C99.554 147.522 96.6528 149.823 94.1389 152.533C91.625 155.244 89.4858 158.232 87.7214 161.498C85.957 164.763 84.5685 168.243 83.5559 171.937C82.5352 175.66 81.8533 179.467 81.5103 183.357L89.7729 183.804C90.2723 180.406 90.9734 177.182 91.8763 174.133C92.7601 171.096 93.907 168.274 95.3169 165.667C96.7378 163.079 98.4231 160.731 100.373 158.624C102.334 156.535 104.616 154.742 107.22 153.244C109.825 151.747 112.454 150.602 115.109 149.808C117.775 149.034 120.501 148.605 123.286 148.521C126.07 148.438 128.939 148.698 131.892 149.302C134.825 149.917 137.886 150.863 141.075 152.141L144.845 144.775C141.31 143.114 137.745 141.863 134.15 141.022C130.585 140.188 127.03 139.791 123.486 139.831C119.934 139.901 116.433 140.409 112.981 141.357C109.511 142.315 106.131 143.74 102.843 145.631Z"/>
</mask>
<path d="M102.843 145.631C99.554 147.522 96.6528 149.823 94.1389 152.533C91.625 155.244 89.4858 158.232 87.7214 161.498C85.957 164.763 84.5685 168.243 83.5559 171.937C82.5352 175.66 81.8533 179.467 81.5103 183.357L89.7729 183.804C90.2723 180.406 90.9734 177.182 91.8763 174.133C92.7601 171.096 93.907 168.274 95.3169 165.667C96.7378 163.079 98.4231 160.731 100.373 158.624C102.334 156.535 104.616 154.742 107.22 153.244C109.825 151.747 112.454 150.602 115.109 149.808C117.775 149.034 120.501 148.605 123.286 148.521C126.07 148.438 128.939 148.698 131.892 149.302C134.825 149.917 137.886 150.863 141.075 152.141L144.845 144.775C141.31 143.114 137.745 141.863 134.15 141.022C130.585 140.188 127.03 139.791 123.486 139.831C119.934 139.901 116.433 140.409 112.981 141.357C109.511 142.315 106.131 143.74 102.843 145.631Z" fill="white"/>
<path d="M94.1389 152.533L88.8168 147.597L94.1389 152.533ZM83.5559 171.937L76.5551 170.018L76.5552 170.017L83.5559 171.937ZM81.5103 183.357L81.1185 190.606L73.6198 190.2L74.2794 182.72L81.5103 183.357ZM89.7729 183.804L96.9548 184.859L95.9923 191.41L89.3811 191.052L89.7729 183.804ZM91.8763 174.133L98.8462 176.161L98.8414 176.178L98.8364 176.195L91.8763 174.133ZM95.3169 165.667L88.9321 162.213L88.943 162.193L88.954 162.173L95.3169 165.667ZM100.373 158.624L95.0443 153.694L95.0623 153.675L95.0805 153.656L100.373 158.624ZM115.109 149.808L113.031 142.853L113.058 142.845L113.085 142.837L115.109 149.808ZM131.892 149.302L133.346 142.19L133.364 142.193L133.381 142.197L131.892 149.302ZM141.075 152.141L147.537 155.448L144.52 161.342L138.374 158.879L141.075 152.141ZM144.845 144.775L147.931 138.204L154.728 141.397L151.307 148.082L144.845 144.775ZM134.15 141.022L135.802 133.953L135.804 133.954L134.15 141.022ZM123.486 139.831L123.344 132.573L123.375 132.573L123.405 132.573L123.486 139.831ZM112.981 141.357L111.048 134.36L111.059 134.357L112.981 141.357ZM102.843 145.631L106.461 151.924C103.789 153.461 101.466 155.309 99.461 157.47L94.1389 152.533L88.8168 147.597C91.84 144.338 95.3193 141.584 99.2239 139.339L102.843 145.631ZM94.1389 152.533L99.461 157.47C97.3648 159.73 95.5828 162.218 94.1079 164.948L87.7214 161.498L81.3349 158.047C83.3889 154.245 85.8851 150.758 88.8168 147.597L94.1389 152.533ZM87.7214 161.498L94.1079 164.948C92.6139 167.713 91.4279 170.678 90.5565 173.856L83.5559 171.937L76.5552 170.017C77.709 165.809 79.3 161.814 81.3349 158.047L87.7214 161.498ZM83.5559 171.937L90.5566 173.856C89.6522 177.155 89.0465 180.533 88.7413 183.995L81.5103 183.357L74.2794 182.72C74.6601 178.401 75.4182 174.165 76.5551 170.018L83.5559 171.937ZM81.5103 183.357L81.9022 176.109L90.1648 176.556L89.7729 183.804L89.3811 191.052L81.1185 190.606L81.5103 183.357ZM89.7729 183.804L82.5911 182.749C83.1365 179.037 83.9082 175.475 84.9161 172.072L91.8763 174.133L98.8364 176.195C98.0386 178.889 97.4081 181.774 96.9548 184.859L89.7729 183.804ZM91.8763 174.133L84.9063 172.105C85.9244 168.606 87.2612 165.302 88.9321 162.213L95.3169 165.667L101.702 169.12C100.553 171.245 99.5958 173.585 98.8462 176.161L91.8763 174.133ZM95.3169 165.667L88.954 162.173C90.6517 159.081 92.6813 156.249 95.0443 153.694L100.373 158.624L105.701 163.553C104.165 165.214 102.824 167.077 101.68 169.161L95.3169 165.667ZM100.373 158.624L95.0805 153.656C97.5542 151.02 100.408 148.788 103.602 146.952L107.22 153.244L110.839 159.537C108.825 160.696 107.113 162.05 105.665 163.592L100.373 158.624ZM107.22 153.244L103.602 146.952C106.652 145.198 109.796 143.82 113.031 142.853L115.109 149.808L117.187 156.764C115.112 157.383 112.997 158.296 110.839 159.537L107.22 153.244ZM115.109 149.808L113.085 142.837C116.341 141.892 119.673 141.368 123.067 141.266L123.286 148.521L123.504 155.777C121.328 155.842 119.21 156.176 117.134 156.779L115.109 149.808ZM123.286 148.521L123.067 141.266C126.457 141.164 129.888 141.483 133.346 142.19L131.892 149.302L130.437 156.413C127.99 155.913 125.684 155.712 123.504 155.777L123.286 148.521ZM131.892 149.302L133.381 142.197C136.783 142.91 140.25 143.99 143.775 145.403L141.075 152.141L138.374 158.879C135.523 157.736 132.868 156.923 130.403 156.406L131.892 149.302ZM141.075 152.141L134.613 148.833L138.383 141.467L144.845 144.775L151.307 148.082L147.537 155.448L141.075 152.141ZM144.845 144.775L141.759 151.345C138.656 149.888 135.57 148.809 132.495 148.09L134.15 141.022L135.804 133.954C139.92 134.917 143.964 136.341 147.931 138.204L144.845 144.775ZM134.15 141.022L132.497 148.09C129.481 147.385 126.509 147.057 123.567 147.09L123.486 139.831L123.405 132.573C127.552 132.526 131.688 132.992 135.802 133.953L134.15 141.022ZM123.486 139.831L123.628 147.089C120.683 147.146 117.779 147.567 114.903 148.357L112.981 141.357L111.059 134.357C115.087 133.251 119.186 132.655 123.344 132.573L123.486 139.831ZM112.981 141.357L114.914 148.354C112.063 149.141 109.248 150.322 106.461 151.924L102.843 145.631L99.2239 139.339C103.014 137.159 106.958 135.49 111.048 134.36L112.981 141.357Z" fill="white" mask="url(#path-4-inside-1_73_5468)"/>
<mask id="path-6-inside-2_73_5468" fill="white">
<path d="M181.662 100.31C178.373 102.201 175.472 104.502 172.958 107.212C170.444 109.922 168.305 112.911 166.541 116.176C164.776 119.442 163.388 122.922 162.375 126.615C161.355 130.339 160.673 134.146 160.33 138.036L168.592 138.483C169.092 135.084 169.793 131.861 170.696 128.812C171.579 125.774 172.726 122.952 174.136 120.346C175.557 117.758 177.242 115.41 179.192 113.302C181.153 111.214 183.435 109.421 186.04 107.923C188.644 106.426 191.274 105.28 193.929 104.487C196.595 103.713 199.32 103.284 202.105 103.2C204.89 103.116 207.758 103.376 210.711 103.98C213.645 104.595 216.706 105.542 219.894 106.819L223.664 99.4534C220.129 97.7931 216.564 96.5421 212.969 95.7006C209.404 94.8672 205.849 94.4702 202.306 94.5098C198.754 94.5793 195.252 95.0879 191.801 96.0356C188.33 96.9942 184.95 98.4191 181.662 100.31Z"/>
</mask>
<path d="M181.662 100.31C178.373 102.201 175.472 104.502 172.958 107.212C170.444 109.922 168.305 112.911 166.541 116.176C164.776 119.442 163.388 122.922 162.375 126.615C161.355 130.339 160.673 134.146 160.33 138.036L168.592 138.483C169.092 135.084 169.793 131.861 170.696 128.812C171.579 125.774 172.726 122.952 174.136 120.346C175.557 117.758 177.242 115.41 179.192 113.302C181.153 111.214 183.435 109.421 186.04 107.923C188.644 106.426 191.274 105.28 193.929 104.487C196.595 103.713 199.32 103.284 202.105 103.2C204.89 103.116 207.758 103.376 210.711 103.98C213.645 104.595 216.706 105.542 219.894 106.819L223.664 99.4534C220.129 97.7931 216.564 96.5421 212.969 95.7006C209.404 94.8672 205.849 94.4702 202.306 94.5098C198.754 94.5793 195.252 95.0879 191.801 96.0356C188.33 96.9942 184.95 98.4191 181.662 100.31Z" fill="white"/>
<path d="M172.958 107.212L167.636 102.276L172.958 107.212ZM162.375 126.615L155.374 124.696L155.375 124.696L162.375 126.615ZM160.33 138.036L159.938 145.284L152.439 144.879L153.099 137.398L160.33 138.036ZM168.592 138.483L175.774 139.538L174.812 146.088L168.2 145.731L168.592 138.483ZM170.696 128.812L177.666 130.84L177.661 130.857L177.656 130.873L170.696 128.812ZM174.136 120.346L167.751 116.892L167.762 116.872L167.773 116.852L174.136 120.346ZM179.192 113.302L173.864 108.373L173.882 108.354L173.9 108.334L179.192 113.302ZM193.929 104.487L191.851 97.5318L191.877 97.5238L191.904 97.516L193.929 104.487ZM210.711 103.98L212.166 96.8686L212.183 96.8721L212.2 96.8757L210.711 103.98ZM219.894 106.819L226.356 110.127L223.339 116.02L217.194 113.557L219.894 106.819ZM223.664 99.4534L226.75 92.8831L233.547 96.0758L230.126 102.761L223.664 99.4534ZM212.969 95.7006L214.622 88.6322L214.624 88.6327L212.969 95.7006ZM202.306 94.5098L202.164 87.2522L202.194 87.2516L202.225 87.2512L202.306 94.5098ZM191.801 96.0356L189.868 89.0386L189.879 89.0356L191.801 96.0356ZM181.662 100.31L185.28 106.603C182.608 108.14 180.285 109.987 178.28 112.149L172.958 107.212L167.636 102.276C170.659 99.0162 174.139 96.2626 178.043 94.0173L181.662 100.31ZM172.958 107.212L178.28 112.149C176.184 114.408 174.402 116.897 172.927 119.627L166.541 116.176L160.154 112.726C162.208 108.924 164.704 105.436 167.636 102.276L172.958 107.212ZM166.541 116.176L172.927 119.627C171.433 122.392 170.247 125.356 169.376 128.535L162.375 126.615L155.375 124.696C156.528 120.487 158.119 116.492 160.154 112.726L166.541 116.176ZM162.375 126.615L169.376 128.534C168.472 131.834 167.866 135.211 167.561 138.673L160.33 138.036L153.099 137.398C153.479 133.08 154.237 128.844 155.374 124.696L162.375 126.615ZM160.33 138.036L160.722 130.788L168.984 131.234L168.592 138.483L168.2 145.731L159.938 145.284L160.33 138.036ZM168.592 138.483L161.41 137.427C161.956 133.716 162.728 130.154 163.735 126.751L170.696 128.812L177.656 130.873C176.858 133.567 176.227 136.453 175.774 139.538L168.592 138.483ZM170.696 128.812L163.726 126.784C164.744 123.285 166.081 119.981 167.751 116.892L174.136 120.346L180.521 123.799C179.372 125.923 178.415 128.264 177.666 130.84L170.696 128.812ZM174.136 120.346L167.773 116.852C169.471 113.76 171.501 110.927 173.864 108.373L179.192 113.302L184.521 118.232C182.984 119.893 181.643 121.756 180.499 123.839L174.136 120.346ZM179.192 113.302L173.9 108.334C176.374 105.699 179.227 103.467 182.421 101.63L186.04 107.923L189.658 114.216C187.644 115.374 185.932 116.728 184.485 118.271L179.192 113.302ZM186.04 107.923L182.421 101.63C185.471 99.8765 188.615 98.4984 191.851 97.5318L193.929 104.487L196.007 111.442C193.932 112.062 191.817 112.975 189.658 114.216L186.04 107.923ZM193.929 104.487L191.904 97.516C195.16 96.5705 198.492 96.0464 201.887 95.9443L202.105 103.2L202.323 110.456C200.148 110.521 198.029 110.855 195.953 111.458L193.929 104.487ZM202.105 103.2L201.887 95.9443C205.277 95.8424 208.707 96.1613 212.166 96.8686L210.711 103.98L209.256 111.092C206.81 110.592 204.503 110.39 202.323 110.456L202.105 103.2ZM210.711 103.98L212.2 96.8757C215.602 97.5888 219.069 98.6685 222.594 100.081L219.894 106.819L217.194 113.557C214.342 112.415 211.687 111.602 209.222 111.085L210.711 103.98ZM219.894 106.819L213.432 103.512L217.202 96.1461L223.664 99.4534L230.126 102.761L226.356 110.127L219.894 106.819ZM223.664 99.4534L220.578 106.024C217.475 104.566 214.389 103.488 211.315 102.769L212.969 95.7006L214.624 88.6327C218.74 89.5961 222.783 91.0197 226.75 92.8831L223.664 99.4534ZM212.969 95.7006L211.317 102.769C208.301 102.064 205.328 101.735 202.387 101.768L202.306 94.5098L202.225 87.2512C206.371 87.2049 210.507 87.6703 214.622 88.6322L212.969 95.7006ZM202.306 94.5098L202.448 101.767C199.502 101.825 196.598 102.246 193.723 103.035L191.801 96.0356L189.879 89.0356C193.906 87.9298 198.006 87.3335 202.164 87.2522L202.306 94.5098ZM191.801 96.0356L193.733 103.033C190.883 103.82 188.067 105 185.28 106.603L181.662 100.31L178.043 94.0173C181.833 91.8378 185.777 90.1685 189.868 89.0386L191.801 96.0356Z" fill="white" mask="url(#path-6-inside-2_73_5468)"/>
<mask id="path-8-inside-3_73_5468" fill="white">
<path d="M187.214 204.743C183.621 206.808 180.087 208.119 176.613 208.676C173.139 209.232 169.839 209.08 166.714 208.221C163.571 207.373 160.656 205.824 157.971 203.574C155.286 201.324 152.927 198.431 150.894 194.895C148.861 191.359 147.547 187.865 146.953 184.413C146.359 180.96 146.486 177.662 147.334 174.518C148.163 171.386 149.692 168.458 151.92 165.735C154.148 163.011 157.059 160.617 160.652 158.551C164.244 156.485 167.778 155.174 171.252 154.618C174.727 154.062 178.026 154.213 181.151 155.072C184.275 155.931 187.18 157.486 189.865 159.736C192.55 161.986 194.91 164.879 196.943 168.415C198.976 171.951 200.29 175.445 200.884 178.897C201.478 182.35 201.36 185.642 200.531 188.775C199.702 191.908 198.173 194.836 195.945 197.559C193.717 200.282 190.806 202.677 187.214 204.743ZM181.987 195.72C184.421 194.321 186.383 192.763 187.874 191.045C189.354 189.309 190.381 187.466 190.955 185.517C191.51 183.579 191.623 181.554 191.294 179.441C190.945 177.34 190.148 175.206 188.902 173.039C187.656 170.872 186.212 169.109 184.571 167.751C182.911 166.404 181.104 165.483 179.15 164.987C177.177 164.503 175.073 164.474 172.839 164.898C170.593 165.304 168.254 166.207 165.821 167.606C163.406 168.994 161.469 170.551 160.008 172.277C158.516 173.994 157.484 175.828 156.91 177.777C156.336 179.725 156.223 181.751 156.571 183.852C156.901 185.964 157.688 188.104 158.935 190.271C160.181 192.438 161.634 194.195 163.294 195.543C164.935 196.901 166.742 197.822 168.715 198.306C170.688 198.79 172.797 198.829 175.043 198.424C177.258 198.01 179.573 197.108 181.987 195.72Z"/>
</mask>
<path d="M187.214 204.743C183.621 206.808 180.087 208.119 176.613 208.676C173.139 209.232 169.839 209.08 166.714 208.221C163.571 207.373 160.656 205.824 157.971 203.574C155.286 201.324 152.927 198.431 150.894 194.895C148.861 191.359 147.547 187.865 146.953 184.413C146.359 180.96 146.486 177.662 147.334 174.518C148.163 171.386 149.692 168.458 151.92 165.735C154.148 163.011 157.059 160.617 160.652 158.551C164.244 156.485 167.778 155.174 171.252 154.618C174.727 154.062 178.026 154.213 181.151 155.072C184.275 155.931 187.18 157.486 189.865 159.736C192.55 161.986 194.91 164.879 196.943 168.415C198.976 171.951 200.29 175.445 200.884 178.897C201.478 182.35 201.36 185.642 200.531 188.775C199.702 191.908 198.173 194.836 195.945 197.559C193.717 200.282 190.806 202.677 187.214 204.743ZM181.987 195.72C184.421 194.321 186.383 192.763 187.874 191.045C189.354 189.309 190.381 187.466 190.955 185.517C191.51 183.579 191.623 181.554 191.294 179.441C190.945 177.34 190.148 175.206 188.902 173.039C187.656 170.872 186.212 169.109 184.571 167.751C182.911 166.404 181.104 165.483 179.15 164.987C177.177 164.503 175.073 164.474 172.839 164.898C170.593 165.304 168.254 166.207 165.821 167.606C163.406 168.994 161.469 170.551 160.008 172.277C158.516 173.994 157.484 175.828 156.91 177.777C156.336 179.725 156.223 181.751 156.571 183.852C156.901 185.964 157.688 188.104 158.935 190.271C160.181 192.438 161.634 194.195 163.294 195.543C164.935 196.901 166.742 197.822 168.715 198.306C170.688 198.79 172.797 198.829 175.043 198.424C177.258 198.01 179.573 197.108 181.987 195.72Z" fill="white"/>
<path d="M166.714 208.221L168.639 201.222L168.622 201.217L168.605 201.213L166.714 208.221ZM147.334 174.518L154.342 176.409L154.347 176.393L154.351 176.376L147.334 174.518ZM181.151 155.072L179.226 162.072L181.151 155.072ZM187.874 191.045L193.355 195.804L193.377 195.779L193.398 195.754L187.874 191.045ZM190.955 185.517L197.919 187.568L197.926 187.542L197.934 187.515L190.955 185.517ZM191.294 179.441L198.466 178.323L198.461 178.289L198.455 178.254L191.294 179.441ZM184.571 167.751L189.2 162.159L189.173 162.137L189.146 162.115L184.571 167.751ZM179.15 164.987L180.933 157.951L180.906 157.944L180.88 157.938L179.15 164.987ZM172.839 164.898L174.13 172.042L174.162 172.036L174.195 172.03L172.839 164.898ZM160.008 172.277L165.489 177.036L165.518 177.002L165.547 176.968L160.008 172.277ZM156.571 183.852L163.744 182.734L163.738 182.699L163.732 182.665L156.571 183.852ZM163.294 195.543L167.922 189.95L167.895 189.928L167.868 189.906L163.294 195.543ZM175.043 198.424L176.334 205.567L176.355 205.563L176.376 205.559L175.043 198.424ZM187.214 204.743L183.595 198.45C180.633 200.153 177.93 201.113 175.466 201.508L176.613 208.676L177.76 215.843C182.244 215.126 186.609 213.464 190.832 211.035L187.214 204.743ZM176.613 208.676L175.466 201.508C172.926 201.914 170.68 201.783 168.639 201.222L166.714 208.221L164.79 215.22C168.998 216.377 173.351 216.549 177.76 215.843L176.613 208.676ZM166.714 208.221L168.605 201.213C166.555 200.66 164.573 199.635 162.634 198.01L157.971 203.574L153.309 209.137C156.739 212.012 160.586 214.086 164.823 215.23L166.714 208.221ZM157.971 203.574L162.634 198.01C160.7 196.389 158.863 194.192 157.187 191.276L150.894 194.895L144.601 198.514C146.991 202.669 149.873 206.258 153.309 209.137L157.971 203.574ZM150.894 194.895L157.187 191.276C155.51 188.361 154.535 185.668 154.107 183.182L146.953 184.413L139.799 185.644C140.559 190.062 142.211 194.358 144.601 198.514L150.894 194.895ZM146.953 184.413L154.107 183.182C153.678 180.688 153.789 178.459 154.342 176.409L147.334 174.518L140.326 172.627C139.182 176.865 139.04 181.233 139.799 185.644L146.953 184.413ZM147.334 174.518L154.351 176.376C154.893 174.329 155.909 172.322 157.538 170.332L151.92 165.735L146.302 161.138C143.474 164.594 141.433 168.442 140.317 172.661L147.334 174.518ZM151.92 165.735L157.538 170.332C159.119 168.4 161.308 166.547 164.27 164.844L160.652 158.551L157.033 152.258C152.809 154.687 149.178 157.623 146.302 161.138L151.92 165.735ZM160.652 158.551L164.27 164.844C167.232 163.14 169.935 162.18 172.399 161.786L171.252 154.618L170.105 147.45C165.621 148.168 161.256 149.83 157.033 152.258L160.652 158.551ZM171.252 154.618L172.399 161.786C174.939 161.379 177.185 161.51 179.226 162.072L181.151 155.072L183.075 148.073C178.867 146.916 174.514 146.744 170.105 147.45L171.252 154.618ZM181.151 155.072L179.226 162.072C181.266 162.633 183.251 163.664 185.203 165.3L189.865 159.736L194.528 154.173C191.109 151.308 187.284 149.23 183.075 148.073L181.151 155.072ZM189.865 159.736L185.203 165.3C187.137 166.921 188.973 169.118 190.65 172.034L196.943 168.415L203.236 164.796C200.846 160.641 197.964 157.052 194.528 154.173L189.865 159.736ZM196.943 168.415L190.65 172.034C192.327 174.949 193.302 177.642 193.73 180.128L200.884 178.897L208.038 177.666C207.277 173.248 205.625 168.952 203.236 164.796L196.943 168.415ZM200.884 178.897L193.73 180.128C194.162 182.638 194.055 184.872 193.514 186.918L200.531 188.775L207.548 190.632C208.665 186.412 208.794 182.062 208.038 177.666L200.884 178.897ZM200.531 188.775L193.514 186.918C192.972 188.964 191.956 190.972 190.327 192.962L195.945 197.559L201.563 202.156C204.391 198.7 206.432 194.852 207.548 190.632L200.531 188.775ZM195.945 197.559L190.327 192.962C188.746 194.894 186.557 196.747 183.595 198.45L187.214 204.743L190.832 211.035C195.056 208.607 198.687 205.67 201.563 202.156L195.945 197.559ZM181.987 195.72L185.606 202.013C188.583 200.301 191.225 198.257 193.355 195.804L187.874 191.045L182.393 186.286C181.54 187.268 180.258 188.341 178.369 189.427L181.987 195.72ZM187.874 191.045L193.398 195.754C195.458 193.338 197.023 190.608 197.919 187.568L190.955 185.517L183.992 183.466C183.739 184.324 183.251 185.279 182.35 186.336L187.874 191.045ZM190.955 185.517L197.934 187.515C198.796 184.504 198.948 181.412 198.466 178.323L191.294 179.441L184.121 180.56C184.299 181.696 184.225 182.654 183.977 183.518L190.955 185.517ZM191.294 179.441L198.455 178.254C197.942 175.162 196.8 172.211 195.195 169.42L188.902 173.039L182.609 176.657C183.496 178.2 183.948 179.517 184.133 180.629L191.294 179.441ZM188.902 173.039L195.195 169.42C193.59 166.629 191.614 164.157 189.2 162.159L184.571 167.751L179.943 173.343C180.811 174.061 181.722 175.114 182.609 176.657L188.902 173.039ZM184.571 167.751L189.146 162.115C186.718 160.145 183.969 158.72 180.933 157.951L179.15 164.987L177.367 172.024C178.239 172.245 179.104 172.663 179.997 173.387L184.571 167.751ZM179.15 164.987L180.88 157.938C177.781 157.177 174.617 157.171 171.482 157.767L172.839 164.898L174.195 172.03C175.529 171.776 176.573 171.829 177.42 172.037L179.15 164.987ZM172.839 164.898L171.547 157.755C168.319 158.339 165.196 159.591 162.202 161.313L165.821 167.606L169.439 173.899C171.311 172.822 172.867 172.27 174.13 172.042L172.839 164.898ZM165.821 167.606L162.202 161.313C159.222 163.027 156.581 165.09 154.468 167.586L160.008 172.277L165.547 176.968C166.356 176.012 167.591 174.962 169.439 173.899L165.821 167.606ZM160.008 172.277L154.526 167.518C152.434 169.927 150.848 172.665 149.946 175.726L156.91 177.777L163.873 179.827C164.119 178.99 164.598 178.062 165.489 177.036L160.008 172.277ZM156.91 177.777L149.946 175.726C149.048 178.776 148.891 181.911 149.41 185.039L156.571 183.852L163.732 182.665C163.554 181.59 163.623 180.675 163.873 179.827L156.91 177.777ZM156.571 183.852L149.399 184.971C149.887 188.099 151.025 191.079 152.642 193.89L158.935 190.271L165.227 186.653C164.351 185.13 163.915 183.83 163.744 182.734L156.571 183.852ZM158.935 190.271L152.642 193.89C154.258 196.701 156.261 199.184 158.719 201.179L163.294 195.543L167.868 189.906C167.006 189.207 166.103 188.176 165.227 186.653L158.935 190.271ZM163.294 195.543L158.665 201.135C161.108 203.156 163.896 204.598 166.985 205.356L168.715 198.306L170.445 191.256C169.587 191.046 168.761 190.645 167.922 189.95L163.294 195.543ZM168.715 198.306L166.985 205.356C170.063 206.111 173.21 206.132 176.334 205.567L175.043 198.424L173.752 191.28C172.385 191.527 171.314 191.469 170.445 191.256L168.715 198.306ZM175.043 198.424L176.376 205.559C179.559 204.964 182.644 203.716 185.606 202.013L181.987 195.72L178.369 189.427C176.503 190.5 174.957 191.055 173.71 191.288L175.043 198.424Z" fill="white" mask="url(#path-8-inside-3_73_5468)"/>
</svg>
