<svg width="417" height="311" viewBox="0 0 417 311" fill="none" xmlns="http://www.w3.org/2000/svg">
<path d="M267.841 202.535L206.658 184.534L164.393 172.864L133.689 164.773L100.029 155.703C85.0584 150.713 77.1404 147.176 63.4772 140.12C53.6152 133.97 49.1054 129.765 42.4158 121.214C35.2887 110.581 32.5992 104.672 30.0166 94.4496C27.7118 78.6573 27.305 70.1104 31.3127 56.4459C36.5885 42.8926 40.5537 35.5751 53.457 24.0882C64.5738 14.4898 72.547 11.8588 87.6798 8.60676C102.119 7.23091 110.206 7.95897 124.554 14.0725C141.096 21.251 146.411 26.7485 154.337 37.1308L165.291 60.6394L169.858 93.5177L172.831 124.353C173.048 127.381 172.958 129.008 171.934 131.629C167.965 133.894 165.52 134.885 160.651 135.779C156.763 136.273 154.723 136.147 151.141 135.531L144.28 133.762L134.652 67.0202C131.349 58.494 128.894 54.2925 121.814 48.8192C113.188 43.4363 108.661 41.8946 101.189 41.3543C89.709 42.3726 84.6828 43.8495 77.0657 47.3078C69.8099 52.5361 66.8822 55.8484 63.7944 62.6003C59.499 71.4763 59.0522 77.0773 60.6947 87.7632C63.8252 96.3379 66.2445 100.583 71.868 106.99C78.1004 111.638 81.846 114.099 89.2783 118.06L105.355 124.965L280.863 174.284" stroke="white" stroke-width="6.3035"/>
<path d="M312.514 182.184L353.609 195.864C367.772 203.025 373.887 208.886 382.071 222.145C387.499 236.705 389.601 245.019 390.286 260.397C389.524 274.671 387.471 282.491 381.634 295.648C373.794 309.249 368.369 314.465 358.04 322.287C344.226 330.256 335.972 332.699 320.553 334.289C308.332 335.912 299.751 333.265 290.236 330.554C280.721 327.843 269.034 317.786 269.034 317.786C262.467 311.013 257.9 307.283 254.642 299.701C251.298 292.273 250.776 288.016 248.623 281.109C248.623 281.109 247.777 271.872 248.027 265.955C248.394 257.299 250.942 243.463 250.828 243.217L265.842 206.288L308.608 116.456L312.723 108.037C316.074 107.662 317.948 107.788 321.211 109.083C325.75 110.8 328.158 111.902 331.943 114.406C335.085 116.238 336.626 117.477 338.924 120.19L306.738 194.091L283.118 248.426C281.035 254.317 280.158 257.735 279.622 264.307C279.623 270.357 280.283 273.717 282.037 279.685C284.33 285.11 286.421 287.639 291.037 291.566C295.488 295.891 298.417 297.75 304.465 299.991C311.695 301.503 315.619 301.767 322.501 300.982C333.982 298.63 339.685 295.87 348.431 287.864C353.802 282.146 356.199 278.41 358.628 270.039C361.08 261.159 361.094 256.296 359.536 247.683C358.155 239.277 356.202 235.081 350.825 228.452C344.473 222.887 341.11 219.19 331.176 215.567C319.833 211.371 312.004 210.26 301.42 207.285" stroke="white" stroke-width="6.3035"/>
</svg>
